G04 #@! TF.FileFunction,Soldermask,Top*
%FSLAX46Y46*%
G04 Gerber Fmt 4.6, Leading zero omitted, Abs format (unit mm)*
G04 Created by KiCad (PCBNEW 4.0.4+e1-6308~48~ubuntu14.04.1-stable) date Tue Dec 13 19:25:01 2016*
%MOMM*%
%LPD*%
G01*
G04 APERTURE LIST*
%ADD10C,0.100000*%
%ADD11R,1.727200X2.032000*%
%ADD12O,1.727200X2.032000*%
%ADD13R,0.650240X3.599180*%
%ADD14R,0.650240X4.599940*%
%ADD15O,0.650240X0.650240*%
%ADD16R,2.032000X1.727200*%
%ADD17O,2.032000X1.727200*%
%ADD18C,0.254000*%
G04 APERTURE END LIST*
D10*
D11*
X128760000Y-71900000D03*
D12*
X131300000Y-71900000D03*
X133840000Y-71900000D03*
D13*
X159499600Y-99499620D03*
D14*
X158498840Y-100000000D03*
X157500620Y-100000000D03*
X156499860Y-100000000D03*
X155499100Y-100000000D03*
X154500880Y-100000000D03*
X153500120Y-100000000D03*
X152499360Y-100000000D03*
X151501140Y-100000000D03*
X150500380Y-100000000D03*
X149499620Y-100000000D03*
X144500900Y-100000000D03*
X143500140Y-100000000D03*
X142499380Y-100000000D03*
X141501160Y-100000000D03*
X140500400Y-100000000D03*
X146499880Y-100000000D03*
X145499120Y-100000000D03*
D15*
X156499860Y-102301240D03*
X155499100Y-102301240D03*
X154500880Y-102301240D03*
X153500120Y-102301240D03*
X152499360Y-102301240D03*
X151501140Y-102301240D03*
X150500380Y-102301240D03*
X144500900Y-102301240D03*
X143500140Y-102301240D03*
X157500620Y-102301240D03*
X145499120Y-102301240D03*
X142499380Y-102301240D03*
X149499620Y-102301240D03*
X146499880Y-102301240D03*
X141501160Y-102301240D03*
X140500400Y-102301240D03*
X158498840Y-102301240D03*
D16*
X163000000Y-91310000D03*
D17*
X163000000Y-88770000D03*
X163000000Y-86230000D03*
X163000000Y-83690000D03*
D16*
X163000000Y-79810000D03*
D17*
X163000000Y-77270000D03*
X163000000Y-74730000D03*
X163000000Y-72190000D03*
D16*
X152500000Y-77270000D03*
D17*
X152500000Y-74730000D03*
X152500000Y-72190000D03*
D16*
X157000000Y-79810000D03*
D17*
X157000000Y-77270000D03*
X157000000Y-74730000D03*
X157000000Y-72190000D03*
D16*
X152500000Y-88770000D03*
D17*
X152500000Y-86230000D03*
X152500000Y-83690000D03*
D16*
X157000000Y-91310000D03*
D17*
X157000000Y-88770000D03*
X157000000Y-86230000D03*
X157000000Y-83690000D03*
D18*
G36*
X160023000Y-103298000D02*
X139977000Y-103298000D01*
X139977000Y-97602000D01*
X160023000Y-97602000D01*
X160023000Y-103298000D01*
X160023000Y-103298000D01*
G37*
X160023000Y-103298000D02*
X139977000Y-103298000D01*
X139977000Y-97602000D01*
X160023000Y-97602000D01*
X160023000Y-103298000D01*
M02*
