G04 #@! TF.FileFunction,Copper,L2,Bot,Signal*
%FSLAX46Y46*%
G04 Gerber Fmt 4.6, Leading zero omitted, Abs format (unit mm)*
G04 Created by KiCad (PCBNEW 4.0.6-e0-6349~53~ubuntu14.04.1) date Thu Apr 27 12:47:03 2017*
%MOMM*%
%LPD*%
G01*
G04 APERTURE LIST*
%ADD10C,0.100000*%
%ADD11C,0.650240*%
%ADD12R,0.650240X4.599940*%
%ADD13R,0.650240X3.599180*%
%ADD14R,1.750000X0.450000*%
%ADD15R,0.350000X0.350000*%
%ADD16R,0.900000X0.300000*%
%ADD17R,0.300000X0.900000*%
%ADD18R,1.800000X1.800000*%
%ADD19C,0.600000*%
%ADD20R,0.787000X0.864000*%
%ADD21R,1.700000X0.900000*%
%ADD22R,2.032000X1.727200*%
%ADD23O,2.032000X1.727200*%
%ADD24C,0.150000*%
%ADD25C,0.300000*%
%ADD26C,0.200000*%
%ADD27C,0.254000*%
G04 APERTURE END LIST*
D10*
D11*
X140500400Y-102301240D03*
D12*
X159499600Y-100000000D03*
X158498840Y-100000000D03*
X157500620Y-100000000D03*
X156499860Y-100000000D03*
X155499100Y-100000000D03*
X154500880Y-100000000D03*
X153500120Y-100000000D03*
X152499360Y-100000000D03*
X151501140Y-100000000D03*
X150500380Y-100000000D03*
X149499620Y-100000000D03*
X144500900Y-100000000D03*
X143500140Y-100000000D03*
X142499380Y-100000000D03*
D13*
X141501160Y-99499620D03*
D12*
X140500400Y-100000000D03*
X146499880Y-100000000D03*
X145499120Y-100000000D03*
D11*
X157500620Y-102301240D03*
X156499860Y-102301240D03*
X155499100Y-102301240D03*
X154500880Y-102301240D03*
X153500120Y-102301240D03*
X152499360Y-102301240D03*
X151501140Y-102301240D03*
X150500380Y-102301240D03*
X149499620Y-102301240D03*
X159499600Y-102301240D03*
X146499880Y-102301240D03*
X145499120Y-102301240D03*
X144500900Y-102301240D03*
X143500140Y-102301240D03*
X142499380Y-102301240D03*
X158498840Y-102301240D03*
D14*
X145100000Y-82975000D03*
X145100000Y-83625000D03*
X145100000Y-84275000D03*
X145100000Y-84925000D03*
X145100000Y-85575000D03*
X145100000Y-86225000D03*
X145100000Y-86875000D03*
X145100000Y-87525000D03*
X145100000Y-88175000D03*
X145100000Y-88825000D03*
X137900000Y-88825000D03*
X137900000Y-88175000D03*
X137900000Y-87525000D03*
X137900000Y-86875000D03*
X137900000Y-86225000D03*
X137900000Y-85575000D03*
X137900000Y-84925000D03*
X137900000Y-84275000D03*
X137900000Y-83625000D03*
X137900000Y-82975000D03*
X145100000Y-71475000D03*
X145100000Y-72125000D03*
X145100000Y-72775000D03*
X145100000Y-73425000D03*
X145100000Y-74075000D03*
X145100000Y-74725000D03*
X145100000Y-75375000D03*
X145100000Y-76025000D03*
X145100000Y-76675000D03*
X145100000Y-77325000D03*
X137900000Y-77325000D03*
X137900000Y-76675000D03*
X137900000Y-76025000D03*
X137900000Y-75375000D03*
X137900000Y-74725000D03*
X137900000Y-74075000D03*
X137900000Y-73425000D03*
X137900000Y-72775000D03*
X137900000Y-72125000D03*
X137900000Y-71475000D03*
D15*
X131450000Y-77750000D03*
D16*
X131150000Y-77250000D03*
X131150000Y-76750000D03*
X131150000Y-76250000D03*
X131150000Y-75750000D03*
D15*
X131450000Y-75250000D03*
D17*
X131950000Y-74950000D03*
X132450000Y-74950000D03*
X132950000Y-74950000D03*
X133450000Y-74950000D03*
D15*
X133950000Y-75250000D03*
D16*
X134250000Y-75750000D03*
X134250000Y-76250000D03*
X134250000Y-76750000D03*
X134250000Y-77250000D03*
D15*
X133950000Y-77750000D03*
D17*
X133450000Y-78050000D03*
X132950000Y-78050000D03*
X132450000Y-78050000D03*
X131950000Y-78050000D03*
D18*
X132700000Y-76500000D03*
D19*
X132200000Y-77000000D03*
X133200000Y-76000000D03*
D20*
X128974500Y-76300000D03*
X127425500Y-76300000D03*
X151225500Y-82700000D03*
X152774500Y-82700000D03*
X151225500Y-71200000D03*
X152774500Y-71200000D03*
X151225500Y-84400000D03*
X152774500Y-84400000D03*
X151225500Y-72900000D03*
X152774500Y-72900000D03*
X145774500Y-79400000D03*
X144225500Y-79400000D03*
X145774500Y-90900000D03*
X144225500Y-90900000D03*
X128474500Y-92400000D03*
X126925500Y-92400000D03*
X132974500Y-92400000D03*
X131425500Y-92400000D03*
X131425500Y-90700000D03*
X132974500Y-90700000D03*
X128474500Y-90700000D03*
X126925500Y-90700000D03*
X128474500Y-80500000D03*
X126925500Y-80500000D03*
X128474500Y-82200000D03*
X126925500Y-82200000D03*
X128474500Y-83900000D03*
X126925500Y-83900000D03*
X128474500Y-85600000D03*
X126925500Y-85600000D03*
D21*
X148200000Y-74550000D03*
X148200000Y-77450000D03*
X148200000Y-86050000D03*
X148200000Y-88950000D03*
D20*
X128474500Y-89000000D03*
X126925500Y-89000000D03*
X128474500Y-87300000D03*
X126925500Y-87300000D03*
D22*
X167000000Y-69190000D03*
D23*
X167000000Y-71730000D03*
X167000000Y-74270000D03*
X167000000Y-76810000D03*
D22*
X167000000Y-83690000D03*
D23*
X167000000Y-86230000D03*
X167000000Y-88770000D03*
X167000000Y-91310000D03*
D22*
X157000000Y-77270000D03*
D23*
X157000000Y-74730000D03*
X157000000Y-72190000D03*
D22*
X157000000Y-88770000D03*
D23*
X157000000Y-86230000D03*
X157000000Y-83690000D03*
D19*
X129550000Y-74500000D03*
X129550000Y-89750000D03*
X159500000Y-96500000D03*
X158500000Y-96500000D03*
X157500000Y-96500000D03*
X156500000Y-96500000D03*
X155500000Y-96500000D03*
X154500000Y-96500000D03*
X153500000Y-96500000D03*
X152500000Y-96500000D03*
X136325000Y-83475000D03*
X136325000Y-84425000D03*
X136475000Y-72300000D03*
X139500000Y-72550000D03*
X136400000Y-76925000D03*
X136275000Y-87525000D03*
X127275000Y-77450000D03*
X148900000Y-92350000D03*
X130825000Y-84400000D03*
X132725000Y-73800000D03*
X131000000Y-85575000D03*
X133650000Y-73950000D03*
X130700000Y-82475000D03*
X131050000Y-74450000D03*
X131700000Y-73875000D03*
X131375000Y-83550000D03*
X133650000Y-80100000D03*
X132125000Y-87300000D03*
X133325000Y-79350000D03*
X131525000Y-89000000D03*
X130100000Y-75200000D03*
X130150000Y-92725000D03*
X143525000Y-75975000D03*
X163425000Y-75400000D03*
X147925000Y-79350000D03*
X162575000Y-77100000D03*
X143075000Y-78800000D03*
X141675000Y-72325000D03*
X161475000Y-72300000D03*
X142850000Y-75325000D03*
X143525000Y-87425000D03*
X154225000Y-88825000D03*
X149700000Y-90250000D03*
X142975000Y-89275000D03*
X141900000Y-85000000D03*
X142825000Y-86200000D03*
X135250000Y-92575000D03*
X135450000Y-70800000D03*
X135450000Y-76000000D03*
X140800000Y-80800000D03*
X140800000Y-75400000D03*
X140800000Y-86900000D03*
X136375000Y-73525000D03*
X139500000Y-81400000D03*
X139500000Y-84900000D03*
X139500000Y-73400000D03*
X146400000Y-82300000D03*
X135200000Y-85575000D03*
X135200000Y-78125000D03*
X140100000Y-82100000D03*
X140100000Y-86200000D03*
X140100000Y-74700000D03*
D24*
X128474500Y-90700000D02*
X129100000Y-90700000D01*
X131000000Y-75250000D02*
X130250000Y-74500000D01*
X130250000Y-74500000D02*
X129550000Y-74500000D01*
X131000000Y-75250000D02*
X131450000Y-75250000D01*
X129550000Y-90250000D02*
X129550000Y-89750000D01*
X129100000Y-90700000D02*
X129550000Y-90250000D01*
X128474500Y-90700000D02*
X131425500Y-90700000D01*
D25*
X157000000Y-83690000D02*
X153764500Y-83690000D01*
X153764500Y-83690000D02*
X152774500Y-82700000D01*
X152774500Y-82700000D02*
X152774500Y-84400000D01*
X157000000Y-72190000D02*
X153484500Y-72190000D01*
X153484500Y-72190000D02*
X152774500Y-71480000D01*
X152774500Y-71480000D02*
X152774500Y-72900000D01*
X159499600Y-100000000D02*
X158498840Y-100000000D01*
X152499360Y-100000000D02*
X152499360Y-96500640D01*
X157500000Y-96500000D02*
X158500000Y-96500000D01*
X155500000Y-96500000D02*
X156500000Y-96500000D01*
X153500000Y-96500000D02*
X154500000Y-96500000D01*
X152499360Y-96500640D02*
X152500000Y-96500000D01*
D24*
X137900000Y-83625000D02*
X136475000Y-83625000D01*
X136475000Y-83625000D02*
X136325000Y-83475000D01*
X137900000Y-84275000D02*
X136475000Y-84275000D01*
X136475000Y-84275000D02*
X136325000Y-84425000D01*
X137900000Y-72125000D02*
X136650000Y-72125000D01*
X136650000Y-72125000D02*
X136475000Y-72300000D01*
X137900000Y-72775000D02*
X139275000Y-72775000D01*
X139275000Y-72775000D02*
X139500000Y-72550000D01*
X137900000Y-76025000D02*
X136775000Y-76025000D01*
X136625000Y-76700000D02*
X136400000Y-76925000D01*
X136625000Y-76175000D02*
X136625000Y-76700000D01*
X136775000Y-76025000D02*
X136625000Y-76175000D01*
X137900000Y-87525000D02*
X136275000Y-87525000D01*
D25*
X127425500Y-76300000D02*
X127425500Y-77299500D01*
X127425500Y-77299500D02*
X127275000Y-77450000D01*
D24*
X131150000Y-76750000D02*
X132450000Y-76750000D01*
X132450000Y-76750000D02*
X132700000Y-76500000D01*
X134250000Y-75750000D02*
X133450000Y-75750000D01*
X133450000Y-75750000D02*
X132700000Y-76500000D01*
X159499600Y-102301240D02*
X159499600Y-100000000D01*
X158498840Y-102301240D02*
X158498840Y-100000000D01*
X157500620Y-102301240D02*
X157500620Y-100000000D01*
X156499860Y-102301240D02*
X156499860Y-100000000D01*
X155499100Y-102301240D02*
X155499100Y-100000000D01*
X154500880Y-102301240D02*
X154500880Y-100000000D01*
X153500120Y-102301240D02*
X153500120Y-100000000D01*
X152499360Y-102301240D02*
X152499360Y-100000000D01*
X151501140Y-100000000D02*
X150500380Y-100000000D01*
X150500380Y-100000000D02*
X149499620Y-100000000D01*
X151501140Y-102301240D02*
X151501140Y-100000000D01*
X150500380Y-102301240D02*
X150500380Y-100000000D01*
X149499620Y-102301240D02*
X149499620Y-100000000D01*
X134037133Y-87612867D02*
X137724262Y-91299996D01*
X137724262Y-91299996D02*
X137848526Y-91299996D01*
X144500900Y-96852368D02*
X144500900Y-93624432D01*
X144500900Y-100000000D02*
X144500900Y-97500900D01*
X138824264Y-91299996D02*
X137848526Y-91299996D01*
X144500900Y-97500900D02*
X144500900Y-96852368D01*
X144500900Y-93624432D02*
X142176464Y-91299996D01*
X142176464Y-91299996D02*
X138824264Y-91299996D01*
X132950000Y-74950000D02*
X132950000Y-74025000D01*
X132950000Y-74025000D02*
X132725000Y-73800000D01*
X130825000Y-84400000D02*
X130824633Y-84400367D01*
X130824633Y-84400367D02*
X130825000Y-84400000D01*
X130825000Y-84400000D02*
X130825000Y-84400734D01*
X131800000Y-85375734D02*
X130825000Y-84400734D01*
X130825000Y-84400734D02*
X130324266Y-83900000D01*
X134037133Y-87612867D02*
X131800000Y-85375734D01*
X130324266Y-83900000D02*
X128474500Y-83900000D01*
X144500900Y-102301240D02*
X144500900Y-100000000D01*
X133712500Y-87712500D02*
X137599998Y-91599998D01*
X137599998Y-91599998D02*
X137724262Y-91599998D01*
X143500140Y-97300000D02*
X143500140Y-93047938D01*
X143500140Y-97300000D02*
X143500140Y-100000000D01*
X138824264Y-91599998D02*
X137724262Y-91599998D01*
X143500140Y-93047938D02*
X142052200Y-91599998D01*
X142052200Y-91599998D02*
X138800000Y-91599998D01*
X133450000Y-74950000D02*
X133450000Y-74150000D01*
X133450000Y-74150000D02*
X133650000Y-73950000D01*
X131000000Y-85575000D02*
X131000000Y-85600000D01*
X131000000Y-85600000D02*
X131000000Y-85575000D01*
X131000000Y-85575000D02*
X131000000Y-85600000D01*
X128474500Y-85600000D02*
X129500000Y-85600000D01*
X133712500Y-87712500D02*
X131600000Y-85600000D01*
X131600000Y-85600000D02*
X131000000Y-85600000D01*
X131000000Y-85600000D02*
X129500000Y-85600000D01*
X143500140Y-102301240D02*
X143500140Y-100000000D01*
X142499380Y-102301240D02*
X142499380Y-100000000D01*
X134700006Y-87400000D02*
X137999998Y-90699992D01*
X137975000Y-90675000D02*
X137975000Y-90699992D01*
X137999992Y-90699992D02*
X137975000Y-90675000D01*
X137999998Y-90699992D02*
X137999992Y-90699992D01*
X146499880Y-97425000D02*
X146499880Y-94774880D01*
X139299992Y-90699992D02*
X137975000Y-90699992D01*
X146499880Y-100000000D02*
X146499880Y-97425000D01*
X146499880Y-94774880D02*
X142424992Y-90699992D01*
X142424992Y-90699992D02*
X139299992Y-90699992D01*
X131950000Y-74950000D02*
X131450000Y-74450000D01*
X131450000Y-74450000D02*
X131050000Y-74450000D01*
X130700000Y-82475000D02*
X130712500Y-82462500D01*
X130712500Y-82462500D02*
X130700000Y-82475000D01*
X130700000Y-82475000D02*
X130700000Y-82450000D01*
X129450000Y-80500000D02*
X128474500Y-80500000D01*
X129725000Y-80775000D02*
X129450000Y-80500000D01*
X129725000Y-81475000D02*
X129725000Y-80775000D01*
X131075000Y-82825000D02*
X130700000Y-82450000D01*
X134700006Y-87400000D02*
X134700006Y-87427208D01*
X134700006Y-87427208D02*
X132400004Y-85127206D01*
X132400004Y-85127206D02*
X132400004Y-83399996D01*
X132400004Y-83399996D02*
X131825008Y-82825000D01*
X131825008Y-82825000D02*
X131075000Y-82825000D01*
X130700000Y-82450000D02*
X129725000Y-81475000D01*
X146499880Y-102301240D02*
X146499880Y-100000000D01*
X134386766Y-87538234D02*
X137848526Y-90999994D01*
X137848526Y-90999994D02*
X137925000Y-90999994D01*
X145499120Y-97425000D02*
X145499120Y-94198386D01*
X138948528Y-90999994D02*
X137925000Y-90999994D01*
X145499120Y-100000000D02*
X145499120Y-97425000D01*
X145499120Y-94198386D02*
X142300728Y-90999994D01*
X142300728Y-90999994D02*
X138948528Y-90999994D01*
X132450000Y-74350000D02*
X131975000Y-73875000D01*
X131975000Y-73875000D02*
X131700000Y-73875000D01*
X132450000Y-74350000D02*
X132450000Y-74950000D01*
X131375000Y-83550000D02*
X131374633Y-83550367D01*
X131374633Y-83550367D02*
X131375000Y-83550000D01*
X131375000Y-83550000D02*
X131375000Y-83550734D01*
X129100000Y-82200000D02*
X128474500Y-82200000D01*
X130275734Y-83375734D02*
X129100000Y-82200000D01*
X131200000Y-83375734D02*
X130275734Y-83375734D01*
X132100002Y-84275736D02*
X131375000Y-83550734D01*
X131375000Y-83550734D02*
X131200000Y-83375734D01*
X132100002Y-85251470D02*
X132100002Y-84275736D01*
X134386766Y-87538234D02*
X132100002Y-85251470D01*
X145499120Y-102301240D02*
X145499120Y-100000000D01*
X132450000Y-79700000D02*
X132450000Y-78050000D01*
X132850000Y-80100000D02*
X132450000Y-79700000D01*
X133650000Y-80100000D02*
X132850000Y-80100000D01*
X132125000Y-87300000D02*
X128474500Y-87300000D01*
X132950000Y-78975000D02*
X132950000Y-78050000D01*
X133325000Y-79350000D02*
X132950000Y-78975000D01*
X131525000Y-89000000D02*
X128474500Y-89000000D01*
X130650000Y-75750000D02*
X130100000Y-75200000D01*
X131150000Y-75750000D02*
X130650000Y-75750000D01*
X130150000Y-92725000D02*
X129825000Y-92400000D01*
X129825000Y-92400000D02*
X128474500Y-92400000D01*
X131425500Y-92400000D02*
X130475000Y-92400000D01*
X130475000Y-92400000D02*
X130150000Y-92725000D01*
X131150000Y-75750000D02*
X131150000Y-75650000D01*
X157000000Y-77270000D02*
X157645000Y-77270000D01*
X157645000Y-77270000D02*
X159875000Y-79500000D01*
X164310000Y-79500000D02*
X167000000Y-76810000D01*
X159875000Y-79500000D02*
X164310000Y-79500000D01*
X143575000Y-76025000D02*
X143525000Y-75975000D01*
X143575000Y-76025000D02*
X145100000Y-76025000D01*
X164555000Y-74270000D02*
X167000000Y-74270000D01*
X163425000Y-75400000D02*
X164555000Y-74270000D01*
X145774500Y-79400000D02*
X147875000Y-79400000D01*
X147875000Y-79400000D02*
X147925000Y-79350000D01*
X145774500Y-79400000D02*
X145774500Y-79099500D01*
X145774500Y-79099500D02*
X145100000Y-78425000D01*
X145100000Y-78425000D02*
X145100000Y-77325000D01*
X163895000Y-71730000D02*
X167000000Y-71730000D01*
X162575000Y-73050000D02*
X163895000Y-71730000D01*
X162575000Y-77100000D02*
X162575000Y-73050000D01*
X143625500Y-78800000D02*
X143075000Y-78800000D01*
X144225500Y-79400000D02*
X143625500Y-78800000D01*
X137900000Y-77325000D02*
X143125000Y-77325000D01*
X144225500Y-78425500D02*
X144225500Y-79400000D01*
X143125000Y-77325000D02*
X144225500Y-78425500D01*
X137900000Y-76675000D02*
X141100000Y-76675000D01*
X141675000Y-76100000D02*
X141675000Y-72325000D01*
X141100000Y-76675000D02*
X141675000Y-76100000D01*
X164375000Y-70950000D02*
X166135000Y-69190000D01*
X162825000Y-70950000D02*
X164375000Y-70950000D01*
X161475000Y-72300000D02*
X162825000Y-70950000D01*
X166135000Y-69190000D02*
X167000000Y-69190000D01*
X143150000Y-76675000D02*
X142850000Y-76375000D01*
X142850000Y-76375000D02*
X142850000Y-75325000D01*
X143150000Y-76675000D02*
X145100000Y-76675000D01*
X157000000Y-88770000D02*
X154280000Y-88770000D01*
X143625000Y-87525000D02*
X145100000Y-87525000D01*
X143525000Y-87425000D02*
X143625000Y-87525000D01*
X154280000Y-88770000D02*
X154225000Y-88825000D01*
X157000000Y-88770000D02*
X162370000Y-88770000D01*
X164910000Y-91310000D02*
X167000000Y-91310000D01*
X162370000Y-88770000D02*
X164910000Y-91310000D01*
X147375000Y-90925000D02*
X147375000Y-90900000D01*
X147400000Y-90900000D02*
X147375000Y-90925000D01*
X149050000Y-90900000D02*
X147400000Y-90900000D01*
X149700000Y-90250000D02*
X149050000Y-90900000D01*
X147450000Y-90900000D02*
X147375000Y-90900000D01*
X147375000Y-90900000D02*
X145774500Y-90900000D01*
X145100000Y-88825000D02*
X145100000Y-89300000D01*
X145100000Y-89300000D02*
X145774500Y-89974500D01*
X145774500Y-89974500D02*
X145774500Y-90900000D01*
X144225500Y-90900000D02*
X144225500Y-90525500D01*
X144225500Y-90525500D02*
X142975000Y-89275000D01*
X142525000Y-88825000D02*
X137900000Y-88825000D01*
X142975000Y-89275000D02*
X142525000Y-88825000D01*
X137900000Y-88175000D02*
X140875000Y-88175000D01*
X141900000Y-87150000D02*
X141900000Y-85000000D01*
X140875000Y-88175000D02*
X141900000Y-87150000D01*
X145100000Y-88175000D02*
X143375000Y-88175000D01*
X142825000Y-87625000D02*
X142825000Y-86200000D01*
X143375000Y-88175000D02*
X142825000Y-87625000D01*
X140500400Y-100000000D02*
X140500400Y-93700400D01*
X134150000Y-91900000D02*
X132974500Y-90724500D01*
X138700000Y-91900000D02*
X134150000Y-91900000D01*
X140500400Y-93700400D02*
X138700000Y-91900000D01*
X132974500Y-90724500D02*
X132974500Y-90700000D01*
X140500400Y-102301240D02*
X140500400Y-100000000D01*
X135075000Y-92400000D02*
X132974500Y-92400000D01*
X135250000Y-92575000D02*
X135075000Y-92400000D01*
X145100000Y-73425000D02*
X145950000Y-73425000D01*
X145950000Y-73425000D02*
X147075000Y-74550000D01*
X147075000Y-74550000D02*
X148200000Y-74550000D01*
X145100000Y-74075000D02*
X146050000Y-74075000D01*
X148200000Y-75575000D02*
X148200000Y-74550000D01*
X147900000Y-75875000D02*
X148200000Y-75575000D01*
X147475000Y-75875000D02*
X147900000Y-75875000D01*
X146375000Y-74775000D02*
X147475000Y-75875000D01*
X146375000Y-74400000D02*
X146375000Y-74775000D01*
X146050000Y-74075000D02*
X146375000Y-74400000D01*
X145100000Y-74725000D02*
X145825000Y-74725000D01*
X145825000Y-74725000D02*
X148200000Y-77100000D01*
X148200000Y-77100000D02*
X148200000Y-77450000D01*
X145100000Y-75375000D02*
X146000000Y-75375000D01*
X147150000Y-77450000D02*
X148200000Y-77450000D01*
X146875000Y-77175000D02*
X147150000Y-77450000D01*
X146875000Y-76250000D02*
X146875000Y-77175000D01*
X146000000Y-75375000D02*
X146875000Y-76250000D01*
X145100000Y-84925000D02*
X146050000Y-84925000D01*
X147175000Y-86050000D02*
X148200000Y-86050000D01*
X146050000Y-84925000D02*
X147175000Y-86050000D01*
X145100000Y-85575000D02*
X145975000Y-85575000D01*
X145975000Y-85575000D02*
X147475000Y-87075000D01*
X147475000Y-87075000D02*
X148000000Y-87075000D01*
X148000000Y-87075000D02*
X148200000Y-86875000D01*
X148200000Y-86875000D02*
X148200000Y-86050000D01*
X145100000Y-86225000D02*
X146125000Y-86225000D01*
X148200000Y-88300000D02*
X148200000Y-88950000D01*
X146125000Y-86225000D02*
X148200000Y-88300000D01*
X145100000Y-86875000D02*
X146225000Y-86875000D01*
X147125000Y-88950000D02*
X148200000Y-88950000D01*
X146925000Y-88750000D02*
X147125000Y-88950000D01*
X146925000Y-87575000D02*
X146925000Y-88750000D01*
X146225000Y-86875000D02*
X146925000Y-87575000D01*
X134250000Y-76250000D02*
X135200000Y-76250000D01*
X143725000Y-71475000D02*
X145100000Y-71475000D01*
X143050000Y-70800000D02*
X143725000Y-71475000D01*
X135450000Y-70800000D02*
X143050000Y-70800000D01*
X135200000Y-76250000D02*
X135450000Y-76000000D01*
X131950000Y-78050000D02*
X131950000Y-80250000D01*
X132500000Y-80800000D02*
X140800000Y-80800000D01*
X131950000Y-80250000D02*
X132500000Y-80800000D01*
X137900000Y-75375000D02*
X137925000Y-75400000D01*
X137925000Y-75400000D02*
X140800000Y-75400000D01*
X140800000Y-86900000D02*
X137925000Y-86900000D01*
X137925000Y-86900000D02*
X137900000Y-86875000D01*
X137900000Y-74075000D02*
X136600000Y-74075000D01*
X136600000Y-74075000D02*
X136375000Y-73850000D01*
X136375000Y-73850000D02*
X136375000Y-73525000D01*
X134250000Y-76750000D02*
X135675000Y-76750000D01*
X136175000Y-74500000D02*
X136600000Y-74075000D01*
X136175000Y-76250000D02*
X136175000Y-74500000D01*
X135675000Y-76750000D02*
X136175000Y-76250000D01*
X131450000Y-77750000D02*
X131450000Y-78925000D01*
X139200002Y-81100002D02*
X139500000Y-81400000D01*
X132375736Y-81100002D02*
X139200002Y-81100002D01*
X131649998Y-80374264D02*
X132375736Y-81100002D01*
X131649998Y-79250000D02*
X131649998Y-80374264D01*
X131450000Y-79050002D02*
X131649998Y-79250000D01*
X131450000Y-78925000D02*
X131450000Y-79050002D01*
X137900000Y-73425000D02*
X139475000Y-73425000D01*
X139475000Y-84925000D02*
X137900000Y-84925000D01*
X139500000Y-84900000D02*
X139475000Y-84925000D01*
X139475000Y-73425000D02*
X139500000Y-73400000D01*
X145100000Y-82975000D02*
X146125000Y-82975000D01*
X146400000Y-82700000D02*
X146400000Y-82300000D01*
X146125000Y-82975000D02*
X146400000Y-82700000D01*
X134250000Y-77250000D02*
X135300000Y-77250000D01*
X143400000Y-82975000D02*
X145100000Y-82975000D01*
X142850000Y-82425000D02*
X143400000Y-82975000D01*
X142850000Y-81450000D02*
X142850000Y-82425000D01*
X141625000Y-80225000D02*
X142850000Y-81450000D01*
X136425000Y-80225000D02*
X141625000Y-80225000D01*
X135800000Y-79600000D02*
X136425000Y-80225000D01*
X135800000Y-77750000D02*
X135800000Y-79600000D01*
X135300000Y-77250000D02*
X135800000Y-77750000D01*
X133950000Y-77750000D02*
X134825000Y-77750000D01*
X135200000Y-85575000D02*
X137900000Y-85575000D01*
X134825000Y-77750000D02*
X135200000Y-78125000D01*
X131150000Y-77250000D02*
X131150000Y-77375000D01*
X131150000Y-77375000D02*
X130975000Y-77550000D01*
X130975000Y-77550000D02*
X130975000Y-79175000D01*
X130975000Y-79175000D02*
X131349996Y-79549996D01*
X131349996Y-79549996D02*
X131349996Y-80498528D01*
X131349996Y-80498528D02*
X132251472Y-81400004D01*
X132251472Y-81400004D02*
X138525004Y-81400004D01*
X138525004Y-81400004D02*
X139225000Y-82100000D01*
X139225000Y-82100000D02*
X140100000Y-82100000D01*
X137900000Y-74725000D02*
X140075000Y-74725000D01*
X140100000Y-86200000D02*
X137925000Y-86200000D01*
X140075000Y-74725000D02*
X140100000Y-74700000D01*
X137925000Y-86200000D02*
X137900000Y-86225000D01*
D26*
G36*
X165657731Y-69108655D02*
X164211386Y-70555000D01*
X162825000Y-70555000D01*
X162673840Y-70585068D01*
X162545693Y-70670693D01*
X161536334Y-71680052D01*
X161352215Y-71679892D01*
X161124257Y-71774083D01*
X160949696Y-71948339D01*
X160855107Y-72176133D01*
X160854892Y-72422785D01*
X160949083Y-72650743D01*
X161123339Y-72825304D01*
X161351133Y-72919893D01*
X161597785Y-72920108D01*
X161825743Y-72825917D01*
X162000304Y-72651661D01*
X162094893Y-72423867D01*
X162095055Y-72238559D01*
X162988614Y-71345000D01*
X163844727Y-71345000D01*
X163743840Y-71365068D01*
X163615693Y-71450693D01*
X162295693Y-72770693D01*
X162210068Y-72898840D01*
X162180000Y-73050000D01*
X162180000Y-76618263D01*
X162049696Y-76748339D01*
X161955107Y-76976133D01*
X161954892Y-77222785D01*
X162049083Y-77450743D01*
X162223339Y-77625304D01*
X162451133Y-77719893D01*
X162697785Y-77720108D01*
X162925743Y-77625917D01*
X163100304Y-77451661D01*
X163194893Y-77223867D01*
X163195108Y-76977215D01*
X163100917Y-76749257D01*
X162970000Y-76618111D01*
X162970000Y-75821784D01*
X163073339Y-75925304D01*
X163301133Y-76019893D01*
X163547785Y-76020108D01*
X163775743Y-75925917D01*
X163950304Y-75751661D01*
X164044893Y-75523867D01*
X164045055Y-75338559D01*
X164718614Y-74665000D01*
X165716396Y-74665000D01*
X165727922Y-74722944D01*
X165984494Y-75106932D01*
X166368482Y-75363504D01*
X166821426Y-75453600D01*
X167178574Y-75453600D01*
X167631518Y-75363504D01*
X168015506Y-75106932D01*
X168272078Y-74722944D01*
X168362174Y-74270000D01*
X168272078Y-73817056D01*
X168015506Y-73433068D01*
X167631518Y-73176496D01*
X167178574Y-73086400D01*
X166821426Y-73086400D01*
X166368482Y-73176496D01*
X165984494Y-73433068D01*
X165727922Y-73817056D01*
X165716396Y-73875000D01*
X164555000Y-73875000D01*
X164403840Y-73905068D01*
X164275693Y-73990693D01*
X163486334Y-74780052D01*
X163302215Y-74779892D01*
X163074257Y-74874083D01*
X162970000Y-74978158D01*
X162970000Y-73213614D01*
X164058614Y-72125000D01*
X165716396Y-72125000D01*
X165727922Y-72182944D01*
X165984494Y-72566932D01*
X166368482Y-72823504D01*
X166821426Y-72913600D01*
X167178574Y-72913600D01*
X167631518Y-72823504D01*
X168015506Y-72566932D01*
X168272078Y-72182944D01*
X168362174Y-71730000D01*
X168272078Y-71277056D01*
X168015506Y-70893068D01*
X167631518Y-70636496D01*
X167178574Y-70546400D01*
X166821426Y-70546400D01*
X166368482Y-70636496D01*
X165984494Y-70893068D01*
X165727922Y-71277056D01*
X165716396Y-71335000D01*
X164425273Y-71335000D01*
X164526160Y-71314932D01*
X164654307Y-71229307D01*
X165692332Y-70191282D01*
X165750128Y-70281098D01*
X165857063Y-70354164D01*
X165984000Y-70379869D01*
X168016000Y-70379869D01*
X168134585Y-70357556D01*
X168243498Y-70287472D01*
X168316564Y-70180537D01*
X168342269Y-70053600D01*
X168342269Y-68500000D01*
X175300000Y-68500000D01*
X175300000Y-93105000D01*
X161100000Y-93105000D01*
X161061843Y-93112590D01*
X161022939Y-93112590D01*
X160659391Y-93184904D01*
X160659390Y-93184904D01*
X160517000Y-93243884D01*
X160208798Y-93449819D01*
X160154309Y-93504309D01*
X160099819Y-93558798D01*
X159893884Y-93867000D01*
X159834904Y-94009390D01*
X159834904Y-94009391D01*
X159772126Y-94325000D01*
X151975000Y-94325000D01*
X151936094Y-94332879D01*
X151903319Y-94355273D01*
X151881839Y-94388654D01*
X151875000Y-94425000D01*
X151875000Y-97571155D01*
X151873676Y-97573093D01*
X151866513Y-97608464D01*
X151846151Y-97600030D01*
X151551140Y-97600030D01*
X151526140Y-97625030D01*
X151526140Y-99975000D01*
X151546140Y-99975000D01*
X151546140Y-100025000D01*
X151526140Y-100025000D01*
X151526140Y-100045000D01*
X151476140Y-100045000D01*
X151476140Y-100025000D01*
X151101020Y-100025000D01*
X151076020Y-100050000D01*
X151076020Y-102220746D01*
X151074533Y-102224532D01*
X151076020Y-102305174D01*
X151076020Y-102319861D01*
X151076303Y-102320545D01*
X151077651Y-102393626D01*
X151136361Y-102535365D01*
X151195187Y-102571838D01*
X151367055Y-102399970D01*
X151437765Y-102399970D01*
X151230542Y-102607193D01*
X151267015Y-102666019D01*
X151424432Y-102727847D01*
X151593526Y-102724729D01*
X151735265Y-102666019D01*
X151771738Y-102607193D01*
X151564515Y-102399970D01*
X151635225Y-102399970D01*
X151807093Y-102571838D01*
X151865919Y-102535365D01*
X151875000Y-102512245D01*
X151875000Y-102905000D01*
X149388903Y-102905000D01*
X149352284Y-102897716D01*
X149345000Y-102861098D01*
X149345000Y-102697246D01*
X149422912Y-102727847D01*
X149592006Y-102724729D01*
X149733745Y-102666019D01*
X149770218Y-102607193D01*
X149562995Y-102399970D01*
X149633705Y-102399970D01*
X149805573Y-102571838D01*
X149864399Y-102535365D01*
X149926227Y-102377948D01*
X149924740Y-102297306D01*
X149924740Y-102224532D01*
X150073773Y-102224532D01*
X150075260Y-102305174D01*
X150075260Y-102319861D01*
X150075543Y-102320545D01*
X150076891Y-102393626D01*
X150135601Y-102535365D01*
X150194427Y-102571838D01*
X150366295Y-102399970D01*
X150437005Y-102399970D01*
X150229782Y-102607193D01*
X150266255Y-102666019D01*
X150423672Y-102727847D01*
X150592766Y-102724729D01*
X150734505Y-102666019D01*
X150770978Y-102607193D01*
X150563755Y-102399970D01*
X150634465Y-102399970D01*
X150806333Y-102571838D01*
X150865159Y-102535365D01*
X150926987Y-102377948D01*
X150925500Y-102297306D01*
X150925500Y-100050000D01*
X150900500Y-100025000D01*
X150525380Y-100025000D01*
X150525380Y-100045000D01*
X150475380Y-100045000D01*
X150475380Y-100025000D01*
X150100260Y-100025000D01*
X150075260Y-100050000D01*
X150075260Y-102220746D01*
X150073773Y-102224532D01*
X149924740Y-102224532D01*
X149924740Y-100050000D01*
X149899740Y-100025000D01*
X149524620Y-100025000D01*
X149524620Y-100045000D01*
X149474620Y-100045000D01*
X149474620Y-100025000D01*
X149454620Y-100025000D01*
X149454620Y-99975000D01*
X149474620Y-99975000D01*
X149474620Y-97625030D01*
X149524620Y-97625030D01*
X149524620Y-99975000D01*
X149899740Y-99975000D01*
X149924740Y-99950000D01*
X149924740Y-97680139D01*
X150075260Y-97680139D01*
X150075260Y-99950000D01*
X150100260Y-99975000D01*
X150475380Y-99975000D01*
X150475380Y-97625030D01*
X150525380Y-97625030D01*
X150525380Y-99975000D01*
X150900500Y-99975000D01*
X150925500Y-99950000D01*
X150925500Y-97680139D01*
X151076020Y-97680139D01*
X151076020Y-99950000D01*
X151101020Y-99975000D01*
X151476140Y-99975000D01*
X151476140Y-97625030D01*
X151451140Y-97600030D01*
X151156129Y-97600030D01*
X151119375Y-97615254D01*
X151091244Y-97643384D01*
X151076020Y-97680139D01*
X150925500Y-97680139D01*
X150910276Y-97643384D01*
X150882145Y-97615254D01*
X150845391Y-97600030D01*
X150550380Y-97600030D01*
X150525380Y-97625030D01*
X150475380Y-97625030D01*
X150450380Y-97600030D01*
X150155369Y-97600030D01*
X150118615Y-97615254D01*
X150090484Y-97643384D01*
X150075260Y-97680139D01*
X149924740Y-97680139D01*
X149909516Y-97643384D01*
X149881385Y-97615254D01*
X149844631Y-97600030D01*
X149549620Y-97600030D01*
X149524620Y-97625030D01*
X149474620Y-97625030D01*
X149449620Y-97600030D01*
X149345000Y-97600030D01*
X149345000Y-94450000D01*
X149337410Y-94411843D01*
X149337410Y-94372939D01*
X149265096Y-94009391D01*
X149265096Y-94009390D01*
X149206116Y-93867000D01*
X149000181Y-93558798D01*
X148945691Y-93504309D01*
X148891202Y-93449819D01*
X148583000Y-93243884D01*
X148440610Y-93184904D01*
X148440609Y-93184904D01*
X148077062Y-93112590D01*
X147922939Y-93112590D01*
X147559391Y-93184904D01*
X147559390Y-93184904D01*
X147417000Y-93243884D01*
X147108798Y-93449819D01*
X147054309Y-93504309D01*
X146999819Y-93558798D01*
X146793884Y-93867000D01*
X146734904Y-94009390D01*
X146734904Y-94009391D01*
X146662590Y-94372940D01*
X146662590Y-94378976D01*
X143941883Y-91658269D01*
X144619000Y-91658269D01*
X144737585Y-91635956D01*
X144846498Y-91565872D01*
X144919564Y-91458937D01*
X144945269Y-91332000D01*
X144945269Y-90468000D01*
X144922956Y-90349415D01*
X144852872Y-90240502D01*
X144745937Y-90167436D01*
X144619000Y-90141731D01*
X144400345Y-90141731D01*
X143594948Y-89336334D01*
X143595108Y-89152215D01*
X143500917Y-88924257D01*
X143326661Y-88749696D01*
X143098867Y-88655107D01*
X142913559Y-88654945D01*
X142804307Y-88545693D01*
X142676160Y-88460068D01*
X142525000Y-88430000D01*
X141178614Y-88430000D01*
X142179307Y-87429307D01*
X142264932Y-87301160D01*
X142295000Y-87150000D01*
X142295000Y-86540861D01*
X142299083Y-86550743D01*
X142430000Y-86681889D01*
X142430000Y-87625000D01*
X142460068Y-87776160D01*
X142545693Y-87904307D01*
X143095692Y-88454307D01*
X143223840Y-88539932D01*
X143375000Y-88570000D01*
X143904806Y-88570000D01*
X143898731Y-88600000D01*
X143898731Y-89050000D01*
X143921044Y-89168585D01*
X143991128Y-89277498D01*
X144098063Y-89350564D01*
X144225000Y-89376269D01*
X144720171Y-89376269D01*
X144735068Y-89451160D01*
X144820693Y-89579307D01*
X145379500Y-90138114D01*
X145379500Y-90142013D01*
X145262415Y-90164044D01*
X145153502Y-90234128D01*
X145080436Y-90341063D01*
X145054731Y-90468000D01*
X145054731Y-91332000D01*
X145077044Y-91450585D01*
X145147128Y-91559498D01*
X145254063Y-91632564D01*
X145381000Y-91658269D01*
X146168000Y-91658269D01*
X146286585Y-91635956D01*
X146395498Y-91565872D01*
X146468564Y-91458937D01*
X146494269Y-91332000D01*
X146494269Y-91295000D01*
X147249318Y-91295000D01*
X147375000Y-91320000D01*
X147500682Y-91295000D01*
X149050000Y-91295000D01*
X149201160Y-91264932D01*
X149329307Y-91179307D01*
X149638666Y-90869948D01*
X149822785Y-90870108D01*
X150050743Y-90775917D01*
X150225304Y-90601661D01*
X150319893Y-90373867D01*
X150320108Y-90127215D01*
X150225917Y-89899257D01*
X150051661Y-89724696D01*
X149823867Y-89630107D01*
X149577215Y-89629892D01*
X149349257Y-89724083D01*
X149174696Y-89898339D01*
X149080107Y-90126133D01*
X149079945Y-90311441D01*
X148886386Y-90505000D01*
X146494269Y-90505000D01*
X146494269Y-90468000D01*
X146471956Y-90349415D01*
X146401872Y-90240502D01*
X146294937Y-90167436D01*
X146169500Y-90142035D01*
X146169500Y-89974500D01*
X146139432Y-89823340D01*
X146053807Y-89695193D01*
X145734883Y-89376269D01*
X145975000Y-89376269D01*
X146093585Y-89353956D01*
X146202498Y-89283872D01*
X146275564Y-89176937D01*
X146301269Y-89050000D01*
X146301269Y-88600000D01*
X146281762Y-88496329D01*
X146301269Y-88400000D01*
X146301269Y-87950000D01*
X146281762Y-87846329D01*
X146301269Y-87750000D01*
X146301269Y-87509884D01*
X146530000Y-87738615D01*
X146530000Y-88750000D01*
X146560068Y-88901160D01*
X146645693Y-89029307D01*
X146845693Y-89229307D01*
X146973840Y-89314932D01*
X147023731Y-89324856D01*
X147023731Y-89400000D01*
X147046044Y-89518585D01*
X147116128Y-89627498D01*
X147223063Y-89700564D01*
X147350000Y-89726269D01*
X149050000Y-89726269D01*
X149168585Y-89703956D01*
X149277498Y-89633872D01*
X149350564Y-89526937D01*
X149376269Y-89400000D01*
X149376269Y-88947785D01*
X153604892Y-88947785D01*
X153699083Y-89175743D01*
X153873339Y-89350304D01*
X154101133Y-89444893D01*
X154347785Y-89445108D01*
X154575743Y-89350917D01*
X154750304Y-89176661D01*
X154755146Y-89165000D01*
X155657731Y-89165000D01*
X155657731Y-89633600D01*
X155680044Y-89752185D01*
X155750128Y-89861098D01*
X155857063Y-89934164D01*
X155984000Y-89959869D01*
X158016000Y-89959869D01*
X158134585Y-89937556D01*
X158243498Y-89867472D01*
X158316564Y-89760537D01*
X158342269Y-89633600D01*
X158342269Y-89165000D01*
X162206386Y-89165000D01*
X164630693Y-91589307D01*
X164758840Y-91674932D01*
X164910000Y-91705000D01*
X165716396Y-91705000D01*
X165727922Y-91762944D01*
X165984494Y-92146932D01*
X166368482Y-92403504D01*
X166821426Y-92493600D01*
X167178574Y-92493600D01*
X167631518Y-92403504D01*
X168015506Y-92146932D01*
X168272078Y-91762944D01*
X168362174Y-91310000D01*
X168272078Y-90857056D01*
X168015506Y-90473068D01*
X167631518Y-90216496D01*
X167178574Y-90126400D01*
X166821426Y-90126400D01*
X166368482Y-90216496D01*
X165984494Y-90473068D01*
X165727922Y-90857056D01*
X165716396Y-90915000D01*
X165073614Y-90915000D01*
X162928614Y-88770000D01*
X165637826Y-88770000D01*
X165727922Y-89222944D01*
X165984494Y-89606932D01*
X166368482Y-89863504D01*
X166821426Y-89953600D01*
X167178574Y-89953600D01*
X167631518Y-89863504D01*
X168015506Y-89606932D01*
X168272078Y-89222944D01*
X168362174Y-88770000D01*
X168272078Y-88317056D01*
X168015506Y-87933068D01*
X167631518Y-87676496D01*
X167178574Y-87586400D01*
X166821426Y-87586400D01*
X166368482Y-87676496D01*
X165984494Y-87933068D01*
X165727922Y-88317056D01*
X165637826Y-88770000D01*
X162928614Y-88770000D01*
X162649307Y-88490693D01*
X162521160Y-88405068D01*
X162370000Y-88375000D01*
X158342269Y-88375000D01*
X158342269Y-87906400D01*
X158319956Y-87787815D01*
X158249872Y-87678902D01*
X158142937Y-87605836D01*
X158016000Y-87580131D01*
X155984000Y-87580131D01*
X155865415Y-87602444D01*
X155756502Y-87672528D01*
X155683436Y-87779463D01*
X155657731Y-87906400D01*
X155657731Y-88375000D01*
X154651833Y-88375000D01*
X154576661Y-88299696D01*
X154348867Y-88205107D01*
X154102215Y-88204892D01*
X153874257Y-88299083D01*
X153699696Y-88473339D01*
X153605107Y-88701133D01*
X153604892Y-88947785D01*
X149376269Y-88947785D01*
X149376269Y-88500000D01*
X149353956Y-88381415D01*
X149283872Y-88272502D01*
X149176937Y-88199436D01*
X149050000Y-88173731D01*
X148569883Y-88173731D01*
X148564932Y-88148840D01*
X148479307Y-88020693D01*
X147928614Y-87470000D01*
X148000000Y-87470000D01*
X148151160Y-87439932D01*
X148279307Y-87354307D01*
X148479307Y-87154307D01*
X148501767Y-87120693D01*
X148564932Y-87026160D01*
X148595000Y-86875000D01*
X148595000Y-86826269D01*
X149050000Y-86826269D01*
X149168585Y-86803956D01*
X149277498Y-86733872D01*
X149350564Y-86626937D01*
X149376269Y-86500000D01*
X149376269Y-86230000D01*
X155637826Y-86230000D01*
X155727922Y-86682944D01*
X155984494Y-87066932D01*
X156368482Y-87323504D01*
X156821426Y-87413600D01*
X157178574Y-87413600D01*
X157631518Y-87323504D01*
X158015506Y-87066932D01*
X158272078Y-86682944D01*
X158362174Y-86230000D01*
X165637826Y-86230000D01*
X165727922Y-86682944D01*
X165984494Y-87066932D01*
X166368482Y-87323504D01*
X166821426Y-87413600D01*
X167178574Y-87413600D01*
X167631518Y-87323504D01*
X168015506Y-87066932D01*
X168272078Y-86682944D01*
X168362174Y-86230000D01*
X168272078Y-85777056D01*
X168015506Y-85393068D01*
X167631518Y-85136496D01*
X167178574Y-85046400D01*
X166821426Y-85046400D01*
X166368482Y-85136496D01*
X165984494Y-85393068D01*
X165727922Y-85777056D01*
X165637826Y-86230000D01*
X158362174Y-86230000D01*
X158272078Y-85777056D01*
X158015506Y-85393068D01*
X157631518Y-85136496D01*
X157178574Y-85046400D01*
X156821426Y-85046400D01*
X156368482Y-85136496D01*
X155984494Y-85393068D01*
X155727922Y-85777056D01*
X155637826Y-86230000D01*
X149376269Y-86230000D01*
X149376269Y-85600000D01*
X149353956Y-85481415D01*
X149283872Y-85372502D01*
X149176937Y-85299436D01*
X149050000Y-85273731D01*
X147350000Y-85273731D01*
X147231415Y-85296044D01*
X147122502Y-85366128D01*
X147092967Y-85409353D01*
X146329307Y-84645693D01*
X146285549Y-84616455D01*
X146278956Y-84581415D01*
X146208872Y-84472502D01*
X146175940Y-84450000D01*
X150732000Y-84450000D01*
X150732000Y-84851891D01*
X150747224Y-84888646D01*
X150775355Y-84916776D01*
X150812109Y-84932000D01*
X151175500Y-84932000D01*
X151200500Y-84907000D01*
X151200500Y-84425000D01*
X151250500Y-84425000D01*
X151250500Y-84907000D01*
X151275500Y-84932000D01*
X151638891Y-84932000D01*
X151675645Y-84916776D01*
X151703776Y-84888646D01*
X151719000Y-84851891D01*
X151719000Y-84450000D01*
X151694000Y-84425000D01*
X151250500Y-84425000D01*
X151200500Y-84425000D01*
X150757000Y-84425000D01*
X150732000Y-84450000D01*
X146175940Y-84450000D01*
X146101937Y-84399436D01*
X146075000Y-84393981D01*
X146075000Y-84325000D01*
X146050000Y-84300000D01*
X145125000Y-84300000D01*
X145125000Y-84320000D01*
X145075000Y-84320000D01*
X145075000Y-84300000D01*
X144150000Y-84300000D01*
X144125000Y-84325000D01*
X144125000Y-84392547D01*
X144106415Y-84396044D01*
X143997502Y-84466128D01*
X143924436Y-84573063D01*
X143898731Y-84700000D01*
X143898731Y-85150000D01*
X143918238Y-85253671D01*
X143898731Y-85350000D01*
X143898731Y-85800000D01*
X143918238Y-85903671D01*
X143898731Y-86000000D01*
X143898731Y-86450000D01*
X143918238Y-86553671D01*
X143898731Y-86650000D01*
X143898731Y-86921805D01*
X143876661Y-86899696D01*
X143648867Y-86805107D01*
X143402215Y-86804892D01*
X143220000Y-86880182D01*
X143220000Y-86681737D01*
X143350304Y-86551661D01*
X143444893Y-86323867D01*
X143445108Y-86077215D01*
X143350917Y-85849257D01*
X143176661Y-85674696D01*
X142948867Y-85580107D01*
X142702215Y-85579892D01*
X142474257Y-85674083D01*
X142299696Y-85848339D01*
X142295000Y-85859648D01*
X142295000Y-85481737D01*
X142425304Y-85351661D01*
X142519893Y-85123867D01*
X142520108Y-84877215D01*
X142425917Y-84649257D01*
X142251661Y-84474696D01*
X142023867Y-84380107D01*
X141777215Y-84379892D01*
X141549257Y-84474083D01*
X141374696Y-84648339D01*
X141280107Y-84876133D01*
X141279892Y-85122785D01*
X141374083Y-85350743D01*
X141505000Y-85481889D01*
X141505000Y-86986386D01*
X141386074Y-87105312D01*
X141419893Y-87023867D01*
X141420108Y-86777215D01*
X141325917Y-86549257D01*
X141151661Y-86374696D01*
X140923867Y-86280107D01*
X140719931Y-86279929D01*
X140720108Y-86077215D01*
X140625917Y-85849257D01*
X140451661Y-85674696D01*
X140223867Y-85580107D01*
X139977215Y-85579892D01*
X139749257Y-85674083D01*
X139618111Y-85805000D01*
X139100256Y-85805000D01*
X139101269Y-85800000D01*
X139101269Y-85378152D01*
X139148339Y-85425304D01*
X139376133Y-85519893D01*
X139622785Y-85520108D01*
X139850743Y-85425917D01*
X140025304Y-85251661D01*
X140119893Y-85023867D01*
X140120108Y-84777215D01*
X140025917Y-84549257D01*
X139851661Y-84374696D01*
X139623867Y-84280107D01*
X139377215Y-84279892D01*
X139149257Y-84374083D01*
X139101269Y-84421987D01*
X139101269Y-84050000D01*
X139081762Y-83946329D01*
X139101269Y-83850000D01*
X139101269Y-83675000D01*
X144125000Y-83675000D01*
X144125000Y-83869891D01*
X144140224Y-83906646D01*
X144168355Y-83934776D01*
X144205109Y-83950000D01*
X144168355Y-83965224D01*
X144140224Y-83993354D01*
X144125000Y-84030109D01*
X144125000Y-84225000D01*
X144150000Y-84250000D01*
X145075000Y-84250000D01*
X145075000Y-83975000D01*
X145050000Y-83950000D01*
X145075000Y-83925000D01*
X145075000Y-83650000D01*
X145125000Y-83650000D01*
X145125000Y-83925000D01*
X145150000Y-83950000D01*
X145125000Y-83975000D01*
X145125000Y-84250000D01*
X146050000Y-84250000D01*
X146075000Y-84225000D01*
X146075000Y-84030109D01*
X146059776Y-83993354D01*
X146031645Y-83965224D01*
X145994891Y-83950000D01*
X145999456Y-83948109D01*
X150732000Y-83948109D01*
X150732000Y-84350000D01*
X150757000Y-84375000D01*
X151200500Y-84375000D01*
X151200500Y-83893000D01*
X151250500Y-83893000D01*
X151250500Y-84375000D01*
X151694000Y-84375000D01*
X151719000Y-84350000D01*
X151719000Y-83948109D01*
X151703776Y-83911354D01*
X151675645Y-83883224D01*
X151638891Y-83868000D01*
X151275500Y-83868000D01*
X151250500Y-83893000D01*
X151200500Y-83893000D01*
X151175500Y-83868000D01*
X150812109Y-83868000D01*
X150775355Y-83883224D01*
X150747224Y-83911354D01*
X150732000Y-83948109D01*
X145999456Y-83948109D01*
X146031645Y-83934776D01*
X146059776Y-83906646D01*
X146075000Y-83869891D01*
X146075000Y-83675000D01*
X146050000Y-83650000D01*
X145125000Y-83650000D01*
X145075000Y-83650000D01*
X144150000Y-83650000D01*
X144125000Y-83675000D01*
X139101269Y-83675000D01*
X139101269Y-83400000D01*
X139081762Y-83296329D01*
X139101269Y-83200000D01*
X139101269Y-82750000D01*
X139078956Y-82631415D01*
X139008872Y-82522502D01*
X138901937Y-82449436D01*
X138775000Y-82423731D01*
X137025000Y-82423731D01*
X136906415Y-82446044D01*
X136797502Y-82516128D01*
X136724436Y-82623063D01*
X136698731Y-82750000D01*
X136698731Y-82971805D01*
X136676661Y-82949696D01*
X136448867Y-82855107D01*
X136202215Y-82854892D01*
X135974257Y-82949083D01*
X135799696Y-83123339D01*
X135705107Y-83351133D01*
X135704892Y-83597785D01*
X135799083Y-83825743D01*
X135923187Y-83950064D01*
X135799696Y-84073339D01*
X135705107Y-84301133D01*
X135704892Y-84547785D01*
X135799083Y-84775743D01*
X135973339Y-84950304D01*
X136201133Y-85044893D01*
X136447785Y-85045108D01*
X136675743Y-84950917D01*
X136698731Y-84927969D01*
X136698731Y-85150000D01*
X136704376Y-85180000D01*
X135681737Y-85180000D01*
X135551661Y-85049696D01*
X135323867Y-84955107D01*
X135077215Y-84954892D01*
X134849257Y-85049083D01*
X134674696Y-85223339D01*
X134580107Y-85451133D01*
X134579892Y-85697785D01*
X134674083Y-85925743D01*
X134848339Y-86100304D01*
X135076133Y-86194893D01*
X135322785Y-86195108D01*
X135550743Y-86100917D01*
X135681889Y-85970000D01*
X136704806Y-85970000D01*
X136698731Y-86000000D01*
X136698731Y-86450000D01*
X136718238Y-86553671D01*
X136698731Y-86650000D01*
X136698731Y-87071892D01*
X136626661Y-86999696D01*
X136398867Y-86905107D01*
X136152215Y-86904892D01*
X135924257Y-86999083D01*
X135749696Y-87173339D01*
X135655107Y-87401133D01*
X135654892Y-87647785D01*
X135749083Y-87875743D01*
X135923339Y-88050304D01*
X136151133Y-88144893D01*
X136397785Y-88145108D01*
X136625743Y-88050917D01*
X136698731Y-87978057D01*
X136698731Y-88400000D01*
X136718238Y-88503671D01*
X136698731Y-88600000D01*
X136698731Y-88840111D01*
X134979313Y-87120693D01*
X134897317Y-87065905D01*
X132795004Y-84963592D01*
X132795004Y-83399996D01*
X132764936Y-83248836D01*
X132679311Y-83120689D01*
X132104315Y-82545693D01*
X131976168Y-82460068D01*
X131825008Y-82430000D01*
X131320040Y-82430000D01*
X131320108Y-82352215D01*
X131225917Y-82124257D01*
X131051661Y-81949696D01*
X130823867Y-81855107D01*
X130663581Y-81854967D01*
X130120000Y-81311386D01*
X130120000Y-80775000D01*
X130089932Y-80623840D01*
X130004307Y-80495693D01*
X129729307Y-80220693D01*
X129601160Y-80135068D01*
X129450000Y-80105000D01*
X129194269Y-80105000D01*
X129194269Y-80068000D01*
X129171956Y-79949415D01*
X129101872Y-79840502D01*
X128994937Y-79767436D01*
X128868000Y-79741731D01*
X128081000Y-79741731D01*
X127962415Y-79764044D01*
X127853502Y-79834128D01*
X127780436Y-79941063D01*
X127754731Y-80068000D01*
X127754731Y-80932000D01*
X127777044Y-81050585D01*
X127847128Y-81159498D01*
X127954063Y-81232564D01*
X128081000Y-81258269D01*
X128868000Y-81258269D01*
X128986585Y-81235956D01*
X129095498Y-81165872D01*
X129168564Y-81058937D01*
X129194269Y-80932000D01*
X129194269Y-80895000D01*
X129286386Y-80895000D01*
X129330000Y-80938614D01*
X129330000Y-81475000D01*
X129360068Y-81626160D01*
X129445693Y-81754307D01*
X130080074Y-82388688D01*
X130079892Y-82597785D01*
X130096434Y-82637820D01*
X129379307Y-81920693D01*
X129251160Y-81835068D01*
X129194269Y-81823752D01*
X129194269Y-81768000D01*
X129171956Y-81649415D01*
X129101872Y-81540502D01*
X128994937Y-81467436D01*
X128868000Y-81441731D01*
X128081000Y-81441731D01*
X127962415Y-81464044D01*
X127853502Y-81534128D01*
X127780436Y-81641063D01*
X127754731Y-81768000D01*
X127754731Y-82632000D01*
X127777044Y-82750585D01*
X127847128Y-82859498D01*
X127954063Y-82932564D01*
X128081000Y-82958269D01*
X128868000Y-82958269D01*
X128986585Y-82935956D01*
X129095498Y-82865872D01*
X129140864Y-82799478D01*
X129846386Y-83505000D01*
X129194269Y-83505000D01*
X129194269Y-83468000D01*
X129171956Y-83349415D01*
X129101872Y-83240502D01*
X128994937Y-83167436D01*
X128868000Y-83141731D01*
X128081000Y-83141731D01*
X127962415Y-83164044D01*
X127853502Y-83234128D01*
X127780436Y-83341063D01*
X127754731Y-83468000D01*
X127754731Y-84332000D01*
X127777044Y-84450585D01*
X127847128Y-84559498D01*
X127954063Y-84632564D01*
X128081000Y-84658269D01*
X128868000Y-84658269D01*
X128986585Y-84635956D01*
X129095498Y-84565872D01*
X129168564Y-84458937D01*
X129194269Y-84332000D01*
X129194269Y-84295000D01*
X130160652Y-84295000D01*
X130205052Y-84339400D01*
X130204892Y-84522785D01*
X130299083Y-84750743D01*
X130473339Y-84925304D01*
X130701133Y-85019893D01*
X130719862Y-85019909D01*
X130649257Y-85049083D01*
X130493067Y-85205000D01*
X129194269Y-85205000D01*
X129194269Y-85168000D01*
X129171956Y-85049415D01*
X129101872Y-84940502D01*
X128994937Y-84867436D01*
X128868000Y-84841731D01*
X128081000Y-84841731D01*
X127962415Y-84864044D01*
X127853502Y-84934128D01*
X127780436Y-85041063D01*
X127754731Y-85168000D01*
X127754731Y-86032000D01*
X127777044Y-86150585D01*
X127847128Y-86259498D01*
X127954063Y-86332564D01*
X128081000Y-86358269D01*
X128868000Y-86358269D01*
X128986585Y-86335956D01*
X129095498Y-86265872D01*
X129168564Y-86158937D01*
X129194269Y-86032000D01*
X129194269Y-85995000D01*
X130543219Y-85995000D01*
X130648339Y-86100304D01*
X130876133Y-86194893D01*
X131122785Y-86195108D01*
X131350743Y-86100917D01*
X131446607Y-86005221D01*
X132121382Y-86679996D01*
X132002215Y-86679892D01*
X131774257Y-86774083D01*
X131643111Y-86905000D01*
X129194269Y-86905000D01*
X129194269Y-86868000D01*
X129171956Y-86749415D01*
X129101872Y-86640502D01*
X128994937Y-86567436D01*
X128868000Y-86541731D01*
X128081000Y-86541731D01*
X127962415Y-86564044D01*
X127853502Y-86634128D01*
X127780436Y-86741063D01*
X127754731Y-86868000D01*
X127754731Y-87732000D01*
X127777044Y-87850585D01*
X127847128Y-87959498D01*
X127954063Y-88032564D01*
X128081000Y-88058269D01*
X128868000Y-88058269D01*
X128986585Y-88035956D01*
X129095498Y-87965872D01*
X129168564Y-87858937D01*
X129194269Y-87732000D01*
X129194269Y-87695000D01*
X131643263Y-87695000D01*
X131773339Y-87825304D01*
X132001133Y-87919893D01*
X132247785Y-87920108D01*
X132475743Y-87825917D01*
X132650304Y-87651661D01*
X132744893Y-87423867D01*
X132744998Y-87303612D01*
X136946386Y-91505000D01*
X134313614Y-91505000D01*
X133694269Y-90885655D01*
X133694269Y-90268000D01*
X133671956Y-90149415D01*
X133601872Y-90040502D01*
X133494937Y-89967436D01*
X133368000Y-89941731D01*
X132581000Y-89941731D01*
X132462415Y-89964044D01*
X132353502Y-90034128D01*
X132280436Y-90141063D01*
X132254731Y-90268000D01*
X132254731Y-91132000D01*
X132277044Y-91250585D01*
X132347128Y-91359498D01*
X132454063Y-91432564D01*
X132581000Y-91458269D01*
X133149655Y-91458269D01*
X133333117Y-91641731D01*
X132581000Y-91641731D01*
X132462415Y-91664044D01*
X132353502Y-91734128D01*
X132280436Y-91841063D01*
X132254731Y-91968000D01*
X132254731Y-92832000D01*
X132277044Y-92950585D01*
X132347128Y-93059498D01*
X132413722Y-93105000D01*
X131985692Y-93105000D01*
X132046498Y-93065872D01*
X132119564Y-92958937D01*
X132145269Y-92832000D01*
X132145269Y-91968000D01*
X132122956Y-91849415D01*
X132052872Y-91740502D01*
X131945937Y-91667436D01*
X131819000Y-91641731D01*
X131032000Y-91641731D01*
X130913415Y-91664044D01*
X130804502Y-91734128D01*
X130731436Y-91841063D01*
X130705731Y-91968000D01*
X130705731Y-92005000D01*
X130475000Y-92005000D01*
X130323840Y-92035068D01*
X130219091Y-92105059D01*
X130080729Y-92104939D01*
X129976160Y-92035068D01*
X129825000Y-92005000D01*
X129194269Y-92005000D01*
X129194269Y-91968000D01*
X129171956Y-91849415D01*
X129101872Y-91740502D01*
X128994937Y-91667436D01*
X128868000Y-91641731D01*
X128081000Y-91641731D01*
X127962415Y-91664044D01*
X127853502Y-91734128D01*
X127780436Y-91841063D01*
X127754731Y-91968000D01*
X127754731Y-92832000D01*
X127777044Y-92950585D01*
X127847128Y-93059498D01*
X127913722Y-93105000D01*
X127038903Y-93105000D01*
X126388755Y-92975677D01*
X125870565Y-92629435D01*
X125750671Y-92450000D01*
X126432000Y-92450000D01*
X126432000Y-92851891D01*
X126447224Y-92888646D01*
X126475355Y-92916776D01*
X126512109Y-92932000D01*
X126875500Y-92932000D01*
X126900500Y-92907000D01*
X126900500Y-92425000D01*
X126950500Y-92425000D01*
X126950500Y-92907000D01*
X126975500Y-92932000D01*
X127338891Y-92932000D01*
X127375645Y-92916776D01*
X127403776Y-92888646D01*
X127419000Y-92851891D01*
X127419000Y-92450000D01*
X127394000Y-92425000D01*
X126950500Y-92425000D01*
X126900500Y-92425000D01*
X126457000Y-92425000D01*
X126432000Y-92450000D01*
X125750671Y-92450000D01*
X125524323Y-92111245D01*
X125491874Y-91948109D01*
X126432000Y-91948109D01*
X126432000Y-92350000D01*
X126457000Y-92375000D01*
X126900500Y-92375000D01*
X126900500Y-91893000D01*
X126950500Y-91893000D01*
X126950500Y-92375000D01*
X127394000Y-92375000D01*
X127419000Y-92350000D01*
X127419000Y-91948109D01*
X127403776Y-91911354D01*
X127375645Y-91883224D01*
X127338891Y-91868000D01*
X126975500Y-91868000D01*
X126950500Y-91893000D01*
X126900500Y-91893000D01*
X126875500Y-91868000D01*
X126512109Y-91868000D01*
X126475355Y-91883224D01*
X126447224Y-91911354D01*
X126432000Y-91948109D01*
X125491874Y-91948109D01*
X125395000Y-91461096D01*
X125395000Y-90750000D01*
X126432000Y-90750000D01*
X126432000Y-91151891D01*
X126447224Y-91188646D01*
X126475355Y-91216776D01*
X126512109Y-91232000D01*
X126875500Y-91232000D01*
X126900500Y-91207000D01*
X126900500Y-90725000D01*
X126950500Y-90725000D01*
X126950500Y-91207000D01*
X126975500Y-91232000D01*
X127338891Y-91232000D01*
X127375645Y-91216776D01*
X127403776Y-91188646D01*
X127419000Y-91151891D01*
X127419000Y-90750000D01*
X127394000Y-90725000D01*
X126950500Y-90725000D01*
X126900500Y-90725000D01*
X126457000Y-90725000D01*
X126432000Y-90750000D01*
X125395000Y-90750000D01*
X125395000Y-90248109D01*
X126432000Y-90248109D01*
X126432000Y-90650000D01*
X126457000Y-90675000D01*
X126900500Y-90675000D01*
X126900500Y-90193000D01*
X126950500Y-90193000D01*
X126950500Y-90675000D01*
X127394000Y-90675000D01*
X127419000Y-90650000D01*
X127419000Y-90248109D01*
X127403776Y-90211354D01*
X127375645Y-90183224D01*
X127338891Y-90168000D01*
X126975500Y-90168000D01*
X126950500Y-90193000D01*
X126900500Y-90193000D01*
X126875500Y-90168000D01*
X126512109Y-90168000D01*
X126475355Y-90183224D01*
X126447224Y-90211354D01*
X126432000Y-90248109D01*
X125395000Y-90248109D01*
X125395000Y-89050000D01*
X126432000Y-89050000D01*
X126432000Y-89451891D01*
X126447224Y-89488646D01*
X126475355Y-89516776D01*
X126512109Y-89532000D01*
X126875500Y-89532000D01*
X126900500Y-89507000D01*
X126900500Y-89025000D01*
X126950500Y-89025000D01*
X126950500Y-89507000D01*
X126975500Y-89532000D01*
X127338891Y-89532000D01*
X127375645Y-89516776D01*
X127403776Y-89488646D01*
X127419000Y-89451891D01*
X127419000Y-89050000D01*
X127394000Y-89025000D01*
X126950500Y-89025000D01*
X126900500Y-89025000D01*
X126457000Y-89025000D01*
X126432000Y-89050000D01*
X125395000Y-89050000D01*
X125395000Y-88548109D01*
X126432000Y-88548109D01*
X126432000Y-88950000D01*
X126457000Y-88975000D01*
X126900500Y-88975000D01*
X126900500Y-88493000D01*
X126950500Y-88493000D01*
X126950500Y-88975000D01*
X127394000Y-88975000D01*
X127419000Y-88950000D01*
X127419000Y-88568000D01*
X127754731Y-88568000D01*
X127754731Y-89432000D01*
X127777044Y-89550585D01*
X127847128Y-89659498D01*
X127954063Y-89732564D01*
X128081000Y-89758269D01*
X128868000Y-89758269D01*
X128930002Y-89746603D01*
X128929892Y-89872785D01*
X128966633Y-89961704D01*
X128868000Y-89941731D01*
X128081000Y-89941731D01*
X127962415Y-89964044D01*
X127853502Y-90034128D01*
X127780436Y-90141063D01*
X127754731Y-90268000D01*
X127754731Y-91132000D01*
X127777044Y-91250585D01*
X127847128Y-91359498D01*
X127954063Y-91432564D01*
X128081000Y-91458269D01*
X128868000Y-91458269D01*
X128986585Y-91435956D01*
X129095498Y-91365872D01*
X129168564Y-91258937D01*
X129194269Y-91132000D01*
X129194269Y-91095000D01*
X130705731Y-91095000D01*
X130705731Y-91132000D01*
X130728044Y-91250585D01*
X130798128Y-91359498D01*
X130905063Y-91432564D01*
X131032000Y-91458269D01*
X131819000Y-91458269D01*
X131937585Y-91435956D01*
X132046498Y-91365872D01*
X132119564Y-91258937D01*
X132145269Y-91132000D01*
X132145269Y-90268000D01*
X132122956Y-90149415D01*
X132052872Y-90040502D01*
X131945937Y-89967436D01*
X131819000Y-89941731D01*
X131032000Y-89941731D01*
X130913415Y-89964044D01*
X130804502Y-90034128D01*
X130731436Y-90141063D01*
X130705731Y-90268000D01*
X130705731Y-90305000D01*
X129934060Y-90305000D01*
X129945000Y-90250000D01*
X129945000Y-90231737D01*
X130075304Y-90101661D01*
X130169893Y-89873867D01*
X130170108Y-89627215D01*
X130075917Y-89399257D01*
X130071667Y-89395000D01*
X131043263Y-89395000D01*
X131173339Y-89525304D01*
X131401133Y-89619893D01*
X131647785Y-89620108D01*
X131875743Y-89525917D01*
X132050304Y-89351661D01*
X132144893Y-89123867D01*
X132145108Y-88877215D01*
X132050917Y-88649257D01*
X131876661Y-88474696D01*
X131648867Y-88380107D01*
X131402215Y-88379892D01*
X131174257Y-88474083D01*
X131043111Y-88605000D01*
X129194269Y-88605000D01*
X129194269Y-88568000D01*
X129171956Y-88449415D01*
X129101872Y-88340502D01*
X128994937Y-88267436D01*
X128868000Y-88241731D01*
X128081000Y-88241731D01*
X127962415Y-88264044D01*
X127853502Y-88334128D01*
X127780436Y-88441063D01*
X127754731Y-88568000D01*
X127419000Y-88568000D01*
X127419000Y-88548109D01*
X127403776Y-88511354D01*
X127375645Y-88483224D01*
X127338891Y-88468000D01*
X126975500Y-88468000D01*
X126950500Y-88493000D01*
X126900500Y-88493000D01*
X126875500Y-88468000D01*
X126512109Y-88468000D01*
X126475355Y-88483224D01*
X126447224Y-88511354D01*
X126432000Y-88548109D01*
X125395000Y-88548109D01*
X125395000Y-87350000D01*
X126432000Y-87350000D01*
X126432000Y-87751891D01*
X126447224Y-87788646D01*
X126475355Y-87816776D01*
X126512109Y-87832000D01*
X126875500Y-87832000D01*
X126900500Y-87807000D01*
X126900500Y-87325000D01*
X126950500Y-87325000D01*
X126950500Y-87807000D01*
X126975500Y-87832000D01*
X127338891Y-87832000D01*
X127375645Y-87816776D01*
X127403776Y-87788646D01*
X127419000Y-87751891D01*
X127419000Y-87350000D01*
X127394000Y-87325000D01*
X126950500Y-87325000D01*
X126900500Y-87325000D01*
X126457000Y-87325000D01*
X126432000Y-87350000D01*
X125395000Y-87350000D01*
X125395000Y-86848109D01*
X126432000Y-86848109D01*
X126432000Y-87250000D01*
X126457000Y-87275000D01*
X126900500Y-87275000D01*
X126900500Y-86793000D01*
X126950500Y-86793000D01*
X126950500Y-87275000D01*
X127394000Y-87275000D01*
X127419000Y-87250000D01*
X127419000Y-86848109D01*
X127403776Y-86811354D01*
X127375645Y-86783224D01*
X127338891Y-86768000D01*
X126975500Y-86768000D01*
X126950500Y-86793000D01*
X126900500Y-86793000D01*
X126875500Y-86768000D01*
X126512109Y-86768000D01*
X126475355Y-86783224D01*
X126447224Y-86811354D01*
X126432000Y-86848109D01*
X125395000Y-86848109D01*
X125395000Y-85650000D01*
X126432000Y-85650000D01*
X126432000Y-86051891D01*
X126447224Y-86088646D01*
X126475355Y-86116776D01*
X126512109Y-86132000D01*
X126875500Y-86132000D01*
X126900500Y-86107000D01*
X126900500Y-85625000D01*
X126950500Y-85625000D01*
X126950500Y-86107000D01*
X126975500Y-86132000D01*
X127338891Y-86132000D01*
X127375645Y-86116776D01*
X127403776Y-86088646D01*
X127419000Y-86051891D01*
X127419000Y-85650000D01*
X127394000Y-85625000D01*
X126950500Y-85625000D01*
X126900500Y-85625000D01*
X126457000Y-85625000D01*
X126432000Y-85650000D01*
X125395000Y-85650000D01*
X125395000Y-85148109D01*
X126432000Y-85148109D01*
X126432000Y-85550000D01*
X126457000Y-85575000D01*
X126900500Y-85575000D01*
X126900500Y-85093000D01*
X126950500Y-85093000D01*
X126950500Y-85575000D01*
X127394000Y-85575000D01*
X127419000Y-85550000D01*
X127419000Y-85148109D01*
X127403776Y-85111354D01*
X127375645Y-85083224D01*
X127338891Y-85068000D01*
X126975500Y-85068000D01*
X126950500Y-85093000D01*
X126900500Y-85093000D01*
X126875500Y-85068000D01*
X126512109Y-85068000D01*
X126475355Y-85083224D01*
X126447224Y-85111354D01*
X126432000Y-85148109D01*
X125395000Y-85148109D01*
X125395000Y-83950000D01*
X126432000Y-83950000D01*
X126432000Y-84351891D01*
X126447224Y-84388646D01*
X126475355Y-84416776D01*
X126512109Y-84432000D01*
X126875500Y-84432000D01*
X126900500Y-84407000D01*
X126900500Y-83925000D01*
X126950500Y-83925000D01*
X126950500Y-84407000D01*
X126975500Y-84432000D01*
X127338891Y-84432000D01*
X127375645Y-84416776D01*
X127403776Y-84388646D01*
X127419000Y-84351891D01*
X127419000Y-83950000D01*
X127394000Y-83925000D01*
X126950500Y-83925000D01*
X126900500Y-83925000D01*
X126457000Y-83925000D01*
X126432000Y-83950000D01*
X125395000Y-83950000D01*
X125395000Y-83448109D01*
X126432000Y-83448109D01*
X126432000Y-83850000D01*
X126457000Y-83875000D01*
X126900500Y-83875000D01*
X126900500Y-83393000D01*
X126950500Y-83393000D01*
X126950500Y-83875000D01*
X127394000Y-83875000D01*
X127419000Y-83850000D01*
X127419000Y-83448109D01*
X127403776Y-83411354D01*
X127375645Y-83383224D01*
X127338891Y-83368000D01*
X126975500Y-83368000D01*
X126950500Y-83393000D01*
X126900500Y-83393000D01*
X126875500Y-83368000D01*
X126512109Y-83368000D01*
X126475355Y-83383224D01*
X126447224Y-83411354D01*
X126432000Y-83448109D01*
X125395000Y-83448109D01*
X125395000Y-82250000D01*
X126432000Y-82250000D01*
X126432000Y-82651891D01*
X126447224Y-82688646D01*
X126475355Y-82716776D01*
X126512109Y-82732000D01*
X126875500Y-82732000D01*
X126900500Y-82707000D01*
X126900500Y-82225000D01*
X126950500Y-82225000D01*
X126950500Y-82707000D01*
X126975500Y-82732000D01*
X127338891Y-82732000D01*
X127375645Y-82716776D01*
X127403776Y-82688646D01*
X127419000Y-82651891D01*
X127419000Y-82250000D01*
X127394000Y-82225000D01*
X126950500Y-82225000D01*
X126900500Y-82225000D01*
X126457000Y-82225000D01*
X126432000Y-82250000D01*
X125395000Y-82250000D01*
X125395000Y-81748109D01*
X126432000Y-81748109D01*
X126432000Y-82150000D01*
X126457000Y-82175000D01*
X126900500Y-82175000D01*
X126900500Y-81693000D01*
X126950500Y-81693000D01*
X126950500Y-82175000D01*
X127394000Y-82175000D01*
X127419000Y-82150000D01*
X127419000Y-81748109D01*
X127403776Y-81711354D01*
X127375645Y-81683224D01*
X127338891Y-81668000D01*
X126975500Y-81668000D01*
X126950500Y-81693000D01*
X126900500Y-81693000D01*
X126875500Y-81668000D01*
X126512109Y-81668000D01*
X126475355Y-81683224D01*
X126447224Y-81711354D01*
X126432000Y-81748109D01*
X125395000Y-81748109D01*
X125395000Y-80550000D01*
X126432000Y-80550000D01*
X126432000Y-80951891D01*
X126447224Y-80988646D01*
X126475355Y-81016776D01*
X126512109Y-81032000D01*
X126875500Y-81032000D01*
X126900500Y-81007000D01*
X126900500Y-80525000D01*
X126950500Y-80525000D01*
X126950500Y-81007000D01*
X126975500Y-81032000D01*
X127338891Y-81032000D01*
X127375645Y-81016776D01*
X127403776Y-80988646D01*
X127419000Y-80951891D01*
X127419000Y-80550000D01*
X127394000Y-80525000D01*
X126950500Y-80525000D01*
X126900500Y-80525000D01*
X126457000Y-80525000D01*
X126432000Y-80550000D01*
X125395000Y-80550000D01*
X125395000Y-80048109D01*
X126432000Y-80048109D01*
X126432000Y-80450000D01*
X126457000Y-80475000D01*
X126900500Y-80475000D01*
X126900500Y-79993000D01*
X126950500Y-79993000D01*
X126950500Y-80475000D01*
X127394000Y-80475000D01*
X127419000Y-80450000D01*
X127419000Y-80048109D01*
X127403776Y-80011354D01*
X127375645Y-79983224D01*
X127338891Y-79968000D01*
X126975500Y-79968000D01*
X126950500Y-79993000D01*
X126900500Y-79993000D01*
X126875500Y-79968000D01*
X126512109Y-79968000D01*
X126475355Y-79983224D01*
X126447224Y-80011354D01*
X126432000Y-80048109D01*
X125395000Y-80048109D01*
X125395000Y-77572785D01*
X126654892Y-77572785D01*
X126749083Y-77800743D01*
X126923339Y-77975304D01*
X127151133Y-78069893D01*
X127397785Y-78070108D01*
X127625743Y-77975917D01*
X127800304Y-77801661D01*
X127894893Y-77573867D01*
X127895108Y-77327215D01*
X127891651Y-77318849D01*
X127895500Y-77299500D01*
X127895500Y-77043875D01*
X127937585Y-77035956D01*
X128046498Y-76965872D01*
X128119564Y-76858937D01*
X128145269Y-76732000D01*
X128145269Y-76350000D01*
X128481000Y-76350000D01*
X128481000Y-76751891D01*
X128496224Y-76788646D01*
X128524355Y-76816776D01*
X128561109Y-76832000D01*
X128924500Y-76832000D01*
X128949500Y-76807000D01*
X128949500Y-76325000D01*
X128999500Y-76325000D01*
X128999500Y-76807000D01*
X129024500Y-76832000D01*
X129387891Y-76832000D01*
X129424645Y-76816776D01*
X129452776Y-76788646D01*
X129468000Y-76751891D01*
X129468000Y-76350000D01*
X129443000Y-76325000D01*
X128999500Y-76325000D01*
X128949500Y-76325000D01*
X128506000Y-76325000D01*
X128481000Y-76350000D01*
X128145269Y-76350000D01*
X128145269Y-75868000D01*
X128141527Y-75848109D01*
X128481000Y-75848109D01*
X128481000Y-76250000D01*
X128506000Y-76275000D01*
X128949500Y-76275000D01*
X128949500Y-75793000D01*
X128999500Y-75793000D01*
X128999500Y-76275000D01*
X129443000Y-76275000D01*
X129468000Y-76250000D01*
X129468000Y-75848109D01*
X129452776Y-75811354D01*
X129424645Y-75783224D01*
X129387891Y-75768000D01*
X129024500Y-75768000D01*
X128999500Y-75793000D01*
X128949500Y-75793000D01*
X128924500Y-75768000D01*
X128561109Y-75768000D01*
X128524355Y-75783224D01*
X128496224Y-75811354D01*
X128481000Y-75848109D01*
X128141527Y-75848109D01*
X128122956Y-75749415D01*
X128052872Y-75640502D01*
X127945937Y-75567436D01*
X127819000Y-75541731D01*
X127032000Y-75541731D01*
X126913415Y-75564044D01*
X126804502Y-75634128D01*
X126731436Y-75741063D01*
X126705731Y-75868000D01*
X126705731Y-76732000D01*
X126728044Y-76850585D01*
X126798128Y-76959498D01*
X126851944Y-76996269D01*
X126749696Y-77098339D01*
X126655107Y-77326133D01*
X126654892Y-77572785D01*
X125395000Y-77572785D01*
X125395000Y-72038904D01*
X125524323Y-71388755D01*
X125870565Y-70870565D01*
X126388755Y-70524323D01*
X127038903Y-70395000D01*
X134978128Y-70395000D01*
X134924696Y-70448339D01*
X134830107Y-70676133D01*
X134829892Y-70922785D01*
X134924083Y-71150743D01*
X135098339Y-71325304D01*
X135326133Y-71419893D01*
X135572785Y-71420108D01*
X135800743Y-71325917D01*
X135931889Y-71195000D01*
X136709869Y-71195000D01*
X136698731Y-71250000D01*
X136698731Y-71700000D01*
X136703135Y-71723403D01*
X136598867Y-71680107D01*
X136352215Y-71679892D01*
X136124257Y-71774083D01*
X135949696Y-71948339D01*
X135855107Y-72176133D01*
X135854892Y-72422785D01*
X135949083Y-72650743D01*
X136123339Y-72825304D01*
X136315139Y-72904947D01*
X136252215Y-72904892D01*
X136024257Y-72999083D01*
X135849696Y-73173339D01*
X135755107Y-73401133D01*
X135754892Y-73647785D01*
X135849083Y-73875743D01*
X136023339Y-74050304D01*
X136050418Y-74061548D01*
X136052188Y-74064198D01*
X135895693Y-74220693D01*
X135810068Y-74348840D01*
X135780000Y-74500000D01*
X135780000Y-75465702D01*
X135573867Y-75380107D01*
X135327215Y-75379892D01*
X135099257Y-75474083D01*
X135017864Y-75555333D01*
X135003956Y-75481415D01*
X134933872Y-75372502D01*
X134826937Y-75299436D01*
X134700000Y-75273731D01*
X134451269Y-75273731D01*
X134451269Y-75075000D01*
X134428956Y-74956415D01*
X134358872Y-74847502D01*
X134251937Y-74774436D01*
X134125000Y-74748731D01*
X133926269Y-74748731D01*
X133926269Y-74506689D01*
X134000743Y-74475917D01*
X134175304Y-74301661D01*
X134269893Y-74073867D01*
X134270108Y-73827215D01*
X134175917Y-73599257D01*
X134001661Y-73424696D01*
X133773867Y-73330107D01*
X133527215Y-73329892D01*
X133299257Y-73424083D01*
X133257669Y-73465598D01*
X133250917Y-73449257D01*
X133076661Y-73274696D01*
X132848867Y-73180107D01*
X132602215Y-73179892D01*
X132374257Y-73274083D01*
X132199696Y-73448339D01*
X132185136Y-73483404D01*
X132051661Y-73349696D01*
X131823867Y-73255107D01*
X131577215Y-73254892D01*
X131349257Y-73349083D01*
X131174696Y-73523339D01*
X131080107Y-73751133D01*
X131080038Y-73830025D01*
X130927215Y-73829892D01*
X130699257Y-73924083D01*
X130524696Y-74098339D01*
X130485926Y-74191707D01*
X130401160Y-74135068D01*
X130250000Y-74105000D01*
X130031737Y-74105000D01*
X129901661Y-73974696D01*
X129673867Y-73880107D01*
X129427215Y-73879892D01*
X129199257Y-73974083D01*
X129024696Y-74148339D01*
X128930107Y-74376133D01*
X128929892Y-74622785D01*
X129024083Y-74850743D01*
X129198339Y-75025304D01*
X129426133Y-75119893D01*
X129480069Y-75119940D01*
X129479892Y-75322785D01*
X129574083Y-75550743D01*
X129748339Y-75725304D01*
X129976133Y-75819893D01*
X130161440Y-75820055D01*
X130370692Y-76029307D01*
X130427270Y-76067111D01*
X130466128Y-76127498D01*
X130573063Y-76200564D01*
X130607547Y-76207547D01*
X130625000Y-76225000D01*
X130693733Y-76225000D01*
X130700000Y-76226269D01*
X131195000Y-76226269D01*
X131195000Y-76273731D01*
X130700000Y-76273731D01*
X130693256Y-76275000D01*
X130625000Y-76275000D01*
X130609180Y-76290820D01*
X130581415Y-76296044D01*
X130472502Y-76366128D01*
X130399436Y-76473063D01*
X130373731Y-76600000D01*
X130373731Y-76900000D01*
X130393238Y-77003671D01*
X130373731Y-77100000D01*
X130373731Y-77400000D01*
X130396044Y-77518585D01*
X130466128Y-77627498D01*
X130573063Y-77700564D01*
X130580000Y-77701969D01*
X130580000Y-79175000D01*
X130610068Y-79326160D01*
X130695693Y-79454307D01*
X130954996Y-79713610D01*
X130954996Y-80498528D01*
X130985064Y-80649688D01*
X131070689Y-80777835D01*
X131972165Y-81679311D01*
X132100312Y-81764936D01*
X132251472Y-81795004D01*
X138361390Y-81795004D01*
X138945693Y-82379307D01*
X139073840Y-82464932D01*
X139225000Y-82495000D01*
X139618263Y-82495000D01*
X139748339Y-82625304D01*
X139976133Y-82719893D01*
X140222785Y-82720108D01*
X140450743Y-82625917D01*
X140625304Y-82451661D01*
X140719893Y-82223867D01*
X140720108Y-81977215D01*
X140625917Y-81749257D01*
X140451661Y-81574696D01*
X140223867Y-81480107D01*
X140119931Y-81480016D01*
X140120108Y-81277215D01*
X140086137Y-81195000D01*
X140318263Y-81195000D01*
X140448339Y-81325304D01*
X140676133Y-81419893D01*
X140922785Y-81420108D01*
X141150743Y-81325917D01*
X141325304Y-81151661D01*
X141419893Y-80923867D01*
X141420108Y-80677215D01*
X141396467Y-80620000D01*
X141461386Y-80620000D01*
X142455000Y-81613614D01*
X142455000Y-82425000D01*
X142485068Y-82576160D01*
X142570693Y-82704307D01*
X143120692Y-83254307D01*
X143248840Y-83339932D01*
X143400000Y-83370000D01*
X143954129Y-83370000D01*
X143991128Y-83427498D01*
X144098063Y-83500564D01*
X144125000Y-83506019D01*
X144125000Y-83575000D01*
X144150000Y-83600000D01*
X145075000Y-83600000D01*
X145075000Y-83580000D01*
X145125000Y-83580000D01*
X145125000Y-83600000D01*
X146050000Y-83600000D01*
X146075000Y-83575000D01*
X146075000Y-83507453D01*
X146093585Y-83503956D01*
X146202498Y-83433872D01*
X146265194Y-83342113D01*
X146276160Y-83339932D01*
X146404307Y-83254307D01*
X146679307Y-82979307D01*
X146708273Y-82935956D01*
X146764932Y-82851160D01*
X146774713Y-82801989D01*
X146826792Y-82750000D01*
X150732000Y-82750000D01*
X150732000Y-83151891D01*
X150747224Y-83188646D01*
X150775355Y-83216776D01*
X150812109Y-83232000D01*
X151175500Y-83232000D01*
X151200500Y-83207000D01*
X151200500Y-82725000D01*
X151250500Y-82725000D01*
X151250500Y-83207000D01*
X151275500Y-83232000D01*
X151638891Y-83232000D01*
X151675645Y-83216776D01*
X151703776Y-83188646D01*
X151719000Y-83151891D01*
X151719000Y-82750000D01*
X151694000Y-82725000D01*
X151250500Y-82725000D01*
X151200500Y-82725000D01*
X150757000Y-82725000D01*
X150732000Y-82750000D01*
X146826792Y-82750000D01*
X146925304Y-82651661D01*
X147019893Y-82423867D01*
X147020046Y-82248109D01*
X150732000Y-82248109D01*
X150732000Y-82650000D01*
X150757000Y-82675000D01*
X151200500Y-82675000D01*
X151200500Y-82193000D01*
X151250500Y-82193000D01*
X151250500Y-82675000D01*
X151694000Y-82675000D01*
X151719000Y-82650000D01*
X151719000Y-82268000D01*
X152054731Y-82268000D01*
X152054731Y-83132000D01*
X152077044Y-83250585D01*
X152147128Y-83359498D01*
X152254063Y-83432564D01*
X152304500Y-83442778D01*
X152304500Y-83656125D01*
X152262415Y-83664044D01*
X152153502Y-83734128D01*
X152080436Y-83841063D01*
X152054731Y-83968000D01*
X152054731Y-84832000D01*
X152077044Y-84950585D01*
X152147128Y-85059498D01*
X152254063Y-85132564D01*
X152381000Y-85158269D01*
X153168000Y-85158269D01*
X153286585Y-85135956D01*
X153395498Y-85065872D01*
X153468564Y-84958937D01*
X153494269Y-84832000D01*
X153494269Y-84063840D01*
X153584639Y-84124223D01*
X153764500Y-84160000D01*
X155739318Y-84160000D01*
X155984494Y-84526932D01*
X156368482Y-84783504D01*
X156821426Y-84873600D01*
X157178574Y-84873600D01*
X157631518Y-84783504D01*
X158015506Y-84526932D01*
X158272078Y-84142944D01*
X158362174Y-83690000D01*
X158272078Y-83237056D01*
X158015506Y-82853068D01*
X157975595Y-82826400D01*
X165657731Y-82826400D01*
X165657731Y-84553600D01*
X165680044Y-84672185D01*
X165750128Y-84781098D01*
X165857063Y-84854164D01*
X165984000Y-84879869D01*
X168016000Y-84879869D01*
X168134585Y-84857556D01*
X168243498Y-84787472D01*
X168316564Y-84680537D01*
X168342269Y-84553600D01*
X168342269Y-82826400D01*
X168319956Y-82707815D01*
X168249872Y-82598902D01*
X168142937Y-82525836D01*
X168016000Y-82500131D01*
X165984000Y-82500131D01*
X165865415Y-82522444D01*
X165756502Y-82592528D01*
X165683436Y-82699463D01*
X165657731Y-82826400D01*
X157975595Y-82826400D01*
X157631518Y-82596496D01*
X157178574Y-82506400D01*
X156821426Y-82506400D01*
X156368482Y-82596496D01*
X155984494Y-82853068D01*
X155739318Y-83220000D01*
X153959180Y-83220000D01*
X153494269Y-82755089D01*
X153494269Y-82268000D01*
X153471956Y-82149415D01*
X153401872Y-82040502D01*
X153294937Y-81967436D01*
X153168000Y-81941731D01*
X152381000Y-81941731D01*
X152262415Y-81964044D01*
X152153502Y-82034128D01*
X152080436Y-82141063D01*
X152054731Y-82268000D01*
X151719000Y-82268000D01*
X151719000Y-82248109D01*
X151703776Y-82211354D01*
X151675645Y-82183224D01*
X151638891Y-82168000D01*
X151275500Y-82168000D01*
X151250500Y-82193000D01*
X151200500Y-82193000D01*
X151175500Y-82168000D01*
X150812109Y-82168000D01*
X150775355Y-82183224D01*
X150747224Y-82211354D01*
X150732000Y-82248109D01*
X147020046Y-82248109D01*
X147020108Y-82177215D01*
X146925917Y-81949257D01*
X146751661Y-81774696D01*
X146523867Y-81680107D01*
X146277215Y-81679892D01*
X146049257Y-81774083D01*
X145874696Y-81948339D01*
X145780107Y-82176133D01*
X145779892Y-82422785D01*
X145780283Y-82423731D01*
X144225000Y-82423731D01*
X144106415Y-82446044D01*
X143997502Y-82516128D01*
X143953860Y-82580000D01*
X143563615Y-82580000D01*
X143245000Y-82261386D01*
X143245000Y-81450000D01*
X143214932Y-81298840D01*
X143129307Y-81170693D01*
X141904307Y-79945693D01*
X141776160Y-79860068D01*
X141625000Y-79830000D01*
X136588615Y-79830000D01*
X136195000Y-79436386D01*
X136195000Y-77750000D01*
X136164932Y-77598840D01*
X136079307Y-77470693D01*
X136066430Y-77457816D01*
X136276133Y-77544893D01*
X136522785Y-77545108D01*
X136698731Y-77472408D01*
X136698731Y-77550000D01*
X136721044Y-77668585D01*
X136791128Y-77777498D01*
X136898063Y-77850564D01*
X137025000Y-77876269D01*
X138775000Y-77876269D01*
X138893585Y-77853956D01*
X139002498Y-77783872D01*
X139046140Y-77720000D01*
X142961386Y-77720000D01*
X143651572Y-78410186D01*
X143625500Y-78405000D01*
X143556737Y-78405000D01*
X143426661Y-78274696D01*
X143198867Y-78180107D01*
X142952215Y-78179892D01*
X142724257Y-78274083D01*
X142549696Y-78448339D01*
X142455107Y-78676133D01*
X142454892Y-78922785D01*
X142549083Y-79150743D01*
X142723339Y-79325304D01*
X142951133Y-79419893D01*
X143197785Y-79420108D01*
X143425743Y-79325917D01*
X143505731Y-79246069D01*
X143505731Y-79832000D01*
X143528044Y-79950585D01*
X143598128Y-80059498D01*
X143705063Y-80132564D01*
X143832000Y-80158269D01*
X144619000Y-80158269D01*
X144737585Y-80135956D01*
X144846498Y-80065872D01*
X144919564Y-79958937D01*
X144945269Y-79832000D01*
X144945269Y-78968000D01*
X144922956Y-78849415D01*
X144852872Y-78740502D01*
X144745937Y-78667436D01*
X144620500Y-78642035D01*
X144620500Y-78425500D01*
X144590432Y-78274340D01*
X144504807Y-78146193D01*
X144234883Y-77876269D01*
X144705000Y-77876269D01*
X144705000Y-78425000D01*
X144735068Y-78576160D01*
X144820693Y-78704307D01*
X145059725Y-78943339D01*
X145054731Y-78968000D01*
X145054731Y-79832000D01*
X145077044Y-79950585D01*
X145147128Y-80059498D01*
X145254063Y-80132564D01*
X145381000Y-80158269D01*
X146168000Y-80158269D01*
X146286585Y-80135956D01*
X146395498Y-80065872D01*
X146468564Y-79958937D01*
X146494269Y-79832000D01*
X146494269Y-79795000D01*
X147493175Y-79795000D01*
X147573339Y-79875304D01*
X147801133Y-79969893D01*
X148047785Y-79970108D01*
X148275743Y-79875917D01*
X148450304Y-79701661D01*
X148544893Y-79473867D01*
X148545108Y-79227215D01*
X148450917Y-78999257D01*
X148276661Y-78824696D01*
X148048867Y-78730107D01*
X147802215Y-78729892D01*
X147574257Y-78824083D01*
X147399696Y-78998339D01*
X147396930Y-79005000D01*
X146494269Y-79005000D01*
X146494269Y-78968000D01*
X146471956Y-78849415D01*
X146401872Y-78740502D01*
X146294937Y-78667436D01*
X146168000Y-78641731D01*
X145875345Y-78641731D01*
X145495000Y-78261386D01*
X145495000Y-77876269D01*
X145975000Y-77876269D01*
X146093585Y-77853956D01*
X146202498Y-77783872D01*
X146275564Y-77676937D01*
X146301269Y-77550000D01*
X146301269Y-77100000D01*
X146281762Y-76996329D01*
X146301269Y-76900000D01*
X146301269Y-76450000D01*
X146281762Y-76346329D01*
X146301269Y-76250000D01*
X146301269Y-76234883D01*
X146480000Y-76413614D01*
X146480000Y-77175000D01*
X146510068Y-77326160D01*
X146595693Y-77454307D01*
X146870693Y-77729307D01*
X146998840Y-77814932D01*
X147023731Y-77819883D01*
X147023731Y-77900000D01*
X147046044Y-78018585D01*
X147116128Y-78127498D01*
X147223063Y-78200564D01*
X147350000Y-78226269D01*
X149050000Y-78226269D01*
X149168585Y-78203956D01*
X149277498Y-78133872D01*
X149350564Y-78026937D01*
X149376269Y-77900000D01*
X149376269Y-77000000D01*
X149353956Y-76881415D01*
X149283872Y-76772502D01*
X149176937Y-76699436D01*
X149050000Y-76673731D01*
X148332345Y-76673731D01*
X148065014Y-76406400D01*
X155657731Y-76406400D01*
X155657731Y-78133600D01*
X155680044Y-78252185D01*
X155750128Y-78361098D01*
X155857063Y-78434164D01*
X155984000Y-78459869D01*
X158016000Y-78459869D01*
X158134585Y-78437556D01*
X158207209Y-78390823D01*
X159595693Y-79779307D01*
X159723840Y-79864932D01*
X159875000Y-79895000D01*
X164310000Y-79895000D01*
X164461160Y-79864932D01*
X164589307Y-79779307D01*
X166449079Y-77919536D01*
X166821426Y-77993600D01*
X167178574Y-77993600D01*
X167631518Y-77903504D01*
X168015506Y-77646932D01*
X168272078Y-77262944D01*
X168362174Y-76810000D01*
X168272078Y-76357056D01*
X168015506Y-75973068D01*
X167631518Y-75716496D01*
X167178574Y-75626400D01*
X166821426Y-75626400D01*
X166368482Y-75716496D01*
X165984494Y-75973068D01*
X165727922Y-76357056D01*
X165637826Y-76810000D01*
X165727922Y-77262944D01*
X165832271Y-77419114D01*
X164146386Y-79105000D01*
X160038614Y-79105000D01*
X158342269Y-77408655D01*
X158342269Y-76406400D01*
X158319956Y-76287815D01*
X158249872Y-76178902D01*
X158142937Y-76105836D01*
X158016000Y-76080131D01*
X155984000Y-76080131D01*
X155865415Y-76102444D01*
X155756502Y-76172528D01*
X155683436Y-76279463D01*
X155657731Y-76406400D01*
X148065014Y-76406400D01*
X147923867Y-76265253D01*
X148051160Y-76239932D01*
X148179307Y-76154307D01*
X148479307Y-75854307D01*
X148564932Y-75726160D01*
X148595000Y-75575000D01*
X148595000Y-75326269D01*
X149050000Y-75326269D01*
X149168585Y-75303956D01*
X149277498Y-75233872D01*
X149350564Y-75126937D01*
X149376269Y-75000000D01*
X149376269Y-74730000D01*
X155637826Y-74730000D01*
X155727922Y-75182944D01*
X155984494Y-75566932D01*
X156368482Y-75823504D01*
X156821426Y-75913600D01*
X157178574Y-75913600D01*
X157631518Y-75823504D01*
X158015506Y-75566932D01*
X158272078Y-75182944D01*
X158362174Y-74730000D01*
X158272078Y-74277056D01*
X158015506Y-73893068D01*
X157631518Y-73636496D01*
X157178574Y-73546400D01*
X156821426Y-73546400D01*
X156368482Y-73636496D01*
X155984494Y-73893068D01*
X155727922Y-74277056D01*
X155637826Y-74730000D01*
X149376269Y-74730000D01*
X149376269Y-74100000D01*
X149353956Y-73981415D01*
X149283872Y-73872502D01*
X149176937Y-73799436D01*
X149050000Y-73773731D01*
X147350000Y-73773731D01*
X147231415Y-73796044D01*
X147122502Y-73866128D01*
X147052375Y-73968761D01*
X146301269Y-73217655D01*
X146301269Y-73200000D01*
X146278956Y-73081415D01*
X146208872Y-72972502D01*
X146175940Y-72950000D01*
X150732000Y-72950000D01*
X150732000Y-73351891D01*
X150747224Y-73388646D01*
X150775355Y-73416776D01*
X150812109Y-73432000D01*
X151175500Y-73432000D01*
X151200500Y-73407000D01*
X151200500Y-72925000D01*
X151250500Y-72925000D01*
X151250500Y-73407000D01*
X151275500Y-73432000D01*
X151638891Y-73432000D01*
X151675645Y-73416776D01*
X151703776Y-73388646D01*
X151719000Y-73351891D01*
X151719000Y-72950000D01*
X151694000Y-72925000D01*
X151250500Y-72925000D01*
X151200500Y-72925000D01*
X150757000Y-72925000D01*
X150732000Y-72950000D01*
X146175940Y-72950000D01*
X146101937Y-72899436D01*
X146075000Y-72893981D01*
X146075000Y-72825000D01*
X146050000Y-72800000D01*
X145125000Y-72800000D01*
X145125000Y-72820000D01*
X145075000Y-72820000D01*
X145075000Y-72800000D01*
X144150000Y-72800000D01*
X144125000Y-72825000D01*
X144125000Y-72892547D01*
X144106415Y-72896044D01*
X143997502Y-72966128D01*
X143924436Y-73073063D01*
X143898731Y-73200000D01*
X143898731Y-73650000D01*
X143918238Y-73753671D01*
X143898731Y-73850000D01*
X143898731Y-74300000D01*
X143918238Y-74403671D01*
X143898731Y-74500000D01*
X143898731Y-74950000D01*
X143918238Y-75053671D01*
X143898731Y-75150000D01*
X143898731Y-75471805D01*
X143876661Y-75449696D01*
X143648867Y-75355107D01*
X143469975Y-75354951D01*
X143470108Y-75202215D01*
X143375917Y-74974257D01*
X143201661Y-74799696D01*
X142973867Y-74705107D01*
X142727215Y-74704892D01*
X142499257Y-74799083D01*
X142324696Y-74973339D01*
X142230107Y-75201133D01*
X142229892Y-75447785D01*
X142324083Y-75675743D01*
X142455000Y-75806889D01*
X142455000Y-76375000D01*
X142485068Y-76526160D01*
X142570693Y-76654307D01*
X142846386Y-76930000D01*
X141403614Y-76930000D01*
X141954307Y-76379307D01*
X141974664Y-76348840D01*
X142039932Y-76251160D01*
X142070000Y-76100000D01*
X142070000Y-72806737D01*
X142200304Y-72676661D01*
X142294893Y-72448867D01*
X142295108Y-72202215D01*
X142283863Y-72175000D01*
X144125000Y-72175000D01*
X144125000Y-72369891D01*
X144140224Y-72406646D01*
X144168355Y-72434776D01*
X144205109Y-72450000D01*
X144168355Y-72465224D01*
X144140224Y-72493354D01*
X144125000Y-72530109D01*
X144125000Y-72725000D01*
X144150000Y-72750000D01*
X145075000Y-72750000D01*
X145075000Y-72475000D01*
X145050000Y-72450000D01*
X145075000Y-72425000D01*
X145075000Y-72150000D01*
X145125000Y-72150000D01*
X145125000Y-72425000D01*
X145150000Y-72450000D01*
X145125000Y-72475000D01*
X145125000Y-72750000D01*
X146050000Y-72750000D01*
X146075000Y-72725000D01*
X146075000Y-72530109D01*
X146059776Y-72493354D01*
X146031645Y-72465224D01*
X145994891Y-72450000D01*
X145999456Y-72448109D01*
X150732000Y-72448109D01*
X150732000Y-72850000D01*
X150757000Y-72875000D01*
X151200500Y-72875000D01*
X151200500Y-72393000D01*
X151250500Y-72393000D01*
X151250500Y-72875000D01*
X151694000Y-72875000D01*
X151719000Y-72850000D01*
X151719000Y-72448109D01*
X151703776Y-72411354D01*
X151675645Y-72383224D01*
X151638891Y-72368000D01*
X151275500Y-72368000D01*
X151250500Y-72393000D01*
X151200500Y-72393000D01*
X151175500Y-72368000D01*
X150812109Y-72368000D01*
X150775355Y-72383224D01*
X150747224Y-72411354D01*
X150732000Y-72448109D01*
X145999456Y-72448109D01*
X146031645Y-72434776D01*
X146059776Y-72406646D01*
X146075000Y-72369891D01*
X146075000Y-72175000D01*
X146050000Y-72150000D01*
X145125000Y-72150000D01*
X145075000Y-72150000D01*
X144150000Y-72150000D01*
X144125000Y-72175000D01*
X142283863Y-72175000D01*
X142200917Y-71974257D01*
X142026661Y-71799696D01*
X141798867Y-71705107D01*
X141552215Y-71704892D01*
X141324257Y-71799083D01*
X141149696Y-71973339D01*
X141055107Y-72201133D01*
X141054892Y-72447785D01*
X141149083Y-72675743D01*
X141280000Y-72806889D01*
X141280000Y-75003260D01*
X141151661Y-74874696D01*
X140923867Y-74780107D01*
X140719931Y-74779929D01*
X140720108Y-74577215D01*
X140625917Y-74349257D01*
X140451661Y-74174696D01*
X140223867Y-74080107D01*
X139977215Y-74079892D01*
X139749257Y-74174083D01*
X139593067Y-74330000D01*
X139095194Y-74330000D01*
X139101269Y-74300000D01*
X139101269Y-73878152D01*
X139148339Y-73925304D01*
X139376133Y-74019893D01*
X139622785Y-74020108D01*
X139850743Y-73925917D01*
X140025304Y-73751661D01*
X140119893Y-73523867D01*
X140120108Y-73277215D01*
X140025917Y-73049257D01*
X139951813Y-72975023D01*
X140025304Y-72901661D01*
X140119893Y-72673867D01*
X140120108Y-72427215D01*
X140025917Y-72199257D01*
X139851661Y-72024696D01*
X139623867Y-71930107D01*
X139377215Y-71929892D01*
X139149257Y-72024083D01*
X139101269Y-72071987D01*
X139101269Y-71900000D01*
X139081762Y-71796329D01*
X139101269Y-71700000D01*
X139101269Y-71250000D01*
X139090920Y-71195000D01*
X142886386Y-71195000D01*
X143445693Y-71754307D01*
X143573840Y-71839932D01*
X143725000Y-71870000D01*
X143954129Y-71870000D01*
X143991128Y-71927498D01*
X144098063Y-72000564D01*
X144125000Y-72006019D01*
X144125000Y-72075000D01*
X144150000Y-72100000D01*
X145075000Y-72100000D01*
X145075000Y-72080000D01*
X145125000Y-72080000D01*
X145125000Y-72100000D01*
X146050000Y-72100000D01*
X146075000Y-72075000D01*
X146075000Y-72007453D01*
X146093585Y-72003956D01*
X146202498Y-71933872D01*
X146275564Y-71826937D01*
X146301269Y-71700000D01*
X146301269Y-71250000D01*
X150732000Y-71250000D01*
X150732000Y-71651891D01*
X150747224Y-71688646D01*
X150775355Y-71716776D01*
X150812109Y-71732000D01*
X151175500Y-71732000D01*
X151200500Y-71707000D01*
X151200500Y-71225000D01*
X151250500Y-71225000D01*
X151250500Y-71707000D01*
X151275500Y-71732000D01*
X151638891Y-71732000D01*
X151675645Y-71716776D01*
X151703776Y-71688646D01*
X151719000Y-71651891D01*
X151719000Y-71250000D01*
X151694000Y-71225000D01*
X151250500Y-71225000D01*
X151200500Y-71225000D01*
X150757000Y-71225000D01*
X150732000Y-71250000D01*
X146301269Y-71250000D01*
X146278956Y-71131415D01*
X146208872Y-71022502D01*
X146101937Y-70949436D01*
X145975000Y-70923731D01*
X144225000Y-70923731D01*
X144106415Y-70946044D01*
X143997502Y-71016128D01*
X143953860Y-71080000D01*
X143888614Y-71080000D01*
X143556723Y-70748109D01*
X150732000Y-70748109D01*
X150732000Y-71150000D01*
X150757000Y-71175000D01*
X151200500Y-71175000D01*
X151200500Y-70693000D01*
X151250500Y-70693000D01*
X151250500Y-71175000D01*
X151694000Y-71175000D01*
X151719000Y-71150000D01*
X151719000Y-70768000D01*
X152054731Y-70768000D01*
X152054731Y-71632000D01*
X152077044Y-71750585D01*
X152147128Y-71859498D01*
X152254063Y-71932564D01*
X152304500Y-71942778D01*
X152304500Y-72156125D01*
X152262415Y-72164044D01*
X152153502Y-72234128D01*
X152080436Y-72341063D01*
X152054731Y-72468000D01*
X152054731Y-73332000D01*
X152077044Y-73450585D01*
X152147128Y-73559498D01*
X152254063Y-73632564D01*
X152381000Y-73658269D01*
X153168000Y-73658269D01*
X153286585Y-73635956D01*
X153395498Y-73565872D01*
X153468564Y-73458937D01*
X153494269Y-73332000D01*
X153494269Y-72660000D01*
X155739318Y-72660000D01*
X155984494Y-73026932D01*
X156368482Y-73283504D01*
X156821426Y-73373600D01*
X157178574Y-73373600D01*
X157631518Y-73283504D01*
X158015506Y-73026932D01*
X158272078Y-72642944D01*
X158362174Y-72190000D01*
X158272078Y-71737056D01*
X158015506Y-71353068D01*
X157631518Y-71096496D01*
X157178574Y-71006400D01*
X156821426Y-71006400D01*
X156368482Y-71096496D01*
X155984494Y-71353068D01*
X155739318Y-71720000D01*
X153679180Y-71720000D01*
X153494269Y-71535089D01*
X153494269Y-70768000D01*
X153471956Y-70649415D01*
X153401872Y-70540502D01*
X153294937Y-70467436D01*
X153168000Y-70441731D01*
X152381000Y-70441731D01*
X152262415Y-70464044D01*
X152153502Y-70534128D01*
X152080436Y-70641063D01*
X152054731Y-70768000D01*
X151719000Y-70768000D01*
X151719000Y-70748109D01*
X151703776Y-70711354D01*
X151675645Y-70683224D01*
X151638891Y-70668000D01*
X151275500Y-70668000D01*
X151250500Y-70693000D01*
X151200500Y-70693000D01*
X151175500Y-70668000D01*
X150812109Y-70668000D01*
X150775355Y-70683224D01*
X150747224Y-70711354D01*
X150732000Y-70748109D01*
X143556723Y-70748109D01*
X143329307Y-70520693D01*
X143201160Y-70435068D01*
X143050000Y-70405000D01*
X135931737Y-70405000D01*
X135921755Y-70395000D01*
X163500000Y-70395000D01*
X163538157Y-70387410D01*
X163577060Y-70387410D01*
X163768403Y-70349350D01*
X163768404Y-70349350D01*
X163869091Y-70307643D01*
X163910792Y-70290370D01*
X163910794Y-70290369D01*
X164073005Y-70181983D01*
X164138391Y-70116595D01*
X164181982Y-70073005D01*
X164290369Y-69910794D01*
X164344318Y-69780550D01*
X164349350Y-69768402D01*
X164387410Y-69577060D01*
X164387410Y-69538157D01*
X164395000Y-69500000D01*
X164395000Y-68500000D01*
X165657731Y-68500000D01*
X165657731Y-69108655D01*
X165657731Y-69108655D01*
G37*
X165657731Y-69108655D02*
X164211386Y-70555000D01*
X162825000Y-70555000D01*
X162673840Y-70585068D01*
X162545693Y-70670693D01*
X161536334Y-71680052D01*
X161352215Y-71679892D01*
X161124257Y-71774083D01*
X160949696Y-71948339D01*
X160855107Y-72176133D01*
X160854892Y-72422785D01*
X160949083Y-72650743D01*
X161123339Y-72825304D01*
X161351133Y-72919893D01*
X161597785Y-72920108D01*
X161825743Y-72825917D01*
X162000304Y-72651661D01*
X162094893Y-72423867D01*
X162095055Y-72238559D01*
X162988614Y-71345000D01*
X163844727Y-71345000D01*
X163743840Y-71365068D01*
X163615693Y-71450693D01*
X162295693Y-72770693D01*
X162210068Y-72898840D01*
X162180000Y-73050000D01*
X162180000Y-76618263D01*
X162049696Y-76748339D01*
X161955107Y-76976133D01*
X161954892Y-77222785D01*
X162049083Y-77450743D01*
X162223339Y-77625304D01*
X162451133Y-77719893D01*
X162697785Y-77720108D01*
X162925743Y-77625917D01*
X163100304Y-77451661D01*
X163194893Y-77223867D01*
X163195108Y-76977215D01*
X163100917Y-76749257D01*
X162970000Y-76618111D01*
X162970000Y-75821784D01*
X163073339Y-75925304D01*
X163301133Y-76019893D01*
X163547785Y-76020108D01*
X163775743Y-75925917D01*
X163950304Y-75751661D01*
X164044893Y-75523867D01*
X164045055Y-75338559D01*
X164718614Y-74665000D01*
X165716396Y-74665000D01*
X165727922Y-74722944D01*
X165984494Y-75106932D01*
X166368482Y-75363504D01*
X166821426Y-75453600D01*
X167178574Y-75453600D01*
X167631518Y-75363504D01*
X168015506Y-75106932D01*
X168272078Y-74722944D01*
X168362174Y-74270000D01*
X168272078Y-73817056D01*
X168015506Y-73433068D01*
X167631518Y-73176496D01*
X167178574Y-73086400D01*
X166821426Y-73086400D01*
X166368482Y-73176496D01*
X165984494Y-73433068D01*
X165727922Y-73817056D01*
X165716396Y-73875000D01*
X164555000Y-73875000D01*
X164403840Y-73905068D01*
X164275693Y-73990693D01*
X163486334Y-74780052D01*
X163302215Y-74779892D01*
X163074257Y-74874083D01*
X162970000Y-74978158D01*
X162970000Y-73213614D01*
X164058614Y-72125000D01*
X165716396Y-72125000D01*
X165727922Y-72182944D01*
X165984494Y-72566932D01*
X166368482Y-72823504D01*
X166821426Y-72913600D01*
X167178574Y-72913600D01*
X167631518Y-72823504D01*
X168015506Y-72566932D01*
X168272078Y-72182944D01*
X168362174Y-71730000D01*
X168272078Y-71277056D01*
X168015506Y-70893068D01*
X167631518Y-70636496D01*
X167178574Y-70546400D01*
X166821426Y-70546400D01*
X166368482Y-70636496D01*
X165984494Y-70893068D01*
X165727922Y-71277056D01*
X165716396Y-71335000D01*
X164425273Y-71335000D01*
X164526160Y-71314932D01*
X164654307Y-71229307D01*
X165692332Y-70191282D01*
X165750128Y-70281098D01*
X165857063Y-70354164D01*
X165984000Y-70379869D01*
X168016000Y-70379869D01*
X168134585Y-70357556D01*
X168243498Y-70287472D01*
X168316564Y-70180537D01*
X168342269Y-70053600D01*
X168342269Y-68500000D01*
X175300000Y-68500000D01*
X175300000Y-93105000D01*
X161100000Y-93105000D01*
X161061843Y-93112590D01*
X161022939Y-93112590D01*
X160659391Y-93184904D01*
X160659390Y-93184904D01*
X160517000Y-93243884D01*
X160208798Y-93449819D01*
X160154309Y-93504309D01*
X160099819Y-93558798D01*
X159893884Y-93867000D01*
X159834904Y-94009390D01*
X159834904Y-94009391D01*
X159772126Y-94325000D01*
X151975000Y-94325000D01*
X151936094Y-94332879D01*
X151903319Y-94355273D01*
X151881839Y-94388654D01*
X151875000Y-94425000D01*
X151875000Y-97571155D01*
X151873676Y-97573093D01*
X151866513Y-97608464D01*
X151846151Y-97600030D01*
X151551140Y-97600030D01*
X151526140Y-97625030D01*
X151526140Y-99975000D01*
X151546140Y-99975000D01*
X151546140Y-100025000D01*
X151526140Y-100025000D01*
X151526140Y-100045000D01*
X151476140Y-100045000D01*
X151476140Y-100025000D01*
X151101020Y-100025000D01*
X151076020Y-100050000D01*
X151076020Y-102220746D01*
X151074533Y-102224532D01*
X151076020Y-102305174D01*
X151076020Y-102319861D01*
X151076303Y-102320545D01*
X151077651Y-102393626D01*
X151136361Y-102535365D01*
X151195187Y-102571838D01*
X151367055Y-102399970D01*
X151437765Y-102399970D01*
X151230542Y-102607193D01*
X151267015Y-102666019D01*
X151424432Y-102727847D01*
X151593526Y-102724729D01*
X151735265Y-102666019D01*
X151771738Y-102607193D01*
X151564515Y-102399970D01*
X151635225Y-102399970D01*
X151807093Y-102571838D01*
X151865919Y-102535365D01*
X151875000Y-102512245D01*
X151875000Y-102905000D01*
X149388903Y-102905000D01*
X149352284Y-102897716D01*
X149345000Y-102861098D01*
X149345000Y-102697246D01*
X149422912Y-102727847D01*
X149592006Y-102724729D01*
X149733745Y-102666019D01*
X149770218Y-102607193D01*
X149562995Y-102399970D01*
X149633705Y-102399970D01*
X149805573Y-102571838D01*
X149864399Y-102535365D01*
X149926227Y-102377948D01*
X149924740Y-102297306D01*
X149924740Y-102224532D01*
X150073773Y-102224532D01*
X150075260Y-102305174D01*
X150075260Y-102319861D01*
X150075543Y-102320545D01*
X150076891Y-102393626D01*
X150135601Y-102535365D01*
X150194427Y-102571838D01*
X150366295Y-102399970D01*
X150437005Y-102399970D01*
X150229782Y-102607193D01*
X150266255Y-102666019D01*
X150423672Y-102727847D01*
X150592766Y-102724729D01*
X150734505Y-102666019D01*
X150770978Y-102607193D01*
X150563755Y-102399970D01*
X150634465Y-102399970D01*
X150806333Y-102571838D01*
X150865159Y-102535365D01*
X150926987Y-102377948D01*
X150925500Y-102297306D01*
X150925500Y-100050000D01*
X150900500Y-100025000D01*
X150525380Y-100025000D01*
X150525380Y-100045000D01*
X150475380Y-100045000D01*
X150475380Y-100025000D01*
X150100260Y-100025000D01*
X150075260Y-100050000D01*
X150075260Y-102220746D01*
X150073773Y-102224532D01*
X149924740Y-102224532D01*
X149924740Y-100050000D01*
X149899740Y-100025000D01*
X149524620Y-100025000D01*
X149524620Y-100045000D01*
X149474620Y-100045000D01*
X149474620Y-100025000D01*
X149454620Y-100025000D01*
X149454620Y-99975000D01*
X149474620Y-99975000D01*
X149474620Y-97625030D01*
X149524620Y-97625030D01*
X149524620Y-99975000D01*
X149899740Y-99975000D01*
X149924740Y-99950000D01*
X149924740Y-97680139D01*
X150075260Y-97680139D01*
X150075260Y-99950000D01*
X150100260Y-99975000D01*
X150475380Y-99975000D01*
X150475380Y-97625030D01*
X150525380Y-97625030D01*
X150525380Y-99975000D01*
X150900500Y-99975000D01*
X150925500Y-99950000D01*
X150925500Y-97680139D01*
X151076020Y-97680139D01*
X151076020Y-99950000D01*
X151101020Y-99975000D01*
X151476140Y-99975000D01*
X151476140Y-97625030D01*
X151451140Y-97600030D01*
X151156129Y-97600030D01*
X151119375Y-97615254D01*
X151091244Y-97643384D01*
X151076020Y-97680139D01*
X150925500Y-97680139D01*
X150910276Y-97643384D01*
X150882145Y-97615254D01*
X150845391Y-97600030D01*
X150550380Y-97600030D01*
X150525380Y-97625030D01*
X150475380Y-97625030D01*
X150450380Y-97600030D01*
X150155369Y-97600030D01*
X150118615Y-97615254D01*
X150090484Y-97643384D01*
X150075260Y-97680139D01*
X149924740Y-97680139D01*
X149909516Y-97643384D01*
X149881385Y-97615254D01*
X149844631Y-97600030D01*
X149549620Y-97600030D01*
X149524620Y-97625030D01*
X149474620Y-97625030D01*
X149449620Y-97600030D01*
X149345000Y-97600030D01*
X149345000Y-94450000D01*
X149337410Y-94411843D01*
X149337410Y-94372939D01*
X149265096Y-94009391D01*
X149265096Y-94009390D01*
X149206116Y-93867000D01*
X149000181Y-93558798D01*
X148945691Y-93504309D01*
X148891202Y-93449819D01*
X148583000Y-93243884D01*
X148440610Y-93184904D01*
X148440609Y-93184904D01*
X148077062Y-93112590D01*
X147922939Y-93112590D01*
X147559391Y-93184904D01*
X147559390Y-93184904D01*
X147417000Y-93243884D01*
X147108798Y-93449819D01*
X147054309Y-93504309D01*
X146999819Y-93558798D01*
X146793884Y-93867000D01*
X146734904Y-94009390D01*
X146734904Y-94009391D01*
X146662590Y-94372940D01*
X146662590Y-94378976D01*
X143941883Y-91658269D01*
X144619000Y-91658269D01*
X144737585Y-91635956D01*
X144846498Y-91565872D01*
X144919564Y-91458937D01*
X144945269Y-91332000D01*
X144945269Y-90468000D01*
X144922956Y-90349415D01*
X144852872Y-90240502D01*
X144745937Y-90167436D01*
X144619000Y-90141731D01*
X144400345Y-90141731D01*
X143594948Y-89336334D01*
X143595108Y-89152215D01*
X143500917Y-88924257D01*
X143326661Y-88749696D01*
X143098867Y-88655107D01*
X142913559Y-88654945D01*
X142804307Y-88545693D01*
X142676160Y-88460068D01*
X142525000Y-88430000D01*
X141178614Y-88430000D01*
X142179307Y-87429307D01*
X142264932Y-87301160D01*
X142295000Y-87150000D01*
X142295000Y-86540861D01*
X142299083Y-86550743D01*
X142430000Y-86681889D01*
X142430000Y-87625000D01*
X142460068Y-87776160D01*
X142545693Y-87904307D01*
X143095692Y-88454307D01*
X143223840Y-88539932D01*
X143375000Y-88570000D01*
X143904806Y-88570000D01*
X143898731Y-88600000D01*
X143898731Y-89050000D01*
X143921044Y-89168585D01*
X143991128Y-89277498D01*
X144098063Y-89350564D01*
X144225000Y-89376269D01*
X144720171Y-89376269D01*
X144735068Y-89451160D01*
X144820693Y-89579307D01*
X145379500Y-90138114D01*
X145379500Y-90142013D01*
X145262415Y-90164044D01*
X145153502Y-90234128D01*
X145080436Y-90341063D01*
X145054731Y-90468000D01*
X145054731Y-91332000D01*
X145077044Y-91450585D01*
X145147128Y-91559498D01*
X145254063Y-91632564D01*
X145381000Y-91658269D01*
X146168000Y-91658269D01*
X146286585Y-91635956D01*
X146395498Y-91565872D01*
X146468564Y-91458937D01*
X146494269Y-91332000D01*
X146494269Y-91295000D01*
X147249318Y-91295000D01*
X147375000Y-91320000D01*
X147500682Y-91295000D01*
X149050000Y-91295000D01*
X149201160Y-91264932D01*
X149329307Y-91179307D01*
X149638666Y-90869948D01*
X149822785Y-90870108D01*
X150050743Y-90775917D01*
X150225304Y-90601661D01*
X150319893Y-90373867D01*
X150320108Y-90127215D01*
X150225917Y-89899257D01*
X150051661Y-89724696D01*
X149823867Y-89630107D01*
X149577215Y-89629892D01*
X149349257Y-89724083D01*
X149174696Y-89898339D01*
X149080107Y-90126133D01*
X149079945Y-90311441D01*
X148886386Y-90505000D01*
X146494269Y-90505000D01*
X146494269Y-90468000D01*
X146471956Y-90349415D01*
X146401872Y-90240502D01*
X146294937Y-90167436D01*
X146169500Y-90142035D01*
X146169500Y-89974500D01*
X146139432Y-89823340D01*
X146053807Y-89695193D01*
X145734883Y-89376269D01*
X145975000Y-89376269D01*
X146093585Y-89353956D01*
X146202498Y-89283872D01*
X146275564Y-89176937D01*
X146301269Y-89050000D01*
X146301269Y-88600000D01*
X146281762Y-88496329D01*
X146301269Y-88400000D01*
X146301269Y-87950000D01*
X146281762Y-87846329D01*
X146301269Y-87750000D01*
X146301269Y-87509884D01*
X146530000Y-87738615D01*
X146530000Y-88750000D01*
X146560068Y-88901160D01*
X146645693Y-89029307D01*
X146845693Y-89229307D01*
X146973840Y-89314932D01*
X147023731Y-89324856D01*
X147023731Y-89400000D01*
X147046044Y-89518585D01*
X147116128Y-89627498D01*
X147223063Y-89700564D01*
X147350000Y-89726269D01*
X149050000Y-89726269D01*
X149168585Y-89703956D01*
X149277498Y-89633872D01*
X149350564Y-89526937D01*
X149376269Y-89400000D01*
X149376269Y-88947785D01*
X153604892Y-88947785D01*
X153699083Y-89175743D01*
X153873339Y-89350304D01*
X154101133Y-89444893D01*
X154347785Y-89445108D01*
X154575743Y-89350917D01*
X154750304Y-89176661D01*
X154755146Y-89165000D01*
X155657731Y-89165000D01*
X155657731Y-89633600D01*
X155680044Y-89752185D01*
X155750128Y-89861098D01*
X155857063Y-89934164D01*
X155984000Y-89959869D01*
X158016000Y-89959869D01*
X158134585Y-89937556D01*
X158243498Y-89867472D01*
X158316564Y-89760537D01*
X158342269Y-89633600D01*
X158342269Y-89165000D01*
X162206386Y-89165000D01*
X164630693Y-91589307D01*
X164758840Y-91674932D01*
X164910000Y-91705000D01*
X165716396Y-91705000D01*
X165727922Y-91762944D01*
X165984494Y-92146932D01*
X166368482Y-92403504D01*
X166821426Y-92493600D01*
X167178574Y-92493600D01*
X167631518Y-92403504D01*
X168015506Y-92146932D01*
X168272078Y-91762944D01*
X168362174Y-91310000D01*
X168272078Y-90857056D01*
X168015506Y-90473068D01*
X167631518Y-90216496D01*
X167178574Y-90126400D01*
X166821426Y-90126400D01*
X166368482Y-90216496D01*
X165984494Y-90473068D01*
X165727922Y-90857056D01*
X165716396Y-90915000D01*
X165073614Y-90915000D01*
X162928614Y-88770000D01*
X165637826Y-88770000D01*
X165727922Y-89222944D01*
X165984494Y-89606932D01*
X166368482Y-89863504D01*
X166821426Y-89953600D01*
X167178574Y-89953600D01*
X167631518Y-89863504D01*
X168015506Y-89606932D01*
X168272078Y-89222944D01*
X168362174Y-88770000D01*
X168272078Y-88317056D01*
X168015506Y-87933068D01*
X167631518Y-87676496D01*
X167178574Y-87586400D01*
X166821426Y-87586400D01*
X166368482Y-87676496D01*
X165984494Y-87933068D01*
X165727922Y-88317056D01*
X165637826Y-88770000D01*
X162928614Y-88770000D01*
X162649307Y-88490693D01*
X162521160Y-88405068D01*
X162370000Y-88375000D01*
X158342269Y-88375000D01*
X158342269Y-87906400D01*
X158319956Y-87787815D01*
X158249872Y-87678902D01*
X158142937Y-87605836D01*
X158016000Y-87580131D01*
X155984000Y-87580131D01*
X155865415Y-87602444D01*
X155756502Y-87672528D01*
X155683436Y-87779463D01*
X155657731Y-87906400D01*
X155657731Y-88375000D01*
X154651833Y-88375000D01*
X154576661Y-88299696D01*
X154348867Y-88205107D01*
X154102215Y-88204892D01*
X153874257Y-88299083D01*
X153699696Y-88473339D01*
X153605107Y-88701133D01*
X153604892Y-88947785D01*
X149376269Y-88947785D01*
X149376269Y-88500000D01*
X149353956Y-88381415D01*
X149283872Y-88272502D01*
X149176937Y-88199436D01*
X149050000Y-88173731D01*
X148569883Y-88173731D01*
X148564932Y-88148840D01*
X148479307Y-88020693D01*
X147928614Y-87470000D01*
X148000000Y-87470000D01*
X148151160Y-87439932D01*
X148279307Y-87354307D01*
X148479307Y-87154307D01*
X148501767Y-87120693D01*
X148564932Y-87026160D01*
X148595000Y-86875000D01*
X148595000Y-86826269D01*
X149050000Y-86826269D01*
X149168585Y-86803956D01*
X149277498Y-86733872D01*
X149350564Y-86626937D01*
X149376269Y-86500000D01*
X149376269Y-86230000D01*
X155637826Y-86230000D01*
X155727922Y-86682944D01*
X155984494Y-87066932D01*
X156368482Y-87323504D01*
X156821426Y-87413600D01*
X157178574Y-87413600D01*
X157631518Y-87323504D01*
X158015506Y-87066932D01*
X158272078Y-86682944D01*
X158362174Y-86230000D01*
X165637826Y-86230000D01*
X165727922Y-86682944D01*
X165984494Y-87066932D01*
X166368482Y-87323504D01*
X166821426Y-87413600D01*
X167178574Y-87413600D01*
X167631518Y-87323504D01*
X168015506Y-87066932D01*
X168272078Y-86682944D01*
X168362174Y-86230000D01*
X168272078Y-85777056D01*
X168015506Y-85393068D01*
X167631518Y-85136496D01*
X167178574Y-85046400D01*
X166821426Y-85046400D01*
X166368482Y-85136496D01*
X165984494Y-85393068D01*
X165727922Y-85777056D01*
X165637826Y-86230000D01*
X158362174Y-86230000D01*
X158272078Y-85777056D01*
X158015506Y-85393068D01*
X157631518Y-85136496D01*
X157178574Y-85046400D01*
X156821426Y-85046400D01*
X156368482Y-85136496D01*
X155984494Y-85393068D01*
X155727922Y-85777056D01*
X155637826Y-86230000D01*
X149376269Y-86230000D01*
X149376269Y-85600000D01*
X149353956Y-85481415D01*
X149283872Y-85372502D01*
X149176937Y-85299436D01*
X149050000Y-85273731D01*
X147350000Y-85273731D01*
X147231415Y-85296044D01*
X147122502Y-85366128D01*
X147092967Y-85409353D01*
X146329307Y-84645693D01*
X146285549Y-84616455D01*
X146278956Y-84581415D01*
X146208872Y-84472502D01*
X146175940Y-84450000D01*
X150732000Y-84450000D01*
X150732000Y-84851891D01*
X150747224Y-84888646D01*
X150775355Y-84916776D01*
X150812109Y-84932000D01*
X151175500Y-84932000D01*
X151200500Y-84907000D01*
X151200500Y-84425000D01*
X151250500Y-84425000D01*
X151250500Y-84907000D01*
X151275500Y-84932000D01*
X151638891Y-84932000D01*
X151675645Y-84916776D01*
X151703776Y-84888646D01*
X151719000Y-84851891D01*
X151719000Y-84450000D01*
X151694000Y-84425000D01*
X151250500Y-84425000D01*
X151200500Y-84425000D01*
X150757000Y-84425000D01*
X150732000Y-84450000D01*
X146175940Y-84450000D01*
X146101937Y-84399436D01*
X146075000Y-84393981D01*
X146075000Y-84325000D01*
X146050000Y-84300000D01*
X145125000Y-84300000D01*
X145125000Y-84320000D01*
X145075000Y-84320000D01*
X145075000Y-84300000D01*
X144150000Y-84300000D01*
X144125000Y-84325000D01*
X144125000Y-84392547D01*
X144106415Y-84396044D01*
X143997502Y-84466128D01*
X143924436Y-84573063D01*
X143898731Y-84700000D01*
X143898731Y-85150000D01*
X143918238Y-85253671D01*
X143898731Y-85350000D01*
X143898731Y-85800000D01*
X143918238Y-85903671D01*
X143898731Y-86000000D01*
X143898731Y-86450000D01*
X143918238Y-86553671D01*
X143898731Y-86650000D01*
X143898731Y-86921805D01*
X143876661Y-86899696D01*
X143648867Y-86805107D01*
X143402215Y-86804892D01*
X143220000Y-86880182D01*
X143220000Y-86681737D01*
X143350304Y-86551661D01*
X143444893Y-86323867D01*
X143445108Y-86077215D01*
X143350917Y-85849257D01*
X143176661Y-85674696D01*
X142948867Y-85580107D01*
X142702215Y-85579892D01*
X142474257Y-85674083D01*
X142299696Y-85848339D01*
X142295000Y-85859648D01*
X142295000Y-85481737D01*
X142425304Y-85351661D01*
X142519893Y-85123867D01*
X142520108Y-84877215D01*
X142425917Y-84649257D01*
X142251661Y-84474696D01*
X142023867Y-84380107D01*
X141777215Y-84379892D01*
X141549257Y-84474083D01*
X141374696Y-84648339D01*
X141280107Y-84876133D01*
X141279892Y-85122785D01*
X141374083Y-85350743D01*
X141505000Y-85481889D01*
X141505000Y-86986386D01*
X141386074Y-87105312D01*
X141419893Y-87023867D01*
X141420108Y-86777215D01*
X141325917Y-86549257D01*
X141151661Y-86374696D01*
X140923867Y-86280107D01*
X140719931Y-86279929D01*
X140720108Y-86077215D01*
X140625917Y-85849257D01*
X140451661Y-85674696D01*
X140223867Y-85580107D01*
X139977215Y-85579892D01*
X139749257Y-85674083D01*
X139618111Y-85805000D01*
X139100256Y-85805000D01*
X139101269Y-85800000D01*
X139101269Y-85378152D01*
X139148339Y-85425304D01*
X139376133Y-85519893D01*
X139622785Y-85520108D01*
X139850743Y-85425917D01*
X140025304Y-85251661D01*
X140119893Y-85023867D01*
X140120108Y-84777215D01*
X140025917Y-84549257D01*
X139851661Y-84374696D01*
X139623867Y-84280107D01*
X139377215Y-84279892D01*
X139149257Y-84374083D01*
X139101269Y-84421987D01*
X139101269Y-84050000D01*
X139081762Y-83946329D01*
X139101269Y-83850000D01*
X139101269Y-83675000D01*
X144125000Y-83675000D01*
X144125000Y-83869891D01*
X144140224Y-83906646D01*
X144168355Y-83934776D01*
X144205109Y-83950000D01*
X144168355Y-83965224D01*
X144140224Y-83993354D01*
X144125000Y-84030109D01*
X144125000Y-84225000D01*
X144150000Y-84250000D01*
X145075000Y-84250000D01*
X145075000Y-83975000D01*
X145050000Y-83950000D01*
X145075000Y-83925000D01*
X145075000Y-83650000D01*
X145125000Y-83650000D01*
X145125000Y-83925000D01*
X145150000Y-83950000D01*
X145125000Y-83975000D01*
X145125000Y-84250000D01*
X146050000Y-84250000D01*
X146075000Y-84225000D01*
X146075000Y-84030109D01*
X146059776Y-83993354D01*
X146031645Y-83965224D01*
X145994891Y-83950000D01*
X145999456Y-83948109D01*
X150732000Y-83948109D01*
X150732000Y-84350000D01*
X150757000Y-84375000D01*
X151200500Y-84375000D01*
X151200500Y-83893000D01*
X151250500Y-83893000D01*
X151250500Y-84375000D01*
X151694000Y-84375000D01*
X151719000Y-84350000D01*
X151719000Y-83948109D01*
X151703776Y-83911354D01*
X151675645Y-83883224D01*
X151638891Y-83868000D01*
X151275500Y-83868000D01*
X151250500Y-83893000D01*
X151200500Y-83893000D01*
X151175500Y-83868000D01*
X150812109Y-83868000D01*
X150775355Y-83883224D01*
X150747224Y-83911354D01*
X150732000Y-83948109D01*
X145999456Y-83948109D01*
X146031645Y-83934776D01*
X146059776Y-83906646D01*
X146075000Y-83869891D01*
X146075000Y-83675000D01*
X146050000Y-83650000D01*
X145125000Y-83650000D01*
X145075000Y-83650000D01*
X144150000Y-83650000D01*
X144125000Y-83675000D01*
X139101269Y-83675000D01*
X139101269Y-83400000D01*
X139081762Y-83296329D01*
X139101269Y-83200000D01*
X139101269Y-82750000D01*
X139078956Y-82631415D01*
X139008872Y-82522502D01*
X138901937Y-82449436D01*
X138775000Y-82423731D01*
X137025000Y-82423731D01*
X136906415Y-82446044D01*
X136797502Y-82516128D01*
X136724436Y-82623063D01*
X136698731Y-82750000D01*
X136698731Y-82971805D01*
X136676661Y-82949696D01*
X136448867Y-82855107D01*
X136202215Y-82854892D01*
X135974257Y-82949083D01*
X135799696Y-83123339D01*
X135705107Y-83351133D01*
X135704892Y-83597785D01*
X135799083Y-83825743D01*
X135923187Y-83950064D01*
X135799696Y-84073339D01*
X135705107Y-84301133D01*
X135704892Y-84547785D01*
X135799083Y-84775743D01*
X135973339Y-84950304D01*
X136201133Y-85044893D01*
X136447785Y-85045108D01*
X136675743Y-84950917D01*
X136698731Y-84927969D01*
X136698731Y-85150000D01*
X136704376Y-85180000D01*
X135681737Y-85180000D01*
X135551661Y-85049696D01*
X135323867Y-84955107D01*
X135077215Y-84954892D01*
X134849257Y-85049083D01*
X134674696Y-85223339D01*
X134580107Y-85451133D01*
X134579892Y-85697785D01*
X134674083Y-85925743D01*
X134848339Y-86100304D01*
X135076133Y-86194893D01*
X135322785Y-86195108D01*
X135550743Y-86100917D01*
X135681889Y-85970000D01*
X136704806Y-85970000D01*
X136698731Y-86000000D01*
X136698731Y-86450000D01*
X136718238Y-86553671D01*
X136698731Y-86650000D01*
X136698731Y-87071892D01*
X136626661Y-86999696D01*
X136398867Y-86905107D01*
X136152215Y-86904892D01*
X135924257Y-86999083D01*
X135749696Y-87173339D01*
X135655107Y-87401133D01*
X135654892Y-87647785D01*
X135749083Y-87875743D01*
X135923339Y-88050304D01*
X136151133Y-88144893D01*
X136397785Y-88145108D01*
X136625743Y-88050917D01*
X136698731Y-87978057D01*
X136698731Y-88400000D01*
X136718238Y-88503671D01*
X136698731Y-88600000D01*
X136698731Y-88840111D01*
X134979313Y-87120693D01*
X134897317Y-87065905D01*
X132795004Y-84963592D01*
X132795004Y-83399996D01*
X132764936Y-83248836D01*
X132679311Y-83120689D01*
X132104315Y-82545693D01*
X131976168Y-82460068D01*
X131825008Y-82430000D01*
X131320040Y-82430000D01*
X131320108Y-82352215D01*
X131225917Y-82124257D01*
X131051661Y-81949696D01*
X130823867Y-81855107D01*
X130663581Y-81854967D01*
X130120000Y-81311386D01*
X130120000Y-80775000D01*
X130089932Y-80623840D01*
X130004307Y-80495693D01*
X129729307Y-80220693D01*
X129601160Y-80135068D01*
X129450000Y-80105000D01*
X129194269Y-80105000D01*
X129194269Y-80068000D01*
X129171956Y-79949415D01*
X129101872Y-79840502D01*
X128994937Y-79767436D01*
X128868000Y-79741731D01*
X128081000Y-79741731D01*
X127962415Y-79764044D01*
X127853502Y-79834128D01*
X127780436Y-79941063D01*
X127754731Y-80068000D01*
X127754731Y-80932000D01*
X127777044Y-81050585D01*
X127847128Y-81159498D01*
X127954063Y-81232564D01*
X128081000Y-81258269D01*
X128868000Y-81258269D01*
X128986585Y-81235956D01*
X129095498Y-81165872D01*
X129168564Y-81058937D01*
X129194269Y-80932000D01*
X129194269Y-80895000D01*
X129286386Y-80895000D01*
X129330000Y-80938614D01*
X129330000Y-81475000D01*
X129360068Y-81626160D01*
X129445693Y-81754307D01*
X130080074Y-82388688D01*
X130079892Y-82597785D01*
X130096434Y-82637820D01*
X129379307Y-81920693D01*
X129251160Y-81835068D01*
X129194269Y-81823752D01*
X129194269Y-81768000D01*
X129171956Y-81649415D01*
X129101872Y-81540502D01*
X128994937Y-81467436D01*
X128868000Y-81441731D01*
X128081000Y-81441731D01*
X127962415Y-81464044D01*
X127853502Y-81534128D01*
X127780436Y-81641063D01*
X127754731Y-81768000D01*
X127754731Y-82632000D01*
X127777044Y-82750585D01*
X127847128Y-82859498D01*
X127954063Y-82932564D01*
X128081000Y-82958269D01*
X128868000Y-82958269D01*
X128986585Y-82935956D01*
X129095498Y-82865872D01*
X129140864Y-82799478D01*
X129846386Y-83505000D01*
X129194269Y-83505000D01*
X129194269Y-83468000D01*
X129171956Y-83349415D01*
X129101872Y-83240502D01*
X128994937Y-83167436D01*
X128868000Y-83141731D01*
X128081000Y-83141731D01*
X127962415Y-83164044D01*
X127853502Y-83234128D01*
X127780436Y-83341063D01*
X127754731Y-83468000D01*
X127754731Y-84332000D01*
X127777044Y-84450585D01*
X127847128Y-84559498D01*
X127954063Y-84632564D01*
X128081000Y-84658269D01*
X128868000Y-84658269D01*
X128986585Y-84635956D01*
X129095498Y-84565872D01*
X129168564Y-84458937D01*
X129194269Y-84332000D01*
X129194269Y-84295000D01*
X130160652Y-84295000D01*
X130205052Y-84339400D01*
X130204892Y-84522785D01*
X130299083Y-84750743D01*
X130473339Y-84925304D01*
X130701133Y-85019893D01*
X130719862Y-85019909D01*
X130649257Y-85049083D01*
X130493067Y-85205000D01*
X129194269Y-85205000D01*
X129194269Y-85168000D01*
X129171956Y-85049415D01*
X129101872Y-84940502D01*
X128994937Y-84867436D01*
X128868000Y-84841731D01*
X128081000Y-84841731D01*
X127962415Y-84864044D01*
X127853502Y-84934128D01*
X127780436Y-85041063D01*
X127754731Y-85168000D01*
X127754731Y-86032000D01*
X127777044Y-86150585D01*
X127847128Y-86259498D01*
X127954063Y-86332564D01*
X128081000Y-86358269D01*
X128868000Y-86358269D01*
X128986585Y-86335956D01*
X129095498Y-86265872D01*
X129168564Y-86158937D01*
X129194269Y-86032000D01*
X129194269Y-85995000D01*
X130543219Y-85995000D01*
X130648339Y-86100304D01*
X130876133Y-86194893D01*
X131122785Y-86195108D01*
X131350743Y-86100917D01*
X131446607Y-86005221D01*
X132121382Y-86679996D01*
X132002215Y-86679892D01*
X131774257Y-86774083D01*
X131643111Y-86905000D01*
X129194269Y-86905000D01*
X129194269Y-86868000D01*
X129171956Y-86749415D01*
X129101872Y-86640502D01*
X128994937Y-86567436D01*
X128868000Y-86541731D01*
X128081000Y-86541731D01*
X127962415Y-86564044D01*
X127853502Y-86634128D01*
X127780436Y-86741063D01*
X127754731Y-86868000D01*
X127754731Y-87732000D01*
X127777044Y-87850585D01*
X127847128Y-87959498D01*
X127954063Y-88032564D01*
X128081000Y-88058269D01*
X128868000Y-88058269D01*
X128986585Y-88035956D01*
X129095498Y-87965872D01*
X129168564Y-87858937D01*
X129194269Y-87732000D01*
X129194269Y-87695000D01*
X131643263Y-87695000D01*
X131773339Y-87825304D01*
X132001133Y-87919893D01*
X132247785Y-87920108D01*
X132475743Y-87825917D01*
X132650304Y-87651661D01*
X132744893Y-87423867D01*
X132744998Y-87303612D01*
X136946386Y-91505000D01*
X134313614Y-91505000D01*
X133694269Y-90885655D01*
X133694269Y-90268000D01*
X133671956Y-90149415D01*
X133601872Y-90040502D01*
X133494937Y-89967436D01*
X133368000Y-89941731D01*
X132581000Y-89941731D01*
X132462415Y-89964044D01*
X132353502Y-90034128D01*
X132280436Y-90141063D01*
X132254731Y-90268000D01*
X132254731Y-91132000D01*
X132277044Y-91250585D01*
X132347128Y-91359498D01*
X132454063Y-91432564D01*
X132581000Y-91458269D01*
X133149655Y-91458269D01*
X133333117Y-91641731D01*
X132581000Y-91641731D01*
X132462415Y-91664044D01*
X132353502Y-91734128D01*
X132280436Y-91841063D01*
X132254731Y-91968000D01*
X132254731Y-92832000D01*
X132277044Y-92950585D01*
X132347128Y-93059498D01*
X132413722Y-93105000D01*
X131985692Y-93105000D01*
X132046498Y-93065872D01*
X132119564Y-92958937D01*
X132145269Y-92832000D01*
X132145269Y-91968000D01*
X132122956Y-91849415D01*
X132052872Y-91740502D01*
X131945937Y-91667436D01*
X131819000Y-91641731D01*
X131032000Y-91641731D01*
X130913415Y-91664044D01*
X130804502Y-91734128D01*
X130731436Y-91841063D01*
X130705731Y-91968000D01*
X130705731Y-92005000D01*
X130475000Y-92005000D01*
X130323840Y-92035068D01*
X130219091Y-92105059D01*
X130080729Y-92104939D01*
X129976160Y-92035068D01*
X129825000Y-92005000D01*
X129194269Y-92005000D01*
X129194269Y-91968000D01*
X129171956Y-91849415D01*
X129101872Y-91740502D01*
X128994937Y-91667436D01*
X128868000Y-91641731D01*
X128081000Y-91641731D01*
X127962415Y-91664044D01*
X127853502Y-91734128D01*
X127780436Y-91841063D01*
X127754731Y-91968000D01*
X127754731Y-92832000D01*
X127777044Y-92950585D01*
X127847128Y-93059498D01*
X127913722Y-93105000D01*
X127038903Y-93105000D01*
X126388755Y-92975677D01*
X125870565Y-92629435D01*
X125750671Y-92450000D01*
X126432000Y-92450000D01*
X126432000Y-92851891D01*
X126447224Y-92888646D01*
X126475355Y-92916776D01*
X126512109Y-92932000D01*
X126875500Y-92932000D01*
X126900500Y-92907000D01*
X126900500Y-92425000D01*
X126950500Y-92425000D01*
X126950500Y-92907000D01*
X126975500Y-92932000D01*
X127338891Y-92932000D01*
X127375645Y-92916776D01*
X127403776Y-92888646D01*
X127419000Y-92851891D01*
X127419000Y-92450000D01*
X127394000Y-92425000D01*
X126950500Y-92425000D01*
X126900500Y-92425000D01*
X126457000Y-92425000D01*
X126432000Y-92450000D01*
X125750671Y-92450000D01*
X125524323Y-92111245D01*
X125491874Y-91948109D01*
X126432000Y-91948109D01*
X126432000Y-92350000D01*
X126457000Y-92375000D01*
X126900500Y-92375000D01*
X126900500Y-91893000D01*
X126950500Y-91893000D01*
X126950500Y-92375000D01*
X127394000Y-92375000D01*
X127419000Y-92350000D01*
X127419000Y-91948109D01*
X127403776Y-91911354D01*
X127375645Y-91883224D01*
X127338891Y-91868000D01*
X126975500Y-91868000D01*
X126950500Y-91893000D01*
X126900500Y-91893000D01*
X126875500Y-91868000D01*
X126512109Y-91868000D01*
X126475355Y-91883224D01*
X126447224Y-91911354D01*
X126432000Y-91948109D01*
X125491874Y-91948109D01*
X125395000Y-91461096D01*
X125395000Y-90750000D01*
X126432000Y-90750000D01*
X126432000Y-91151891D01*
X126447224Y-91188646D01*
X126475355Y-91216776D01*
X126512109Y-91232000D01*
X126875500Y-91232000D01*
X126900500Y-91207000D01*
X126900500Y-90725000D01*
X126950500Y-90725000D01*
X126950500Y-91207000D01*
X126975500Y-91232000D01*
X127338891Y-91232000D01*
X127375645Y-91216776D01*
X127403776Y-91188646D01*
X127419000Y-91151891D01*
X127419000Y-90750000D01*
X127394000Y-90725000D01*
X126950500Y-90725000D01*
X126900500Y-90725000D01*
X126457000Y-90725000D01*
X126432000Y-90750000D01*
X125395000Y-90750000D01*
X125395000Y-90248109D01*
X126432000Y-90248109D01*
X126432000Y-90650000D01*
X126457000Y-90675000D01*
X126900500Y-90675000D01*
X126900500Y-90193000D01*
X126950500Y-90193000D01*
X126950500Y-90675000D01*
X127394000Y-90675000D01*
X127419000Y-90650000D01*
X127419000Y-90248109D01*
X127403776Y-90211354D01*
X127375645Y-90183224D01*
X127338891Y-90168000D01*
X126975500Y-90168000D01*
X126950500Y-90193000D01*
X126900500Y-90193000D01*
X126875500Y-90168000D01*
X126512109Y-90168000D01*
X126475355Y-90183224D01*
X126447224Y-90211354D01*
X126432000Y-90248109D01*
X125395000Y-90248109D01*
X125395000Y-89050000D01*
X126432000Y-89050000D01*
X126432000Y-89451891D01*
X126447224Y-89488646D01*
X126475355Y-89516776D01*
X126512109Y-89532000D01*
X126875500Y-89532000D01*
X126900500Y-89507000D01*
X126900500Y-89025000D01*
X126950500Y-89025000D01*
X126950500Y-89507000D01*
X126975500Y-89532000D01*
X127338891Y-89532000D01*
X127375645Y-89516776D01*
X127403776Y-89488646D01*
X127419000Y-89451891D01*
X127419000Y-89050000D01*
X127394000Y-89025000D01*
X126950500Y-89025000D01*
X126900500Y-89025000D01*
X126457000Y-89025000D01*
X126432000Y-89050000D01*
X125395000Y-89050000D01*
X125395000Y-88548109D01*
X126432000Y-88548109D01*
X126432000Y-88950000D01*
X126457000Y-88975000D01*
X126900500Y-88975000D01*
X126900500Y-88493000D01*
X126950500Y-88493000D01*
X126950500Y-88975000D01*
X127394000Y-88975000D01*
X127419000Y-88950000D01*
X127419000Y-88568000D01*
X127754731Y-88568000D01*
X127754731Y-89432000D01*
X127777044Y-89550585D01*
X127847128Y-89659498D01*
X127954063Y-89732564D01*
X128081000Y-89758269D01*
X128868000Y-89758269D01*
X128930002Y-89746603D01*
X128929892Y-89872785D01*
X128966633Y-89961704D01*
X128868000Y-89941731D01*
X128081000Y-89941731D01*
X127962415Y-89964044D01*
X127853502Y-90034128D01*
X127780436Y-90141063D01*
X127754731Y-90268000D01*
X127754731Y-91132000D01*
X127777044Y-91250585D01*
X127847128Y-91359498D01*
X127954063Y-91432564D01*
X128081000Y-91458269D01*
X128868000Y-91458269D01*
X128986585Y-91435956D01*
X129095498Y-91365872D01*
X129168564Y-91258937D01*
X129194269Y-91132000D01*
X129194269Y-91095000D01*
X130705731Y-91095000D01*
X130705731Y-91132000D01*
X130728044Y-91250585D01*
X130798128Y-91359498D01*
X130905063Y-91432564D01*
X131032000Y-91458269D01*
X131819000Y-91458269D01*
X131937585Y-91435956D01*
X132046498Y-91365872D01*
X132119564Y-91258937D01*
X132145269Y-91132000D01*
X132145269Y-90268000D01*
X132122956Y-90149415D01*
X132052872Y-90040502D01*
X131945937Y-89967436D01*
X131819000Y-89941731D01*
X131032000Y-89941731D01*
X130913415Y-89964044D01*
X130804502Y-90034128D01*
X130731436Y-90141063D01*
X130705731Y-90268000D01*
X130705731Y-90305000D01*
X129934060Y-90305000D01*
X129945000Y-90250000D01*
X129945000Y-90231737D01*
X130075304Y-90101661D01*
X130169893Y-89873867D01*
X130170108Y-89627215D01*
X130075917Y-89399257D01*
X130071667Y-89395000D01*
X131043263Y-89395000D01*
X131173339Y-89525304D01*
X131401133Y-89619893D01*
X131647785Y-89620108D01*
X131875743Y-89525917D01*
X132050304Y-89351661D01*
X132144893Y-89123867D01*
X132145108Y-88877215D01*
X132050917Y-88649257D01*
X131876661Y-88474696D01*
X131648867Y-88380107D01*
X131402215Y-88379892D01*
X131174257Y-88474083D01*
X131043111Y-88605000D01*
X129194269Y-88605000D01*
X129194269Y-88568000D01*
X129171956Y-88449415D01*
X129101872Y-88340502D01*
X128994937Y-88267436D01*
X128868000Y-88241731D01*
X128081000Y-88241731D01*
X127962415Y-88264044D01*
X127853502Y-88334128D01*
X127780436Y-88441063D01*
X127754731Y-88568000D01*
X127419000Y-88568000D01*
X127419000Y-88548109D01*
X127403776Y-88511354D01*
X127375645Y-88483224D01*
X127338891Y-88468000D01*
X126975500Y-88468000D01*
X126950500Y-88493000D01*
X126900500Y-88493000D01*
X126875500Y-88468000D01*
X126512109Y-88468000D01*
X126475355Y-88483224D01*
X126447224Y-88511354D01*
X126432000Y-88548109D01*
X125395000Y-88548109D01*
X125395000Y-87350000D01*
X126432000Y-87350000D01*
X126432000Y-87751891D01*
X126447224Y-87788646D01*
X126475355Y-87816776D01*
X126512109Y-87832000D01*
X126875500Y-87832000D01*
X126900500Y-87807000D01*
X126900500Y-87325000D01*
X126950500Y-87325000D01*
X126950500Y-87807000D01*
X126975500Y-87832000D01*
X127338891Y-87832000D01*
X127375645Y-87816776D01*
X127403776Y-87788646D01*
X127419000Y-87751891D01*
X127419000Y-87350000D01*
X127394000Y-87325000D01*
X126950500Y-87325000D01*
X126900500Y-87325000D01*
X126457000Y-87325000D01*
X126432000Y-87350000D01*
X125395000Y-87350000D01*
X125395000Y-86848109D01*
X126432000Y-86848109D01*
X126432000Y-87250000D01*
X126457000Y-87275000D01*
X126900500Y-87275000D01*
X126900500Y-86793000D01*
X126950500Y-86793000D01*
X126950500Y-87275000D01*
X127394000Y-87275000D01*
X127419000Y-87250000D01*
X127419000Y-86848109D01*
X127403776Y-86811354D01*
X127375645Y-86783224D01*
X127338891Y-86768000D01*
X126975500Y-86768000D01*
X126950500Y-86793000D01*
X126900500Y-86793000D01*
X126875500Y-86768000D01*
X126512109Y-86768000D01*
X126475355Y-86783224D01*
X126447224Y-86811354D01*
X126432000Y-86848109D01*
X125395000Y-86848109D01*
X125395000Y-85650000D01*
X126432000Y-85650000D01*
X126432000Y-86051891D01*
X126447224Y-86088646D01*
X126475355Y-86116776D01*
X126512109Y-86132000D01*
X126875500Y-86132000D01*
X126900500Y-86107000D01*
X126900500Y-85625000D01*
X126950500Y-85625000D01*
X126950500Y-86107000D01*
X126975500Y-86132000D01*
X127338891Y-86132000D01*
X127375645Y-86116776D01*
X127403776Y-86088646D01*
X127419000Y-86051891D01*
X127419000Y-85650000D01*
X127394000Y-85625000D01*
X126950500Y-85625000D01*
X126900500Y-85625000D01*
X126457000Y-85625000D01*
X126432000Y-85650000D01*
X125395000Y-85650000D01*
X125395000Y-85148109D01*
X126432000Y-85148109D01*
X126432000Y-85550000D01*
X126457000Y-85575000D01*
X126900500Y-85575000D01*
X126900500Y-85093000D01*
X126950500Y-85093000D01*
X126950500Y-85575000D01*
X127394000Y-85575000D01*
X127419000Y-85550000D01*
X127419000Y-85148109D01*
X127403776Y-85111354D01*
X127375645Y-85083224D01*
X127338891Y-85068000D01*
X126975500Y-85068000D01*
X126950500Y-85093000D01*
X126900500Y-85093000D01*
X126875500Y-85068000D01*
X126512109Y-85068000D01*
X126475355Y-85083224D01*
X126447224Y-85111354D01*
X126432000Y-85148109D01*
X125395000Y-85148109D01*
X125395000Y-83950000D01*
X126432000Y-83950000D01*
X126432000Y-84351891D01*
X126447224Y-84388646D01*
X126475355Y-84416776D01*
X126512109Y-84432000D01*
X126875500Y-84432000D01*
X126900500Y-84407000D01*
X126900500Y-83925000D01*
X126950500Y-83925000D01*
X126950500Y-84407000D01*
X126975500Y-84432000D01*
X127338891Y-84432000D01*
X127375645Y-84416776D01*
X127403776Y-84388646D01*
X127419000Y-84351891D01*
X127419000Y-83950000D01*
X127394000Y-83925000D01*
X126950500Y-83925000D01*
X126900500Y-83925000D01*
X126457000Y-83925000D01*
X126432000Y-83950000D01*
X125395000Y-83950000D01*
X125395000Y-83448109D01*
X126432000Y-83448109D01*
X126432000Y-83850000D01*
X126457000Y-83875000D01*
X126900500Y-83875000D01*
X126900500Y-83393000D01*
X126950500Y-83393000D01*
X126950500Y-83875000D01*
X127394000Y-83875000D01*
X127419000Y-83850000D01*
X127419000Y-83448109D01*
X127403776Y-83411354D01*
X127375645Y-83383224D01*
X127338891Y-83368000D01*
X126975500Y-83368000D01*
X126950500Y-83393000D01*
X126900500Y-83393000D01*
X126875500Y-83368000D01*
X126512109Y-83368000D01*
X126475355Y-83383224D01*
X126447224Y-83411354D01*
X126432000Y-83448109D01*
X125395000Y-83448109D01*
X125395000Y-82250000D01*
X126432000Y-82250000D01*
X126432000Y-82651891D01*
X126447224Y-82688646D01*
X126475355Y-82716776D01*
X126512109Y-82732000D01*
X126875500Y-82732000D01*
X126900500Y-82707000D01*
X126900500Y-82225000D01*
X126950500Y-82225000D01*
X126950500Y-82707000D01*
X126975500Y-82732000D01*
X127338891Y-82732000D01*
X127375645Y-82716776D01*
X127403776Y-82688646D01*
X127419000Y-82651891D01*
X127419000Y-82250000D01*
X127394000Y-82225000D01*
X126950500Y-82225000D01*
X126900500Y-82225000D01*
X126457000Y-82225000D01*
X126432000Y-82250000D01*
X125395000Y-82250000D01*
X125395000Y-81748109D01*
X126432000Y-81748109D01*
X126432000Y-82150000D01*
X126457000Y-82175000D01*
X126900500Y-82175000D01*
X126900500Y-81693000D01*
X126950500Y-81693000D01*
X126950500Y-82175000D01*
X127394000Y-82175000D01*
X127419000Y-82150000D01*
X127419000Y-81748109D01*
X127403776Y-81711354D01*
X127375645Y-81683224D01*
X127338891Y-81668000D01*
X126975500Y-81668000D01*
X126950500Y-81693000D01*
X126900500Y-81693000D01*
X126875500Y-81668000D01*
X126512109Y-81668000D01*
X126475355Y-81683224D01*
X126447224Y-81711354D01*
X126432000Y-81748109D01*
X125395000Y-81748109D01*
X125395000Y-80550000D01*
X126432000Y-80550000D01*
X126432000Y-80951891D01*
X126447224Y-80988646D01*
X126475355Y-81016776D01*
X126512109Y-81032000D01*
X126875500Y-81032000D01*
X126900500Y-81007000D01*
X126900500Y-80525000D01*
X126950500Y-80525000D01*
X126950500Y-81007000D01*
X126975500Y-81032000D01*
X127338891Y-81032000D01*
X127375645Y-81016776D01*
X127403776Y-80988646D01*
X127419000Y-80951891D01*
X127419000Y-80550000D01*
X127394000Y-80525000D01*
X126950500Y-80525000D01*
X126900500Y-80525000D01*
X126457000Y-80525000D01*
X126432000Y-80550000D01*
X125395000Y-80550000D01*
X125395000Y-80048109D01*
X126432000Y-80048109D01*
X126432000Y-80450000D01*
X126457000Y-80475000D01*
X126900500Y-80475000D01*
X126900500Y-79993000D01*
X126950500Y-79993000D01*
X126950500Y-80475000D01*
X127394000Y-80475000D01*
X127419000Y-80450000D01*
X127419000Y-80048109D01*
X127403776Y-80011354D01*
X127375645Y-79983224D01*
X127338891Y-79968000D01*
X126975500Y-79968000D01*
X126950500Y-79993000D01*
X126900500Y-79993000D01*
X126875500Y-79968000D01*
X126512109Y-79968000D01*
X126475355Y-79983224D01*
X126447224Y-80011354D01*
X126432000Y-80048109D01*
X125395000Y-80048109D01*
X125395000Y-77572785D01*
X126654892Y-77572785D01*
X126749083Y-77800743D01*
X126923339Y-77975304D01*
X127151133Y-78069893D01*
X127397785Y-78070108D01*
X127625743Y-77975917D01*
X127800304Y-77801661D01*
X127894893Y-77573867D01*
X127895108Y-77327215D01*
X127891651Y-77318849D01*
X127895500Y-77299500D01*
X127895500Y-77043875D01*
X127937585Y-77035956D01*
X128046498Y-76965872D01*
X128119564Y-76858937D01*
X128145269Y-76732000D01*
X128145269Y-76350000D01*
X128481000Y-76350000D01*
X128481000Y-76751891D01*
X128496224Y-76788646D01*
X128524355Y-76816776D01*
X128561109Y-76832000D01*
X128924500Y-76832000D01*
X128949500Y-76807000D01*
X128949500Y-76325000D01*
X128999500Y-76325000D01*
X128999500Y-76807000D01*
X129024500Y-76832000D01*
X129387891Y-76832000D01*
X129424645Y-76816776D01*
X129452776Y-76788646D01*
X129468000Y-76751891D01*
X129468000Y-76350000D01*
X129443000Y-76325000D01*
X128999500Y-76325000D01*
X128949500Y-76325000D01*
X128506000Y-76325000D01*
X128481000Y-76350000D01*
X128145269Y-76350000D01*
X128145269Y-75868000D01*
X128141527Y-75848109D01*
X128481000Y-75848109D01*
X128481000Y-76250000D01*
X128506000Y-76275000D01*
X128949500Y-76275000D01*
X128949500Y-75793000D01*
X128999500Y-75793000D01*
X128999500Y-76275000D01*
X129443000Y-76275000D01*
X129468000Y-76250000D01*
X129468000Y-75848109D01*
X129452776Y-75811354D01*
X129424645Y-75783224D01*
X129387891Y-75768000D01*
X129024500Y-75768000D01*
X128999500Y-75793000D01*
X128949500Y-75793000D01*
X128924500Y-75768000D01*
X128561109Y-75768000D01*
X128524355Y-75783224D01*
X128496224Y-75811354D01*
X128481000Y-75848109D01*
X128141527Y-75848109D01*
X128122956Y-75749415D01*
X128052872Y-75640502D01*
X127945937Y-75567436D01*
X127819000Y-75541731D01*
X127032000Y-75541731D01*
X126913415Y-75564044D01*
X126804502Y-75634128D01*
X126731436Y-75741063D01*
X126705731Y-75868000D01*
X126705731Y-76732000D01*
X126728044Y-76850585D01*
X126798128Y-76959498D01*
X126851944Y-76996269D01*
X126749696Y-77098339D01*
X126655107Y-77326133D01*
X126654892Y-77572785D01*
X125395000Y-77572785D01*
X125395000Y-72038904D01*
X125524323Y-71388755D01*
X125870565Y-70870565D01*
X126388755Y-70524323D01*
X127038903Y-70395000D01*
X134978128Y-70395000D01*
X134924696Y-70448339D01*
X134830107Y-70676133D01*
X134829892Y-70922785D01*
X134924083Y-71150743D01*
X135098339Y-71325304D01*
X135326133Y-71419893D01*
X135572785Y-71420108D01*
X135800743Y-71325917D01*
X135931889Y-71195000D01*
X136709869Y-71195000D01*
X136698731Y-71250000D01*
X136698731Y-71700000D01*
X136703135Y-71723403D01*
X136598867Y-71680107D01*
X136352215Y-71679892D01*
X136124257Y-71774083D01*
X135949696Y-71948339D01*
X135855107Y-72176133D01*
X135854892Y-72422785D01*
X135949083Y-72650743D01*
X136123339Y-72825304D01*
X136315139Y-72904947D01*
X136252215Y-72904892D01*
X136024257Y-72999083D01*
X135849696Y-73173339D01*
X135755107Y-73401133D01*
X135754892Y-73647785D01*
X135849083Y-73875743D01*
X136023339Y-74050304D01*
X136050418Y-74061548D01*
X136052188Y-74064198D01*
X135895693Y-74220693D01*
X135810068Y-74348840D01*
X135780000Y-74500000D01*
X135780000Y-75465702D01*
X135573867Y-75380107D01*
X135327215Y-75379892D01*
X135099257Y-75474083D01*
X135017864Y-75555333D01*
X135003956Y-75481415D01*
X134933872Y-75372502D01*
X134826937Y-75299436D01*
X134700000Y-75273731D01*
X134451269Y-75273731D01*
X134451269Y-75075000D01*
X134428956Y-74956415D01*
X134358872Y-74847502D01*
X134251937Y-74774436D01*
X134125000Y-74748731D01*
X133926269Y-74748731D01*
X133926269Y-74506689D01*
X134000743Y-74475917D01*
X134175304Y-74301661D01*
X134269893Y-74073867D01*
X134270108Y-73827215D01*
X134175917Y-73599257D01*
X134001661Y-73424696D01*
X133773867Y-73330107D01*
X133527215Y-73329892D01*
X133299257Y-73424083D01*
X133257669Y-73465598D01*
X133250917Y-73449257D01*
X133076661Y-73274696D01*
X132848867Y-73180107D01*
X132602215Y-73179892D01*
X132374257Y-73274083D01*
X132199696Y-73448339D01*
X132185136Y-73483404D01*
X132051661Y-73349696D01*
X131823867Y-73255107D01*
X131577215Y-73254892D01*
X131349257Y-73349083D01*
X131174696Y-73523339D01*
X131080107Y-73751133D01*
X131080038Y-73830025D01*
X130927215Y-73829892D01*
X130699257Y-73924083D01*
X130524696Y-74098339D01*
X130485926Y-74191707D01*
X130401160Y-74135068D01*
X130250000Y-74105000D01*
X130031737Y-74105000D01*
X129901661Y-73974696D01*
X129673867Y-73880107D01*
X129427215Y-73879892D01*
X129199257Y-73974083D01*
X129024696Y-74148339D01*
X128930107Y-74376133D01*
X128929892Y-74622785D01*
X129024083Y-74850743D01*
X129198339Y-75025304D01*
X129426133Y-75119893D01*
X129480069Y-75119940D01*
X129479892Y-75322785D01*
X129574083Y-75550743D01*
X129748339Y-75725304D01*
X129976133Y-75819893D01*
X130161440Y-75820055D01*
X130370692Y-76029307D01*
X130427270Y-76067111D01*
X130466128Y-76127498D01*
X130573063Y-76200564D01*
X130607547Y-76207547D01*
X130625000Y-76225000D01*
X130693733Y-76225000D01*
X130700000Y-76226269D01*
X131195000Y-76226269D01*
X131195000Y-76273731D01*
X130700000Y-76273731D01*
X130693256Y-76275000D01*
X130625000Y-76275000D01*
X130609180Y-76290820D01*
X130581415Y-76296044D01*
X130472502Y-76366128D01*
X130399436Y-76473063D01*
X130373731Y-76600000D01*
X130373731Y-76900000D01*
X130393238Y-77003671D01*
X130373731Y-77100000D01*
X130373731Y-77400000D01*
X130396044Y-77518585D01*
X130466128Y-77627498D01*
X130573063Y-77700564D01*
X130580000Y-77701969D01*
X130580000Y-79175000D01*
X130610068Y-79326160D01*
X130695693Y-79454307D01*
X130954996Y-79713610D01*
X130954996Y-80498528D01*
X130985064Y-80649688D01*
X131070689Y-80777835D01*
X131972165Y-81679311D01*
X132100312Y-81764936D01*
X132251472Y-81795004D01*
X138361390Y-81795004D01*
X138945693Y-82379307D01*
X139073840Y-82464932D01*
X139225000Y-82495000D01*
X139618263Y-82495000D01*
X139748339Y-82625304D01*
X139976133Y-82719893D01*
X140222785Y-82720108D01*
X140450743Y-82625917D01*
X140625304Y-82451661D01*
X140719893Y-82223867D01*
X140720108Y-81977215D01*
X140625917Y-81749257D01*
X140451661Y-81574696D01*
X140223867Y-81480107D01*
X140119931Y-81480016D01*
X140120108Y-81277215D01*
X140086137Y-81195000D01*
X140318263Y-81195000D01*
X140448339Y-81325304D01*
X140676133Y-81419893D01*
X140922785Y-81420108D01*
X141150743Y-81325917D01*
X141325304Y-81151661D01*
X141419893Y-80923867D01*
X141420108Y-80677215D01*
X141396467Y-80620000D01*
X141461386Y-80620000D01*
X142455000Y-81613614D01*
X142455000Y-82425000D01*
X142485068Y-82576160D01*
X142570693Y-82704307D01*
X143120692Y-83254307D01*
X143248840Y-83339932D01*
X143400000Y-83370000D01*
X143954129Y-83370000D01*
X143991128Y-83427498D01*
X144098063Y-83500564D01*
X144125000Y-83506019D01*
X144125000Y-83575000D01*
X144150000Y-83600000D01*
X145075000Y-83600000D01*
X145075000Y-83580000D01*
X145125000Y-83580000D01*
X145125000Y-83600000D01*
X146050000Y-83600000D01*
X146075000Y-83575000D01*
X146075000Y-83507453D01*
X146093585Y-83503956D01*
X146202498Y-83433872D01*
X146265194Y-83342113D01*
X146276160Y-83339932D01*
X146404307Y-83254307D01*
X146679307Y-82979307D01*
X146708273Y-82935956D01*
X146764932Y-82851160D01*
X146774713Y-82801989D01*
X146826792Y-82750000D01*
X150732000Y-82750000D01*
X150732000Y-83151891D01*
X150747224Y-83188646D01*
X150775355Y-83216776D01*
X150812109Y-83232000D01*
X151175500Y-83232000D01*
X151200500Y-83207000D01*
X151200500Y-82725000D01*
X151250500Y-82725000D01*
X151250500Y-83207000D01*
X151275500Y-83232000D01*
X151638891Y-83232000D01*
X151675645Y-83216776D01*
X151703776Y-83188646D01*
X151719000Y-83151891D01*
X151719000Y-82750000D01*
X151694000Y-82725000D01*
X151250500Y-82725000D01*
X151200500Y-82725000D01*
X150757000Y-82725000D01*
X150732000Y-82750000D01*
X146826792Y-82750000D01*
X146925304Y-82651661D01*
X147019893Y-82423867D01*
X147020046Y-82248109D01*
X150732000Y-82248109D01*
X150732000Y-82650000D01*
X150757000Y-82675000D01*
X151200500Y-82675000D01*
X151200500Y-82193000D01*
X151250500Y-82193000D01*
X151250500Y-82675000D01*
X151694000Y-82675000D01*
X151719000Y-82650000D01*
X151719000Y-82268000D01*
X152054731Y-82268000D01*
X152054731Y-83132000D01*
X152077044Y-83250585D01*
X152147128Y-83359498D01*
X152254063Y-83432564D01*
X152304500Y-83442778D01*
X152304500Y-83656125D01*
X152262415Y-83664044D01*
X152153502Y-83734128D01*
X152080436Y-83841063D01*
X152054731Y-83968000D01*
X152054731Y-84832000D01*
X152077044Y-84950585D01*
X152147128Y-85059498D01*
X152254063Y-85132564D01*
X152381000Y-85158269D01*
X153168000Y-85158269D01*
X153286585Y-85135956D01*
X153395498Y-85065872D01*
X153468564Y-84958937D01*
X153494269Y-84832000D01*
X153494269Y-84063840D01*
X153584639Y-84124223D01*
X153764500Y-84160000D01*
X155739318Y-84160000D01*
X155984494Y-84526932D01*
X156368482Y-84783504D01*
X156821426Y-84873600D01*
X157178574Y-84873600D01*
X157631518Y-84783504D01*
X158015506Y-84526932D01*
X158272078Y-84142944D01*
X158362174Y-83690000D01*
X158272078Y-83237056D01*
X158015506Y-82853068D01*
X157975595Y-82826400D01*
X165657731Y-82826400D01*
X165657731Y-84553600D01*
X165680044Y-84672185D01*
X165750128Y-84781098D01*
X165857063Y-84854164D01*
X165984000Y-84879869D01*
X168016000Y-84879869D01*
X168134585Y-84857556D01*
X168243498Y-84787472D01*
X168316564Y-84680537D01*
X168342269Y-84553600D01*
X168342269Y-82826400D01*
X168319956Y-82707815D01*
X168249872Y-82598902D01*
X168142937Y-82525836D01*
X168016000Y-82500131D01*
X165984000Y-82500131D01*
X165865415Y-82522444D01*
X165756502Y-82592528D01*
X165683436Y-82699463D01*
X165657731Y-82826400D01*
X157975595Y-82826400D01*
X157631518Y-82596496D01*
X157178574Y-82506400D01*
X156821426Y-82506400D01*
X156368482Y-82596496D01*
X155984494Y-82853068D01*
X155739318Y-83220000D01*
X153959180Y-83220000D01*
X153494269Y-82755089D01*
X153494269Y-82268000D01*
X153471956Y-82149415D01*
X153401872Y-82040502D01*
X153294937Y-81967436D01*
X153168000Y-81941731D01*
X152381000Y-81941731D01*
X152262415Y-81964044D01*
X152153502Y-82034128D01*
X152080436Y-82141063D01*
X152054731Y-82268000D01*
X151719000Y-82268000D01*
X151719000Y-82248109D01*
X151703776Y-82211354D01*
X151675645Y-82183224D01*
X151638891Y-82168000D01*
X151275500Y-82168000D01*
X151250500Y-82193000D01*
X151200500Y-82193000D01*
X151175500Y-82168000D01*
X150812109Y-82168000D01*
X150775355Y-82183224D01*
X150747224Y-82211354D01*
X150732000Y-82248109D01*
X147020046Y-82248109D01*
X147020108Y-82177215D01*
X146925917Y-81949257D01*
X146751661Y-81774696D01*
X146523867Y-81680107D01*
X146277215Y-81679892D01*
X146049257Y-81774083D01*
X145874696Y-81948339D01*
X145780107Y-82176133D01*
X145779892Y-82422785D01*
X145780283Y-82423731D01*
X144225000Y-82423731D01*
X144106415Y-82446044D01*
X143997502Y-82516128D01*
X143953860Y-82580000D01*
X143563615Y-82580000D01*
X143245000Y-82261386D01*
X143245000Y-81450000D01*
X143214932Y-81298840D01*
X143129307Y-81170693D01*
X141904307Y-79945693D01*
X141776160Y-79860068D01*
X141625000Y-79830000D01*
X136588615Y-79830000D01*
X136195000Y-79436386D01*
X136195000Y-77750000D01*
X136164932Y-77598840D01*
X136079307Y-77470693D01*
X136066430Y-77457816D01*
X136276133Y-77544893D01*
X136522785Y-77545108D01*
X136698731Y-77472408D01*
X136698731Y-77550000D01*
X136721044Y-77668585D01*
X136791128Y-77777498D01*
X136898063Y-77850564D01*
X137025000Y-77876269D01*
X138775000Y-77876269D01*
X138893585Y-77853956D01*
X139002498Y-77783872D01*
X139046140Y-77720000D01*
X142961386Y-77720000D01*
X143651572Y-78410186D01*
X143625500Y-78405000D01*
X143556737Y-78405000D01*
X143426661Y-78274696D01*
X143198867Y-78180107D01*
X142952215Y-78179892D01*
X142724257Y-78274083D01*
X142549696Y-78448339D01*
X142455107Y-78676133D01*
X142454892Y-78922785D01*
X142549083Y-79150743D01*
X142723339Y-79325304D01*
X142951133Y-79419893D01*
X143197785Y-79420108D01*
X143425743Y-79325917D01*
X143505731Y-79246069D01*
X143505731Y-79832000D01*
X143528044Y-79950585D01*
X143598128Y-80059498D01*
X143705063Y-80132564D01*
X143832000Y-80158269D01*
X144619000Y-80158269D01*
X144737585Y-80135956D01*
X144846498Y-80065872D01*
X144919564Y-79958937D01*
X144945269Y-79832000D01*
X144945269Y-78968000D01*
X144922956Y-78849415D01*
X144852872Y-78740502D01*
X144745937Y-78667436D01*
X144620500Y-78642035D01*
X144620500Y-78425500D01*
X144590432Y-78274340D01*
X144504807Y-78146193D01*
X144234883Y-77876269D01*
X144705000Y-77876269D01*
X144705000Y-78425000D01*
X144735068Y-78576160D01*
X144820693Y-78704307D01*
X145059725Y-78943339D01*
X145054731Y-78968000D01*
X145054731Y-79832000D01*
X145077044Y-79950585D01*
X145147128Y-80059498D01*
X145254063Y-80132564D01*
X145381000Y-80158269D01*
X146168000Y-80158269D01*
X146286585Y-80135956D01*
X146395498Y-80065872D01*
X146468564Y-79958937D01*
X146494269Y-79832000D01*
X146494269Y-79795000D01*
X147493175Y-79795000D01*
X147573339Y-79875304D01*
X147801133Y-79969893D01*
X148047785Y-79970108D01*
X148275743Y-79875917D01*
X148450304Y-79701661D01*
X148544893Y-79473867D01*
X148545108Y-79227215D01*
X148450917Y-78999257D01*
X148276661Y-78824696D01*
X148048867Y-78730107D01*
X147802215Y-78729892D01*
X147574257Y-78824083D01*
X147399696Y-78998339D01*
X147396930Y-79005000D01*
X146494269Y-79005000D01*
X146494269Y-78968000D01*
X146471956Y-78849415D01*
X146401872Y-78740502D01*
X146294937Y-78667436D01*
X146168000Y-78641731D01*
X145875345Y-78641731D01*
X145495000Y-78261386D01*
X145495000Y-77876269D01*
X145975000Y-77876269D01*
X146093585Y-77853956D01*
X146202498Y-77783872D01*
X146275564Y-77676937D01*
X146301269Y-77550000D01*
X146301269Y-77100000D01*
X146281762Y-76996329D01*
X146301269Y-76900000D01*
X146301269Y-76450000D01*
X146281762Y-76346329D01*
X146301269Y-76250000D01*
X146301269Y-76234883D01*
X146480000Y-76413614D01*
X146480000Y-77175000D01*
X146510068Y-77326160D01*
X146595693Y-77454307D01*
X146870693Y-77729307D01*
X146998840Y-77814932D01*
X147023731Y-77819883D01*
X147023731Y-77900000D01*
X147046044Y-78018585D01*
X147116128Y-78127498D01*
X147223063Y-78200564D01*
X147350000Y-78226269D01*
X149050000Y-78226269D01*
X149168585Y-78203956D01*
X149277498Y-78133872D01*
X149350564Y-78026937D01*
X149376269Y-77900000D01*
X149376269Y-77000000D01*
X149353956Y-76881415D01*
X149283872Y-76772502D01*
X149176937Y-76699436D01*
X149050000Y-76673731D01*
X148332345Y-76673731D01*
X148065014Y-76406400D01*
X155657731Y-76406400D01*
X155657731Y-78133600D01*
X155680044Y-78252185D01*
X155750128Y-78361098D01*
X155857063Y-78434164D01*
X155984000Y-78459869D01*
X158016000Y-78459869D01*
X158134585Y-78437556D01*
X158207209Y-78390823D01*
X159595693Y-79779307D01*
X159723840Y-79864932D01*
X159875000Y-79895000D01*
X164310000Y-79895000D01*
X164461160Y-79864932D01*
X164589307Y-79779307D01*
X166449079Y-77919536D01*
X166821426Y-77993600D01*
X167178574Y-77993600D01*
X167631518Y-77903504D01*
X168015506Y-77646932D01*
X168272078Y-77262944D01*
X168362174Y-76810000D01*
X168272078Y-76357056D01*
X168015506Y-75973068D01*
X167631518Y-75716496D01*
X167178574Y-75626400D01*
X166821426Y-75626400D01*
X166368482Y-75716496D01*
X165984494Y-75973068D01*
X165727922Y-76357056D01*
X165637826Y-76810000D01*
X165727922Y-77262944D01*
X165832271Y-77419114D01*
X164146386Y-79105000D01*
X160038614Y-79105000D01*
X158342269Y-77408655D01*
X158342269Y-76406400D01*
X158319956Y-76287815D01*
X158249872Y-76178902D01*
X158142937Y-76105836D01*
X158016000Y-76080131D01*
X155984000Y-76080131D01*
X155865415Y-76102444D01*
X155756502Y-76172528D01*
X155683436Y-76279463D01*
X155657731Y-76406400D01*
X148065014Y-76406400D01*
X147923867Y-76265253D01*
X148051160Y-76239932D01*
X148179307Y-76154307D01*
X148479307Y-75854307D01*
X148564932Y-75726160D01*
X148595000Y-75575000D01*
X148595000Y-75326269D01*
X149050000Y-75326269D01*
X149168585Y-75303956D01*
X149277498Y-75233872D01*
X149350564Y-75126937D01*
X149376269Y-75000000D01*
X149376269Y-74730000D01*
X155637826Y-74730000D01*
X155727922Y-75182944D01*
X155984494Y-75566932D01*
X156368482Y-75823504D01*
X156821426Y-75913600D01*
X157178574Y-75913600D01*
X157631518Y-75823504D01*
X158015506Y-75566932D01*
X158272078Y-75182944D01*
X158362174Y-74730000D01*
X158272078Y-74277056D01*
X158015506Y-73893068D01*
X157631518Y-73636496D01*
X157178574Y-73546400D01*
X156821426Y-73546400D01*
X156368482Y-73636496D01*
X155984494Y-73893068D01*
X155727922Y-74277056D01*
X155637826Y-74730000D01*
X149376269Y-74730000D01*
X149376269Y-74100000D01*
X149353956Y-73981415D01*
X149283872Y-73872502D01*
X149176937Y-73799436D01*
X149050000Y-73773731D01*
X147350000Y-73773731D01*
X147231415Y-73796044D01*
X147122502Y-73866128D01*
X147052375Y-73968761D01*
X146301269Y-73217655D01*
X146301269Y-73200000D01*
X146278956Y-73081415D01*
X146208872Y-72972502D01*
X146175940Y-72950000D01*
X150732000Y-72950000D01*
X150732000Y-73351891D01*
X150747224Y-73388646D01*
X150775355Y-73416776D01*
X150812109Y-73432000D01*
X151175500Y-73432000D01*
X151200500Y-73407000D01*
X151200500Y-72925000D01*
X151250500Y-72925000D01*
X151250500Y-73407000D01*
X151275500Y-73432000D01*
X151638891Y-73432000D01*
X151675645Y-73416776D01*
X151703776Y-73388646D01*
X151719000Y-73351891D01*
X151719000Y-72950000D01*
X151694000Y-72925000D01*
X151250500Y-72925000D01*
X151200500Y-72925000D01*
X150757000Y-72925000D01*
X150732000Y-72950000D01*
X146175940Y-72950000D01*
X146101937Y-72899436D01*
X146075000Y-72893981D01*
X146075000Y-72825000D01*
X146050000Y-72800000D01*
X145125000Y-72800000D01*
X145125000Y-72820000D01*
X145075000Y-72820000D01*
X145075000Y-72800000D01*
X144150000Y-72800000D01*
X144125000Y-72825000D01*
X144125000Y-72892547D01*
X144106415Y-72896044D01*
X143997502Y-72966128D01*
X143924436Y-73073063D01*
X143898731Y-73200000D01*
X143898731Y-73650000D01*
X143918238Y-73753671D01*
X143898731Y-73850000D01*
X143898731Y-74300000D01*
X143918238Y-74403671D01*
X143898731Y-74500000D01*
X143898731Y-74950000D01*
X143918238Y-75053671D01*
X143898731Y-75150000D01*
X143898731Y-75471805D01*
X143876661Y-75449696D01*
X143648867Y-75355107D01*
X143469975Y-75354951D01*
X143470108Y-75202215D01*
X143375917Y-74974257D01*
X143201661Y-74799696D01*
X142973867Y-74705107D01*
X142727215Y-74704892D01*
X142499257Y-74799083D01*
X142324696Y-74973339D01*
X142230107Y-75201133D01*
X142229892Y-75447785D01*
X142324083Y-75675743D01*
X142455000Y-75806889D01*
X142455000Y-76375000D01*
X142485068Y-76526160D01*
X142570693Y-76654307D01*
X142846386Y-76930000D01*
X141403614Y-76930000D01*
X141954307Y-76379307D01*
X141974664Y-76348840D01*
X142039932Y-76251160D01*
X142070000Y-76100000D01*
X142070000Y-72806737D01*
X142200304Y-72676661D01*
X142294893Y-72448867D01*
X142295108Y-72202215D01*
X142283863Y-72175000D01*
X144125000Y-72175000D01*
X144125000Y-72369891D01*
X144140224Y-72406646D01*
X144168355Y-72434776D01*
X144205109Y-72450000D01*
X144168355Y-72465224D01*
X144140224Y-72493354D01*
X144125000Y-72530109D01*
X144125000Y-72725000D01*
X144150000Y-72750000D01*
X145075000Y-72750000D01*
X145075000Y-72475000D01*
X145050000Y-72450000D01*
X145075000Y-72425000D01*
X145075000Y-72150000D01*
X145125000Y-72150000D01*
X145125000Y-72425000D01*
X145150000Y-72450000D01*
X145125000Y-72475000D01*
X145125000Y-72750000D01*
X146050000Y-72750000D01*
X146075000Y-72725000D01*
X146075000Y-72530109D01*
X146059776Y-72493354D01*
X146031645Y-72465224D01*
X145994891Y-72450000D01*
X145999456Y-72448109D01*
X150732000Y-72448109D01*
X150732000Y-72850000D01*
X150757000Y-72875000D01*
X151200500Y-72875000D01*
X151200500Y-72393000D01*
X151250500Y-72393000D01*
X151250500Y-72875000D01*
X151694000Y-72875000D01*
X151719000Y-72850000D01*
X151719000Y-72448109D01*
X151703776Y-72411354D01*
X151675645Y-72383224D01*
X151638891Y-72368000D01*
X151275500Y-72368000D01*
X151250500Y-72393000D01*
X151200500Y-72393000D01*
X151175500Y-72368000D01*
X150812109Y-72368000D01*
X150775355Y-72383224D01*
X150747224Y-72411354D01*
X150732000Y-72448109D01*
X145999456Y-72448109D01*
X146031645Y-72434776D01*
X146059776Y-72406646D01*
X146075000Y-72369891D01*
X146075000Y-72175000D01*
X146050000Y-72150000D01*
X145125000Y-72150000D01*
X145075000Y-72150000D01*
X144150000Y-72150000D01*
X144125000Y-72175000D01*
X142283863Y-72175000D01*
X142200917Y-71974257D01*
X142026661Y-71799696D01*
X141798867Y-71705107D01*
X141552215Y-71704892D01*
X141324257Y-71799083D01*
X141149696Y-71973339D01*
X141055107Y-72201133D01*
X141054892Y-72447785D01*
X141149083Y-72675743D01*
X141280000Y-72806889D01*
X141280000Y-75003260D01*
X141151661Y-74874696D01*
X140923867Y-74780107D01*
X140719931Y-74779929D01*
X140720108Y-74577215D01*
X140625917Y-74349257D01*
X140451661Y-74174696D01*
X140223867Y-74080107D01*
X139977215Y-74079892D01*
X139749257Y-74174083D01*
X139593067Y-74330000D01*
X139095194Y-74330000D01*
X139101269Y-74300000D01*
X139101269Y-73878152D01*
X139148339Y-73925304D01*
X139376133Y-74019893D01*
X139622785Y-74020108D01*
X139850743Y-73925917D01*
X140025304Y-73751661D01*
X140119893Y-73523867D01*
X140120108Y-73277215D01*
X140025917Y-73049257D01*
X139951813Y-72975023D01*
X140025304Y-72901661D01*
X140119893Y-72673867D01*
X140120108Y-72427215D01*
X140025917Y-72199257D01*
X139851661Y-72024696D01*
X139623867Y-71930107D01*
X139377215Y-71929892D01*
X139149257Y-72024083D01*
X139101269Y-72071987D01*
X139101269Y-71900000D01*
X139081762Y-71796329D01*
X139101269Y-71700000D01*
X139101269Y-71250000D01*
X139090920Y-71195000D01*
X142886386Y-71195000D01*
X143445693Y-71754307D01*
X143573840Y-71839932D01*
X143725000Y-71870000D01*
X143954129Y-71870000D01*
X143991128Y-71927498D01*
X144098063Y-72000564D01*
X144125000Y-72006019D01*
X144125000Y-72075000D01*
X144150000Y-72100000D01*
X145075000Y-72100000D01*
X145075000Y-72080000D01*
X145125000Y-72080000D01*
X145125000Y-72100000D01*
X146050000Y-72100000D01*
X146075000Y-72075000D01*
X146075000Y-72007453D01*
X146093585Y-72003956D01*
X146202498Y-71933872D01*
X146275564Y-71826937D01*
X146301269Y-71700000D01*
X146301269Y-71250000D01*
X150732000Y-71250000D01*
X150732000Y-71651891D01*
X150747224Y-71688646D01*
X150775355Y-71716776D01*
X150812109Y-71732000D01*
X151175500Y-71732000D01*
X151200500Y-71707000D01*
X151200500Y-71225000D01*
X151250500Y-71225000D01*
X151250500Y-71707000D01*
X151275500Y-71732000D01*
X151638891Y-71732000D01*
X151675645Y-71716776D01*
X151703776Y-71688646D01*
X151719000Y-71651891D01*
X151719000Y-71250000D01*
X151694000Y-71225000D01*
X151250500Y-71225000D01*
X151200500Y-71225000D01*
X150757000Y-71225000D01*
X150732000Y-71250000D01*
X146301269Y-71250000D01*
X146278956Y-71131415D01*
X146208872Y-71022502D01*
X146101937Y-70949436D01*
X145975000Y-70923731D01*
X144225000Y-70923731D01*
X144106415Y-70946044D01*
X143997502Y-71016128D01*
X143953860Y-71080000D01*
X143888614Y-71080000D01*
X143556723Y-70748109D01*
X150732000Y-70748109D01*
X150732000Y-71150000D01*
X150757000Y-71175000D01*
X151200500Y-71175000D01*
X151200500Y-70693000D01*
X151250500Y-70693000D01*
X151250500Y-71175000D01*
X151694000Y-71175000D01*
X151719000Y-71150000D01*
X151719000Y-70768000D01*
X152054731Y-70768000D01*
X152054731Y-71632000D01*
X152077044Y-71750585D01*
X152147128Y-71859498D01*
X152254063Y-71932564D01*
X152304500Y-71942778D01*
X152304500Y-72156125D01*
X152262415Y-72164044D01*
X152153502Y-72234128D01*
X152080436Y-72341063D01*
X152054731Y-72468000D01*
X152054731Y-73332000D01*
X152077044Y-73450585D01*
X152147128Y-73559498D01*
X152254063Y-73632564D01*
X152381000Y-73658269D01*
X153168000Y-73658269D01*
X153286585Y-73635956D01*
X153395498Y-73565872D01*
X153468564Y-73458937D01*
X153494269Y-73332000D01*
X153494269Y-72660000D01*
X155739318Y-72660000D01*
X155984494Y-73026932D01*
X156368482Y-73283504D01*
X156821426Y-73373600D01*
X157178574Y-73373600D01*
X157631518Y-73283504D01*
X158015506Y-73026932D01*
X158272078Y-72642944D01*
X158362174Y-72190000D01*
X158272078Y-71737056D01*
X158015506Y-71353068D01*
X157631518Y-71096496D01*
X157178574Y-71006400D01*
X156821426Y-71006400D01*
X156368482Y-71096496D01*
X155984494Y-71353068D01*
X155739318Y-71720000D01*
X153679180Y-71720000D01*
X153494269Y-71535089D01*
X153494269Y-70768000D01*
X153471956Y-70649415D01*
X153401872Y-70540502D01*
X153294937Y-70467436D01*
X153168000Y-70441731D01*
X152381000Y-70441731D01*
X152262415Y-70464044D01*
X152153502Y-70534128D01*
X152080436Y-70641063D01*
X152054731Y-70768000D01*
X151719000Y-70768000D01*
X151719000Y-70748109D01*
X151703776Y-70711354D01*
X151675645Y-70683224D01*
X151638891Y-70668000D01*
X151275500Y-70668000D01*
X151250500Y-70693000D01*
X151200500Y-70693000D01*
X151175500Y-70668000D01*
X150812109Y-70668000D01*
X150775355Y-70683224D01*
X150747224Y-70711354D01*
X150732000Y-70748109D01*
X143556723Y-70748109D01*
X143329307Y-70520693D01*
X143201160Y-70435068D01*
X143050000Y-70405000D01*
X135931737Y-70405000D01*
X135921755Y-70395000D01*
X163500000Y-70395000D01*
X163538157Y-70387410D01*
X163577060Y-70387410D01*
X163768403Y-70349350D01*
X163768404Y-70349350D01*
X163869091Y-70307643D01*
X163910792Y-70290370D01*
X163910794Y-70290369D01*
X164073005Y-70181983D01*
X164138391Y-70116595D01*
X164181982Y-70073005D01*
X164290369Y-69910794D01*
X164344318Y-69780550D01*
X164349350Y-69768402D01*
X164387410Y-69577060D01*
X164387410Y-69538157D01*
X164395000Y-69500000D01*
X164395000Y-68500000D01*
X165657731Y-68500000D01*
X165657731Y-69108655D01*
D27*
G36*
X159440000Y-102590000D02*
X153127000Y-102590000D01*
X153127000Y-95727000D01*
X159440000Y-95727000D01*
X159440000Y-102590000D01*
X159440000Y-102590000D01*
G37*
X159440000Y-102590000D02*
X153127000Y-102590000D01*
X153127000Y-95727000D01*
X159440000Y-95727000D01*
X159440000Y-102590000D01*
M02*
