G04 #@! TF.FileFunction,Soldermask,Top*
%FSLAX46Y46*%
G04 Gerber Fmt 4.6, Leading zero omitted, Abs format (unit mm)*
G04 Created by KiCad (PCBNEW 4.0.6-e0-6349~53~ubuntu14.04.1) date Tue Jun 27 14:22:21 2017*
%MOMM*%
%LPD*%
G01*
G04 APERTURE LIST*
%ADD10C,0.100000*%
%ADD11R,0.650240X3.599180*%
%ADD12R,0.650240X4.599940*%
%ADD13O,0.650240X0.650240*%
%ADD14C,1.524000*%
%ADD15R,2.032000X1.727200*%
%ADD16O,2.032000X1.727200*%
%ADD17C,0.254000*%
G04 APERTURE END LIST*
D10*
D11*
X159499600Y-99499620D03*
D12*
X158498840Y-100000000D03*
X157500620Y-100000000D03*
X156499860Y-100000000D03*
X155499100Y-100000000D03*
X154500880Y-100000000D03*
X153500120Y-100000000D03*
X152499360Y-100000000D03*
X151501140Y-100000000D03*
X150500380Y-100000000D03*
X149499620Y-100000000D03*
X144500900Y-100000000D03*
X143500140Y-100000000D03*
X142499380Y-100000000D03*
X141501160Y-100000000D03*
X140500400Y-100000000D03*
X146499880Y-100000000D03*
X145499120Y-100000000D03*
D13*
X156499860Y-102301240D03*
X155499100Y-102301240D03*
X154500880Y-102301240D03*
X153500120Y-102301240D03*
X152499360Y-102301240D03*
X151501140Y-102301240D03*
X150500380Y-102301240D03*
X144500900Y-102301240D03*
X143500140Y-102301240D03*
X157500620Y-102301240D03*
X145499120Y-102301240D03*
X142499380Y-102301240D03*
X149499620Y-102301240D03*
X146499880Y-102301240D03*
X141501160Y-102301240D03*
X140500400Y-102301240D03*
X158498840Y-102301240D03*
D14*
X148000000Y-91300000D03*
X162300000Y-91300000D03*
X127400000Y-91300000D03*
X130300000Y-91300000D03*
D15*
X167000000Y-69190000D03*
D16*
X167000000Y-71730000D03*
X167000000Y-74270000D03*
X167000000Y-76810000D03*
D15*
X167000000Y-83690000D03*
D16*
X167000000Y-86230000D03*
X167000000Y-88770000D03*
X167000000Y-91310000D03*
D14*
X139000000Y-87200000D03*
X133500000Y-71500000D03*
X138000000Y-85300000D03*
X137600000Y-74100000D03*
X140800000Y-88400000D03*
X147700000Y-83000000D03*
X134600000Y-87000000D03*
D15*
X157000000Y-77270000D03*
D16*
X157000000Y-74730000D03*
X157000000Y-72190000D03*
D15*
X157000000Y-88770000D03*
D16*
X157000000Y-86230000D03*
X157000000Y-83690000D03*
D17*
G36*
X160023000Y-103298000D02*
X139977000Y-103298000D01*
X139977000Y-97602000D01*
X160023000Y-97602000D01*
X160023000Y-103298000D01*
X160023000Y-103298000D01*
G37*
X160023000Y-103298000D02*
X139977000Y-103298000D01*
X139977000Y-97602000D01*
X160023000Y-97602000D01*
X160023000Y-103298000D01*
M02*
