G04 #@! TF.FileFunction,Legend,Bot*
%FSLAX46Y46*%
G04 Gerber Fmt 4.6, Leading zero omitted, Abs format (unit mm)*
G04 Created by KiCad (PCBNEW 4.0.3+e1-6302~38~ubuntu14.04.1-stable) date Tue Dec 13 19:56:59 2016*
%MOMM*%
%LPD*%
G01*
G04 APERTURE LIST*
%ADD10C,0.100000*%
%ADD11C,0.200000*%
%ADD12C,0.150000*%
%ADD13C,0.152400*%
%ADD14C,0.125000*%
G04 APERTURE END LIST*
D10*
D11*
X169409524Y-90621429D02*
X169361905Y-90550000D01*
X169266667Y-90478571D01*
X169028571Y-90478571D01*
X168933333Y-90550000D01*
X168885714Y-90621429D01*
X168838095Y-90764286D01*
X168838095Y-90907143D01*
X168885714Y-91121429D01*
X169457143Y-91978571D01*
X168838095Y-91978571D01*
X168076190Y-91192857D02*
X168409524Y-91192857D01*
X168409524Y-91978571D02*
X168409524Y-90478571D01*
X167933333Y-90478571D01*
X167552381Y-91407143D02*
X166790476Y-91407143D01*
X167171428Y-91978571D02*
X167171428Y-90835714D01*
X169409524Y-88121429D02*
X169361905Y-88050000D01*
X169266667Y-87978571D01*
X169028571Y-87978571D01*
X168933333Y-88050000D01*
X168885714Y-88121429D01*
X168838095Y-88264286D01*
X168838095Y-88407143D01*
X168885714Y-88621429D01*
X169457143Y-89478571D01*
X168838095Y-89478571D01*
X168457143Y-89407143D02*
X168314286Y-89478571D01*
X168076190Y-89478571D01*
X167980952Y-89407143D01*
X167933333Y-89335714D01*
X167885714Y-89192857D01*
X167885714Y-89050000D01*
X167933333Y-88907143D01*
X167980952Y-88835714D01*
X168076190Y-88764286D01*
X168266667Y-88692857D01*
X168361905Y-88621429D01*
X168409524Y-88550000D01*
X168457143Y-88407143D01*
X168457143Y-88264286D01*
X168409524Y-88121429D01*
X168361905Y-88050000D01*
X168266667Y-87978571D01*
X168028571Y-87978571D01*
X167885714Y-88050000D01*
X167457143Y-88907143D02*
X166695238Y-88907143D01*
X167076190Y-89478571D02*
X167076190Y-88335714D01*
X169409524Y-85421429D02*
X169361905Y-85350000D01*
X169266667Y-85278571D01*
X169028571Y-85278571D01*
X168933333Y-85350000D01*
X168885714Y-85421429D01*
X168838095Y-85564286D01*
X168838095Y-85707143D01*
X168885714Y-85921429D01*
X169457143Y-86778571D01*
X168838095Y-86778571D01*
X168457143Y-86707143D02*
X168314286Y-86778571D01*
X168076190Y-86778571D01*
X167980952Y-86707143D01*
X167933333Y-86635714D01*
X167885714Y-86492857D01*
X167885714Y-86350000D01*
X167933333Y-86207143D01*
X167980952Y-86135714D01*
X168076190Y-86064286D01*
X168266667Y-85992857D01*
X168361905Y-85921429D01*
X168409524Y-85850000D01*
X168457143Y-85707143D01*
X168457143Y-85564286D01*
X168409524Y-85421429D01*
X168361905Y-85350000D01*
X168266667Y-85278571D01*
X168028571Y-85278571D01*
X167885714Y-85350000D01*
X167457143Y-86207143D02*
X166695238Y-86207143D01*
X169409524Y-83021429D02*
X169361905Y-82950000D01*
X169266667Y-82878571D01*
X169028571Y-82878571D01*
X168933333Y-82950000D01*
X168885714Y-83021429D01*
X168838095Y-83164286D01*
X168838095Y-83307143D01*
X168885714Y-83521429D01*
X169457143Y-84378571D01*
X168838095Y-84378571D01*
X168076190Y-83592857D02*
X168409524Y-83592857D01*
X168409524Y-84378571D02*
X168409524Y-82878571D01*
X167933333Y-82878571D01*
X167552381Y-83807143D02*
X166790476Y-83807143D01*
X168838095Y-80478571D02*
X169409524Y-80478571D01*
X169123810Y-80478571D02*
X169123810Y-78978571D01*
X169219048Y-79192857D01*
X169314286Y-79335714D01*
X169409524Y-79407143D01*
X168457143Y-80407143D02*
X168314286Y-80478571D01*
X168076190Y-80478571D01*
X167980952Y-80407143D01*
X167933333Y-80335714D01*
X167885714Y-80192857D01*
X167885714Y-80050000D01*
X167933333Y-79907143D01*
X167980952Y-79835714D01*
X168076190Y-79764286D01*
X168266667Y-79692857D01*
X168361905Y-79621429D01*
X168409524Y-79550000D01*
X168457143Y-79407143D01*
X168457143Y-79264286D01*
X168409524Y-79121429D01*
X168361905Y-79050000D01*
X168266667Y-78978571D01*
X168028571Y-78978571D01*
X167885714Y-79050000D01*
X167457143Y-79907143D02*
X166695238Y-79907143D01*
X167076190Y-80478571D02*
X167076190Y-79335714D01*
X168838095Y-77978571D02*
X169409524Y-77978571D01*
X169123810Y-77978571D02*
X169123810Y-76478571D01*
X169219048Y-76692857D01*
X169314286Y-76835714D01*
X169409524Y-76907143D01*
X168457143Y-77907143D02*
X168314286Y-77978571D01*
X168076190Y-77978571D01*
X167980952Y-77907143D01*
X167933333Y-77835714D01*
X167885714Y-77692857D01*
X167885714Y-77550000D01*
X167933333Y-77407143D01*
X167980952Y-77335714D01*
X168076190Y-77264286D01*
X168266667Y-77192857D01*
X168361905Y-77121429D01*
X168409524Y-77050000D01*
X168457143Y-76907143D01*
X168457143Y-76764286D01*
X168409524Y-76621429D01*
X168361905Y-76550000D01*
X168266667Y-76478571D01*
X168028571Y-76478571D01*
X167885714Y-76550000D01*
X167457143Y-77407143D02*
X166695238Y-77407143D01*
X167076190Y-77978571D02*
X167076190Y-76835714D01*
X168838095Y-75378571D02*
X169409524Y-75378571D01*
X169123810Y-75378571D02*
X169123810Y-73878571D01*
X169219048Y-74092857D01*
X169314286Y-74235714D01*
X169409524Y-74307143D01*
X168457143Y-75307143D02*
X168314286Y-75378571D01*
X168076190Y-75378571D01*
X167980952Y-75307143D01*
X167933333Y-75235714D01*
X167885714Y-75092857D01*
X167885714Y-74950000D01*
X167933333Y-74807143D01*
X167980952Y-74735714D01*
X168076190Y-74664286D01*
X168266667Y-74592857D01*
X168361905Y-74521429D01*
X168409524Y-74450000D01*
X168457143Y-74307143D01*
X168457143Y-74164286D01*
X168409524Y-74021429D01*
X168361905Y-73950000D01*
X168266667Y-73878571D01*
X168028571Y-73878571D01*
X167885714Y-73950000D01*
X167457143Y-74807143D02*
X166695238Y-74807143D01*
X168838095Y-72878571D02*
X169409524Y-72878571D01*
X169123810Y-72878571D02*
X169123810Y-71378571D01*
X169219048Y-71592857D01*
X169314286Y-71735714D01*
X169409524Y-71807143D01*
X168076190Y-72092857D02*
X168409524Y-72092857D01*
X168409524Y-72878571D02*
X168409524Y-71378571D01*
X167933333Y-71378571D01*
X167552381Y-72307143D02*
X166790476Y-72307143D01*
D12*
X130030000Y-73170000D02*
X135110000Y-73170000D01*
X130030000Y-70630000D02*
X135110000Y-70630000D01*
X127210000Y-70350000D02*
X128760000Y-70350000D01*
X135110000Y-73170000D02*
X135110000Y-70630000D01*
X130030000Y-70630000D02*
X130030000Y-73170000D01*
X128760000Y-73450000D02*
X127210000Y-73450000D01*
X127210000Y-73450000D02*
X127210000Y-70350000D01*
X148900180Y-97500640D02*
X148900180Y-94300240D01*
X148900180Y-94300240D02*
X147099320Y-94300240D01*
X147099320Y-94300240D02*
X147099320Y-97500640D01*
X160200640Y-97500640D02*
X148900180Y-97500640D01*
X148900180Y-97500640D02*
X148900180Y-103299460D01*
X148900180Y-103299460D02*
X160200640Y-103299460D01*
X160200640Y-103299460D02*
X160200640Y-97500640D01*
X139799360Y-97500640D02*
X147099320Y-97500640D01*
X147099320Y-103299460D02*
X139799360Y-103299460D01*
X147099320Y-97500640D02*
X147099320Y-103299460D01*
X139799360Y-97500640D02*
X139799360Y-103299460D01*
D13*
X144060555Y-82800000D02*
G75*
G03X144060555Y-82800000I-360555J0D01*
G01*
D12*
X144375000Y-82075000D02*
X144375000Y-82425000D01*
X138625000Y-82075000D02*
X138625000Y-82525000D01*
X138625000Y-89725000D02*
X138625000Y-89275000D01*
X144375000Y-89725000D02*
X144375000Y-89275000D01*
X144375000Y-82075000D02*
X138625000Y-82075000D01*
X144375000Y-89725000D02*
X138625000Y-89725000D01*
X144375000Y-82425000D02*
X145975000Y-82425000D01*
D13*
X164900000Y-92800000D02*
X164900000Y-91400000D01*
X164900000Y-91400000D02*
X166100000Y-92100000D01*
X166100000Y-92100000D02*
X164900000Y-92800000D01*
D12*
X164270000Y-90040000D02*
X164270000Y-82420000D01*
X161730000Y-90040000D02*
X161730000Y-82420000D01*
X161450000Y-92860000D02*
X161450000Y-91310000D01*
X164270000Y-82420000D02*
X161730000Y-82420000D01*
X161730000Y-90040000D02*
X164270000Y-90040000D01*
X164550000Y-91310000D02*
X164550000Y-92860000D01*
X164550000Y-92860000D02*
X161450000Y-92860000D01*
D13*
X164900000Y-81300000D02*
X164900000Y-79900000D01*
X164900000Y-79900000D02*
X166100000Y-80600000D01*
X166100000Y-80600000D02*
X164900000Y-81300000D01*
D12*
X164270000Y-78540000D02*
X164270000Y-70920000D01*
X161730000Y-78540000D02*
X161730000Y-70920000D01*
X161450000Y-81360000D02*
X161450000Y-79810000D01*
X164270000Y-70920000D02*
X161730000Y-70920000D01*
X161730000Y-78540000D02*
X164270000Y-78540000D01*
X164550000Y-79810000D02*
X164550000Y-81360000D01*
X164550000Y-81360000D02*
X161450000Y-81360000D01*
X153770000Y-76000000D02*
X153770000Y-70920000D01*
X151230000Y-76000000D02*
X151230000Y-70920000D01*
X150950000Y-78820000D02*
X150950000Y-77270000D01*
X153770000Y-70920000D02*
X151230000Y-70920000D01*
X151230000Y-76000000D02*
X153770000Y-76000000D01*
X154050000Y-77270000D02*
X154050000Y-78820000D01*
X154050000Y-78820000D02*
X150950000Y-78820000D01*
D13*
X144060555Y-71300000D02*
G75*
G03X144060555Y-71300000I-360555J0D01*
G01*
D12*
X144375000Y-70575000D02*
X144375000Y-70925000D01*
X138625000Y-70575000D02*
X138625000Y-71025000D01*
X138625000Y-78225000D02*
X138625000Y-77775000D01*
X144375000Y-78225000D02*
X144375000Y-77775000D01*
X144375000Y-70575000D02*
X138625000Y-70575000D01*
X144375000Y-78225000D02*
X138625000Y-78225000D01*
X144375000Y-70925000D02*
X145975000Y-70925000D01*
D13*
X131123607Y-78300000D02*
G75*
G03X131123607Y-78300000I-223607J0D01*
G01*
D12*
X134350000Y-78150000D02*
X134350000Y-77800000D01*
X131050000Y-74850000D02*
X131050000Y-75200000D01*
X134350000Y-74850000D02*
X134350000Y-75200000D01*
X131050000Y-74850000D02*
X131400000Y-74850000D01*
X134350000Y-74850000D02*
X134000000Y-74850000D01*
X134350000Y-78150000D02*
X134000000Y-78150000D01*
X158270000Y-78540000D02*
X158270000Y-70920000D01*
X155730000Y-78540000D02*
X155730000Y-70920000D01*
X155450000Y-81360000D02*
X155450000Y-79810000D01*
X158270000Y-70920000D02*
X155730000Y-70920000D01*
X155730000Y-78540000D02*
X158270000Y-78540000D01*
X158550000Y-79810000D02*
X158550000Y-81360000D01*
X158550000Y-81360000D02*
X155450000Y-81360000D01*
X153770000Y-87500000D02*
X153770000Y-82420000D01*
X151230000Y-87500000D02*
X151230000Y-82420000D01*
X150950000Y-90320000D02*
X150950000Y-88770000D01*
X153770000Y-82420000D02*
X151230000Y-82420000D01*
X151230000Y-87500000D02*
X153770000Y-87500000D01*
X154050000Y-88770000D02*
X154050000Y-90320000D01*
X154050000Y-90320000D02*
X150950000Y-90320000D01*
X158270000Y-90040000D02*
X158270000Y-82420000D01*
X155730000Y-90040000D02*
X155730000Y-82420000D01*
X155450000Y-92860000D02*
X155450000Y-91310000D01*
X158270000Y-82420000D02*
X155730000Y-82420000D01*
X155730000Y-90040000D02*
X158270000Y-90040000D01*
X158550000Y-91310000D02*
X158550000Y-92860000D01*
X158550000Y-92860000D02*
X155450000Y-92860000D01*
X127700000Y-76975000D02*
X128700000Y-76975000D01*
X128700000Y-75625000D02*
X127700000Y-75625000D01*
X148700000Y-82025000D02*
X147700000Y-82025000D01*
X147700000Y-83375000D02*
X148700000Y-83375000D01*
X148700000Y-70525000D02*
X147700000Y-70525000D01*
X147700000Y-71875000D02*
X148700000Y-71875000D01*
X148700000Y-83725000D02*
X147700000Y-83725000D01*
X147700000Y-85075000D02*
X148700000Y-85075000D01*
X148700000Y-72225000D02*
X147700000Y-72225000D01*
X147700000Y-73575000D02*
X148700000Y-73575000D01*
X144500000Y-80075000D02*
X145500000Y-80075000D01*
X145500000Y-78725000D02*
X144500000Y-78725000D01*
X144500000Y-91575000D02*
X145500000Y-91575000D01*
X145500000Y-90225000D02*
X144500000Y-90225000D01*
X127200000Y-93075000D02*
X128200000Y-93075000D01*
X128200000Y-91725000D02*
X127200000Y-91725000D01*
X131700000Y-93075000D02*
X132700000Y-93075000D01*
X132700000Y-91725000D02*
X131700000Y-91725000D01*
X132700000Y-90025000D02*
X131700000Y-90025000D01*
X131700000Y-91375000D02*
X132700000Y-91375000D01*
X127200000Y-91375000D02*
X128200000Y-91375000D01*
X128200000Y-90025000D02*
X127200000Y-90025000D01*
X127200000Y-81175000D02*
X128200000Y-81175000D01*
X128200000Y-79825000D02*
X127200000Y-79825000D01*
X127200000Y-82875000D02*
X128200000Y-82875000D01*
X128200000Y-81525000D02*
X127200000Y-81525000D01*
X127200000Y-84575000D02*
X128200000Y-84575000D01*
X128200000Y-83225000D02*
X127200000Y-83225000D01*
X127200000Y-86275000D02*
X128200000Y-86275000D01*
X128200000Y-84925000D02*
X127200000Y-84925000D01*
X149275000Y-77000000D02*
X149275000Y-75000000D01*
X147125000Y-75000000D02*
X147125000Y-77000000D01*
X149275000Y-88500000D02*
X149275000Y-86500000D01*
X147125000Y-86500000D02*
X147125000Y-88500000D01*
X127200000Y-89675000D02*
X128200000Y-89675000D01*
X128200000Y-88325000D02*
X127200000Y-88325000D01*
X127200000Y-87975000D02*
X128200000Y-87975000D01*
X128200000Y-86625000D02*
X127200000Y-86625000D01*
X126633333Y-71652381D02*
X126633333Y-72366667D01*
X126680953Y-72509524D01*
X126776191Y-72604762D01*
X126919048Y-72652381D01*
X127014286Y-72652381D01*
X126014286Y-72080952D02*
X126109524Y-72033333D01*
X126157143Y-71985714D01*
X126204762Y-71890476D01*
X126204762Y-71842857D01*
X126157143Y-71747619D01*
X126109524Y-71700000D01*
X126014286Y-71652381D01*
X125823809Y-71652381D01*
X125728571Y-71700000D01*
X125680952Y-71747619D01*
X125633333Y-71842857D01*
X125633333Y-71890476D01*
X125680952Y-71985714D01*
X125728571Y-72033333D01*
X125823809Y-72080952D01*
X126014286Y-72080952D01*
X126109524Y-72128571D01*
X126157143Y-72176190D01*
X126204762Y-72271429D01*
X126204762Y-72461905D01*
X126157143Y-72557143D01*
X126109524Y-72604762D01*
X126014286Y-72652381D01*
X125823809Y-72652381D01*
X125728571Y-72604762D01*
X125680952Y-72557143D01*
X125633333Y-72461905D01*
X125633333Y-72271429D01*
X125680952Y-72176190D01*
X125728571Y-72128571D01*
X125823809Y-72080952D01*
X154778333Y-95642381D02*
X154778333Y-96356667D01*
X154825953Y-96499524D01*
X154921191Y-96594762D01*
X155064048Y-96642381D01*
X155159286Y-96642381D01*
X153778333Y-96642381D02*
X154349762Y-96642381D01*
X154064048Y-96642381D02*
X154064048Y-95642381D01*
X154159286Y-95785238D01*
X154254524Y-95880476D01*
X154349762Y-95928095D01*
X138361905Y-89552381D02*
X138361905Y-90361905D01*
X138314286Y-90457143D01*
X138266667Y-90504762D01*
X138171429Y-90552381D01*
X137980952Y-90552381D01*
X137885714Y-90504762D01*
X137838095Y-90457143D01*
X137790476Y-90361905D01*
X137790476Y-89552381D01*
X137361905Y-89647619D02*
X137314286Y-89600000D01*
X137219048Y-89552381D01*
X136980952Y-89552381D01*
X136885714Y-89600000D01*
X136838095Y-89647619D01*
X136790476Y-89742857D01*
X136790476Y-89838095D01*
X136838095Y-89980952D01*
X137409524Y-90552381D01*
X136790476Y-90552381D01*
X164852381Y-84566667D02*
X165566667Y-84566667D01*
X165709524Y-84519047D01*
X165804762Y-84423809D01*
X165852381Y-84280952D01*
X165852381Y-84185714D01*
X164947619Y-84995238D02*
X164900000Y-85042857D01*
X164852381Y-85138095D01*
X164852381Y-85376191D01*
X164900000Y-85471429D01*
X164947619Y-85519048D01*
X165042857Y-85566667D01*
X165138095Y-85566667D01*
X165280952Y-85519048D01*
X165852381Y-84947619D01*
X165852381Y-85566667D01*
X164852381Y-73066667D02*
X165566667Y-73066667D01*
X165709524Y-73019047D01*
X165804762Y-72923809D01*
X165852381Y-72780952D01*
X165852381Y-72685714D01*
X164852381Y-73447619D02*
X164852381Y-74066667D01*
X165233333Y-73733333D01*
X165233333Y-73876191D01*
X165280952Y-73971429D01*
X165328571Y-74019048D01*
X165423810Y-74066667D01*
X165661905Y-74066667D01*
X165757143Y-74019048D01*
X165804762Y-73971429D01*
X165852381Y-73876191D01*
X165852381Y-73590476D01*
X165804762Y-73495238D01*
X165757143Y-73447619D01*
X152833333Y-79152381D02*
X152833333Y-79866667D01*
X152880953Y-80009524D01*
X152976191Y-80104762D01*
X153119048Y-80152381D01*
X153214286Y-80152381D01*
X151928571Y-79485714D02*
X151928571Y-80152381D01*
X152166667Y-79104762D02*
X152404762Y-79819048D01*
X151785714Y-79819048D01*
X138261905Y-78052381D02*
X138261905Y-78861905D01*
X138214286Y-78957143D01*
X138166667Y-79004762D01*
X138071429Y-79052381D01*
X137880952Y-79052381D01*
X137785714Y-79004762D01*
X137738095Y-78957143D01*
X137690476Y-78861905D01*
X137690476Y-78052381D01*
X136690476Y-79052381D02*
X137261905Y-79052381D01*
X136976191Y-79052381D02*
X136976191Y-78052381D01*
X137071429Y-78195238D01*
X137166667Y-78290476D01*
X137261905Y-78338095D01*
X133233333Y-78716667D02*
X133233333Y-79283333D01*
X133200000Y-79350000D01*
X133166667Y-79383333D01*
X133100000Y-79416667D01*
X132966667Y-79416667D01*
X132900000Y-79383333D01*
X132866667Y-79350000D01*
X132833333Y-79283333D01*
X132833333Y-78716667D01*
X132200000Y-78950000D02*
X132200000Y-79416667D01*
X132366667Y-78683333D02*
X132533334Y-79183333D01*
X132100000Y-79183333D01*
X154452381Y-71366667D02*
X155166667Y-71366667D01*
X155309524Y-71319047D01*
X155404762Y-71223809D01*
X155452381Y-71080952D01*
X155452381Y-70985714D01*
X154452381Y-72319048D02*
X154452381Y-71842857D01*
X154928571Y-71795238D01*
X154880952Y-71842857D01*
X154833333Y-71938095D01*
X154833333Y-72176191D01*
X154880952Y-72271429D01*
X154928571Y-72319048D01*
X155023810Y-72366667D01*
X155261905Y-72366667D01*
X155357143Y-72319048D01*
X155404762Y-72271429D01*
X155452381Y-72176191D01*
X155452381Y-71938095D01*
X155404762Y-71842857D01*
X155357143Y-71795238D01*
X152833333Y-90652381D02*
X152833333Y-91366667D01*
X152880953Y-91509524D01*
X152976191Y-91604762D01*
X153119048Y-91652381D01*
X153214286Y-91652381D01*
X151928571Y-90652381D02*
X152119048Y-90652381D01*
X152214286Y-90700000D01*
X152261905Y-90747619D01*
X152357143Y-90890476D01*
X152404762Y-91080952D01*
X152404762Y-91461905D01*
X152357143Y-91557143D01*
X152309524Y-91604762D01*
X152214286Y-91652381D01*
X152023809Y-91652381D01*
X151928571Y-91604762D01*
X151880952Y-91557143D01*
X151833333Y-91461905D01*
X151833333Y-91223810D01*
X151880952Y-91128571D01*
X151928571Y-91080952D01*
X152023809Y-91033333D01*
X152214286Y-91033333D01*
X152309524Y-91080952D01*
X152357143Y-91128571D01*
X152404762Y-91223810D01*
X154452381Y-82866667D02*
X155166667Y-82866667D01*
X155309524Y-82819047D01*
X155404762Y-82723809D01*
X155452381Y-82580952D01*
X155452381Y-82485714D01*
X154452381Y-83247619D02*
X154452381Y-83914286D01*
X155452381Y-83485714D01*
X126316666Y-76550000D02*
X126350000Y-76583333D01*
X126450000Y-76616667D01*
X126516666Y-76616667D01*
X126616666Y-76583333D01*
X126683333Y-76516667D01*
X126716666Y-76450000D01*
X126750000Y-76316667D01*
X126750000Y-76216667D01*
X126716666Y-76083333D01*
X126683333Y-76016667D01*
X126616666Y-75950000D01*
X126516666Y-75916667D01*
X126450000Y-75916667D01*
X126350000Y-75950000D01*
X126316666Y-75983333D01*
X125650000Y-76616667D02*
X126050000Y-76616667D01*
X125850000Y-76616667D02*
X125850000Y-75916667D01*
X125916666Y-76016667D01*
X125983333Y-76083333D01*
X126050000Y-76116667D01*
X150316666Y-82950000D02*
X150350000Y-82983333D01*
X150450000Y-83016667D01*
X150516666Y-83016667D01*
X150616666Y-82983333D01*
X150683333Y-82916667D01*
X150716666Y-82850000D01*
X150750000Y-82716667D01*
X150750000Y-82616667D01*
X150716666Y-82483333D01*
X150683333Y-82416667D01*
X150616666Y-82350000D01*
X150516666Y-82316667D01*
X150450000Y-82316667D01*
X150350000Y-82350000D01*
X150316666Y-82383333D01*
X150050000Y-82383333D02*
X150016666Y-82350000D01*
X149950000Y-82316667D01*
X149783333Y-82316667D01*
X149716666Y-82350000D01*
X149683333Y-82383333D01*
X149650000Y-82450000D01*
X149650000Y-82516667D01*
X149683333Y-82616667D01*
X150083333Y-83016667D01*
X149650000Y-83016667D01*
X150316666Y-71450000D02*
X150350000Y-71483333D01*
X150450000Y-71516667D01*
X150516666Y-71516667D01*
X150616666Y-71483333D01*
X150683333Y-71416667D01*
X150716666Y-71350000D01*
X150750000Y-71216667D01*
X150750000Y-71116667D01*
X150716666Y-70983333D01*
X150683333Y-70916667D01*
X150616666Y-70850000D01*
X150516666Y-70816667D01*
X150450000Y-70816667D01*
X150350000Y-70850000D01*
X150316666Y-70883333D01*
X150083333Y-70816667D02*
X149650000Y-70816667D01*
X149883333Y-71083333D01*
X149783333Y-71083333D01*
X149716666Y-71116667D01*
X149683333Y-71150000D01*
X149650000Y-71216667D01*
X149650000Y-71383333D01*
X149683333Y-71450000D01*
X149716666Y-71483333D01*
X149783333Y-71516667D01*
X149983333Y-71516667D01*
X150050000Y-71483333D01*
X150083333Y-71450000D01*
X150316666Y-84650000D02*
X150350000Y-84683333D01*
X150450000Y-84716667D01*
X150516666Y-84716667D01*
X150616666Y-84683333D01*
X150683333Y-84616667D01*
X150716666Y-84550000D01*
X150750000Y-84416667D01*
X150750000Y-84316667D01*
X150716666Y-84183333D01*
X150683333Y-84116667D01*
X150616666Y-84050000D01*
X150516666Y-84016667D01*
X150450000Y-84016667D01*
X150350000Y-84050000D01*
X150316666Y-84083333D01*
X149716666Y-84250000D02*
X149716666Y-84716667D01*
X149883333Y-83983333D02*
X150050000Y-84483333D01*
X149616666Y-84483333D01*
X150316666Y-73250000D02*
X150350000Y-73283333D01*
X150450000Y-73316667D01*
X150516666Y-73316667D01*
X150616666Y-73283333D01*
X150683333Y-73216667D01*
X150716666Y-73150000D01*
X150750000Y-73016667D01*
X150750000Y-72916667D01*
X150716666Y-72783333D01*
X150683333Y-72716667D01*
X150616666Y-72650000D01*
X150516666Y-72616667D01*
X150450000Y-72616667D01*
X150350000Y-72650000D01*
X150316666Y-72683333D01*
X149683333Y-72616667D02*
X150016666Y-72616667D01*
X150050000Y-72950000D01*
X150016666Y-72916667D01*
X149950000Y-72883333D01*
X149783333Y-72883333D01*
X149716666Y-72916667D01*
X149683333Y-72950000D01*
X149650000Y-73016667D01*
X149650000Y-73183333D01*
X149683333Y-73250000D01*
X149716666Y-73283333D01*
X149783333Y-73316667D01*
X149950000Y-73316667D01*
X150016666Y-73283333D01*
X150050000Y-73250000D01*
X147216666Y-79650000D02*
X147250000Y-79683333D01*
X147350000Y-79716667D01*
X147416666Y-79716667D01*
X147516666Y-79683333D01*
X147583333Y-79616667D01*
X147616666Y-79550000D01*
X147650000Y-79416667D01*
X147650000Y-79316667D01*
X147616666Y-79183333D01*
X147583333Y-79116667D01*
X147516666Y-79050000D01*
X147416666Y-79016667D01*
X147350000Y-79016667D01*
X147250000Y-79050000D01*
X147216666Y-79083333D01*
X146616666Y-79016667D02*
X146750000Y-79016667D01*
X146816666Y-79050000D01*
X146850000Y-79083333D01*
X146916666Y-79183333D01*
X146950000Y-79316667D01*
X146950000Y-79583333D01*
X146916666Y-79650000D01*
X146883333Y-79683333D01*
X146816666Y-79716667D01*
X146683333Y-79716667D01*
X146616666Y-79683333D01*
X146583333Y-79650000D01*
X146550000Y-79583333D01*
X146550000Y-79416667D01*
X146583333Y-79350000D01*
X146616666Y-79316667D01*
X146683333Y-79283333D01*
X146816666Y-79283333D01*
X146883333Y-79316667D01*
X146916666Y-79350000D01*
X146950000Y-79416667D01*
X147216666Y-91150000D02*
X147250000Y-91183333D01*
X147350000Y-91216667D01*
X147416666Y-91216667D01*
X147516666Y-91183333D01*
X147583333Y-91116667D01*
X147616666Y-91050000D01*
X147650000Y-90916667D01*
X147650000Y-90816667D01*
X147616666Y-90683333D01*
X147583333Y-90616667D01*
X147516666Y-90550000D01*
X147416666Y-90516667D01*
X147350000Y-90516667D01*
X147250000Y-90550000D01*
X147216666Y-90583333D01*
X146983333Y-90516667D02*
X146516666Y-90516667D01*
X146816666Y-91216667D01*
D14*
X125983333Y-92616667D02*
X126150000Y-92283333D01*
X126269047Y-92616667D02*
X126269047Y-91916667D01*
X126078571Y-91916667D01*
X126030952Y-91950000D01*
X126007143Y-91983333D01*
X125983333Y-92050000D01*
X125983333Y-92150000D01*
X126007143Y-92216667D01*
X126030952Y-92250000D01*
X126078571Y-92283333D01*
X126269047Y-92283333D01*
X125507143Y-92616667D02*
X125792857Y-92616667D01*
X125650000Y-92616667D02*
X125650000Y-91916667D01*
X125697619Y-92016667D01*
X125745238Y-92083333D01*
X125792857Y-92116667D01*
D12*
X134416666Y-92716667D02*
X134650000Y-92383333D01*
X134816666Y-92716667D02*
X134816666Y-92016667D01*
X134550000Y-92016667D01*
X134483333Y-92050000D01*
X134450000Y-92083333D01*
X134416666Y-92150000D01*
X134416666Y-92250000D01*
X134450000Y-92316667D01*
X134483333Y-92350000D01*
X134550000Y-92383333D01*
X134816666Y-92383333D01*
X134150000Y-92083333D02*
X134116666Y-92050000D01*
X134050000Y-92016667D01*
X133883333Y-92016667D01*
X133816666Y-92050000D01*
X133783333Y-92083333D01*
X133750000Y-92150000D01*
X133750000Y-92216667D01*
X133783333Y-92316667D01*
X134183333Y-92716667D01*
X133750000Y-92716667D01*
X134416666Y-91016667D02*
X134650000Y-90683333D01*
X134816666Y-91016667D02*
X134816666Y-90316667D01*
X134550000Y-90316667D01*
X134483333Y-90350000D01*
X134450000Y-90383333D01*
X134416666Y-90450000D01*
X134416666Y-90550000D01*
X134450000Y-90616667D01*
X134483333Y-90650000D01*
X134550000Y-90683333D01*
X134816666Y-90683333D01*
X134183333Y-90316667D02*
X133750000Y-90316667D01*
X133983333Y-90583333D01*
X133883333Y-90583333D01*
X133816666Y-90616667D01*
X133783333Y-90650000D01*
X133750000Y-90716667D01*
X133750000Y-90883333D01*
X133783333Y-90950000D01*
X133816666Y-90983333D01*
X133883333Y-91016667D01*
X134083333Y-91016667D01*
X134150000Y-90983333D01*
X134183333Y-90950000D01*
X125816666Y-91016667D02*
X126050000Y-90683333D01*
X126216666Y-91016667D02*
X126216666Y-90316667D01*
X125950000Y-90316667D01*
X125883333Y-90350000D01*
X125850000Y-90383333D01*
X125816666Y-90450000D01*
X125816666Y-90550000D01*
X125850000Y-90616667D01*
X125883333Y-90650000D01*
X125950000Y-90683333D01*
X126216666Y-90683333D01*
X125216666Y-90550000D02*
X125216666Y-91016667D01*
X125383333Y-90283333D02*
X125550000Y-90783333D01*
X125116666Y-90783333D01*
X129916666Y-80816667D02*
X130150000Y-80483333D01*
X130316666Y-80816667D02*
X130316666Y-80116667D01*
X130050000Y-80116667D01*
X129983333Y-80150000D01*
X129950000Y-80183333D01*
X129916666Y-80250000D01*
X129916666Y-80350000D01*
X129950000Y-80416667D01*
X129983333Y-80450000D01*
X130050000Y-80483333D01*
X130316666Y-80483333D01*
X129283333Y-80116667D02*
X129616666Y-80116667D01*
X129650000Y-80450000D01*
X129616666Y-80416667D01*
X129550000Y-80383333D01*
X129383333Y-80383333D01*
X129316666Y-80416667D01*
X129283333Y-80450000D01*
X129250000Y-80516667D01*
X129250000Y-80683333D01*
X129283333Y-80750000D01*
X129316666Y-80783333D01*
X129383333Y-80816667D01*
X129550000Y-80816667D01*
X129616666Y-80783333D01*
X129650000Y-80750000D01*
X129916666Y-82516667D02*
X130150000Y-82183333D01*
X130316666Y-82516667D02*
X130316666Y-81816667D01*
X130050000Y-81816667D01*
X129983333Y-81850000D01*
X129950000Y-81883333D01*
X129916666Y-81950000D01*
X129916666Y-82050000D01*
X129950000Y-82116667D01*
X129983333Y-82150000D01*
X130050000Y-82183333D01*
X130316666Y-82183333D01*
X129316666Y-81816667D02*
X129450000Y-81816667D01*
X129516666Y-81850000D01*
X129550000Y-81883333D01*
X129616666Y-81983333D01*
X129650000Y-82116667D01*
X129650000Y-82383333D01*
X129616666Y-82450000D01*
X129583333Y-82483333D01*
X129516666Y-82516667D01*
X129383333Y-82516667D01*
X129316666Y-82483333D01*
X129283333Y-82450000D01*
X129250000Y-82383333D01*
X129250000Y-82216667D01*
X129283333Y-82150000D01*
X129316666Y-82116667D01*
X129383333Y-82083333D01*
X129516666Y-82083333D01*
X129583333Y-82116667D01*
X129616666Y-82150000D01*
X129650000Y-82216667D01*
X129916666Y-84216667D02*
X130150000Y-83883333D01*
X130316666Y-84216667D02*
X130316666Y-83516667D01*
X130050000Y-83516667D01*
X129983333Y-83550000D01*
X129950000Y-83583333D01*
X129916666Y-83650000D01*
X129916666Y-83750000D01*
X129950000Y-83816667D01*
X129983333Y-83850000D01*
X130050000Y-83883333D01*
X130316666Y-83883333D01*
X129683333Y-83516667D02*
X129216666Y-83516667D01*
X129516666Y-84216667D01*
X129916666Y-85916667D02*
X130150000Y-85583333D01*
X130316666Y-85916667D02*
X130316666Y-85216667D01*
X130050000Y-85216667D01*
X129983333Y-85250000D01*
X129950000Y-85283333D01*
X129916666Y-85350000D01*
X129916666Y-85450000D01*
X129950000Y-85516667D01*
X129983333Y-85550000D01*
X130050000Y-85583333D01*
X130316666Y-85583333D01*
X129516666Y-85516667D02*
X129583333Y-85483333D01*
X129616666Y-85450000D01*
X129650000Y-85383333D01*
X129650000Y-85350000D01*
X129616666Y-85283333D01*
X129583333Y-85250000D01*
X129516666Y-85216667D01*
X129383333Y-85216667D01*
X129316666Y-85250000D01*
X129283333Y-85283333D01*
X129250000Y-85350000D01*
X129250000Y-85383333D01*
X129283333Y-85450000D01*
X129316666Y-85483333D01*
X129383333Y-85516667D01*
X129516666Y-85516667D01*
X129583333Y-85550000D01*
X129616666Y-85583333D01*
X129650000Y-85650000D01*
X129650000Y-85783333D01*
X129616666Y-85850000D01*
X129583333Y-85883333D01*
X129516666Y-85916667D01*
X129383333Y-85916667D01*
X129316666Y-85883333D01*
X129283333Y-85850000D01*
X129250000Y-85783333D01*
X129250000Y-85650000D01*
X129283333Y-85583333D01*
X129316666Y-85550000D01*
X129383333Y-85516667D01*
X148316666Y-76316667D02*
X148550000Y-75983333D01*
X148716666Y-76316667D02*
X148716666Y-75616667D01*
X148450000Y-75616667D01*
X148383333Y-75650000D01*
X148350000Y-75683333D01*
X148316666Y-75750000D01*
X148316666Y-75850000D01*
X148350000Y-75916667D01*
X148383333Y-75950000D01*
X148450000Y-75983333D01*
X148716666Y-75983333D01*
X147983333Y-76316667D02*
X147850000Y-76316667D01*
X147783333Y-76283333D01*
X147750000Y-76250000D01*
X147683333Y-76150000D01*
X147650000Y-76016667D01*
X147650000Y-75750000D01*
X147683333Y-75683333D01*
X147716666Y-75650000D01*
X147783333Y-75616667D01*
X147916666Y-75616667D01*
X147983333Y-75650000D01*
X148016666Y-75683333D01*
X148050000Y-75750000D01*
X148050000Y-75916667D01*
X148016666Y-75983333D01*
X147983333Y-76016667D01*
X147916666Y-76050000D01*
X147783333Y-76050000D01*
X147716666Y-76016667D01*
X147683333Y-75983333D01*
X147650000Y-75916667D01*
D14*
X148521428Y-87816667D02*
X148688095Y-87483333D01*
X148807142Y-87816667D02*
X148807142Y-87116667D01*
X148616666Y-87116667D01*
X148569047Y-87150000D01*
X148545238Y-87183333D01*
X148521428Y-87250000D01*
X148521428Y-87350000D01*
X148545238Y-87416667D01*
X148569047Y-87450000D01*
X148616666Y-87483333D01*
X148807142Y-87483333D01*
X148045238Y-87816667D02*
X148330952Y-87816667D01*
X148188095Y-87816667D02*
X148188095Y-87116667D01*
X148235714Y-87216667D01*
X148283333Y-87283333D01*
X148330952Y-87316667D01*
X147735714Y-87116667D02*
X147688095Y-87116667D01*
X147640476Y-87150000D01*
X147616667Y-87183333D01*
X147592857Y-87250000D01*
X147569048Y-87383333D01*
X147569048Y-87550000D01*
X147592857Y-87683333D01*
X147616667Y-87750000D01*
X147640476Y-87783333D01*
X147688095Y-87816667D01*
X147735714Y-87816667D01*
X147783333Y-87783333D01*
X147807143Y-87750000D01*
X147830952Y-87683333D01*
X147854762Y-87550000D01*
X147854762Y-87383333D01*
X147830952Y-87250000D01*
X147807143Y-87183333D01*
X147783333Y-87150000D01*
X147735714Y-87116667D01*
D12*
X130450000Y-89316667D02*
X130683334Y-88983333D01*
X130850000Y-89316667D02*
X130850000Y-88616667D01*
X130583334Y-88616667D01*
X130516667Y-88650000D01*
X130483334Y-88683333D01*
X130450000Y-88750000D01*
X130450000Y-88850000D01*
X130483334Y-88916667D01*
X130516667Y-88950000D01*
X130583334Y-88983333D01*
X130850000Y-88983333D01*
X129783334Y-89316667D02*
X130183334Y-89316667D01*
X129983334Y-89316667D02*
X129983334Y-88616667D01*
X130050000Y-88716667D01*
X130116667Y-88783333D01*
X130183334Y-88816667D01*
X129116667Y-89316667D02*
X129516667Y-89316667D01*
X129316667Y-89316667D02*
X129316667Y-88616667D01*
X129383333Y-88716667D01*
X129450000Y-88783333D01*
X129516667Y-88816667D01*
X130550000Y-87616667D02*
X130783334Y-87283333D01*
X130950000Y-87616667D02*
X130950000Y-86916667D01*
X130683334Y-86916667D01*
X130616667Y-86950000D01*
X130583334Y-86983333D01*
X130550000Y-87050000D01*
X130550000Y-87150000D01*
X130583334Y-87216667D01*
X130616667Y-87250000D01*
X130683334Y-87283333D01*
X130950000Y-87283333D01*
X129883334Y-87616667D02*
X130283334Y-87616667D01*
X130083334Y-87616667D02*
X130083334Y-86916667D01*
X130150000Y-87016667D01*
X130216667Y-87083333D01*
X130283334Y-87116667D01*
X129616667Y-86983333D02*
X129583333Y-86950000D01*
X129516667Y-86916667D01*
X129350000Y-86916667D01*
X129283333Y-86950000D01*
X129250000Y-86983333D01*
X129216667Y-87050000D01*
X129216667Y-87116667D01*
X129250000Y-87216667D01*
X129650000Y-87616667D01*
X129216667Y-87616667D01*
M02*
