G04 #@! TF.FileFunction,Legend,Top*
%FSLAX46Y46*%
G04 Gerber Fmt 4.6, Leading zero omitted, Abs format (unit mm)*
G04 Created by KiCad (PCBNEW 4.0.4+e1-6308~48~ubuntu14.04.1-stable) date Tue Dec 13 19:25:01 2016*
%MOMM*%
%LPD*%
G01*
G04 APERTURE LIST*
%ADD10C,0.100000*%
%ADD11C,0.200000*%
G04 APERTURE END LIST*
D10*
D11*
X128209524Y-81002381D02*
X127876190Y-80526190D01*
X127638095Y-81002381D02*
X127638095Y-80002381D01*
X128019048Y-80002381D01*
X128114286Y-80050000D01*
X128161905Y-80097619D01*
X128209524Y-80192857D01*
X128209524Y-80335714D01*
X128161905Y-80430952D01*
X128114286Y-80478571D01*
X128019048Y-80526190D01*
X127638095Y-80526190D01*
X129161905Y-81002381D02*
X128590476Y-81002381D01*
X128876190Y-81002381D02*
X128876190Y-80002381D01*
X128780952Y-80145238D01*
X128685714Y-80240476D01*
X128590476Y-80288095D01*
X129780952Y-80002381D02*
X129876191Y-80002381D01*
X129971429Y-80050000D01*
X130019048Y-80097619D01*
X130066667Y-80192857D01*
X130114286Y-80383333D01*
X130114286Y-80621429D01*
X130066667Y-80811905D01*
X130019048Y-80907143D01*
X129971429Y-80954762D01*
X129876191Y-81002381D01*
X129780952Y-81002381D01*
X129685714Y-80954762D01*
X129638095Y-80907143D01*
X129590476Y-80811905D01*
X129542857Y-80621429D01*
X129542857Y-80383333D01*
X129590476Y-80192857D01*
X129638095Y-80097619D01*
X129685714Y-80050000D01*
X129780952Y-80002381D01*
X130733333Y-80002381D02*
X130828572Y-80002381D01*
X130923810Y-80050000D01*
X130971429Y-80097619D01*
X131019048Y-80192857D01*
X131066667Y-80383333D01*
X131066667Y-80621429D01*
X131019048Y-80811905D01*
X130971429Y-80907143D01*
X130923810Y-80954762D01*
X130828572Y-81002381D01*
X130733333Y-81002381D01*
X130638095Y-80954762D01*
X130590476Y-80907143D01*
X130542857Y-80811905D01*
X130495238Y-80621429D01*
X130495238Y-80383333D01*
X130542857Y-80192857D01*
X130590476Y-80097619D01*
X130638095Y-80050000D01*
X130733333Y-80002381D01*
X131638095Y-80430952D02*
X131542857Y-80383333D01*
X131495238Y-80335714D01*
X131447619Y-80240476D01*
X131447619Y-80192857D01*
X131495238Y-80097619D01*
X131542857Y-80050000D01*
X131638095Y-80002381D01*
X131828572Y-80002381D01*
X131923810Y-80050000D01*
X131971429Y-80097619D01*
X132019048Y-80192857D01*
X132019048Y-80240476D01*
X131971429Y-80335714D01*
X131923810Y-80383333D01*
X131828572Y-80430952D01*
X131638095Y-80430952D01*
X131542857Y-80478571D01*
X131495238Y-80526190D01*
X131447619Y-80621429D01*
X131447619Y-80811905D01*
X131495238Y-80907143D01*
X131542857Y-80954762D01*
X131638095Y-81002381D01*
X131828572Y-81002381D01*
X131923810Y-80954762D01*
X131971429Y-80907143D01*
X132019048Y-80811905D01*
X132019048Y-80621429D01*
X131971429Y-80526190D01*
X131923810Y-80478571D01*
X131828572Y-80430952D01*
X133114286Y-80335714D02*
X133352381Y-81002381D01*
X133590477Y-80335714D01*
X134495239Y-81002381D02*
X133923810Y-81002381D01*
X134209524Y-81002381D02*
X134209524Y-80002381D01*
X134114286Y-80145238D01*
X134019048Y-80240476D01*
X133923810Y-80288095D01*
X134923810Y-80907143D02*
X134971429Y-80954762D01*
X134923810Y-81002381D01*
X134876191Y-80954762D01*
X134923810Y-80907143D01*
X134923810Y-81002381D01*
X135590476Y-80002381D02*
X135685715Y-80002381D01*
X135780953Y-80050000D01*
X135828572Y-80097619D01*
X135876191Y-80192857D01*
X135923810Y-80383333D01*
X135923810Y-80621429D01*
X135876191Y-80811905D01*
X135828572Y-80907143D01*
X135780953Y-80954762D01*
X135685715Y-81002381D01*
X135590476Y-81002381D01*
X135495238Y-80954762D01*
X135447619Y-80907143D01*
X135400000Y-80811905D01*
X135352381Y-80621429D01*
X135352381Y-80383333D01*
X135400000Y-80192857D01*
X135447619Y-80097619D01*
X135495238Y-80050000D01*
X135590476Y-80002381D01*
X136352381Y-80907143D02*
X136400000Y-80954762D01*
X136352381Y-81002381D01*
X136304762Y-80954762D01*
X136352381Y-80907143D01*
X136352381Y-81002381D01*
X137019047Y-80002381D02*
X137114286Y-80002381D01*
X137209524Y-80050000D01*
X137257143Y-80097619D01*
X137304762Y-80192857D01*
X137352381Y-80383333D01*
X137352381Y-80621429D01*
X137304762Y-80811905D01*
X137257143Y-80907143D01*
X137209524Y-80954762D01*
X137114286Y-81002381D01*
X137019047Y-81002381D01*
X136923809Y-80954762D01*
X136876190Y-80907143D01*
X136828571Y-80811905D01*
X136780952Y-80621429D01*
X136780952Y-80383333D01*
X136828571Y-80192857D01*
X136876190Y-80097619D01*
X136923809Y-80050000D01*
X137019047Y-80002381D01*
X128209524Y-82702381D02*
X127876190Y-82226190D01*
X127638095Y-82702381D02*
X127638095Y-81702381D01*
X128019048Y-81702381D01*
X128114286Y-81750000D01*
X128161905Y-81797619D01*
X128209524Y-81892857D01*
X128209524Y-82035714D01*
X128161905Y-82130952D01*
X128114286Y-82178571D01*
X128019048Y-82226190D01*
X127638095Y-82226190D01*
X128495238Y-81702381D02*
X129066667Y-81702381D01*
X128780952Y-82702381D02*
X128780952Y-81702381D01*
X129400000Y-82702381D02*
X129400000Y-81702381D01*
X129638095Y-81702381D01*
X129780953Y-81750000D01*
X129876191Y-81845238D01*
X129923810Y-81940476D01*
X129971429Y-82130952D01*
X129971429Y-82273810D01*
X129923810Y-82464286D01*
X129876191Y-82559524D01*
X129780953Y-82654762D01*
X129638095Y-82702381D01*
X129400000Y-82702381D01*
X131019048Y-81702381D02*
X131590477Y-81702381D01*
X131304762Y-82702381D02*
X131304762Y-81702381D01*
X132304763Y-82654762D02*
X132209525Y-82702381D01*
X132019048Y-82702381D01*
X131923810Y-82654762D01*
X131876191Y-82559524D01*
X131876191Y-82178571D01*
X131923810Y-82083333D01*
X132019048Y-82035714D01*
X132209525Y-82035714D01*
X132304763Y-82083333D01*
X132352382Y-82178571D01*
X132352382Y-82273810D01*
X131876191Y-82369048D01*
X132780953Y-82702381D02*
X132780953Y-82035714D01*
X132780953Y-82130952D02*
X132828572Y-82083333D01*
X132923810Y-82035714D01*
X133066668Y-82035714D01*
X133161906Y-82083333D01*
X133209525Y-82178571D01*
X133209525Y-82702381D01*
X133209525Y-82178571D02*
X133257144Y-82083333D01*
X133352382Y-82035714D01*
X133495239Y-82035714D01*
X133590477Y-82083333D01*
X133638096Y-82178571D01*
X133638096Y-82702381D01*
X134114286Y-82035714D02*
X134114286Y-83035714D01*
X134114286Y-82083333D02*
X134209524Y-82035714D01*
X134400001Y-82035714D01*
X134495239Y-82083333D01*
X134542858Y-82130952D01*
X134590477Y-82226190D01*
X134590477Y-82511905D01*
X134542858Y-82607143D01*
X134495239Y-82654762D01*
X134400001Y-82702381D01*
X134209524Y-82702381D01*
X134114286Y-82654762D01*
X135400001Y-82654762D02*
X135304763Y-82702381D01*
X135114286Y-82702381D01*
X135019048Y-82654762D01*
X134971429Y-82559524D01*
X134971429Y-82178571D01*
X135019048Y-82083333D01*
X135114286Y-82035714D01*
X135304763Y-82035714D01*
X135400001Y-82083333D01*
X135447620Y-82178571D01*
X135447620Y-82273810D01*
X134971429Y-82369048D01*
X135876191Y-82702381D02*
X135876191Y-82035714D01*
X135876191Y-82226190D02*
X135923810Y-82130952D01*
X135971429Y-82083333D01*
X136066667Y-82035714D01*
X136161906Y-82035714D01*
X136923811Y-82702381D02*
X136923811Y-82178571D01*
X136876192Y-82083333D01*
X136780954Y-82035714D01*
X136590477Y-82035714D01*
X136495239Y-82083333D01*
X136923811Y-82654762D02*
X136828573Y-82702381D01*
X136590477Y-82702381D01*
X136495239Y-82654762D01*
X136447620Y-82559524D01*
X136447620Y-82464286D01*
X136495239Y-82369048D01*
X136590477Y-82321429D01*
X136828573Y-82321429D01*
X136923811Y-82273810D01*
X137257144Y-82035714D02*
X137638096Y-82035714D01*
X137400001Y-81702381D02*
X137400001Y-82559524D01*
X137447620Y-82654762D01*
X137542858Y-82702381D01*
X137638096Y-82702381D01*
X138400002Y-82035714D02*
X138400002Y-82702381D01*
X137971430Y-82035714D02*
X137971430Y-82559524D01*
X138019049Y-82654762D01*
X138114287Y-82702381D01*
X138257145Y-82702381D01*
X138352383Y-82654762D01*
X138400002Y-82607143D01*
X138876192Y-82702381D02*
X138876192Y-82035714D01*
X138876192Y-82226190D02*
X138923811Y-82130952D01*
X138971430Y-82083333D01*
X139066668Y-82035714D01*
X139161907Y-82035714D01*
X139876193Y-82654762D02*
X139780955Y-82702381D01*
X139590478Y-82702381D01*
X139495240Y-82654762D01*
X139447621Y-82559524D01*
X139447621Y-82178571D01*
X139495240Y-82083333D01*
X139590478Y-82035714D01*
X139780955Y-82035714D01*
X139876193Y-82083333D01*
X139923812Y-82178571D01*
X139923812Y-82273810D01*
X139447621Y-82369048D01*
X141066669Y-82654762D02*
X141209526Y-82702381D01*
X141447622Y-82702381D01*
X141542860Y-82654762D01*
X141590479Y-82607143D01*
X141638098Y-82511905D01*
X141638098Y-82416667D01*
X141590479Y-82321429D01*
X141542860Y-82273810D01*
X141447622Y-82226190D01*
X141257145Y-82178571D01*
X141161907Y-82130952D01*
X141114288Y-82083333D01*
X141066669Y-81988095D01*
X141066669Y-81892857D01*
X141114288Y-81797619D01*
X141161907Y-81750000D01*
X141257145Y-81702381D01*
X141495241Y-81702381D01*
X141638098Y-81750000D01*
X142447622Y-82654762D02*
X142352384Y-82702381D01*
X142161907Y-82702381D01*
X142066669Y-82654762D01*
X142019050Y-82559524D01*
X142019050Y-82178571D01*
X142066669Y-82083333D01*
X142161907Y-82035714D01*
X142352384Y-82035714D01*
X142447622Y-82083333D01*
X142495241Y-82178571D01*
X142495241Y-82273810D01*
X142019050Y-82369048D01*
X142923812Y-82035714D02*
X142923812Y-82702381D01*
X142923812Y-82130952D02*
X142971431Y-82083333D01*
X143066669Y-82035714D01*
X143209527Y-82035714D01*
X143304765Y-82083333D01*
X143352384Y-82178571D01*
X143352384Y-82702381D01*
X143780955Y-82654762D02*
X143876193Y-82702381D01*
X144066669Y-82702381D01*
X144161908Y-82654762D01*
X144209527Y-82559524D01*
X144209527Y-82511905D01*
X144161908Y-82416667D01*
X144066669Y-82369048D01*
X143923812Y-82369048D01*
X143828574Y-82321429D01*
X143780955Y-82226190D01*
X143780955Y-82178571D01*
X143828574Y-82083333D01*
X143923812Y-82035714D01*
X144066669Y-82035714D01*
X144161908Y-82083333D01*
X144780955Y-82702381D02*
X144685717Y-82654762D01*
X144638098Y-82607143D01*
X144590479Y-82511905D01*
X144590479Y-82226190D01*
X144638098Y-82130952D01*
X144685717Y-82083333D01*
X144780955Y-82035714D01*
X144923813Y-82035714D01*
X145019051Y-82083333D01*
X145066670Y-82130952D01*
X145114289Y-82226190D01*
X145114289Y-82511905D01*
X145066670Y-82607143D01*
X145019051Y-82654762D01*
X144923813Y-82702381D01*
X144780955Y-82702381D01*
X145542860Y-82702381D02*
X145542860Y-82035714D01*
X145542860Y-82226190D02*
X145590479Y-82130952D01*
X145638098Y-82083333D01*
X145733336Y-82035714D01*
X145828575Y-82035714D01*
X127638095Y-83735714D02*
X127638095Y-84735714D01*
X127638095Y-83783333D02*
X127733333Y-83735714D01*
X127923810Y-83735714D01*
X128019048Y-83783333D01*
X128066667Y-83830952D01*
X128114286Y-83926190D01*
X128114286Y-84211905D01*
X128066667Y-84307143D01*
X128019048Y-84354762D01*
X127923810Y-84402381D01*
X127733333Y-84402381D01*
X127638095Y-84354762D01*
X128685714Y-84402381D02*
X128590476Y-84354762D01*
X128542857Y-84259524D01*
X128542857Y-83402381D01*
X129495239Y-83735714D02*
X129495239Y-84402381D01*
X129066667Y-83735714D02*
X129066667Y-84259524D01*
X129114286Y-84354762D01*
X129209524Y-84402381D01*
X129352382Y-84402381D01*
X129447620Y-84354762D01*
X129495239Y-84307143D01*
X130400001Y-83735714D02*
X130400001Y-84545238D01*
X130352382Y-84640476D01*
X130304763Y-84688095D01*
X130209524Y-84735714D01*
X130066667Y-84735714D01*
X129971429Y-84688095D01*
X130400001Y-84354762D02*
X130304763Y-84402381D01*
X130114286Y-84402381D01*
X130019048Y-84354762D01*
X129971429Y-84307143D01*
X129923810Y-84211905D01*
X129923810Y-83926190D01*
X129971429Y-83830952D01*
X130019048Y-83783333D01*
X130114286Y-83735714D01*
X130304763Y-83735714D01*
X130400001Y-83783333D01*
X131304763Y-83735714D02*
X131304763Y-84545238D01*
X131257144Y-84640476D01*
X131209525Y-84688095D01*
X131114286Y-84735714D01*
X130971429Y-84735714D01*
X130876191Y-84688095D01*
X131304763Y-84354762D02*
X131209525Y-84402381D01*
X131019048Y-84402381D01*
X130923810Y-84354762D01*
X130876191Y-84307143D01*
X130828572Y-84211905D01*
X130828572Y-83926190D01*
X130876191Y-83830952D01*
X130923810Y-83783333D01*
X131019048Y-83735714D01*
X131209525Y-83735714D01*
X131304763Y-83783333D01*
X131780953Y-84307143D02*
X131828572Y-84354762D01*
X131780953Y-84402381D01*
X131733334Y-84354762D01*
X131780953Y-84307143D01*
X131780953Y-84402381D01*
X132638096Y-84354762D02*
X132542858Y-84402381D01*
X132352381Y-84402381D01*
X132257143Y-84354762D01*
X132209524Y-84259524D01*
X132209524Y-83878571D01*
X132257143Y-83783333D01*
X132352381Y-83735714D01*
X132542858Y-83735714D01*
X132638096Y-83783333D01*
X132685715Y-83878571D01*
X132685715Y-83973810D01*
X132209524Y-84069048D01*
X133495239Y-84354762D02*
X133400001Y-84402381D01*
X133209524Y-84402381D01*
X133114286Y-84354762D01*
X133066667Y-84259524D01*
X133066667Y-83878571D01*
X133114286Y-83783333D01*
X133209524Y-83735714D01*
X133400001Y-83735714D01*
X133495239Y-83783333D01*
X133542858Y-83878571D01*
X133542858Y-83973810D01*
X133066667Y-84069048D01*
X135209525Y-84402381D02*
X134733334Y-84402381D01*
X134733334Y-83402381D01*
X135971430Y-84402381D02*
X135971430Y-83878571D01*
X135923811Y-83783333D01*
X135828573Y-83735714D01*
X135638096Y-83735714D01*
X135542858Y-83783333D01*
X135971430Y-84354762D02*
X135876192Y-84402381D01*
X135638096Y-84402381D01*
X135542858Y-84354762D01*
X135495239Y-84259524D01*
X135495239Y-84164286D01*
X135542858Y-84069048D01*
X135638096Y-84021429D01*
X135876192Y-84021429D01*
X135971430Y-83973810D01*
X136447620Y-84402381D02*
X136447620Y-83402381D01*
X136447620Y-83783333D02*
X136542858Y-83735714D01*
X136733335Y-83735714D01*
X136828573Y-83783333D01*
X136876192Y-83830952D01*
X136923811Y-83926190D01*
X136923811Y-84211905D01*
X136876192Y-84307143D01*
X136828573Y-84354762D01*
X136733335Y-84402381D01*
X136542858Y-84402381D01*
X136447620Y-84354762D01*
X137304763Y-84354762D02*
X137400001Y-84402381D01*
X137590477Y-84402381D01*
X137685716Y-84354762D01*
X137733335Y-84259524D01*
X137733335Y-84211905D01*
X137685716Y-84116667D01*
X137590477Y-84069048D01*
X137447620Y-84069048D01*
X137352382Y-84021429D01*
X137304763Y-83926190D01*
X137304763Y-83878571D01*
X137352382Y-83783333D01*
X137447620Y-83735714D01*
X137590477Y-83735714D01*
X137685716Y-83783333D01*
X139447621Y-84402381D02*
X138876192Y-84402381D01*
X139161906Y-84402381D02*
X139161906Y-83402381D01*
X139066668Y-83545238D01*
X138971430Y-83640476D01*
X138876192Y-83688095D01*
X139828573Y-83497619D02*
X139876192Y-83450000D01*
X139971430Y-83402381D01*
X140209526Y-83402381D01*
X140304764Y-83450000D01*
X140352383Y-83497619D01*
X140400002Y-83592857D01*
X140400002Y-83688095D01*
X140352383Y-83830952D01*
X139780954Y-84402381D01*
X140400002Y-84402381D01*
X141542859Y-83354762D02*
X140685716Y-84640476D01*
X141828573Y-83497619D02*
X141876192Y-83450000D01*
X141971430Y-83402381D01*
X142209526Y-83402381D01*
X142304764Y-83450000D01*
X142352383Y-83497619D01*
X142400002Y-83592857D01*
X142400002Y-83688095D01*
X142352383Y-83830952D01*
X141780954Y-84402381D01*
X142400002Y-84402381D01*
X143019049Y-83402381D02*
X143114288Y-83402381D01*
X143209526Y-83450000D01*
X143257145Y-83497619D01*
X143304764Y-83592857D01*
X143352383Y-83783333D01*
X143352383Y-84021429D01*
X143304764Y-84211905D01*
X143257145Y-84307143D01*
X143209526Y-84354762D01*
X143114288Y-84402381D01*
X143019049Y-84402381D01*
X142923811Y-84354762D01*
X142876192Y-84307143D01*
X142828573Y-84211905D01*
X142780954Y-84021429D01*
X142780954Y-83783333D01*
X142828573Y-83592857D01*
X142876192Y-83497619D01*
X142923811Y-83450000D01*
X143019049Y-83402381D01*
X144304764Y-84402381D02*
X143733335Y-84402381D01*
X144019049Y-84402381D02*
X144019049Y-83402381D01*
X143923811Y-83545238D01*
X143828573Y-83640476D01*
X143733335Y-83688095D01*
X145161907Y-83402381D02*
X144971430Y-83402381D01*
X144876192Y-83450000D01*
X144828573Y-83497619D01*
X144733335Y-83640476D01*
X144685716Y-83830952D01*
X144685716Y-84211905D01*
X144733335Y-84307143D01*
X144780954Y-84354762D01*
X144876192Y-84402381D01*
X145066669Y-84402381D01*
X145161907Y-84354762D01*
X145209526Y-84307143D01*
X145257145Y-84211905D01*
X145257145Y-83973810D01*
X145209526Y-83878571D01*
X145161907Y-83830952D01*
X145066669Y-83783333D01*
X144876192Y-83783333D01*
X144780954Y-83830952D01*
X144733335Y-83878571D01*
X144685716Y-83973810D01*
X127638095Y-86102381D02*
X127638095Y-85102381D01*
X128066667Y-86102381D02*
X128066667Y-85578571D01*
X128019048Y-85483333D01*
X127923810Y-85435714D01*
X127780952Y-85435714D01*
X127685714Y-85483333D01*
X127638095Y-85530952D01*
X128400000Y-85435714D02*
X128780952Y-85435714D01*
X128542857Y-85102381D02*
X128542857Y-85959524D01*
X128590476Y-86054762D01*
X128685714Y-86102381D01*
X128780952Y-86102381D01*
X128971429Y-85435714D02*
X129352381Y-85435714D01*
X129114286Y-85102381D02*
X129114286Y-85959524D01*
X129161905Y-86054762D01*
X129257143Y-86102381D01*
X129352381Y-86102381D01*
X129685715Y-85435714D02*
X129685715Y-86435714D01*
X129685715Y-85483333D02*
X129780953Y-85435714D01*
X129971430Y-85435714D01*
X130066668Y-85483333D01*
X130114287Y-85530952D01*
X130161906Y-85626190D01*
X130161906Y-85911905D01*
X130114287Y-86007143D01*
X130066668Y-86054762D01*
X129971430Y-86102381D01*
X129780953Y-86102381D01*
X129685715Y-86054762D01*
X130590477Y-86007143D02*
X130638096Y-86054762D01*
X130590477Y-86102381D01*
X130542858Y-86054762D01*
X130590477Y-86007143D01*
X130590477Y-86102381D01*
X130590477Y-85483333D02*
X130638096Y-85530952D01*
X130590477Y-85578571D01*
X130542858Y-85530952D01*
X130590477Y-85483333D01*
X130590477Y-85578571D01*
X131780953Y-85054762D02*
X130923810Y-86340476D01*
X132828572Y-85054762D02*
X131971429Y-86340476D01*
X133161905Y-85435714D02*
X133161905Y-86435714D01*
X133161905Y-85483333D02*
X133257143Y-85435714D01*
X133447620Y-85435714D01*
X133542858Y-85483333D01*
X133590477Y-85530952D01*
X133638096Y-85626190D01*
X133638096Y-85911905D01*
X133590477Y-86007143D01*
X133542858Y-86054762D01*
X133447620Y-86102381D01*
X133257143Y-86102381D01*
X133161905Y-86054762D01*
X134209524Y-86102381D02*
X134114286Y-86054762D01*
X134066667Y-85959524D01*
X134066667Y-85102381D01*
X135019049Y-85435714D02*
X135019049Y-86102381D01*
X134590477Y-85435714D02*
X134590477Y-85959524D01*
X134638096Y-86054762D01*
X134733334Y-86102381D01*
X134876192Y-86102381D01*
X134971430Y-86054762D01*
X135019049Y-86007143D01*
X135923811Y-85435714D02*
X135923811Y-86245238D01*
X135876192Y-86340476D01*
X135828573Y-86388095D01*
X135733334Y-86435714D01*
X135590477Y-86435714D01*
X135495239Y-86388095D01*
X135923811Y-86054762D02*
X135828573Y-86102381D01*
X135638096Y-86102381D01*
X135542858Y-86054762D01*
X135495239Y-86007143D01*
X135447620Y-85911905D01*
X135447620Y-85626190D01*
X135495239Y-85530952D01*
X135542858Y-85483333D01*
X135638096Y-85435714D01*
X135828573Y-85435714D01*
X135923811Y-85483333D01*
X136828573Y-85435714D02*
X136828573Y-86245238D01*
X136780954Y-86340476D01*
X136733335Y-86388095D01*
X136638096Y-86435714D01*
X136495239Y-86435714D01*
X136400001Y-86388095D01*
X136828573Y-86054762D02*
X136733335Y-86102381D01*
X136542858Y-86102381D01*
X136447620Y-86054762D01*
X136400001Y-86007143D01*
X136352382Y-85911905D01*
X136352382Y-85626190D01*
X136400001Y-85530952D01*
X136447620Y-85483333D01*
X136542858Y-85435714D01*
X136733335Y-85435714D01*
X136828573Y-85483333D01*
X137304763Y-86007143D02*
X137352382Y-86054762D01*
X137304763Y-86102381D01*
X137257144Y-86054762D01*
X137304763Y-86007143D01*
X137304763Y-86102381D01*
X138161906Y-86054762D02*
X138066668Y-86102381D01*
X137876191Y-86102381D01*
X137780953Y-86054762D01*
X137733334Y-85959524D01*
X137733334Y-85578571D01*
X137780953Y-85483333D01*
X137876191Y-85435714D01*
X138066668Y-85435714D01*
X138161906Y-85483333D01*
X138209525Y-85578571D01*
X138209525Y-85673810D01*
X137733334Y-85769048D01*
X139019049Y-86054762D02*
X138923811Y-86102381D01*
X138733334Y-86102381D01*
X138638096Y-86054762D01*
X138590477Y-85959524D01*
X138590477Y-85578571D01*
X138638096Y-85483333D01*
X138733334Y-85435714D01*
X138923811Y-85435714D01*
X139019049Y-85483333D01*
X139066668Y-85578571D01*
X139066668Y-85673810D01*
X138590477Y-85769048D01*
M02*
