M48
;DRILL file {KiCad 4.0.6-e0-6349~53~ubuntu14.04.1} date Thu Apr 27 12:47:11 2017
;FORMAT={-:-/ absolute / inch / decimal}
FMAT,2
INCH,TZ
T1C0.012
T2C0.040
%
G90
G05
M72
T1
X5.0108Y-3.0492
X5.1004Y-2.9331
X5.1004Y-3.5335
X5.122Y-2.9606
X5.124Y-3.6506
X5.1457Y-3.247
X5.1506Y-3.3228
X5.1575Y-3.3691
X5.1594Y-2.9311
X5.1722Y-3.2894
X5.1781Y-3.5039
X5.185Y-2.9085
X5.2018Y-3.437
X5.2047Y-3.0315
X5.2254Y-2.9055
X5.2441Y-2.9921
X5.249Y-3.124
X5.2618Y-2.9114
X5.2618Y-3.1535
X5.3228Y-3.0758
X5.3228Y-3.3691
X5.3248Y-3.6447
X5.3327Y-2.7874
X5.3327Y-2.9921
X5.3652Y-3.4459
X5.3671Y-3.2864
X5.3671Y-3.3238
X5.3691Y-2.8947
X5.3701Y-3.0285
X5.373Y-2.8465
X5.4921Y-2.8563
X5.4921Y-2.8898
X5.4921Y-3.2047
X5.4921Y-3.3425
X5.5157Y-2.9409
X5.5157Y-3.2323
X5.5157Y-3.3937
X5.5433Y-2.9685
X5.5433Y-3.1811
X5.5433Y-3.4213
X5.5778Y-2.8474
X5.5866Y-3.3465
X5.623Y-3.3937
X5.624Y-2.9656
X5.6289Y-3.5148
X5.6329Y-3.1024
X5.6506Y-2.9911
X5.6506Y-3.4419
X5.7638Y-3.2402
X5.8238Y-3.124
X5.8622Y-3.6358
X5.8937Y-3.5531
X6.0039Y-3.7992
X6.0433Y-3.7992
X6.0719Y-3.497
X6.0827Y-3.7992
X6.122Y-3.7992
X6.1614Y-3.7992
X6.2008Y-3.7992
X6.2402Y-3.7992
X6.2795Y-3.7992
X6.3573Y-2.8465
X6.4006Y-3.0354
X6.4341Y-2.9685
T2
X6.1811Y-2.8421
X6.1811Y-2.9421
X6.1811Y-3.0421
X6.1811Y-3.2949
X6.1811Y-3.3949
X6.1811Y-3.4949
X6.5748Y-2.724
X6.5748Y-2.824
X6.5748Y-2.924
X6.5748Y-3.024
X6.5748Y-3.2949
X6.5748Y-3.3949
X6.5748Y-3.4949
X6.5748Y-3.5949
T0
M30
