G04 #@! TF.FileFunction,Paste,Bot*
%FSLAX46Y46*%
G04 Gerber Fmt 4.6, Leading zero omitted, Abs format (unit mm)*
G04 Created by KiCad (PCBNEW 4.0.6-e0-6349~53~ubuntu14.04.1) date Tue Apr 25 14:47:51 2017*
%MOMM*%
%LPD*%
G01*
G04 APERTURE LIST*
%ADD10C,0.100000*%
%ADD11R,1.750000X0.450000*%
%ADD12R,0.350000X0.350000*%
%ADD13R,0.900000X0.300000*%
%ADD14R,0.300000X0.900000*%
%ADD15R,1.080000X1.080000*%
%ADD16R,0.787000X0.864000*%
%ADD17R,1.700000X0.900000*%
G04 APERTURE END LIST*
D10*
D11*
X145100000Y-82975000D03*
X145100000Y-83625000D03*
X145100000Y-84275000D03*
X145100000Y-84925000D03*
X145100000Y-85575000D03*
X145100000Y-86225000D03*
X145100000Y-86875000D03*
X145100000Y-87525000D03*
X145100000Y-88175000D03*
X145100000Y-88825000D03*
X137900000Y-88825000D03*
X137900000Y-88175000D03*
X137900000Y-87525000D03*
X137900000Y-86875000D03*
X137900000Y-86225000D03*
X137900000Y-85575000D03*
X137900000Y-84925000D03*
X137900000Y-84275000D03*
X137900000Y-83625000D03*
X137900000Y-82975000D03*
X145100000Y-71475000D03*
X145100000Y-72125000D03*
X145100000Y-72775000D03*
X145100000Y-73425000D03*
X145100000Y-74075000D03*
X145100000Y-74725000D03*
X145100000Y-75375000D03*
X145100000Y-76025000D03*
X145100000Y-76675000D03*
X145100000Y-77325000D03*
X137900000Y-77325000D03*
X137900000Y-76675000D03*
X137900000Y-76025000D03*
X137900000Y-75375000D03*
X137900000Y-74725000D03*
X137900000Y-74075000D03*
X137900000Y-73425000D03*
X137900000Y-72775000D03*
X137900000Y-72125000D03*
X137900000Y-71475000D03*
D12*
X131450000Y-77750000D03*
D13*
X131150000Y-77250000D03*
X131150000Y-76750000D03*
X131150000Y-76250000D03*
X131150000Y-75750000D03*
D12*
X131450000Y-75250000D03*
D14*
X131950000Y-74950000D03*
X132450000Y-74950000D03*
X132950000Y-74950000D03*
X133450000Y-74950000D03*
D12*
X133950000Y-75250000D03*
D13*
X134250000Y-75750000D03*
X134250000Y-76250000D03*
X134250000Y-76750000D03*
X134250000Y-77250000D03*
D12*
X133950000Y-77750000D03*
D14*
X133450000Y-78050000D03*
X132950000Y-78050000D03*
X132450000Y-78050000D03*
X131950000Y-78050000D03*
D15*
X132700000Y-76500000D03*
D16*
X128974500Y-76300000D03*
X127425500Y-76300000D03*
X151225500Y-82700000D03*
X152774500Y-82700000D03*
X151225500Y-71200000D03*
X152774500Y-71200000D03*
X151225500Y-84400000D03*
X152774500Y-84400000D03*
X151225500Y-72900000D03*
X152774500Y-72900000D03*
X145774500Y-79400000D03*
X144225500Y-79400000D03*
X145774500Y-90900000D03*
X144225500Y-90900000D03*
X128474500Y-92400000D03*
X126925500Y-92400000D03*
X132974500Y-92400000D03*
X131425500Y-92400000D03*
X131425500Y-90700000D03*
X132974500Y-90700000D03*
X128474500Y-90700000D03*
X126925500Y-90700000D03*
X128474500Y-80500000D03*
X126925500Y-80500000D03*
X128474500Y-82200000D03*
X126925500Y-82200000D03*
X128474500Y-83900000D03*
X126925500Y-83900000D03*
X128474500Y-85600000D03*
X126925500Y-85600000D03*
D17*
X148200000Y-74550000D03*
X148200000Y-77450000D03*
X148200000Y-86050000D03*
X148200000Y-88950000D03*
D16*
X128474500Y-89000000D03*
X126925500Y-89000000D03*
X128474500Y-87300000D03*
X126925500Y-87300000D03*
M02*
