G04 #@! TF.FileFunction,Copper,L2,Bot,Signal*
%FSLAX46Y46*%
G04 Gerber Fmt 4.6, Leading zero omitted, Abs format (unit mm)*
G04 Created by KiCad (PCBNEW 4.0.6-e0-6349~53~ubuntu14.04.1) date Tue Jun 27 14:22:21 2017*
%MOMM*%
%LPD*%
G01*
G04 APERTURE LIST*
%ADD10C,0.100000*%
%ADD11C,0.650240*%
%ADD12R,0.650240X4.599940*%
%ADD13R,0.650240X3.599180*%
%ADD14R,1.750000X0.450000*%
%ADD15R,0.350000X0.350000*%
%ADD16R,0.900000X0.300000*%
%ADD17R,0.300000X0.900000*%
%ADD18R,1.800000X1.800000*%
%ADD19C,0.600000*%
%ADD20R,0.787000X0.864000*%
%ADD21R,1.700000X0.900000*%
%ADD22R,2.032000X1.727200*%
%ADD23O,2.032000X1.727200*%
%ADD24C,0.150000*%
%ADD25C,0.300000*%
%ADD26C,0.200000*%
%ADD27C,0.254000*%
G04 APERTURE END LIST*
D10*
D11*
X140500400Y-102301240D03*
D12*
X159499600Y-100000000D03*
X158498840Y-100000000D03*
X157500620Y-100000000D03*
X156499860Y-100000000D03*
X155499100Y-100000000D03*
X154500880Y-100000000D03*
X153500120Y-100000000D03*
X152499360Y-100000000D03*
X151501140Y-100000000D03*
X150500380Y-100000000D03*
X149499620Y-100000000D03*
X144500900Y-100000000D03*
X143500140Y-100000000D03*
X142499380Y-100000000D03*
D13*
X141501160Y-99499620D03*
D12*
X140500400Y-100000000D03*
X146499880Y-100000000D03*
X145499120Y-100000000D03*
D11*
X157500620Y-102301240D03*
X156499860Y-102301240D03*
X155499100Y-102301240D03*
X154500880Y-102301240D03*
X153500120Y-102301240D03*
X152499360Y-102301240D03*
X151501140Y-102301240D03*
X150500380Y-102301240D03*
X149499620Y-102301240D03*
X159499600Y-102301240D03*
X146499880Y-102301240D03*
X145499120Y-102301240D03*
X144500900Y-102301240D03*
X143500140Y-102301240D03*
X142499380Y-102301240D03*
X158498840Y-102301240D03*
D14*
X145100000Y-82975000D03*
X145100000Y-83625000D03*
X145100000Y-84275000D03*
X145100000Y-84925000D03*
X145100000Y-85575000D03*
X145100000Y-86225000D03*
X145100000Y-86875000D03*
X145100000Y-87525000D03*
X145100000Y-88175000D03*
X145100000Y-88825000D03*
X137900000Y-88825000D03*
X137900000Y-88175000D03*
X137900000Y-87525000D03*
X137900000Y-86875000D03*
X137900000Y-86225000D03*
X137900000Y-85575000D03*
X137900000Y-84925000D03*
X137900000Y-84275000D03*
X137900000Y-83625000D03*
X137900000Y-82975000D03*
X145100000Y-71475000D03*
X145100000Y-72125000D03*
X145100000Y-72775000D03*
X145100000Y-73425000D03*
X145100000Y-74075000D03*
X145100000Y-74725000D03*
X145100000Y-75375000D03*
X145100000Y-76025000D03*
X145100000Y-76675000D03*
X145100000Y-77325000D03*
X137900000Y-77325000D03*
X137900000Y-76675000D03*
X137900000Y-76025000D03*
X137900000Y-75375000D03*
X137900000Y-74725000D03*
X137900000Y-74075000D03*
X137900000Y-73425000D03*
X137900000Y-72775000D03*
X137900000Y-72125000D03*
X137900000Y-71475000D03*
D15*
X131450000Y-77750000D03*
D16*
X131150000Y-77250000D03*
X131150000Y-76750000D03*
X131150000Y-76250000D03*
X131150000Y-75750000D03*
D15*
X131450000Y-75250000D03*
D17*
X131950000Y-74950000D03*
X132450000Y-74950000D03*
X132950000Y-74950000D03*
X133450000Y-74950000D03*
D15*
X133950000Y-75250000D03*
D16*
X134250000Y-75750000D03*
X134250000Y-76250000D03*
X134250000Y-76750000D03*
X134250000Y-77250000D03*
D15*
X133950000Y-77750000D03*
D17*
X133450000Y-78050000D03*
X132950000Y-78050000D03*
X132450000Y-78050000D03*
X131950000Y-78050000D03*
D18*
X132700000Y-76500000D03*
D19*
X132200000Y-77000000D03*
X133200000Y-76000000D03*
D20*
X128974500Y-76300000D03*
X127425500Y-76300000D03*
X151225500Y-82700000D03*
X152774500Y-82700000D03*
X151225500Y-71200000D03*
X152774500Y-71200000D03*
X151225500Y-84400000D03*
X152774500Y-84400000D03*
X151225500Y-72900000D03*
X152774500Y-72900000D03*
X145774500Y-79400000D03*
X144225500Y-79400000D03*
X145774500Y-90900000D03*
X144225500Y-90900000D03*
X128474500Y-92400000D03*
X126925500Y-92400000D03*
X132974500Y-92400000D03*
X131425500Y-92400000D03*
X131425500Y-90700000D03*
X132974500Y-90700000D03*
X128474500Y-90700000D03*
X126925500Y-90700000D03*
X128474500Y-80500000D03*
X126925500Y-80500000D03*
X128474500Y-82200000D03*
X126925500Y-82200000D03*
X128474500Y-83900000D03*
X126925500Y-83900000D03*
X128474500Y-85600000D03*
X126925500Y-85600000D03*
D21*
X148200000Y-74550000D03*
X148200000Y-77450000D03*
X148200000Y-86050000D03*
X148200000Y-88950000D03*
D20*
X128474500Y-89000000D03*
X126925500Y-89000000D03*
X128474500Y-87300000D03*
X126925500Y-87300000D03*
D22*
X167000000Y-69190000D03*
D23*
X167000000Y-71730000D03*
X167000000Y-74270000D03*
X167000000Y-76810000D03*
D22*
X167000000Y-83690000D03*
D23*
X167000000Y-86230000D03*
X167000000Y-88770000D03*
X167000000Y-91310000D03*
D22*
X157000000Y-77270000D03*
D23*
X157000000Y-74730000D03*
X157000000Y-72190000D03*
D22*
X157000000Y-88770000D03*
D23*
X157000000Y-86230000D03*
X157000000Y-83690000D03*
D19*
X129550000Y-74500000D03*
X129550000Y-89750000D03*
X159500000Y-96500000D03*
X158500000Y-96500000D03*
X157500000Y-96500000D03*
X156500000Y-96500000D03*
X155500000Y-96500000D03*
X154500000Y-96500000D03*
X153500000Y-96500000D03*
X152500000Y-96500000D03*
X136325000Y-83475000D03*
X136325000Y-84425000D03*
X136475000Y-72300000D03*
X139500000Y-72550000D03*
X136400000Y-76925000D03*
X136275000Y-87525000D03*
X127275000Y-77450000D03*
X148900000Y-92350000D03*
X130825000Y-84400000D03*
X132725000Y-73800000D03*
X131000000Y-85575000D03*
X133650000Y-73950000D03*
X130700000Y-82475000D03*
X131050000Y-74450000D03*
X131700000Y-73875000D03*
X131375000Y-83550000D03*
X133650000Y-80100000D03*
X132125000Y-87300000D03*
X133325000Y-79350000D03*
X131525000Y-89000000D03*
X130100000Y-75200000D03*
X130150000Y-92725000D03*
X143525000Y-75975000D03*
X163425000Y-75400000D03*
X147925000Y-79350000D03*
X162575000Y-77100000D03*
X143075000Y-78800000D03*
X141675000Y-72325000D03*
X161475000Y-72300000D03*
X142850000Y-75325000D03*
X143525000Y-87425000D03*
X154225000Y-88825000D03*
X149700000Y-90250000D03*
X142975000Y-89275000D03*
X141900000Y-85000000D03*
X142825000Y-86200000D03*
X135250000Y-92575000D03*
X135450000Y-70800000D03*
X135450000Y-76000000D03*
X140800000Y-80800000D03*
X140800000Y-75400000D03*
X140800000Y-86900000D03*
X136375000Y-73525000D03*
X139500000Y-81400000D03*
X139500000Y-84900000D03*
X139500000Y-73400000D03*
X146400000Y-82300000D03*
X135200000Y-85575000D03*
X135200000Y-78125000D03*
X140100000Y-82100000D03*
X140100000Y-86200000D03*
X140100000Y-74700000D03*
D24*
X128474500Y-90700000D02*
X129100000Y-90700000D01*
X131000000Y-75250000D02*
X130250000Y-74500000D01*
X130250000Y-74500000D02*
X129550000Y-74500000D01*
X131000000Y-75250000D02*
X131450000Y-75250000D01*
X129550000Y-90250000D02*
X129550000Y-89750000D01*
X129100000Y-90700000D02*
X129550000Y-90250000D01*
X128474500Y-90700000D02*
X131425500Y-90700000D01*
D25*
X157000000Y-83690000D02*
X153764500Y-83690000D01*
X153764500Y-83690000D02*
X152774500Y-82700000D01*
X152774500Y-82700000D02*
X152774500Y-84400000D01*
X157000000Y-72190000D02*
X153484500Y-72190000D01*
X153484500Y-72190000D02*
X152774500Y-71480000D01*
X152774500Y-71480000D02*
X152774500Y-72900000D01*
X159499600Y-100000000D02*
X158498840Y-100000000D01*
X152499360Y-100000000D02*
X152499360Y-96500640D01*
X157500000Y-96500000D02*
X158500000Y-96500000D01*
X155500000Y-96500000D02*
X156500000Y-96500000D01*
X153500000Y-96500000D02*
X154500000Y-96500000D01*
X152499360Y-96500640D02*
X152500000Y-96500000D01*
D24*
X137900000Y-83625000D02*
X136475000Y-83625000D01*
X136475000Y-83625000D02*
X136325000Y-83475000D01*
X137900000Y-84275000D02*
X136475000Y-84275000D01*
X136475000Y-84275000D02*
X136325000Y-84425000D01*
X137900000Y-72125000D02*
X136650000Y-72125000D01*
X136650000Y-72125000D02*
X136475000Y-72300000D01*
X137900000Y-72775000D02*
X139275000Y-72775000D01*
X139275000Y-72775000D02*
X139500000Y-72550000D01*
X137900000Y-76025000D02*
X136775000Y-76025000D01*
X136625000Y-76700000D02*
X136400000Y-76925000D01*
X136625000Y-76175000D02*
X136625000Y-76700000D01*
X136775000Y-76025000D02*
X136625000Y-76175000D01*
X137900000Y-87525000D02*
X136275000Y-87525000D01*
D25*
X127425500Y-76300000D02*
X127425500Y-77299500D01*
X127425500Y-77299500D02*
X127275000Y-77450000D01*
D24*
X131150000Y-76750000D02*
X132450000Y-76750000D01*
X132450000Y-76750000D02*
X132700000Y-76500000D01*
X134250000Y-75750000D02*
X133450000Y-75750000D01*
X133450000Y-75750000D02*
X132700000Y-76500000D01*
X159499600Y-102301240D02*
X159499600Y-100000000D01*
X158498840Y-102301240D02*
X158498840Y-100000000D01*
X157500620Y-102301240D02*
X157500620Y-100000000D01*
X156499860Y-102301240D02*
X156499860Y-100000000D01*
X155499100Y-102301240D02*
X155499100Y-100000000D01*
X154500880Y-102301240D02*
X154500880Y-100000000D01*
X153500120Y-102301240D02*
X153500120Y-100000000D01*
X152499360Y-102301240D02*
X152499360Y-100000000D01*
D26*
X131150000Y-76250000D02*
X129024500Y-76250000D01*
X129024500Y-76250000D02*
X128974500Y-76300000D01*
D24*
X151501140Y-100000000D02*
X150500380Y-100000000D01*
X150500380Y-100000000D02*
X149499620Y-100000000D01*
X151501140Y-102301240D02*
X151501140Y-100000000D01*
X150500380Y-102301240D02*
X150500380Y-100000000D01*
X149499620Y-102301240D02*
X149499620Y-100000000D01*
X134037133Y-87612867D02*
X137724262Y-91299996D01*
X137724262Y-91299996D02*
X137848526Y-91299996D01*
X144500900Y-96852368D02*
X144500900Y-93624432D01*
X144500900Y-100000000D02*
X144500900Y-97500900D01*
X138824264Y-91299996D02*
X137848526Y-91299996D01*
X144500900Y-97500900D02*
X144500900Y-96852368D01*
X144500900Y-93624432D02*
X142176464Y-91299996D01*
X142176464Y-91299996D02*
X138824264Y-91299996D01*
X132950000Y-74950000D02*
X132950000Y-74025000D01*
X132950000Y-74025000D02*
X132725000Y-73800000D01*
X130825000Y-84400000D02*
X130824633Y-84400367D01*
X130824633Y-84400367D02*
X130825000Y-84400000D01*
X130825000Y-84400000D02*
X130825000Y-84400734D01*
X131800000Y-85375734D02*
X130825000Y-84400734D01*
X130825000Y-84400734D02*
X130324266Y-83900000D01*
X134037133Y-87612867D02*
X131800000Y-85375734D01*
X130324266Y-83900000D02*
X128474500Y-83900000D01*
X144500900Y-102301240D02*
X144500900Y-100000000D01*
X133712500Y-87712500D02*
X137599998Y-91599998D01*
X137599998Y-91599998D02*
X137724262Y-91599998D01*
X143500140Y-97300000D02*
X143500140Y-93047938D01*
X143500140Y-97300000D02*
X143500140Y-100000000D01*
X138824264Y-91599998D02*
X137724262Y-91599998D01*
X143500140Y-93047938D02*
X142052200Y-91599998D01*
X142052200Y-91599998D02*
X138800000Y-91599998D01*
X133450000Y-74950000D02*
X133450000Y-74150000D01*
X133450000Y-74150000D02*
X133650000Y-73950000D01*
X131000000Y-85575000D02*
X131000000Y-85600000D01*
X131000000Y-85600000D02*
X131000000Y-85575000D01*
X131000000Y-85575000D02*
X131000000Y-85600000D01*
X128474500Y-85600000D02*
X129500000Y-85600000D01*
X133712500Y-87712500D02*
X131600000Y-85600000D01*
X131600000Y-85600000D02*
X131000000Y-85600000D01*
X131000000Y-85600000D02*
X129500000Y-85600000D01*
X143500140Y-102301240D02*
X143500140Y-100000000D01*
X142499380Y-102301240D02*
X142499380Y-100000000D01*
X134700006Y-87400000D02*
X137999998Y-90699992D01*
X137975000Y-90675000D02*
X137975000Y-90699992D01*
X137999992Y-90699992D02*
X137975000Y-90675000D01*
X137999998Y-90699992D02*
X137999992Y-90699992D01*
X146499880Y-97425000D02*
X146499880Y-94774880D01*
X139299992Y-90699992D02*
X137975000Y-90699992D01*
X146499880Y-100000000D02*
X146499880Y-97425000D01*
X146499880Y-94774880D02*
X142424992Y-90699992D01*
X142424992Y-90699992D02*
X139299992Y-90699992D01*
X131950000Y-74950000D02*
X131450000Y-74450000D01*
X131450000Y-74450000D02*
X131050000Y-74450000D01*
X130700000Y-82475000D02*
X130712500Y-82462500D01*
X130712500Y-82462500D02*
X130700000Y-82475000D01*
X130700000Y-82475000D02*
X130700000Y-82450000D01*
X129450000Y-80500000D02*
X128474500Y-80500000D01*
X129725000Y-80775000D02*
X129450000Y-80500000D01*
X129725000Y-81475000D02*
X129725000Y-80775000D01*
X131075000Y-82825000D02*
X130700000Y-82450000D01*
X134700006Y-87400000D02*
X134700006Y-87427208D01*
X134700006Y-87427208D02*
X132400004Y-85127206D01*
X132400004Y-85127206D02*
X132400004Y-83399996D01*
X132400004Y-83399996D02*
X131825008Y-82825000D01*
X131825008Y-82825000D02*
X131075000Y-82825000D01*
X130700000Y-82450000D02*
X129725000Y-81475000D01*
X146499880Y-102301240D02*
X146499880Y-100000000D01*
X134386766Y-87538234D02*
X137848526Y-90999994D01*
X137848526Y-90999994D02*
X137925000Y-90999994D01*
X145499120Y-97425000D02*
X145499120Y-94198386D01*
X138948528Y-90999994D02*
X137925000Y-90999994D01*
X145499120Y-100000000D02*
X145499120Y-97425000D01*
X145499120Y-94198386D02*
X142300728Y-90999994D01*
X142300728Y-90999994D02*
X138948528Y-90999994D01*
X132450000Y-74350000D02*
X131975000Y-73875000D01*
X131975000Y-73875000D02*
X131700000Y-73875000D01*
X132450000Y-74350000D02*
X132450000Y-74950000D01*
X131375000Y-83550000D02*
X131374633Y-83550367D01*
X131374633Y-83550367D02*
X131375000Y-83550000D01*
X131375000Y-83550000D02*
X131375000Y-83550734D01*
X129100000Y-82200000D02*
X128474500Y-82200000D01*
X130275734Y-83375734D02*
X129100000Y-82200000D01*
X131200000Y-83375734D02*
X130275734Y-83375734D01*
X132100002Y-84275736D02*
X131375000Y-83550734D01*
X131375000Y-83550734D02*
X131200000Y-83375734D01*
X132100002Y-85251470D02*
X132100002Y-84275736D01*
X134386766Y-87538234D02*
X132100002Y-85251470D01*
X145499120Y-102301240D02*
X145499120Y-100000000D01*
X132450000Y-79700000D02*
X132450000Y-78050000D01*
X132850000Y-80100000D02*
X132450000Y-79700000D01*
X133650000Y-80100000D02*
X132850000Y-80100000D01*
X132125000Y-87300000D02*
X128474500Y-87300000D01*
X132950000Y-78975000D02*
X132950000Y-78050000D01*
X133325000Y-79350000D02*
X132950000Y-78975000D01*
X131525000Y-89000000D02*
X128474500Y-89000000D01*
X130650000Y-75750000D02*
X130100000Y-75200000D01*
X131150000Y-75750000D02*
X130650000Y-75750000D01*
X130150000Y-92725000D02*
X129825000Y-92400000D01*
X129825000Y-92400000D02*
X128474500Y-92400000D01*
X131425500Y-92400000D02*
X130475000Y-92400000D01*
X130475000Y-92400000D02*
X130150000Y-92725000D01*
X131150000Y-75750000D02*
X131150000Y-75650000D01*
X157000000Y-77270000D02*
X157645000Y-77270000D01*
X157645000Y-77270000D02*
X159875000Y-79500000D01*
X164310000Y-79500000D02*
X167000000Y-76810000D01*
X159875000Y-79500000D02*
X164310000Y-79500000D01*
X143575000Y-76025000D02*
X143525000Y-75975000D01*
X143575000Y-76025000D02*
X145100000Y-76025000D01*
X164555000Y-74270000D02*
X167000000Y-74270000D01*
X163425000Y-75400000D02*
X164555000Y-74270000D01*
X145774500Y-79400000D02*
X147875000Y-79400000D01*
X147875000Y-79400000D02*
X147925000Y-79350000D01*
X145774500Y-79400000D02*
X145774500Y-79099500D01*
X145774500Y-79099500D02*
X145100000Y-78425000D01*
X145100000Y-78425000D02*
X145100000Y-77325000D01*
X163895000Y-71730000D02*
X167000000Y-71730000D01*
X162575000Y-73050000D02*
X163895000Y-71730000D01*
X162575000Y-77100000D02*
X162575000Y-73050000D01*
X143625500Y-78800000D02*
X143075000Y-78800000D01*
X144225500Y-79400000D02*
X143625500Y-78800000D01*
X137900000Y-77325000D02*
X143125000Y-77325000D01*
X144225500Y-78425500D02*
X144225500Y-79400000D01*
X143125000Y-77325000D02*
X144225500Y-78425500D01*
X137900000Y-76675000D02*
X141100000Y-76675000D01*
X141675000Y-76100000D02*
X141675000Y-72325000D01*
X141100000Y-76675000D02*
X141675000Y-76100000D01*
X164375000Y-70950000D02*
X166135000Y-69190000D01*
X162825000Y-70950000D02*
X164375000Y-70950000D01*
X161475000Y-72300000D02*
X162825000Y-70950000D01*
X166135000Y-69190000D02*
X167000000Y-69190000D01*
X143150000Y-76675000D02*
X142850000Y-76375000D01*
X142850000Y-76375000D02*
X142850000Y-75325000D01*
X143150000Y-76675000D02*
X145100000Y-76675000D01*
X157000000Y-88770000D02*
X154280000Y-88770000D01*
X143625000Y-87525000D02*
X145100000Y-87525000D01*
X143525000Y-87425000D02*
X143625000Y-87525000D01*
X154280000Y-88770000D02*
X154225000Y-88825000D01*
X157000000Y-88770000D02*
X162370000Y-88770000D01*
X164910000Y-91310000D02*
X167000000Y-91310000D01*
X162370000Y-88770000D02*
X164910000Y-91310000D01*
X147375000Y-90925000D02*
X147375000Y-90900000D01*
X147400000Y-90900000D02*
X147375000Y-90925000D01*
X149050000Y-90900000D02*
X147400000Y-90900000D01*
X149700000Y-90250000D02*
X149050000Y-90900000D01*
X147450000Y-90900000D02*
X147375000Y-90900000D01*
X147375000Y-90900000D02*
X145774500Y-90900000D01*
X145100000Y-88825000D02*
X145100000Y-89300000D01*
X145100000Y-89300000D02*
X145774500Y-89974500D01*
X145774500Y-89974500D02*
X145774500Y-90900000D01*
X144225500Y-90900000D02*
X144225500Y-90525500D01*
X144225500Y-90525500D02*
X142975000Y-89275000D01*
X142525000Y-88825000D02*
X137900000Y-88825000D01*
X142975000Y-89275000D02*
X142525000Y-88825000D01*
X137900000Y-88175000D02*
X140875000Y-88175000D01*
X141900000Y-87150000D02*
X141900000Y-85000000D01*
X140875000Y-88175000D02*
X141900000Y-87150000D01*
X145100000Y-88175000D02*
X143375000Y-88175000D01*
X142825000Y-87625000D02*
X142825000Y-86200000D01*
X143375000Y-88175000D02*
X142825000Y-87625000D01*
X140500400Y-100000000D02*
X140500400Y-93700400D01*
X134150000Y-91900000D02*
X132974500Y-90724500D01*
X138700000Y-91900000D02*
X134150000Y-91900000D01*
X140500400Y-93700400D02*
X138700000Y-91900000D01*
X132974500Y-90724500D02*
X132974500Y-90700000D01*
X140500400Y-102301240D02*
X140500400Y-100000000D01*
X135075000Y-92400000D02*
X132974500Y-92400000D01*
X135250000Y-92575000D02*
X135075000Y-92400000D01*
X145100000Y-73425000D02*
X145950000Y-73425000D01*
X145950000Y-73425000D02*
X147075000Y-74550000D01*
X147075000Y-74550000D02*
X148200000Y-74550000D01*
X145100000Y-74075000D02*
X146050000Y-74075000D01*
X148200000Y-75575000D02*
X148200000Y-74550000D01*
X147900000Y-75875000D02*
X148200000Y-75575000D01*
X147475000Y-75875000D02*
X147900000Y-75875000D01*
X146375000Y-74775000D02*
X147475000Y-75875000D01*
X146375000Y-74400000D02*
X146375000Y-74775000D01*
X146050000Y-74075000D02*
X146375000Y-74400000D01*
X145100000Y-74725000D02*
X145825000Y-74725000D01*
X145825000Y-74725000D02*
X148200000Y-77100000D01*
X148200000Y-77100000D02*
X148200000Y-77450000D01*
X145100000Y-75375000D02*
X146000000Y-75375000D01*
X147150000Y-77450000D02*
X148200000Y-77450000D01*
X146875000Y-77175000D02*
X147150000Y-77450000D01*
X146875000Y-76250000D02*
X146875000Y-77175000D01*
X146000000Y-75375000D02*
X146875000Y-76250000D01*
X145100000Y-84925000D02*
X146050000Y-84925000D01*
X147175000Y-86050000D02*
X148200000Y-86050000D01*
X146050000Y-84925000D02*
X147175000Y-86050000D01*
X145100000Y-85575000D02*
X145975000Y-85575000D01*
X145975000Y-85575000D02*
X147475000Y-87075000D01*
X147475000Y-87075000D02*
X148000000Y-87075000D01*
X148000000Y-87075000D02*
X148200000Y-86875000D01*
X148200000Y-86875000D02*
X148200000Y-86050000D01*
X145100000Y-86225000D02*
X146125000Y-86225000D01*
X148200000Y-88300000D02*
X148200000Y-88950000D01*
X146125000Y-86225000D02*
X148200000Y-88300000D01*
X145100000Y-86875000D02*
X146225000Y-86875000D01*
X147125000Y-88950000D02*
X148200000Y-88950000D01*
X146925000Y-88750000D02*
X147125000Y-88950000D01*
X146925000Y-87575000D02*
X146925000Y-88750000D01*
X146225000Y-86875000D02*
X146925000Y-87575000D01*
X134250000Y-76250000D02*
X135200000Y-76250000D01*
X143725000Y-71475000D02*
X145100000Y-71475000D01*
X143050000Y-70800000D02*
X143725000Y-71475000D01*
X135450000Y-70800000D02*
X143050000Y-70800000D01*
X135200000Y-76250000D02*
X135450000Y-76000000D01*
X131950000Y-78050000D02*
X131950000Y-80250000D01*
X132500000Y-80800000D02*
X140800000Y-80800000D01*
X131950000Y-80250000D02*
X132500000Y-80800000D01*
X137900000Y-75375000D02*
X137925000Y-75400000D01*
X137925000Y-75400000D02*
X140800000Y-75400000D01*
X140800000Y-86900000D02*
X137925000Y-86900000D01*
X137925000Y-86900000D02*
X137900000Y-86875000D01*
X137900000Y-74075000D02*
X136600000Y-74075000D01*
X136600000Y-74075000D02*
X136375000Y-73850000D01*
X136375000Y-73850000D02*
X136375000Y-73525000D01*
X134250000Y-76750000D02*
X135675000Y-76750000D01*
X136175000Y-74500000D02*
X136600000Y-74075000D01*
X136175000Y-76250000D02*
X136175000Y-74500000D01*
X135675000Y-76750000D02*
X136175000Y-76250000D01*
X131450000Y-77750000D02*
X131450000Y-78925000D01*
X139200002Y-81100002D02*
X139500000Y-81400000D01*
X132375736Y-81100002D02*
X139200002Y-81100002D01*
X131649998Y-80374264D02*
X132375736Y-81100002D01*
X131649998Y-79250000D02*
X131649998Y-80374264D01*
X131450000Y-79050002D02*
X131649998Y-79250000D01*
X131450000Y-78925000D02*
X131450000Y-79050002D01*
X137900000Y-73425000D02*
X139475000Y-73425000D01*
X139475000Y-84925000D02*
X137900000Y-84925000D01*
X139500000Y-84900000D02*
X139475000Y-84925000D01*
X139475000Y-73425000D02*
X139500000Y-73400000D01*
X145100000Y-82975000D02*
X146125000Y-82975000D01*
X146400000Y-82700000D02*
X146400000Y-82300000D01*
X146125000Y-82975000D02*
X146400000Y-82700000D01*
X134250000Y-77250000D02*
X135300000Y-77250000D01*
X143400000Y-82975000D02*
X145100000Y-82975000D01*
X142850000Y-82425000D02*
X143400000Y-82975000D01*
X142850000Y-81450000D02*
X142850000Y-82425000D01*
X141625000Y-80225000D02*
X142850000Y-81450000D01*
X136425000Y-80225000D02*
X141625000Y-80225000D01*
X135800000Y-79600000D02*
X136425000Y-80225000D01*
X135800000Y-77750000D02*
X135800000Y-79600000D01*
X135300000Y-77250000D02*
X135800000Y-77750000D01*
X133950000Y-77750000D02*
X134825000Y-77750000D01*
X135200000Y-85575000D02*
X137900000Y-85575000D01*
X134825000Y-77750000D02*
X135200000Y-78125000D01*
X131150000Y-77250000D02*
X131150000Y-77375000D01*
X131150000Y-77375000D02*
X130975000Y-77550000D01*
X130975000Y-77550000D02*
X130975000Y-79175000D01*
X130975000Y-79175000D02*
X131349996Y-79549996D01*
X131349996Y-79549996D02*
X131349996Y-80498528D01*
X131349996Y-80498528D02*
X132251472Y-81400004D01*
X132251472Y-81400004D02*
X138525004Y-81400004D01*
X138525004Y-81400004D02*
X139225000Y-82100000D01*
X139225000Y-82100000D02*
X140100000Y-82100000D01*
X137900000Y-74725000D02*
X140075000Y-74725000D01*
X140100000Y-86200000D02*
X137925000Y-86200000D01*
X140075000Y-74725000D02*
X140100000Y-74700000D01*
X137925000Y-86200000D02*
X137900000Y-86225000D01*
D26*
G36*
X165627144Y-69096816D02*
X164198960Y-70525000D01*
X162825000Y-70525000D01*
X162662360Y-70557351D01*
X162662358Y-70557352D01*
X162662359Y-70557352D01*
X162524479Y-70649480D01*
X161523917Y-71650043D01*
X161346274Y-71649888D01*
X161107286Y-71748636D01*
X160924278Y-71931324D01*
X160825113Y-72170140D01*
X160824888Y-72428726D01*
X160923636Y-72667714D01*
X161106324Y-72850722D01*
X161345140Y-72949887D01*
X161603726Y-72950112D01*
X161842714Y-72851364D01*
X162025722Y-72668676D01*
X162124887Y-72429860D01*
X162125043Y-72250998D01*
X163001041Y-71375000D01*
X163676014Y-71375000D01*
X163594480Y-71429480D01*
X162274480Y-72749480D01*
X162182351Y-72887359D01*
X162182351Y-72887360D01*
X162150000Y-73050000D01*
X162150000Y-76605822D01*
X162024278Y-76731324D01*
X161925113Y-76970140D01*
X161924888Y-77228726D01*
X162023636Y-77467714D01*
X162206324Y-77650722D01*
X162445140Y-77749887D01*
X162703726Y-77750112D01*
X162942714Y-77651364D01*
X163125722Y-77468676D01*
X163224887Y-77229860D01*
X163225112Y-76971274D01*
X163126364Y-76732286D01*
X163000000Y-76605701D01*
X163000000Y-75894299D01*
X163056324Y-75950722D01*
X163295140Y-76049887D01*
X163553726Y-76050112D01*
X163792714Y-75951364D01*
X163975722Y-75768676D01*
X164074887Y-75529860D01*
X164075043Y-75350998D01*
X164731041Y-74695000D01*
X165691776Y-74695000D01*
X165699618Y-74734425D01*
X165962693Y-75128145D01*
X166356413Y-75391220D01*
X166820838Y-75483600D01*
X167179162Y-75483600D01*
X167643587Y-75391220D01*
X168037307Y-75128145D01*
X168300382Y-74734425D01*
X168392762Y-74270000D01*
X168300382Y-73805575D01*
X168037307Y-73411855D01*
X167643587Y-73148780D01*
X167179162Y-73056400D01*
X166820838Y-73056400D01*
X166356413Y-73148780D01*
X165962693Y-73411855D01*
X165699618Y-73805575D01*
X165691776Y-73845000D01*
X164555000Y-73845000D01*
X164392360Y-73877351D01*
X164392358Y-73877352D01*
X164392359Y-73877352D01*
X164254479Y-73969480D01*
X163473917Y-74750043D01*
X163296274Y-74749888D01*
X163057286Y-74848636D01*
X163000000Y-74905822D01*
X163000000Y-73226040D01*
X164071040Y-72155000D01*
X165691776Y-72155000D01*
X165699618Y-72194425D01*
X165962693Y-72588145D01*
X166356413Y-72851220D01*
X166820838Y-72943600D01*
X167179162Y-72943600D01*
X167643587Y-72851220D01*
X168037307Y-72588145D01*
X168300382Y-72194425D01*
X168392762Y-71730000D01*
X168300382Y-71265575D01*
X168037307Y-70871855D01*
X167643587Y-70608780D01*
X167179162Y-70516400D01*
X166820838Y-70516400D01*
X166356413Y-70608780D01*
X165962693Y-70871855D01*
X165699618Y-71265575D01*
X165691776Y-71305000D01*
X164593986Y-71305000D01*
X164675520Y-71250520D01*
X165687253Y-70238787D01*
X165728203Y-70302425D01*
X165845163Y-70382341D01*
X165984000Y-70410456D01*
X168016000Y-70410456D01*
X168145702Y-70386051D01*
X168264825Y-70309397D01*
X168344741Y-70192437D01*
X168372856Y-70053600D01*
X168372856Y-68500000D01*
X175300000Y-68500000D01*
X175300000Y-93075000D01*
X161100000Y-93075000D01*
X161058947Y-93083166D01*
X161017087Y-93083166D01*
X160653538Y-93155480D01*
X160500334Y-93218939D01*
X160500333Y-93218940D01*
X160192133Y-93424873D01*
X160074875Y-93542131D01*
X159868940Y-93850333D01*
X159868940Y-93850334D01*
X159868939Y-93850335D01*
X159805480Y-94003538D01*
X159741538Y-94325000D01*
X151975000Y-94325000D01*
X151936094Y-94332879D01*
X151903319Y-94355273D01*
X151881839Y-94388654D01*
X151875000Y-94425000D01*
X151875000Y-96310205D01*
X151850113Y-96370140D01*
X151849888Y-96628726D01*
X151875000Y-96689502D01*
X151875000Y-97518017D01*
X151845499Y-97561193D01*
X151837634Y-97600030D01*
X151551140Y-97600030D01*
X151526140Y-97625030D01*
X151526140Y-99975000D01*
X151546140Y-99975000D01*
X151546140Y-100025000D01*
X151526140Y-100025000D01*
X151526140Y-100045000D01*
X151476140Y-100045000D01*
X151476140Y-100025000D01*
X151101020Y-100025000D01*
X151076020Y-100050000D01*
X151076020Y-102220746D01*
X151074533Y-102224532D01*
X151076020Y-102305174D01*
X151076020Y-102319861D01*
X151076303Y-102320545D01*
X151077651Y-102393626D01*
X151136361Y-102535365D01*
X151195187Y-102571838D01*
X151367055Y-102399970D01*
X151437765Y-102399970D01*
X151230542Y-102607193D01*
X151267015Y-102666019D01*
X151424432Y-102727847D01*
X151593526Y-102724729D01*
X151735265Y-102666019D01*
X151771738Y-102607193D01*
X151564515Y-102399970D01*
X151635225Y-102399970D01*
X151807093Y-102571838D01*
X151865679Y-102535514D01*
X151875000Y-102558072D01*
X151875000Y-102875000D01*
X149391860Y-102875000D01*
X149377797Y-102872203D01*
X149375000Y-102858140D01*
X149375000Y-102709029D01*
X149422912Y-102727847D01*
X149592006Y-102724729D01*
X149733745Y-102666019D01*
X149770218Y-102607193D01*
X149562995Y-102399970D01*
X149633705Y-102399970D01*
X149805573Y-102571838D01*
X149864399Y-102535365D01*
X149926227Y-102377948D01*
X149924740Y-102297306D01*
X149924740Y-102224532D01*
X150073773Y-102224532D01*
X150075260Y-102305174D01*
X150075260Y-102319861D01*
X150075543Y-102320545D01*
X150076891Y-102393626D01*
X150135601Y-102535365D01*
X150194427Y-102571838D01*
X150366295Y-102399970D01*
X150437005Y-102399970D01*
X150229782Y-102607193D01*
X150266255Y-102666019D01*
X150423672Y-102727847D01*
X150592766Y-102724729D01*
X150734505Y-102666019D01*
X150770978Y-102607193D01*
X150563755Y-102399970D01*
X150634465Y-102399970D01*
X150806333Y-102571838D01*
X150865159Y-102535365D01*
X150926987Y-102377948D01*
X150925500Y-102297306D01*
X150925500Y-100050000D01*
X150900500Y-100025000D01*
X150525380Y-100025000D01*
X150525380Y-100045000D01*
X150475380Y-100045000D01*
X150475380Y-100025000D01*
X150100260Y-100025000D01*
X150075260Y-100050000D01*
X150075260Y-102220746D01*
X150073773Y-102224532D01*
X149924740Y-102224532D01*
X149924740Y-100050000D01*
X149899740Y-100025000D01*
X149524620Y-100025000D01*
X149524620Y-100045000D01*
X149474620Y-100045000D01*
X149474620Y-100025000D01*
X149454620Y-100025000D01*
X149454620Y-99975000D01*
X149474620Y-99975000D01*
X149474620Y-97625030D01*
X149524620Y-97625030D01*
X149524620Y-99975000D01*
X149899740Y-99975000D01*
X149924740Y-99950000D01*
X149924740Y-97680139D01*
X150075260Y-97680139D01*
X150075260Y-99950000D01*
X150100260Y-99975000D01*
X150475380Y-99975000D01*
X150475380Y-97625030D01*
X150525380Y-97625030D01*
X150525380Y-99975000D01*
X150900500Y-99975000D01*
X150925500Y-99950000D01*
X150925500Y-97680139D01*
X151076020Y-97680139D01*
X151076020Y-99950000D01*
X151101020Y-99975000D01*
X151476140Y-99975000D01*
X151476140Y-97625030D01*
X151451140Y-97600030D01*
X151156129Y-97600030D01*
X151119375Y-97615254D01*
X151091244Y-97643384D01*
X151076020Y-97680139D01*
X150925500Y-97680139D01*
X150910276Y-97643384D01*
X150882145Y-97615254D01*
X150845391Y-97600030D01*
X150550380Y-97600030D01*
X150525380Y-97625030D01*
X150475380Y-97625030D01*
X150450380Y-97600030D01*
X150155369Y-97600030D01*
X150118615Y-97615254D01*
X150090484Y-97643384D01*
X150075260Y-97680139D01*
X149924740Y-97680139D01*
X149909516Y-97643384D01*
X149881385Y-97615254D01*
X149844631Y-97600030D01*
X149549620Y-97600030D01*
X149524620Y-97625030D01*
X149474620Y-97625030D01*
X149449620Y-97600030D01*
X149375000Y-97600030D01*
X149375000Y-94450000D01*
X149366834Y-94408947D01*
X149366834Y-94367087D01*
X149294520Y-94003538D01*
X149231061Y-93850334D01*
X149231060Y-93850333D01*
X149025125Y-93542131D01*
X148907867Y-93424873D01*
X148599667Y-93218940D01*
X148527038Y-93188856D01*
X148446462Y-93155480D01*
X148082913Y-93083166D01*
X147917087Y-93083166D01*
X147553538Y-93155480D01*
X147400334Y-93218939D01*
X147400333Y-93218940D01*
X147092133Y-93424873D01*
X146974875Y-93542131D01*
X146768940Y-93850333D01*
X146768940Y-93850334D01*
X146768939Y-93850335D01*
X146705480Y-94003538D01*
X146643114Y-94317074D01*
X144014896Y-91688856D01*
X144619000Y-91688856D01*
X144748702Y-91664451D01*
X144867825Y-91587797D01*
X144947741Y-91470837D01*
X144975856Y-91332000D01*
X144975856Y-90468000D01*
X144951451Y-90338298D01*
X144874797Y-90219175D01*
X144757837Y-90139259D01*
X144619000Y-90111144D01*
X144412184Y-90111144D01*
X143624957Y-89323917D01*
X143625112Y-89146274D01*
X143526364Y-88907286D01*
X143343676Y-88724278D01*
X143104860Y-88625113D01*
X142925997Y-88624957D01*
X142825520Y-88524480D01*
X142687641Y-88432351D01*
X142660657Y-88426984D01*
X142525000Y-88400000D01*
X141251040Y-88400000D01*
X142200520Y-87450520D01*
X142292649Y-87312641D01*
X142325000Y-87150000D01*
X142325000Y-86619168D01*
X142400000Y-86694299D01*
X142400000Y-87625000D01*
X142417405Y-87712500D01*
X142432351Y-87787641D01*
X142524480Y-87925520D01*
X143074479Y-88475520D01*
X143155569Y-88529702D01*
X143212360Y-88567649D01*
X143375000Y-88600000D01*
X143868144Y-88600000D01*
X143868144Y-89050000D01*
X143892549Y-89179702D01*
X143969203Y-89298825D01*
X144086163Y-89378741D01*
X144225000Y-89406856D01*
X144696255Y-89406856D01*
X144707351Y-89462641D01*
X144799480Y-89600520D01*
X145321331Y-90122371D01*
X145251298Y-90135549D01*
X145132175Y-90212203D01*
X145052259Y-90329163D01*
X145024144Y-90468000D01*
X145024144Y-91332000D01*
X145048549Y-91461702D01*
X145125203Y-91580825D01*
X145242163Y-91660741D01*
X145381000Y-91688856D01*
X146168000Y-91688856D01*
X146297702Y-91664451D01*
X146416825Y-91587797D01*
X146496741Y-91470837D01*
X146524856Y-91332000D01*
X146524856Y-91325000D01*
X147249316Y-91325000D01*
X147375000Y-91350000D01*
X147500684Y-91325000D01*
X149050000Y-91325000D01*
X149185657Y-91298016D01*
X149212641Y-91292649D01*
X149350520Y-91200520D01*
X149651083Y-90899957D01*
X149828726Y-90900112D01*
X150067714Y-90801364D01*
X150250722Y-90618676D01*
X150349887Y-90379860D01*
X150350112Y-90121274D01*
X150251364Y-89882286D01*
X150068676Y-89699278D01*
X149829860Y-89600113D01*
X149571274Y-89599888D01*
X149332286Y-89698636D01*
X149149278Y-89881324D01*
X149050113Y-90120140D01*
X149049957Y-90299002D01*
X148873960Y-90475000D01*
X146524856Y-90475000D01*
X146524856Y-90468000D01*
X146500451Y-90338298D01*
X146423797Y-90219175D01*
X146306837Y-90139259D01*
X146199500Y-90117523D01*
X146199500Y-89974500D01*
X146167149Y-89811860D01*
X146167149Y-89811859D01*
X146075020Y-89673980D01*
X145807896Y-89406856D01*
X145975000Y-89406856D01*
X146104702Y-89382451D01*
X146223825Y-89305797D01*
X146303741Y-89188837D01*
X146331856Y-89050000D01*
X146331856Y-88600000D01*
X146312349Y-88496329D01*
X146331856Y-88400000D01*
X146331856Y-87950000D01*
X146312349Y-87846329D01*
X146331856Y-87750000D01*
X146331856Y-87582897D01*
X146500000Y-87751041D01*
X146500000Y-88750000D01*
X146523897Y-88870140D01*
X146532351Y-88912641D01*
X146624480Y-89050520D01*
X146824480Y-89250521D01*
X146962359Y-89342649D01*
X146993144Y-89348772D01*
X146993144Y-89400000D01*
X147017549Y-89529702D01*
X147094203Y-89648825D01*
X147211163Y-89728741D01*
X147350000Y-89756856D01*
X149050000Y-89756856D01*
X149179702Y-89732451D01*
X149298825Y-89655797D01*
X149378741Y-89538837D01*
X149406856Y-89400000D01*
X149406856Y-88953726D01*
X153574888Y-88953726D01*
X153673636Y-89192714D01*
X153856324Y-89375722D01*
X154095140Y-89474887D01*
X154353726Y-89475112D01*
X154592714Y-89376364D01*
X154774396Y-89195000D01*
X155627144Y-89195000D01*
X155627144Y-89633600D01*
X155651549Y-89763302D01*
X155728203Y-89882425D01*
X155845163Y-89962341D01*
X155984000Y-89990456D01*
X158016000Y-89990456D01*
X158145702Y-89966051D01*
X158264825Y-89889397D01*
X158344741Y-89772437D01*
X158372856Y-89633600D01*
X158372856Y-89195000D01*
X162193960Y-89195000D01*
X164609479Y-91610520D01*
X164690193Y-91664451D01*
X164747360Y-91702649D01*
X164910000Y-91735000D01*
X165691776Y-91735000D01*
X165699618Y-91774425D01*
X165962693Y-92168145D01*
X166356413Y-92431220D01*
X166820838Y-92523600D01*
X167179162Y-92523600D01*
X167643587Y-92431220D01*
X168037307Y-92168145D01*
X168300382Y-91774425D01*
X168392762Y-91310000D01*
X168300382Y-90845575D01*
X168037307Y-90451855D01*
X167643587Y-90188780D01*
X167179162Y-90096400D01*
X166820838Y-90096400D01*
X166356413Y-90188780D01*
X165962693Y-90451855D01*
X165699618Y-90845575D01*
X165691776Y-90885000D01*
X165086041Y-90885000D01*
X162971041Y-88770000D01*
X165607238Y-88770000D01*
X165699618Y-89234425D01*
X165962693Y-89628145D01*
X166356413Y-89891220D01*
X166820838Y-89983600D01*
X167179162Y-89983600D01*
X167643587Y-89891220D01*
X168037307Y-89628145D01*
X168300382Y-89234425D01*
X168392762Y-88770000D01*
X168300382Y-88305575D01*
X168037307Y-87911855D01*
X167643587Y-87648780D01*
X167179162Y-87556400D01*
X166820838Y-87556400D01*
X166356413Y-87648780D01*
X165962693Y-87911855D01*
X165699618Y-88305575D01*
X165607238Y-88770000D01*
X162971041Y-88770000D01*
X162670520Y-88469480D01*
X162532641Y-88377351D01*
X162497182Y-88370298D01*
X162370000Y-88345000D01*
X158372856Y-88345000D01*
X158372856Y-87906400D01*
X158348451Y-87776698D01*
X158271797Y-87657575D01*
X158154837Y-87577659D01*
X158016000Y-87549544D01*
X155984000Y-87549544D01*
X155854298Y-87573949D01*
X155735175Y-87650603D01*
X155655259Y-87767563D01*
X155627144Y-87906400D01*
X155627144Y-88345000D01*
X154664274Y-88345000D01*
X154593676Y-88274278D01*
X154354860Y-88175113D01*
X154096274Y-88174888D01*
X153857286Y-88273636D01*
X153674278Y-88456324D01*
X153575113Y-88695140D01*
X153574888Y-88953726D01*
X149406856Y-88953726D01*
X149406856Y-88500000D01*
X149382451Y-88370298D01*
X149305797Y-88251175D01*
X149188837Y-88171259D01*
X149050000Y-88143144D01*
X148593800Y-88143144D01*
X148592649Y-88137360D01*
X148592649Y-88137359D01*
X148500520Y-87999480D01*
X148000867Y-87499827D01*
X148135657Y-87473016D01*
X148162641Y-87467649D01*
X148300520Y-87375520D01*
X148500521Y-87175520D01*
X148592649Y-87037641D01*
X148625000Y-86875000D01*
X148625000Y-86856856D01*
X149050000Y-86856856D01*
X149179702Y-86832451D01*
X149298825Y-86755797D01*
X149378741Y-86638837D01*
X149406856Y-86500000D01*
X149406856Y-86230000D01*
X155607238Y-86230000D01*
X155699618Y-86694425D01*
X155962693Y-87088145D01*
X156356413Y-87351220D01*
X156820838Y-87443600D01*
X157179162Y-87443600D01*
X157643587Y-87351220D01*
X158037307Y-87088145D01*
X158300382Y-86694425D01*
X158392762Y-86230000D01*
X165607238Y-86230000D01*
X165699618Y-86694425D01*
X165962693Y-87088145D01*
X166356413Y-87351220D01*
X166820838Y-87443600D01*
X167179162Y-87443600D01*
X167643587Y-87351220D01*
X168037307Y-87088145D01*
X168300382Y-86694425D01*
X168392762Y-86230000D01*
X168300382Y-85765575D01*
X168037307Y-85371855D01*
X167643587Y-85108780D01*
X167179162Y-85016400D01*
X166820838Y-85016400D01*
X166356413Y-85108780D01*
X165962693Y-85371855D01*
X165699618Y-85765575D01*
X165607238Y-86230000D01*
X158392762Y-86230000D01*
X158300382Y-85765575D01*
X158037307Y-85371855D01*
X157643587Y-85108780D01*
X157179162Y-85016400D01*
X156820838Y-85016400D01*
X156356413Y-85108780D01*
X155962693Y-85371855D01*
X155699618Y-85765575D01*
X155607238Y-86230000D01*
X149406856Y-86230000D01*
X149406856Y-85600000D01*
X149382451Y-85470298D01*
X149305797Y-85351175D01*
X149188837Y-85271259D01*
X149050000Y-85243144D01*
X147350000Y-85243144D01*
X147220298Y-85267549D01*
X147101175Y-85344203D01*
X147088619Y-85362579D01*
X146350520Y-84624480D01*
X146312918Y-84599355D01*
X146307451Y-84570298D01*
X146230797Y-84451175D01*
X146229078Y-84450000D01*
X150732000Y-84450000D01*
X150732000Y-84851891D01*
X150747224Y-84888646D01*
X150775355Y-84916776D01*
X150812109Y-84932000D01*
X151175500Y-84932000D01*
X151200500Y-84907000D01*
X151200500Y-84425000D01*
X151250500Y-84425000D01*
X151250500Y-84907000D01*
X151275500Y-84932000D01*
X151638891Y-84932000D01*
X151675645Y-84916776D01*
X151703776Y-84888646D01*
X151719000Y-84851891D01*
X151719000Y-84450000D01*
X151694000Y-84425000D01*
X151250500Y-84425000D01*
X151200500Y-84425000D01*
X150757000Y-84425000D01*
X150732000Y-84450000D01*
X146229078Y-84450000D01*
X146113837Y-84371259D01*
X146075000Y-84363394D01*
X146075000Y-84325000D01*
X146050000Y-84300000D01*
X145125000Y-84300000D01*
X145125000Y-84320000D01*
X145075000Y-84320000D01*
X145075000Y-84300000D01*
X144150000Y-84300000D01*
X144125000Y-84325000D01*
X144125000Y-84361960D01*
X144095298Y-84367549D01*
X143976175Y-84444203D01*
X143896259Y-84561163D01*
X143868144Y-84700000D01*
X143868144Y-85150000D01*
X143887651Y-85253671D01*
X143868144Y-85350000D01*
X143868144Y-85800000D01*
X143887651Y-85903671D01*
X143868144Y-86000000D01*
X143868144Y-86450000D01*
X143887651Y-86553671D01*
X143868144Y-86650000D01*
X143868144Y-86863676D01*
X143654860Y-86775113D01*
X143396274Y-86774888D01*
X143250000Y-86835327D01*
X143250000Y-86694178D01*
X143375722Y-86568676D01*
X143474887Y-86329860D01*
X143475112Y-86071274D01*
X143376364Y-85832286D01*
X143193676Y-85649278D01*
X142954860Y-85550113D01*
X142696274Y-85549888D01*
X142457286Y-85648636D01*
X142325000Y-85780691D01*
X142325000Y-85494178D01*
X142450722Y-85368676D01*
X142549887Y-85129860D01*
X142550112Y-84871274D01*
X142451364Y-84632286D01*
X142268676Y-84449278D01*
X142029860Y-84350113D01*
X141771274Y-84349888D01*
X141532286Y-84448636D01*
X141349278Y-84631324D01*
X141250113Y-84870140D01*
X141249888Y-85128726D01*
X141348636Y-85367714D01*
X141475000Y-85494299D01*
X141475000Y-86973960D01*
X141449914Y-86999046D01*
X141450112Y-86771274D01*
X141351364Y-86532286D01*
X141168676Y-86349278D01*
X140929860Y-86250113D01*
X140749957Y-86249956D01*
X140750112Y-86071274D01*
X140651364Y-85832286D01*
X140468676Y-85649278D01*
X140229860Y-85550113D01*
X139971274Y-85549888D01*
X139732286Y-85648636D01*
X139605701Y-85775000D01*
X139131856Y-85775000D01*
X139131856Y-85450943D01*
X139370140Y-85549887D01*
X139628726Y-85550112D01*
X139867714Y-85451364D01*
X140050722Y-85268676D01*
X140149887Y-85029860D01*
X140150112Y-84771274D01*
X140051364Y-84532286D01*
X139868676Y-84349278D01*
X139629860Y-84250113D01*
X139371274Y-84249888D01*
X139132286Y-84348636D01*
X139131856Y-84349065D01*
X139131856Y-84050000D01*
X139112349Y-83946329D01*
X139131856Y-83850000D01*
X139131856Y-83675000D01*
X144125000Y-83675000D01*
X144125000Y-83869891D01*
X144140224Y-83906646D01*
X144168355Y-83934776D01*
X144205109Y-83950000D01*
X144168355Y-83965224D01*
X144140224Y-83993354D01*
X144125000Y-84030109D01*
X144125000Y-84225000D01*
X144150000Y-84250000D01*
X145075000Y-84250000D01*
X145075000Y-83975000D01*
X145050000Y-83950000D01*
X145075000Y-83925000D01*
X145075000Y-83650000D01*
X145125000Y-83650000D01*
X145125000Y-83925000D01*
X145150000Y-83950000D01*
X145125000Y-83975000D01*
X145125000Y-84250000D01*
X146050000Y-84250000D01*
X146075000Y-84225000D01*
X146075000Y-84030109D01*
X146059776Y-83993354D01*
X146031645Y-83965224D01*
X145994891Y-83950000D01*
X145999456Y-83948109D01*
X150732000Y-83948109D01*
X150732000Y-84350000D01*
X150757000Y-84375000D01*
X151200500Y-84375000D01*
X151200500Y-83893000D01*
X151250500Y-83893000D01*
X151250500Y-84375000D01*
X151694000Y-84375000D01*
X151719000Y-84350000D01*
X151719000Y-83948109D01*
X151703776Y-83911354D01*
X151675645Y-83883224D01*
X151638891Y-83868000D01*
X151275500Y-83868000D01*
X151250500Y-83893000D01*
X151200500Y-83893000D01*
X151175500Y-83868000D01*
X150812109Y-83868000D01*
X150775355Y-83883224D01*
X150747224Y-83911354D01*
X150732000Y-83948109D01*
X145999456Y-83948109D01*
X146031645Y-83934776D01*
X146059776Y-83906646D01*
X146075000Y-83869891D01*
X146075000Y-83675000D01*
X146050000Y-83650000D01*
X145125000Y-83650000D01*
X145075000Y-83650000D01*
X144150000Y-83650000D01*
X144125000Y-83675000D01*
X139131856Y-83675000D01*
X139131856Y-83400000D01*
X139112349Y-83296329D01*
X139131856Y-83200000D01*
X139131856Y-82750000D01*
X139107451Y-82620298D01*
X139030797Y-82501175D01*
X138913837Y-82421259D01*
X138775000Y-82393144D01*
X137025000Y-82393144D01*
X136895298Y-82417549D01*
X136776175Y-82494203D01*
X136696259Y-82611163D01*
X136668144Y-82750000D01*
X136668144Y-82913676D01*
X136454860Y-82825113D01*
X136196274Y-82824888D01*
X135957286Y-82923636D01*
X135774278Y-83106324D01*
X135675113Y-83345140D01*
X135674888Y-83603726D01*
X135773636Y-83842714D01*
X135880761Y-83950027D01*
X135774278Y-84056324D01*
X135675113Y-84295140D01*
X135674888Y-84553726D01*
X135773636Y-84792714D01*
X135956324Y-84975722D01*
X136195140Y-85074887D01*
X136453726Y-85075112D01*
X136668144Y-84986516D01*
X136668144Y-85150000D01*
X135694178Y-85150000D01*
X135568676Y-85024278D01*
X135329860Y-84925113D01*
X135071274Y-84924888D01*
X134832286Y-85023636D01*
X134649278Y-85206324D01*
X134550113Y-85445140D01*
X134549888Y-85703726D01*
X134648636Y-85942714D01*
X134831324Y-86125722D01*
X135070140Y-86224887D01*
X135328726Y-86225112D01*
X135567714Y-86126364D01*
X135694299Y-86000000D01*
X136668144Y-86000000D01*
X136668144Y-86450000D01*
X136687651Y-86553671D01*
X136668144Y-86650000D01*
X136668144Y-86998789D01*
X136643676Y-86974278D01*
X136404860Y-86875113D01*
X136146274Y-86874888D01*
X135907286Y-86973636D01*
X135724278Y-87156324D01*
X135625113Y-87395140D01*
X135624888Y-87653726D01*
X135674259Y-87773213D01*
X135000526Y-87099480D01*
X134918528Y-87044690D01*
X132825004Y-84951166D01*
X132825004Y-83399996D01*
X132797496Y-83261702D01*
X132792653Y-83237355D01*
X132700524Y-83099476D01*
X132125528Y-82524480D01*
X131987649Y-82432351D01*
X131950692Y-82425000D01*
X131825008Y-82400000D01*
X131350065Y-82400000D01*
X131350112Y-82346274D01*
X131251364Y-82107286D01*
X131068676Y-81924278D01*
X130829860Y-81825113D01*
X130676020Y-81824979D01*
X130150000Y-81298960D01*
X130150000Y-80775000D01*
X130145050Y-80750113D01*
X130117649Y-80612359D01*
X130025521Y-80474480D01*
X129750520Y-80199480D01*
X129612641Y-80107351D01*
X129575684Y-80100000D01*
X129450000Y-80075000D01*
X129224856Y-80075000D01*
X129224856Y-80068000D01*
X129200451Y-79938298D01*
X129123797Y-79819175D01*
X129006837Y-79739259D01*
X128868000Y-79711144D01*
X128081000Y-79711144D01*
X127951298Y-79735549D01*
X127832175Y-79812203D01*
X127752259Y-79929163D01*
X127724144Y-80068000D01*
X127724144Y-80932000D01*
X127748549Y-81061702D01*
X127825203Y-81180825D01*
X127942163Y-81260741D01*
X128081000Y-81288856D01*
X128868000Y-81288856D01*
X128997702Y-81264451D01*
X129116825Y-81187797D01*
X129196741Y-81070837D01*
X129224856Y-80932000D01*
X129224856Y-80925000D01*
X129273960Y-80925000D01*
X129300000Y-80951041D01*
X129300000Y-81475000D01*
X129317434Y-81562645D01*
X129332351Y-81637641D01*
X129424480Y-81775520D01*
X130050064Y-82401105D01*
X130049936Y-82548896D01*
X129400520Y-81899480D01*
X129262641Y-81807351D01*
X129235657Y-81801984D01*
X129224856Y-81799835D01*
X129224856Y-81768000D01*
X129200451Y-81638298D01*
X129123797Y-81519175D01*
X129006837Y-81439259D01*
X128868000Y-81411144D01*
X128081000Y-81411144D01*
X127951298Y-81435549D01*
X127832175Y-81512203D01*
X127752259Y-81629163D01*
X127724144Y-81768000D01*
X127724144Y-82632000D01*
X127748549Y-82761702D01*
X127825203Y-82880825D01*
X127942163Y-82960741D01*
X128081000Y-82988856D01*
X128868000Y-82988856D01*
X128997702Y-82964451D01*
X129116825Y-82887797D01*
X129145212Y-82846252D01*
X129773960Y-83475000D01*
X129224856Y-83475000D01*
X129224856Y-83468000D01*
X129200451Y-83338298D01*
X129123797Y-83219175D01*
X129006837Y-83139259D01*
X128868000Y-83111144D01*
X128081000Y-83111144D01*
X127951298Y-83135549D01*
X127832175Y-83212203D01*
X127752259Y-83329163D01*
X127724144Y-83468000D01*
X127724144Y-84332000D01*
X127748549Y-84461702D01*
X127825203Y-84580825D01*
X127942163Y-84660741D01*
X128081000Y-84688856D01*
X128868000Y-84688856D01*
X128997702Y-84664451D01*
X129116825Y-84587797D01*
X129196741Y-84470837D01*
X129224856Y-84332000D01*
X129224856Y-84325000D01*
X130148226Y-84325000D01*
X130175042Y-84351816D01*
X130174888Y-84528726D01*
X130273636Y-84767714D01*
X130456324Y-84950722D01*
X130632179Y-85023743D01*
X130480657Y-85175000D01*
X129224856Y-85175000D01*
X129224856Y-85168000D01*
X129200451Y-85038298D01*
X129123797Y-84919175D01*
X129006837Y-84839259D01*
X128868000Y-84811144D01*
X128081000Y-84811144D01*
X127951298Y-84835549D01*
X127832175Y-84912203D01*
X127752259Y-85029163D01*
X127724144Y-85168000D01*
X127724144Y-86032000D01*
X127748549Y-86161702D01*
X127825203Y-86280825D01*
X127942163Y-86360741D01*
X128081000Y-86388856D01*
X128868000Y-86388856D01*
X128997702Y-86364451D01*
X129116825Y-86287797D01*
X129196741Y-86170837D01*
X129224856Y-86032000D01*
X129224856Y-86025000D01*
X130530778Y-86025000D01*
X130631324Y-86125722D01*
X130870140Y-86224887D01*
X131128726Y-86225112D01*
X131367714Y-86126364D01*
X131446588Y-86047628D01*
X132048894Y-86649934D01*
X131996274Y-86649888D01*
X131757286Y-86748636D01*
X131630701Y-86875000D01*
X129224856Y-86875000D01*
X129224856Y-86868000D01*
X129200451Y-86738298D01*
X129123797Y-86619175D01*
X129006837Y-86539259D01*
X128868000Y-86511144D01*
X128081000Y-86511144D01*
X127951298Y-86535549D01*
X127832175Y-86612203D01*
X127752259Y-86729163D01*
X127724144Y-86868000D01*
X127724144Y-87732000D01*
X127748549Y-87861702D01*
X127825203Y-87980825D01*
X127942163Y-88060741D01*
X128081000Y-88088856D01*
X128868000Y-88088856D01*
X128997702Y-88064451D01*
X129116825Y-87987797D01*
X129196741Y-87870837D01*
X129224856Y-87732000D01*
X129224856Y-87725000D01*
X131630822Y-87725000D01*
X131756324Y-87850722D01*
X131995140Y-87949887D01*
X132253726Y-87950112D01*
X132492714Y-87851364D01*
X132675722Y-87668676D01*
X132774887Y-87429860D01*
X132774934Y-87375974D01*
X133411980Y-88013020D01*
X136873959Y-91475000D01*
X134326040Y-91475000D01*
X133724856Y-90873816D01*
X133724856Y-90268000D01*
X133700451Y-90138298D01*
X133623797Y-90019175D01*
X133506837Y-89939259D01*
X133368000Y-89911144D01*
X132581000Y-89911144D01*
X132451298Y-89935549D01*
X132332175Y-90012203D01*
X132252259Y-90129163D01*
X132224144Y-90268000D01*
X132224144Y-91132000D01*
X132248549Y-91261702D01*
X132325203Y-91380825D01*
X132442163Y-91460741D01*
X132581000Y-91488856D01*
X133137816Y-91488856D01*
X133260104Y-91611144D01*
X132581000Y-91611144D01*
X132451298Y-91635549D01*
X132332175Y-91712203D01*
X132252259Y-91829163D01*
X132224144Y-91968000D01*
X132224144Y-92832000D01*
X132248549Y-92961702D01*
X132321455Y-93075000D01*
X132076569Y-93075000D01*
X132147741Y-92970837D01*
X132175856Y-92832000D01*
X132175856Y-91968000D01*
X132151451Y-91838298D01*
X132074797Y-91719175D01*
X131957837Y-91639259D01*
X131819000Y-91611144D01*
X131032000Y-91611144D01*
X130902298Y-91635549D01*
X130783175Y-91712203D01*
X130703259Y-91829163D01*
X130675144Y-91968000D01*
X130675144Y-91975000D01*
X130475000Y-91975000D01*
X130312360Y-92007351D01*
X130312358Y-92007352D01*
X130312359Y-92007352D01*
X130211037Y-92075053D01*
X130088804Y-92074947D01*
X129987641Y-92007351D01*
X129960657Y-92001984D01*
X129825000Y-91975000D01*
X129224856Y-91975000D01*
X129224856Y-91968000D01*
X129200451Y-91838298D01*
X129123797Y-91719175D01*
X129006837Y-91639259D01*
X128868000Y-91611144D01*
X128081000Y-91611144D01*
X127951298Y-91635549D01*
X127832175Y-91712203D01*
X127752259Y-91829163D01*
X127724144Y-91968000D01*
X127724144Y-92832000D01*
X127748549Y-92961702D01*
X127821455Y-93075000D01*
X127041860Y-93075000D01*
X126400460Y-92947418D01*
X125892194Y-92607806D01*
X125786752Y-92450000D01*
X126432000Y-92450000D01*
X126432000Y-92851891D01*
X126447224Y-92888646D01*
X126475355Y-92916776D01*
X126512109Y-92932000D01*
X126875500Y-92932000D01*
X126900500Y-92907000D01*
X126900500Y-92425000D01*
X126950500Y-92425000D01*
X126950500Y-92907000D01*
X126975500Y-92932000D01*
X127338891Y-92932000D01*
X127375645Y-92916776D01*
X127403776Y-92888646D01*
X127419000Y-92851891D01*
X127419000Y-92450000D01*
X127394000Y-92425000D01*
X126950500Y-92425000D01*
X126900500Y-92425000D01*
X126457000Y-92425000D01*
X126432000Y-92450000D01*
X125786752Y-92450000D01*
X125552583Y-92099541D01*
X125522462Y-91948109D01*
X126432000Y-91948109D01*
X126432000Y-92350000D01*
X126457000Y-92375000D01*
X126900500Y-92375000D01*
X126900500Y-91893000D01*
X126950500Y-91893000D01*
X126950500Y-92375000D01*
X127394000Y-92375000D01*
X127419000Y-92350000D01*
X127419000Y-91948109D01*
X127403776Y-91911354D01*
X127375645Y-91883224D01*
X127338891Y-91868000D01*
X126975500Y-91868000D01*
X126950500Y-91893000D01*
X126900500Y-91893000D01*
X126875500Y-91868000D01*
X126512109Y-91868000D01*
X126475355Y-91883224D01*
X126447224Y-91911354D01*
X126432000Y-91948109D01*
X125522462Y-91948109D01*
X125425000Y-91458140D01*
X125425000Y-90750000D01*
X126432000Y-90750000D01*
X126432000Y-91151891D01*
X126447224Y-91188646D01*
X126475355Y-91216776D01*
X126512109Y-91232000D01*
X126875500Y-91232000D01*
X126900500Y-91207000D01*
X126900500Y-90725000D01*
X126950500Y-90725000D01*
X126950500Y-91207000D01*
X126975500Y-91232000D01*
X127338891Y-91232000D01*
X127375645Y-91216776D01*
X127403776Y-91188646D01*
X127419000Y-91151891D01*
X127419000Y-90750000D01*
X127394000Y-90725000D01*
X126950500Y-90725000D01*
X126900500Y-90725000D01*
X126457000Y-90725000D01*
X126432000Y-90750000D01*
X125425000Y-90750000D01*
X125425000Y-90248109D01*
X126432000Y-90248109D01*
X126432000Y-90650000D01*
X126457000Y-90675000D01*
X126900500Y-90675000D01*
X126900500Y-90193000D01*
X126950500Y-90193000D01*
X126950500Y-90675000D01*
X127394000Y-90675000D01*
X127419000Y-90650000D01*
X127419000Y-90248109D01*
X127403776Y-90211354D01*
X127375645Y-90183224D01*
X127338891Y-90168000D01*
X126975500Y-90168000D01*
X126950500Y-90193000D01*
X126900500Y-90193000D01*
X126875500Y-90168000D01*
X126512109Y-90168000D01*
X126475355Y-90183224D01*
X126447224Y-90211354D01*
X126432000Y-90248109D01*
X125425000Y-90248109D01*
X125425000Y-89050000D01*
X126432000Y-89050000D01*
X126432000Y-89451891D01*
X126447224Y-89488646D01*
X126475355Y-89516776D01*
X126512109Y-89532000D01*
X126875500Y-89532000D01*
X126900500Y-89507000D01*
X126900500Y-89025000D01*
X126950500Y-89025000D01*
X126950500Y-89507000D01*
X126975500Y-89532000D01*
X127338891Y-89532000D01*
X127375645Y-89516776D01*
X127403776Y-89488646D01*
X127419000Y-89451891D01*
X127419000Y-89050000D01*
X127394000Y-89025000D01*
X126950500Y-89025000D01*
X126900500Y-89025000D01*
X126457000Y-89025000D01*
X126432000Y-89050000D01*
X125425000Y-89050000D01*
X125425000Y-88548109D01*
X126432000Y-88548109D01*
X126432000Y-88950000D01*
X126457000Y-88975000D01*
X126900500Y-88975000D01*
X126900500Y-88493000D01*
X126950500Y-88493000D01*
X126950500Y-88975000D01*
X127394000Y-88975000D01*
X127419000Y-88950000D01*
X127419000Y-88568000D01*
X127724144Y-88568000D01*
X127724144Y-89432000D01*
X127748549Y-89561702D01*
X127825203Y-89680825D01*
X127942163Y-89760741D01*
X128081000Y-89788856D01*
X128868000Y-89788856D01*
X128899971Y-89782840D01*
X128899888Y-89878726D01*
X128917418Y-89921151D01*
X128868000Y-89911144D01*
X128081000Y-89911144D01*
X127951298Y-89935549D01*
X127832175Y-90012203D01*
X127752259Y-90129163D01*
X127724144Y-90268000D01*
X127724144Y-91132000D01*
X127748549Y-91261702D01*
X127825203Y-91380825D01*
X127942163Y-91460741D01*
X128081000Y-91488856D01*
X128868000Y-91488856D01*
X128997702Y-91464451D01*
X129116825Y-91387797D01*
X129196741Y-91270837D01*
X129224856Y-91132000D01*
X129224856Y-91125000D01*
X130675144Y-91125000D01*
X130675144Y-91132000D01*
X130699549Y-91261702D01*
X130776203Y-91380825D01*
X130893163Y-91460741D01*
X131032000Y-91488856D01*
X131819000Y-91488856D01*
X131948702Y-91464451D01*
X132067825Y-91387797D01*
X132147741Y-91270837D01*
X132175856Y-91132000D01*
X132175856Y-90268000D01*
X132151451Y-90138298D01*
X132074797Y-90019175D01*
X131957837Y-89939259D01*
X131819000Y-89911144D01*
X131032000Y-89911144D01*
X130902298Y-89935549D01*
X130783175Y-90012203D01*
X130703259Y-90129163D01*
X130675144Y-90268000D01*
X130675144Y-90275000D01*
X129970027Y-90275000D01*
X129975000Y-90250000D01*
X129975000Y-90244178D01*
X130100722Y-90118676D01*
X130199887Y-89879860D01*
X130200112Y-89621274D01*
X130119013Y-89425000D01*
X131030822Y-89425000D01*
X131156324Y-89550722D01*
X131395140Y-89649887D01*
X131653726Y-89650112D01*
X131892714Y-89551364D01*
X132075722Y-89368676D01*
X132174887Y-89129860D01*
X132175112Y-88871274D01*
X132076364Y-88632286D01*
X131893676Y-88449278D01*
X131654860Y-88350113D01*
X131396274Y-88349888D01*
X131157286Y-88448636D01*
X131030701Y-88575000D01*
X129224856Y-88575000D01*
X129224856Y-88568000D01*
X129200451Y-88438298D01*
X129123797Y-88319175D01*
X129006837Y-88239259D01*
X128868000Y-88211144D01*
X128081000Y-88211144D01*
X127951298Y-88235549D01*
X127832175Y-88312203D01*
X127752259Y-88429163D01*
X127724144Y-88568000D01*
X127419000Y-88568000D01*
X127419000Y-88548109D01*
X127403776Y-88511354D01*
X127375645Y-88483224D01*
X127338891Y-88468000D01*
X126975500Y-88468000D01*
X126950500Y-88493000D01*
X126900500Y-88493000D01*
X126875500Y-88468000D01*
X126512109Y-88468000D01*
X126475355Y-88483224D01*
X126447224Y-88511354D01*
X126432000Y-88548109D01*
X125425000Y-88548109D01*
X125425000Y-87350000D01*
X126432000Y-87350000D01*
X126432000Y-87751891D01*
X126447224Y-87788646D01*
X126475355Y-87816776D01*
X126512109Y-87832000D01*
X126875500Y-87832000D01*
X126900500Y-87807000D01*
X126900500Y-87325000D01*
X126950500Y-87325000D01*
X126950500Y-87807000D01*
X126975500Y-87832000D01*
X127338891Y-87832000D01*
X127375645Y-87816776D01*
X127403776Y-87788646D01*
X127419000Y-87751891D01*
X127419000Y-87350000D01*
X127394000Y-87325000D01*
X126950500Y-87325000D01*
X126900500Y-87325000D01*
X126457000Y-87325000D01*
X126432000Y-87350000D01*
X125425000Y-87350000D01*
X125425000Y-86848109D01*
X126432000Y-86848109D01*
X126432000Y-87250000D01*
X126457000Y-87275000D01*
X126900500Y-87275000D01*
X126900500Y-86793000D01*
X126950500Y-86793000D01*
X126950500Y-87275000D01*
X127394000Y-87275000D01*
X127419000Y-87250000D01*
X127419000Y-86848109D01*
X127403776Y-86811354D01*
X127375645Y-86783224D01*
X127338891Y-86768000D01*
X126975500Y-86768000D01*
X126950500Y-86793000D01*
X126900500Y-86793000D01*
X126875500Y-86768000D01*
X126512109Y-86768000D01*
X126475355Y-86783224D01*
X126447224Y-86811354D01*
X126432000Y-86848109D01*
X125425000Y-86848109D01*
X125425000Y-85650000D01*
X126432000Y-85650000D01*
X126432000Y-86051891D01*
X126447224Y-86088646D01*
X126475355Y-86116776D01*
X126512109Y-86132000D01*
X126875500Y-86132000D01*
X126900500Y-86107000D01*
X126900500Y-85625000D01*
X126950500Y-85625000D01*
X126950500Y-86107000D01*
X126975500Y-86132000D01*
X127338891Y-86132000D01*
X127375645Y-86116776D01*
X127403776Y-86088646D01*
X127419000Y-86051891D01*
X127419000Y-85650000D01*
X127394000Y-85625000D01*
X126950500Y-85625000D01*
X126900500Y-85625000D01*
X126457000Y-85625000D01*
X126432000Y-85650000D01*
X125425000Y-85650000D01*
X125425000Y-85148109D01*
X126432000Y-85148109D01*
X126432000Y-85550000D01*
X126457000Y-85575000D01*
X126900500Y-85575000D01*
X126900500Y-85093000D01*
X126950500Y-85093000D01*
X126950500Y-85575000D01*
X127394000Y-85575000D01*
X127419000Y-85550000D01*
X127419000Y-85148109D01*
X127403776Y-85111354D01*
X127375645Y-85083224D01*
X127338891Y-85068000D01*
X126975500Y-85068000D01*
X126950500Y-85093000D01*
X126900500Y-85093000D01*
X126875500Y-85068000D01*
X126512109Y-85068000D01*
X126475355Y-85083224D01*
X126447224Y-85111354D01*
X126432000Y-85148109D01*
X125425000Y-85148109D01*
X125425000Y-83950000D01*
X126432000Y-83950000D01*
X126432000Y-84351891D01*
X126447224Y-84388646D01*
X126475355Y-84416776D01*
X126512109Y-84432000D01*
X126875500Y-84432000D01*
X126900500Y-84407000D01*
X126900500Y-83925000D01*
X126950500Y-83925000D01*
X126950500Y-84407000D01*
X126975500Y-84432000D01*
X127338891Y-84432000D01*
X127375645Y-84416776D01*
X127403776Y-84388646D01*
X127419000Y-84351891D01*
X127419000Y-83950000D01*
X127394000Y-83925000D01*
X126950500Y-83925000D01*
X126900500Y-83925000D01*
X126457000Y-83925000D01*
X126432000Y-83950000D01*
X125425000Y-83950000D01*
X125425000Y-83448109D01*
X126432000Y-83448109D01*
X126432000Y-83850000D01*
X126457000Y-83875000D01*
X126900500Y-83875000D01*
X126900500Y-83393000D01*
X126950500Y-83393000D01*
X126950500Y-83875000D01*
X127394000Y-83875000D01*
X127419000Y-83850000D01*
X127419000Y-83448109D01*
X127403776Y-83411354D01*
X127375645Y-83383224D01*
X127338891Y-83368000D01*
X126975500Y-83368000D01*
X126950500Y-83393000D01*
X126900500Y-83393000D01*
X126875500Y-83368000D01*
X126512109Y-83368000D01*
X126475355Y-83383224D01*
X126447224Y-83411354D01*
X126432000Y-83448109D01*
X125425000Y-83448109D01*
X125425000Y-82250000D01*
X126432000Y-82250000D01*
X126432000Y-82651891D01*
X126447224Y-82688646D01*
X126475355Y-82716776D01*
X126512109Y-82732000D01*
X126875500Y-82732000D01*
X126900500Y-82707000D01*
X126900500Y-82225000D01*
X126950500Y-82225000D01*
X126950500Y-82707000D01*
X126975500Y-82732000D01*
X127338891Y-82732000D01*
X127375645Y-82716776D01*
X127403776Y-82688646D01*
X127419000Y-82651891D01*
X127419000Y-82250000D01*
X127394000Y-82225000D01*
X126950500Y-82225000D01*
X126900500Y-82225000D01*
X126457000Y-82225000D01*
X126432000Y-82250000D01*
X125425000Y-82250000D01*
X125425000Y-81748109D01*
X126432000Y-81748109D01*
X126432000Y-82150000D01*
X126457000Y-82175000D01*
X126900500Y-82175000D01*
X126900500Y-81693000D01*
X126950500Y-81693000D01*
X126950500Y-82175000D01*
X127394000Y-82175000D01*
X127419000Y-82150000D01*
X127419000Y-81748109D01*
X127403776Y-81711354D01*
X127375645Y-81683224D01*
X127338891Y-81668000D01*
X126975500Y-81668000D01*
X126950500Y-81693000D01*
X126900500Y-81693000D01*
X126875500Y-81668000D01*
X126512109Y-81668000D01*
X126475355Y-81683224D01*
X126447224Y-81711354D01*
X126432000Y-81748109D01*
X125425000Y-81748109D01*
X125425000Y-80550000D01*
X126432000Y-80550000D01*
X126432000Y-80951891D01*
X126447224Y-80988646D01*
X126475355Y-81016776D01*
X126512109Y-81032000D01*
X126875500Y-81032000D01*
X126900500Y-81007000D01*
X126900500Y-80525000D01*
X126950500Y-80525000D01*
X126950500Y-81007000D01*
X126975500Y-81032000D01*
X127338891Y-81032000D01*
X127375645Y-81016776D01*
X127403776Y-80988646D01*
X127419000Y-80951891D01*
X127419000Y-80550000D01*
X127394000Y-80525000D01*
X126950500Y-80525000D01*
X126900500Y-80525000D01*
X126457000Y-80525000D01*
X126432000Y-80550000D01*
X125425000Y-80550000D01*
X125425000Y-80048109D01*
X126432000Y-80048109D01*
X126432000Y-80450000D01*
X126457000Y-80475000D01*
X126900500Y-80475000D01*
X126900500Y-79993000D01*
X126950500Y-79993000D01*
X126950500Y-80475000D01*
X127394000Y-80475000D01*
X127419000Y-80450000D01*
X127419000Y-80048109D01*
X127403776Y-80011354D01*
X127375645Y-79983224D01*
X127338891Y-79968000D01*
X126975500Y-79968000D01*
X126950500Y-79993000D01*
X126900500Y-79993000D01*
X126875500Y-79968000D01*
X126512109Y-79968000D01*
X126475355Y-79983224D01*
X126447224Y-80011354D01*
X126432000Y-80048109D01*
X125425000Y-80048109D01*
X125425000Y-77578726D01*
X126624888Y-77578726D01*
X126723636Y-77817714D01*
X126906324Y-78000722D01*
X127145140Y-78099887D01*
X127403726Y-78100112D01*
X127642714Y-78001364D01*
X127825722Y-77818676D01*
X127924887Y-77579860D01*
X127925112Y-77321274D01*
X127922450Y-77314832D01*
X127925500Y-77299500D01*
X127925500Y-77068817D01*
X127948702Y-77064451D01*
X128067825Y-76987797D01*
X128147741Y-76870837D01*
X128175856Y-76732000D01*
X128175856Y-76350000D01*
X128481000Y-76350000D01*
X128481000Y-76751891D01*
X128496224Y-76788646D01*
X128524355Y-76816776D01*
X128561109Y-76832000D01*
X128924500Y-76832000D01*
X128949500Y-76807000D01*
X128949500Y-76325000D01*
X128999500Y-76325000D01*
X128999500Y-76807000D01*
X129024500Y-76832000D01*
X129387891Y-76832000D01*
X129424645Y-76816776D01*
X129452776Y-76788646D01*
X129468000Y-76751891D01*
X129468000Y-76350000D01*
X129443000Y-76325000D01*
X128999500Y-76325000D01*
X128949500Y-76325000D01*
X128506000Y-76325000D01*
X128481000Y-76350000D01*
X128175856Y-76350000D01*
X128175856Y-75868000D01*
X128172114Y-75848109D01*
X128481000Y-75848109D01*
X128481000Y-76250000D01*
X128506000Y-76275000D01*
X128949500Y-76275000D01*
X128949500Y-75793000D01*
X128999500Y-75793000D01*
X128999500Y-76275000D01*
X129443000Y-76275000D01*
X129468000Y-76250000D01*
X129468000Y-75848109D01*
X129452776Y-75811354D01*
X129424645Y-75783224D01*
X129387891Y-75768000D01*
X129024500Y-75768000D01*
X128999500Y-75793000D01*
X128949500Y-75793000D01*
X128924500Y-75768000D01*
X128561109Y-75768000D01*
X128524355Y-75783224D01*
X128496224Y-75811354D01*
X128481000Y-75848109D01*
X128172114Y-75848109D01*
X128151451Y-75738298D01*
X128074797Y-75619175D01*
X127957837Y-75539259D01*
X127819000Y-75511144D01*
X127032000Y-75511144D01*
X126902298Y-75535549D01*
X126783175Y-75612203D01*
X126703259Y-75729163D01*
X126675144Y-75868000D01*
X126675144Y-76732000D01*
X126699549Y-76861702D01*
X126776203Y-76980825D01*
X126805144Y-77000600D01*
X126724278Y-77081324D01*
X126625113Y-77320140D01*
X126624888Y-77578726D01*
X125425000Y-77578726D01*
X125425000Y-72041860D01*
X125552583Y-71400459D01*
X125892194Y-70892194D01*
X126400460Y-70552582D01*
X127041860Y-70425000D01*
X134905613Y-70425000D01*
X134899278Y-70431324D01*
X134800113Y-70670140D01*
X134799888Y-70928726D01*
X134898636Y-71167714D01*
X135081324Y-71350722D01*
X135320140Y-71449887D01*
X135578726Y-71450112D01*
X135817714Y-71351364D01*
X135944299Y-71225000D01*
X136673207Y-71225000D01*
X136668144Y-71250000D01*
X136668144Y-71676391D01*
X136604860Y-71650113D01*
X136346274Y-71649888D01*
X136107286Y-71748636D01*
X135924278Y-71931324D01*
X135825113Y-72170140D01*
X135824888Y-72428726D01*
X135923636Y-72667714D01*
X136106324Y-72850722D01*
X136205297Y-72891819D01*
X136007286Y-72973636D01*
X135824278Y-73156324D01*
X135725113Y-73395140D01*
X135724888Y-73653726D01*
X135823636Y-73892714D01*
X136002284Y-74071675D01*
X135874480Y-74199480D01*
X135782351Y-74337359D01*
X135779693Y-74350722D01*
X135750000Y-74500000D01*
X135750000Y-75420761D01*
X135579860Y-75350113D01*
X135321274Y-75349888D01*
X135082286Y-75448636D01*
X135036900Y-75493943D01*
X135032451Y-75470298D01*
X134955797Y-75351175D01*
X134838837Y-75271259D01*
X134700000Y-75243144D01*
X134481856Y-75243144D01*
X134481856Y-75075000D01*
X134457451Y-74945298D01*
X134380797Y-74826175D01*
X134263837Y-74746259D01*
X134125000Y-74718144D01*
X133956856Y-74718144D01*
X133956856Y-74526510D01*
X134017714Y-74501364D01*
X134200722Y-74318676D01*
X134299887Y-74079860D01*
X134300112Y-73821274D01*
X134201364Y-73582286D01*
X134018676Y-73399278D01*
X133779860Y-73300113D01*
X133521274Y-73299888D01*
X133282286Y-73398636D01*
X133262495Y-73418393D01*
X133093676Y-73249278D01*
X132854860Y-73150113D01*
X132596274Y-73149888D01*
X132357286Y-73248636D01*
X132174908Y-73430696D01*
X132068676Y-73324278D01*
X131829860Y-73225113D01*
X131571274Y-73224888D01*
X131332286Y-73323636D01*
X131149278Y-73506324D01*
X131050113Y-73745140D01*
X131050065Y-73800000D01*
X130921274Y-73799888D01*
X130682286Y-73898636D01*
X130499278Y-74081324D01*
X130472001Y-74147015D01*
X130412641Y-74107351D01*
X130375684Y-74100000D01*
X130250000Y-74075000D01*
X130044178Y-74075000D01*
X129918676Y-73949278D01*
X129679860Y-73850113D01*
X129421274Y-73849888D01*
X129182286Y-73948636D01*
X128999278Y-74131324D01*
X128900113Y-74370140D01*
X128899888Y-74628726D01*
X128998636Y-74867714D01*
X129181324Y-75050722D01*
X129420140Y-75149887D01*
X129450044Y-75149913D01*
X129449888Y-75328726D01*
X129548636Y-75567714D01*
X129731324Y-75750722D01*
X129970140Y-75849887D01*
X130149002Y-75850043D01*
X130349479Y-76050520D01*
X130404679Y-76087403D01*
X130444203Y-76148825D01*
X130561163Y-76228741D01*
X130664901Y-76249748D01*
X130570298Y-76267549D01*
X130451175Y-76344203D01*
X130371259Y-76461163D01*
X130343144Y-76600000D01*
X130343144Y-76900000D01*
X130362651Y-77003671D01*
X130343144Y-77100000D01*
X130343144Y-77400000D01*
X130367549Y-77529702D01*
X130444203Y-77648825D01*
X130550000Y-77721114D01*
X130550000Y-79175000D01*
X130569995Y-79275520D01*
X130582351Y-79337641D01*
X130674480Y-79475520D01*
X130924996Y-79726037D01*
X130924996Y-80498528D01*
X130935338Y-80550520D01*
X130957347Y-80661169D01*
X131049476Y-80799048D01*
X131950952Y-81700525D01*
X132088831Y-81792653D01*
X132251472Y-81825004D01*
X138348964Y-81825004D01*
X138924480Y-82400520D01*
X139062359Y-82492649D01*
X139225000Y-82525000D01*
X139605822Y-82525000D01*
X139731324Y-82650722D01*
X139970140Y-82749887D01*
X140228726Y-82750112D01*
X140467714Y-82651364D01*
X140650722Y-82468676D01*
X140749887Y-82229860D01*
X140750112Y-81971274D01*
X140651364Y-81732286D01*
X140468676Y-81549278D01*
X140229860Y-81450113D01*
X140149956Y-81450043D01*
X140150112Y-81271274D01*
X140130992Y-81225000D01*
X140305822Y-81225000D01*
X140431324Y-81350722D01*
X140670140Y-81449887D01*
X140928726Y-81450112D01*
X141167714Y-81351364D01*
X141350722Y-81168676D01*
X141449887Y-80929860D01*
X141450112Y-80671274D01*
X141441322Y-80650000D01*
X141448960Y-80650000D01*
X142425000Y-81626041D01*
X142425000Y-82425000D01*
X142441641Y-82508658D01*
X142457351Y-82587641D01*
X142549480Y-82725520D01*
X143099479Y-83275520D01*
X143179762Y-83329163D01*
X143237360Y-83367649D01*
X143400000Y-83400000D01*
X143937785Y-83400000D01*
X143969203Y-83448825D01*
X144086163Y-83528741D01*
X144125000Y-83536606D01*
X144125000Y-83575000D01*
X144150000Y-83600000D01*
X145075000Y-83600000D01*
X145075000Y-83580000D01*
X145125000Y-83580000D01*
X145125000Y-83600000D01*
X146050000Y-83600000D01*
X146075000Y-83575000D01*
X146075000Y-83538040D01*
X146104702Y-83532451D01*
X146223825Y-83455797D01*
X146283490Y-83368475D01*
X146287641Y-83367649D01*
X146425520Y-83275520D01*
X146700521Y-83000520D01*
X146792649Y-82862641D01*
X146801626Y-82817512D01*
X146869255Y-82750000D01*
X150732000Y-82750000D01*
X150732000Y-83151891D01*
X150747224Y-83188646D01*
X150775355Y-83216776D01*
X150812109Y-83232000D01*
X151175500Y-83232000D01*
X151200500Y-83207000D01*
X151200500Y-82725000D01*
X151250500Y-82725000D01*
X151250500Y-83207000D01*
X151275500Y-83232000D01*
X151638891Y-83232000D01*
X151675645Y-83216776D01*
X151703776Y-83188646D01*
X151719000Y-83151891D01*
X151719000Y-82750000D01*
X151694000Y-82725000D01*
X151250500Y-82725000D01*
X151200500Y-82725000D01*
X150757000Y-82725000D01*
X150732000Y-82750000D01*
X146869255Y-82750000D01*
X146950722Y-82668676D01*
X147049887Y-82429860D01*
X147050045Y-82248109D01*
X150732000Y-82248109D01*
X150732000Y-82650000D01*
X150757000Y-82675000D01*
X151200500Y-82675000D01*
X151200500Y-82193000D01*
X151250500Y-82193000D01*
X151250500Y-82675000D01*
X151694000Y-82675000D01*
X151719000Y-82650000D01*
X151719000Y-82268000D01*
X152024144Y-82268000D01*
X152024144Y-83132000D01*
X152048549Y-83261702D01*
X152125203Y-83380825D01*
X152242163Y-83460741D01*
X152274500Y-83467289D01*
X152274500Y-83631183D01*
X152251298Y-83635549D01*
X152132175Y-83712203D01*
X152052259Y-83829163D01*
X152024144Y-83968000D01*
X152024144Y-84832000D01*
X152048549Y-84961702D01*
X152125203Y-85080825D01*
X152242163Y-85160741D01*
X152381000Y-85188856D01*
X153168000Y-85188856D01*
X153297702Y-85164451D01*
X153416825Y-85087797D01*
X153496741Y-84970837D01*
X153524856Y-84832000D01*
X153524856Y-84119666D01*
X153533007Y-84125112D01*
X153573158Y-84151940D01*
X153764500Y-84190000D01*
X155723388Y-84190000D01*
X155962693Y-84548145D01*
X156356413Y-84811220D01*
X156820838Y-84903600D01*
X157179162Y-84903600D01*
X157643587Y-84811220D01*
X158037307Y-84548145D01*
X158300382Y-84154425D01*
X158392762Y-83690000D01*
X158300382Y-83225575D01*
X158037307Y-82831855D01*
X158029144Y-82826400D01*
X165627144Y-82826400D01*
X165627144Y-84553600D01*
X165651549Y-84683302D01*
X165728203Y-84802425D01*
X165845163Y-84882341D01*
X165984000Y-84910456D01*
X168016000Y-84910456D01*
X168145702Y-84886051D01*
X168264825Y-84809397D01*
X168344741Y-84692437D01*
X168372856Y-84553600D01*
X168372856Y-82826400D01*
X168348451Y-82696698D01*
X168271797Y-82577575D01*
X168154837Y-82497659D01*
X168016000Y-82469544D01*
X165984000Y-82469544D01*
X165854298Y-82493949D01*
X165735175Y-82570603D01*
X165655259Y-82687563D01*
X165627144Y-82826400D01*
X158029144Y-82826400D01*
X157643587Y-82568780D01*
X157179162Y-82476400D01*
X156820838Y-82476400D01*
X156356413Y-82568780D01*
X155962693Y-82831855D01*
X155723388Y-83190000D01*
X153971607Y-83190000D01*
X153524856Y-82743250D01*
X153524856Y-82268000D01*
X153500451Y-82138298D01*
X153423797Y-82019175D01*
X153306837Y-81939259D01*
X153168000Y-81911144D01*
X152381000Y-81911144D01*
X152251298Y-81935549D01*
X152132175Y-82012203D01*
X152052259Y-82129163D01*
X152024144Y-82268000D01*
X151719000Y-82268000D01*
X151719000Y-82248109D01*
X151703776Y-82211354D01*
X151675645Y-82183224D01*
X151638891Y-82168000D01*
X151275500Y-82168000D01*
X151250500Y-82193000D01*
X151200500Y-82193000D01*
X151175500Y-82168000D01*
X150812109Y-82168000D01*
X150775355Y-82183224D01*
X150747224Y-82211354D01*
X150732000Y-82248109D01*
X147050045Y-82248109D01*
X147050112Y-82171274D01*
X146951364Y-81932286D01*
X146768676Y-81749278D01*
X146529860Y-81650113D01*
X146271274Y-81649888D01*
X146032286Y-81748636D01*
X145849278Y-81931324D01*
X145750113Y-82170140D01*
X145749919Y-82393144D01*
X144225000Y-82393144D01*
X144095298Y-82417549D01*
X143976175Y-82494203D01*
X143938050Y-82550000D01*
X143576041Y-82550000D01*
X143275000Y-82248960D01*
X143275000Y-81450000D01*
X143274978Y-81449887D01*
X143242649Y-81287359D01*
X143150521Y-81149480D01*
X141925520Y-79924480D01*
X141787641Y-79832351D01*
X141750679Y-79824999D01*
X141625000Y-79800000D01*
X136601041Y-79800000D01*
X136225000Y-79423960D01*
X136225000Y-77750000D01*
X136205380Y-77651364D01*
X136192649Y-77587359D01*
X136151360Y-77525565D01*
X136270140Y-77574887D01*
X136528726Y-77575112D01*
X136668144Y-77517506D01*
X136668144Y-77550000D01*
X136692549Y-77679702D01*
X136769203Y-77798825D01*
X136886163Y-77878741D01*
X137025000Y-77906856D01*
X138775000Y-77906856D01*
X138904702Y-77882451D01*
X139023825Y-77805797D01*
X139061950Y-77750000D01*
X142948960Y-77750000D01*
X143573960Y-78375000D01*
X143569178Y-78375000D01*
X143443676Y-78249278D01*
X143204860Y-78150113D01*
X142946274Y-78149888D01*
X142707286Y-78248636D01*
X142524278Y-78431324D01*
X142425113Y-78670140D01*
X142424888Y-78928726D01*
X142523636Y-79167714D01*
X142706324Y-79350722D01*
X142945140Y-79449887D01*
X143203726Y-79450112D01*
X143442714Y-79351364D01*
X143475144Y-79318991D01*
X143475144Y-79832000D01*
X143499549Y-79961702D01*
X143576203Y-80080825D01*
X143693163Y-80160741D01*
X143832000Y-80188856D01*
X144619000Y-80188856D01*
X144748702Y-80164451D01*
X144867825Y-80087797D01*
X144947741Y-79970837D01*
X144975856Y-79832000D01*
X144975856Y-78968000D01*
X144960535Y-78886575D01*
X145027144Y-78953184D01*
X145024144Y-78968000D01*
X145024144Y-79832000D01*
X145048549Y-79961702D01*
X145125203Y-80080825D01*
X145242163Y-80160741D01*
X145381000Y-80188856D01*
X146168000Y-80188856D01*
X146297702Y-80164451D01*
X146416825Y-80087797D01*
X146496741Y-79970837D01*
X146524856Y-79832000D01*
X146524856Y-79825000D01*
X147480734Y-79825000D01*
X147556324Y-79900722D01*
X147795140Y-79999887D01*
X148053726Y-80000112D01*
X148292714Y-79901364D01*
X148475722Y-79718676D01*
X148574887Y-79479860D01*
X148575112Y-79221274D01*
X148476364Y-78982286D01*
X148293676Y-78799278D01*
X148054860Y-78700113D01*
X147796274Y-78699888D01*
X147557286Y-78798636D01*
X147380613Y-78975000D01*
X146524856Y-78975000D01*
X146524856Y-78968000D01*
X146500451Y-78838298D01*
X146423797Y-78719175D01*
X146306837Y-78639259D01*
X146168000Y-78611144D01*
X145887184Y-78611144D01*
X145525000Y-78248960D01*
X145525000Y-77906856D01*
X145975000Y-77906856D01*
X146104702Y-77882451D01*
X146223825Y-77805797D01*
X146303741Y-77688837D01*
X146331856Y-77550000D01*
X146331856Y-77100000D01*
X146312349Y-76996329D01*
X146331856Y-76900000D01*
X146331856Y-76450000D01*
X146312349Y-76346329D01*
X146322106Y-76298146D01*
X146450000Y-76426040D01*
X146450000Y-77175000D01*
X146466641Y-77258658D01*
X146482351Y-77337641D01*
X146574480Y-77475520D01*
X146849480Y-77750521D01*
X146987359Y-77842649D01*
X146993144Y-77843800D01*
X146993144Y-77900000D01*
X147017549Y-78029702D01*
X147094203Y-78148825D01*
X147211163Y-78228741D01*
X147350000Y-78256856D01*
X149050000Y-78256856D01*
X149179702Y-78232451D01*
X149298825Y-78155797D01*
X149378741Y-78038837D01*
X149406856Y-77900000D01*
X149406856Y-77000000D01*
X149382451Y-76870298D01*
X149305797Y-76751175D01*
X149188837Y-76671259D01*
X149050000Y-76643144D01*
X148344185Y-76643144D01*
X148107441Y-76406400D01*
X155627144Y-76406400D01*
X155627144Y-78133600D01*
X155651549Y-78263302D01*
X155728203Y-78382425D01*
X155845163Y-78462341D01*
X155984000Y-78490456D01*
X158016000Y-78490456D01*
X158145702Y-78466051D01*
X158203085Y-78429126D01*
X159574479Y-79800520D01*
X159622118Y-79832351D01*
X159712360Y-79892649D01*
X159875000Y-79925000D01*
X164310000Y-79925000D01*
X164445657Y-79898016D01*
X164472641Y-79892649D01*
X164610520Y-79800520D01*
X166459346Y-77951695D01*
X166820838Y-78023600D01*
X167179162Y-78023600D01*
X167643587Y-77931220D01*
X168037307Y-77668145D01*
X168300382Y-77274425D01*
X168392762Y-76810000D01*
X168300382Y-76345575D01*
X168037307Y-75951855D01*
X167643587Y-75688780D01*
X167179162Y-75596400D01*
X166820838Y-75596400D01*
X166356413Y-75688780D01*
X165962693Y-75951855D01*
X165699618Y-76345575D01*
X165607238Y-76810000D01*
X165699618Y-77274425D01*
X165793712Y-77415247D01*
X164133960Y-79075000D01*
X160051041Y-79075000D01*
X158372856Y-77396816D01*
X158372856Y-76406400D01*
X158348451Y-76276698D01*
X158271797Y-76157575D01*
X158154837Y-76077659D01*
X158016000Y-76049544D01*
X155984000Y-76049544D01*
X155854298Y-76073949D01*
X155735175Y-76150603D01*
X155655259Y-76267563D01*
X155627144Y-76406400D01*
X148107441Y-76406400D01*
X147984277Y-76283236D01*
X148035657Y-76273016D01*
X148062641Y-76267649D01*
X148200520Y-76175520D01*
X148500520Y-75875520D01*
X148592649Y-75737641D01*
X148605212Y-75674480D01*
X148625000Y-75575000D01*
X148625000Y-75356856D01*
X149050000Y-75356856D01*
X149179702Y-75332451D01*
X149298825Y-75255797D01*
X149378741Y-75138837D01*
X149406856Y-75000000D01*
X149406856Y-74730000D01*
X155607238Y-74730000D01*
X155699618Y-75194425D01*
X155962693Y-75588145D01*
X156356413Y-75851220D01*
X156820838Y-75943600D01*
X157179162Y-75943600D01*
X157643587Y-75851220D01*
X158037307Y-75588145D01*
X158300382Y-75194425D01*
X158392762Y-74730000D01*
X158300382Y-74265575D01*
X158037307Y-73871855D01*
X157643587Y-73608780D01*
X157179162Y-73516400D01*
X156820838Y-73516400D01*
X156356413Y-73608780D01*
X155962693Y-73871855D01*
X155699618Y-74265575D01*
X155607238Y-74730000D01*
X149406856Y-74730000D01*
X149406856Y-74100000D01*
X149382451Y-73970298D01*
X149305797Y-73851175D01*
X149188837Y-73771259D01*
X149050000Y-73743144D01*
X147350000Y-73743144D01*
X147220298Y-73767549D01*
X147101175Y-73844203D01*
X147048027Y-73921987D01*
X146331856Y-73205816D01*
X146331856Y-73200000D01*
X146307451Y-73070298D01*
X146230797Y-72951175D01*
X146229078Y-72950000D01*
X150732000Y-72950000D01*
X150732000Y-73351891D01*
X150747224Y-73388646D01*
X150775355Y-73416776D01*
X150812109Y-73432000D01*
X151175500Y-73432000D01*
X151200500Y-73407000D01*
X151200500Y-72925000D01*
X151250500Y-72925000D01*
X151250500Y-73407000D01*
X151275500Y-73432000D01*
X151638891Y-73432000D01*
X151675645Y-73416776D01*
X151703776Y-73388646D01*
X151719000Y-73351891D01*
X151719000Y-72950000D01*
X151694000Y-72925000D01*
X151250500Y-72925000D01*
X151200500Y-72925000D01*
X150757000Y-72925000D01*
X150732000Y-72950000D01*
X146229078Y-72950000D01*
X146113837Y-72871259D01*
X146075000Y-72863394D01*
X146075000Y-72825000D01*
X146050000Y-72800000D01*
X145125000Y-72800000D01*
X145125000Y-72820000D01*
X145075000Y-72820000D01*
X145075000Y-72800000D01*
X144150000Y-72800000D01*
X144125000Y-72825000D01*
X144125000Y-72861960D01*
X144095298Y-72867549D01*
X143976175Y-72944203D01*
X143896259Y-73061163D01*
X143868144Y-73200000D01*
X143868144Y-73650000D01*
X143887651Y-73753671D01*
X143868144Y-73850000D01*
X143868144Y-74300000D01*
X143887651Y-74403671D01*
X143868144Y-74500000D01*
X143868144Y-74950000D01*
X143887651Y-75053671D01*
X143868144Y-75150000D01*
X143868144Y-75413676D01*
X143654860Y-75325113D01*
X143500000Y-75324978D01*
X143500112Y-75196274D01*
X143401364Y-74957286D01*
X143218676Y-74774278D01*
X142979860Y-74675113D01*
X142721274Y-74674888D01*
X142482286Y-74773636D01*
X142299278Y-74956324D01*
X142200113Y-75195140D01*
X142199888Y-75453726D01*
X142298636Y-75692714D01*
X142425000Y-75819299D01*
X142425000Y-76375000D01*
X142442139Y-76461163D01*
X142457351Y-76537641D01*
X142549480Y-76675520D01*
X142773960Y-76900000D01*
X141476040Y-76900000D01*
X141975521Y-76400520D01*
X142067649Y-76262641D01*
X142100000Y-76100000D01*
X142100000Y-72819178D01*
X142225722Y-72693676D01*
X142324887Y-72454860D01*
X142325112Y-72196274D01*
X142316322Y-72175000D01*
X144125000Y-72175000D01*
X144125000Y-72369891D01*
X144140224Y-72406646D01*
X144168355Y-72434776D01*
X144205109Y-72450000D01*
X144168355Y-72465224D01*
X144140224Y-72493354D01*
X144125000Y-72530109D01*
X144125000Y-72725000D01*
X144150000Y-72750000D01*
X145075000Y-72750000D01*
X145075000Y-72475000D01*
X145050000Y-72450000D01*
X145075000Y-72425000D01*
X145075000Y-72150000D01*
X145125000Y-72150000D01*
X145125000Y-72425000D01*
X145150000Y-72450000D01*
X145125000Y-72475000D01*
X145125000Y-72750000D01*
X146050000Y-72750000D01*
X146075000Y-72725000D01*
X146075000Y-72530109D01*
X146059776Y-72493354D01*
X146031645Y-72465224D01*
X145994891Y-72450000D01*
X145999456Y-72448109D01*
X150732000Y-72448109D01*
X150732000Y-72850000D01*
X150757000Y-72875000D01*
X151200500Y-72875000D01*
X151200500Y-72393000D01*
X151250500Y-72393000D01*
X151250500Y-72875000D01*
X151694000Y-72875000D01*
X151719000Y-72850000D01*
X151719000Y-72448109D01*
X151703776Y-72411354D01*
X151675645Y-72383224D01*
X151638891Y-72368000D01*
X151275500Y-72368000D01*
X151250500Y-72393000D01*
X151200500Y-72393000D01*
X151175500Y-72368000D01*
X150812109Y-72368000D01*
X150775355Y-72383224D01*
X150747224Y-72411354D01*
X150732000Y-72448109D01*
X145999456Y-72448109D01*
X146031645Y-72434776D01*
X146059776Y-72406646D01*
X146075000Y-72369891D01*
X146075000Y-72175000D01*
X146050000Y-72150000D01*
X145125000Y-72150000D01*
X145075000Y-72150000D01*
X144150000Y-72150000D01*
X144125000Y-72175000D01*
X142316322Y-72175000D01*
X142226364Y-71957286D01*
X142043676Y-71774278D01*
X141804860Y-71675113D01*
X141546274Y-71674888D01*
X141307286Y-71773636D01*
X141124278Y-71956324D01*
X141025113Y-72195140D01*
X141024888Y-72453726D01*
X141123636Y-72692714D01*
X141250000Y-72819299D01*
X141250000Y-74930744D01*
X141168676Y-74849278D01*
X140929860Y-74750113D01*
X140749957Y-74749956D01*
X140750112Y-74571274D01*
X140651364Y-74332286D01*
X140468676Y-74149278D01*
X140229860Y-74050113D01*
X139971274Y-74049888D01*
X139732286Y-74148636D01*
X139580657Y-74300000D01*
X139131856Y-74300000D01*
X139131856Y-73950943D01*
X139370140Y-74049887D01*
X139628726Y-74050112D01*
X139867714Y-73951364D01*
X140050722Y-73768676D01*
X140149887Y-73529860D01*
X140150112Y-73271274D01*
X140051364Y-73032286D01*
X139994239Y-72975061D01*
X140050722Y-72918676D01*
X140149887Y-72679860D01*
X140150112Y-72421274D01*
X140051364Y-72182286D01*
X139868676Y-71999278D01*
X139629860Y-71900113D01*
X139371274Y-71899888D01*
X139132286Y-71998636D01*
X139131856Y-71999065D01*
X139131856Y-71900000D01*
X139112349Y-71796329D01*
X139131856Y-71700000D01*
X139131856Y-71250000D01*
X139127152Y-71225000D01*
X142873960Y-71225000D01*
X143424480Y-71775520D01*
X143562359Y-71867649D01*
X143589343Y-71873016D01*
X143725000Y-71900000D01*
X143937785Y-71900000D01*
X143969203Y-71948825D01*
X144086163Y-72028741D01*
X144125000Y-72036606D01*
X144125000Y-72075000D01*
X144150000Y-72100000D01*
X145075000Y-72100000D01*
X145075000Y-72080000D01*
X145125000Y-72080000D01*
X145125000Y-72100000D01*
X146050000Y-72100000D01*
X146075000Y-72075000D01*
X146075000Y-72038040D01*
X146104702Y-72032451D01*
X146223825Y-71955797D01*
X146303741Y-71838837D01*
X146331856Y-71700000D01*
X146331856Y-71250000D01*
X150732000Y-71250000D01*
X150732000Y-71651891D01*
X150747224Y-71688646D01*
X150775355Y-71716776D01*
X150812109Y-71732000D01*
X151175500Y-71732000D01*
X151200500Y-71707000D01*
X151200500Y-71225000D01*
X151250500Y-71225000D01*
X151250500Y-71707000D01*
X151275500Y-71732000D01*
X151638891Y-71732000D01*
X151675645Y-71716776D01*
X151703776Y-71688646D01*
X151719000Y-71651891D01*
X151719000Y-71250000D01*
X151694000Y-71225000D01*
X151250500Y-71225000D01*
X151200500Y-71225000D01*
X150757000Y-71225000D01*
X150732000Y-71250000D01*
X146331856Y-71250000D01*
X146307451Y-71120298D01*
X146230797Y-71001175D01*
X146113837Y-70921259D01*
X145975000Y-70893144D01*
X144225000Y-70893144D01*
X144095298Y-70917549D01*
X143976175Y-70994203D01*
X143938050Y-71050000D01*
X143901040Y-71050000D01*
X143599149Y-70748109D01*
X150732000Y-70748109D01*
X150732000Y-71150000D01*
X150757000Y-71175000D01*
X151200500Y-71175000D01*
X151200500Y-70693000D01*
X151250500Y-70693000D01*
X151250500Y-71175000D01*
X151694000Y-71175000D01*
X151719000Y-71150000D01*
X151719000Y-70748109D01*
X151703776Y-70711354D01*
X151675645Y-70683224D01*
X151638891Y-70668000D01*
X151275500Y-70668000D01*
X151250500Y-70693000D01*
X151200500Y-70693000D01*
X151175500Y-70668000D01*
X150812109Y-70668000D01*
X150775355Y-70683224D01*
X150747224Y-70711354D01*
X150732000Y-70748109D01*
X143599149Y-70748109D01*
X143350520Y-70499480D01*
X143239054Y-70425000D01*
X152307361Y-70425000D01*
X152251298Y-70435549D01*
X152132175Y-70512203D01*
X152052259Y-70629163D01*
X152024144Y-70768000D01*
X152024144Y-71632000D01*
X152048549Y-71761702D01*
X152125203Y-71880825D01*
X152242163Y-71960741D01*
X152274500Y-71967289D01*
X152274500Y-72131183D01*
X152251298Y-72135549D01*
X152132175Y-72212203D01*
X152052259Y-72329163D01*
X152024144Y-72468000D01*
X152024144Y-73332000D01*
X152048549Y-73461702D01*
X152125203Y-73580825D01*
X152242163Y-73660741D01*
X152381000Y-73688856D01*
X153168000Y-73688856D01*
X153297702Y-73664451D01*
X153416825Y-73587797D01*
X153496741Y-73470837D01*
X153524856Y-73332000D01*
X153524856Y-72690000D01*
X155723388Y-72690000D01*
X155962693Y-73048145D01*
X156356413Y-73311220D01*
X156820838Y-73403600D01*
X157179162Y-73403600D01*
X157643587Y-73311220D01*
X158037307Y-73048145D01*
X158300382Y-72654425D01*
X158392762Y-72190000D01*
X158300382Y-71725575D01*
X158037307Y-71331855D01*
X157643587Y-71068780D01*
X157179162Y-70976400D01*
X156820838Y-70976400D01*
X156356413Y-71068780D01*
X155962693Y-71331855D01*
X155723388Y-71690000D01*
X153691607Y-71690000D01*
X153524856Y-71523249D01*
X153524856Y-70768000D01*
X153500451Y-70638298D01*
X153423797Y-70519175D01*
X153306837Y-70439259D01*
X153236423Y-70425000D01*
X163500000Y-70425000D01*
X163541053Y-70416834D01*
X163582913Y-70416834D01*
X163774255Y-70378774D01*
X163774257Y-70378773D01*
X163774258Y-70378773D01*
X163927461Y-70315314D01*
X164089672Y-70206927D01*
X164148299Y-70148299D01*
X164206927Y-70089672D01*
X164315313Y-69927461D01*
X164315314Y-69927459D01*
X164315315Y-69927458D01*
X164378774Y-69774255D01*
X164416834Y-69582912D01*
X164416834Y-69541053D01*
X164425000Y-69500000D01*
X164425000Y-68500000D01*
X165627144Y-68500000D01*
X165627144Y-69096816D01*
X165627144Y-69096816D01*
G37*
X165627144Y-69096816D02*
X164198960Y-70525000D01*
X162825000Y-70525000D01*
X162662360Y-70557351D01*
X162662358Y-70557352D01*
X162662359Y-70557352D01*
X162524479Y-70649480D01*
X161523917Y-71650043D01*
X161346274Y-71649888D01*
X161107286Y-71748636D01*
X160924278Y-71931324D01*
X160825113Y-72170140D01*
X160824888Y-72428726D01*
X160923636Y-72667714D01*
X161106324Y-72850722D01*
X161345140Y-72949887D01*
X161603726Y-72950112D01*
X161842714Y-72851364D01*
X162025722Y-72668676D01*
X162124887Y-72429860D01*
X162125043Y-72250998D01*
X163001041Y-71375000D01*
X163676014Y-71375000D01*
X163594480Y-71429480D01*
X162274480Y-72749480D01*
X162182351Y-72887359D01*
X162182351Y-72887360D01*
X162150000Y-73050000D01*
X162150000Y-76605822D01*
X162024278Y-76731324D01*
X161925113Y-76970140D01*
X161924888Y-77228726D01*
X162023636Y-77467714D01*
X162206324Y-77650722D01*
X162445140Y-77749887D01*
X162703726Y-77750112D01*
X162942714Y-77651364D01*
X163125722Y-77468676D01*
X163224887Y-77229860D01*
X163225112Y-76971274D01*
X163126364Y-76732286D01*
X163000000Y-76605701D01*
X163000000Y-75894299D01*
X163056324Y-75950722D01*
X163295140Y-76049887D01*
X163553726Y-76050112D01*
X163792714Y-75951364D01*
X163975722Y-75768676D01*
X164074887Y-75529860D01*
X164075043Y-75350998D01*
X164731041Y-74695000D01*
X165691776Y-74695000D01*
X165699618Y-74734425D01*
X165962693Y-75128145D01*
X166356413Y-75391220D01*
X166820838Y-75483600D01*
X167179162Y-75483600D01*
X167643587Y-75391220D01*
X168037307Y-75128145D01*
X168300382Y-74734425D01*
X168392762Y-74270000D01*
X168300382Y-73805575D01*
X168037307Y-73411855D01*
X167643587Y-73148780D01*
X167179162Y-73056400D01*
X166820838Y-73056400D01*
X166356413Y-73148780D01*
X165962693Y-73411855D01*
X165699618Y-73805575D01*
X165691776Y-73845000D01*
X164555000Y-73845000D01*
X164392360Y-73877351D01*
X164392358Y-73877352D01*
X164392359Y-73877352D01*
X164254479Y-73969480D01*
X163473917Y-74750043D01*
X163296274Y-74749888D01*
X163057286Y-74848636D01*
X163000000Y-74905822D01*
X163000000Y-73226040D01*
X164071040Y-72155000D01*
X165691776Y-72155000D01*
X165699618Y-72194425D01*
X165962693Y-72588145D01*
X166356413Y-72851220D01*
X166820838Y-72943600D01*
X167179162Y-72943600D01*
X167643587Y-72851220D01*
X168037307Y-72588145D01*
X168300382Y-72194425D01*
X168392762Y-71730000D01*
X168300382Y-71265575D01*
X168037307Y-70871855D01*
X167643587Y-70608780D01*
X167179162Y-70516400D01*
X166820838Y-70516400D01*
X166356413Y-70608780D01*
X165962693Y-70871855D01*
X165699618Y-71265575D01*
X165691776Y-71305000D01*
X164593986Y-71305000D01*
X164675520Y-71250520D01*
X165687253Y-70238787D01*
X165728203Y-70302425D01*
X165845163Y-70382341D01*
X165984000Y-70410456D01*
X168016000Y-70410456D01*
X168145702Y-70386051D01*
X168264825Y-70309397D01*
X168344741Y-70192437D01*
X168372856Y-70053600D01*
X168372856Y-68500000D01*
X175300000Y-68500000D01*
X175300000Y-93075000D01*
X161100000Y-93075000D01*
X161058947Y-93083166D01*
X161017087Y-93083166D01*
X160653538Y-93155480D01*
X160500334Y-93218939D01*
X160500333Y-93218940D01*
X160192133Y-93424873D01*
X160074875Y-93542131D01*
X159868940Y-93850333D01*
X159868940Y-93850334D01*
X159868939Y-93850335D01*
X159805480Y-94003538D01*
X159741538Y-94325000D01*
X151975000Y-94325000D01*
X151936094Y-94332879D01*
X151903319Y-94355273D01*
X151881839Y-94388654D01*
X151875000Y-94425000D01*
X151875000Y-96310205D01*
X151850113Y-96370140D01*
X151849888Y-96628726D01*
X151875000Y-96689502D01*
X151875000Y-97518017D01*
X151845499Y-97561193D01*
X151837634Y-97600030D01*
X151551140Y-97600030D01*
X151526140Y-97625030D01*
X151526140Y-99975000D01*
X151546140Y-99975000D01*
X151546140Y-100025000D01*
X151526140Y-100025000D01*
X151526140Y-100045000D01*
X151476140Y-100045000D01*
X151476140Y-100025000D01*
X151101020Y-100025000D01*
X151076020Y-100050000D01*
X151076020Y-102220746D01*
X151074533Y-102224532D01*
X151076020Y-102305174D01*
X151076020Y-102319861D01*
X151076303Y-102320545D01*
X151077651Y-102393626D01*
X151136361Y-102535365D01*
X151195187Y-102571838D01*
X151367055Y-102399970D01*
X151437765Y-102399970D01*
X151230542Y-102607193D01*
X151267015Y-102666019D01*
X151424432Y-102727847D01*
X151593526Y-102724729D01*
X151735265Y-102666019D01*
X151771738Y-102607193D01*
X151564515Y-102399970D01*
X151635225Y-102399970D01*
X151807093Y-102571838D01*
X151865679Y-102535514D01*
X151875000Y-102558072D01*
X151875000Y-102875000D01*
X149391860Y-102875000D01*
X149377797Y-102872203D01*
X149375000Y-102858140D01*
X149375000Y-102709029D01*
X149422912Y-102727847D01*
X149592006Y-102724729D01*
X149733745Y-102666019D01*
X149770218Y-102607193D01*
X149562995Y-102399970D01*
X149633705Y-102399970D01*
X149805573Y-102571838D01*
X149864399Y-102535365D01*
X149926227Y-102377948D01*
X149924740Y-102297306D01*
X149924740Y-102224532D01*
X150073773Y-102224532D01*
X150075260Y-102305174D01*
X150075260Y-102319861D01*
X150075543Y-102320545D01*
X150076891Y-102393626D01*
X150135601Y-102535365D01*
X150194427Y-102571838D01*
X150366295Y-102399970D01*
X150437005Y-102399970D01*
X150229782Y-102607193D01*
X150266255Y-102666019D01*
X150423672Y-102727847D01*
X150592766Y-102724729D01*
X150734505Y-102666019D01*
X150770978Y-102607193D01*
X150563755Y-102399970D01*
X150634465Y-102399970D01*
X150806333Y-102571838D01*
X150865159Y-102535365D01*
X150926987Y-102377948D01*
X150925500Y-102297306D01*
X150925500Y-100050000D01*
X150900500Y-100025000D01*
X150525380Y-100025000D01*
X150525380Y-100045000D01*
X150475380Y-100045000D01*
X150475380Y-100025000D01*
X150100260Y-100025000D01*
X150075260Y-100050000D01*
X150075260Y-102220746D01*
X150073773Y-102224532D01*
X149924740Y-102224532D01*
X149924740Y-100050000D01*
X149899740Y-100025000D01*
X149524620Y-100025000D01*
X149524620Y-100045000D01*
X149474620Y-100045000D01*
X149474620Y-100025000D01*
X149454620Y-100025000D01*
X149454620Y-99975000D01*
X149474620Y-99975000D01*
X149474620Y-97625030D01*
X149524620Y-97625030D01*
X149524620Y-99975000D01*
X149899740Y-99975000D01*
X149924740Y-99950000D01*
X149924740Y-97680139D01*
X150075260Y-97680139D01*
X150075260Y-99950000D01*
X150100260Y-99975000D01*
X150475380Y-99975000D01*
X150475380Y-97625030D01*
X150525380Y-97625030D01*
X150525380Y-99975000D01*
X150900500Y-99975000D01*
X150925500Y-99950000D01*
X150925500Y-97680139D01*
X151076020Y-97680139D01*
X151076020Y-99950000D01*
X151101020Y-99975000D01*
X151476140Y-99975000D01*
X151476140Y-97625030D01*
X151451140Y-97600030D01*
X151156129Y-97600030D01*
X151119375Y-97615254D01*
X151091244Y-97643384D01*
X151076020Y-97680139D01*
X150925500Y-97680139D01*
X150910276Y-97643384D01*
X150882145Y-97615254D01*
X150845391Y-97600030D01*
X150550380Y-97600030D01*
X150525380Y-97625030D01*
X150475380Y-97625030D01*
X150450380Y-97600030D01*
X150155369Y-97600030D01*
X150118615Y-97615254D01*
X150090484Y-97643384D01*
X150075260Y-97680139D01*
X149924740Y-97680139D01*
X149909516Y-97643384D01*
X149881385Y-97615254D01*
X149844631Y-97600030D01*
X149549620Y-97600030D01*
X149524620Y-97625030D01*
X149474620Y-97625030D01*
X149449620Y-97600030D01*
X149375000Y-97600030D01*
X149375000Y-94450000D01*
X149366834Y-94408947D01*
X149366834Y-94367087D01*
X149294520Y-94003538D01*
X149231061Y-93850334D01*
X149231060Y-93850333D01*
X149025125Y-93542131D01*
X148907867Y-93424873D01*
X148599667Y-93218940D01*
X148527038Y-93188856D01*
X148446462Y-93155480D01*
X148082913Y-93083166D01*
X147917087Y-93083166D01*
X147553538Y-93155480D01*
X147400334Y-93218939D01*
X147400333Y-93218940D01*
X147092133Y-93424873D01*
X146974875Y-93542131D01*
X146768940Y-93850333D01*
X146768940Y-93850334D01*
X146768939Y-93850335D01*
X146705480Y-94003538D01*
X146643114Y-94317074D01*
X144014896Y-91688856D01*
X144619000Y-91688856D01*
X144748702Y-91664451D01*
X144867825Y-91587797D01*
X144947741Y-91470837D01*
X144975856Y-91332000D01*
X144975856Y-90468000D01*
X144951451Y-90338298D01*
X144874797Y-90219175D01*
X144757837Y-90139259D01*
X144619000Y-90111144D01*
X144412184Y-90111144D01*
X143624957Y-89323917D01*
X143625112Y-89146274D01*
X143526364Y-88907286D01*
X143343676Y-88724278D01*
X143104860Y-88625113D01*
X142925997Y-88624957D01*
X142825520Y-88524480D01*
X142687641Y-88432351D01*
X142660657Y-88426984D01*
X142525000Y-88400000D01*
X141251040Y-88400000D01*
X142200520Y-87450520D01*
X142292649Y-87312641D01*
X142325000Y-87150000D01*
X142325000Y-86619168D01*
X142400000Y-86694299D01*
X142400000Y-87625000D01*
X142417405Y-87712500D01*
X142432351Y-87787641D01*
X142524480Y-87925520D01*
X143074479Y-88475520D01*
X143155569Y-88529702D01*
X143212360Y-88567649D01*
X143375000Y-88600000D01*
X143868144Y-88600000D01*
X143868144Y-89050000D01*
X143892549Y-89179702D01*
X143969203Y-89298825D01*
X144086163Y-89378741D01*
X144225000Y-89406856D01*
X144696255Y-89406856D01*
X144707351Y-89462641D01*
X144799480Y-89600520D01*
X145321331Y-90122371D01*
X145251298Y-90135549D01*
X145132175Y-90212203D01*
X145052259Y-90329163D01*
X145024144Y-90468000D01*
X145024144Y-91332000D01*
X145048549Y-91461702D01*
X145125203Y-91580825D01*
X145242163Y-91660741D01*
X145381000Y-91688856D01*
X146168000Y-91688856D01*
X146297702Y-91664451D01*
X146416825Y-91587797D01*
X146496741Y-91470837D01*
X146524856Y-91332000D01*
X146524856Y-91325000D01*
X147249316Y-91325000D01*
X147375000Y-91350000D01*
X147500684Y-91325000D01*
X149050000Y-91325000D01*
X149185657Y-91298016D01*
X149212641Y-91292649D01*
X149350520Y-91200520D01*
X149651083Y-90899957D01*
X149828726Y-90900112D01*
X150067714Y-90801364D01*
X150250722Y-90618676D01*
X150349887Y-90379860D01*
X150350112Y-90121274D01*
X150251364Y-89882286D01*
X150068676Y-89699278D01*
X149829860Y-89600113D01*
X149571274Y-89599888D01*
X149332286Y-89698636D01*
X149149278Y-89881324D01*
X149050113Y-90120140D01*
X149049957Y-90299002D01*
X148873960Y-90475000D01*
X146524856Y-90475000D01*
X146524856Y-90468000D01*
X146500451Y-90338298D01*
X146423797Y-90219175D01*
X146306837Y-90139259D01*
X146199500Y-90117523D01*
X146199500Y-89974500D01*
X146167149Y-89811860D01*
X146167149Y-89811859D01*
X146075020Y-89673980D01*
X145807896Y-89406856D01*
X145975000Y-89406856D01*
X146104702Y-89382451D01*
X146223825Y-89305797D01*
X146303741Y-89188837D01*
X146331856Y-89050000D01*
X146331856Y-88600000D01*
X146312349Y-88496329D01*
X146331856Y-88400000D01*
X146331856Y-87950000D01*
X146312349Y-87846329D01*
X146331856Y-87750000D01*
X146331856Y-87582897D01*
X146500000Y-87751041D01*
X146500000Y-88750000D01*
X146523897Y-88870140D01*
X146532351Y-88912641D01*
X146624480Y-89050520D01*
X146824480Y-89250521D01*
X146962359Y-89342649D01*
X146993144Y-89348772D01*
X146993144Y-89400000D01*
X147017549Y-89529702D01*
X147094203Y-89648825D01*
X147211163Y-89728741D01*
X147350000Y-89756856D01*
X149050000Y-89756856D01*
X149179702Y-89732451D01*
X149298825Y-89655797D01*
X149378741Y-89538837D01*
X149406856Y-89400000D01*
X149406856Y-88953726D01*
X153574888Y-88953726D01*
X153673636Y-89192714D01*
X153856324Y-89375722D01*
X154095140Y-89474887D01*
X154353726Y-89475112D01*
X154592714Y-89376364D01*
X154774396Y-89195000D01*
X155627144Y-89195000D01*
X155627144Y-89633600D01*
X155651549Y-89763302D01*
X155728203Y-89882425D01*
X155845163Y-89962341D01*
X155984000Y-89990456D01*
X158016000Y-89990456D01*
X158145702Y-89966051D01*
X158264825Y-89889397D01*
X158344741Y-89772437D01*
X158372856Y-89633600D01*
X158372856Y-89195000D01*
X162193960Y-89195000D01*
X164609479Y-91610520D01*
X164690193Y-91664451D01*
X164747360Y-91702649D01*
X164910000Y-91735000D01*
X165691776Y-91735000D01*
X165699618Y-91774425D01*
X165962693Y-92168145D01*
X166356413Y-92431220D01*
X166820838Y-92523600D01*
X167179162Y-92523600D01*
X167643587Y-92431220D01*
X168037307Y-92168145D01*
X168300382Y-91774425D01*
X168392762Y-91310000D01*
X168300382Y-90845575D01*
X168037307Y-90451855D01*
X167643587Y-90188780D01*
X167179162Y-90096400D01*
X166820838Y-90096400D01*
X166356413Y-90188780D01*
X165962693Y-90451855D01*
X165699618Y-90845575D01*
X165691776Y-90885000D01*
X165086041Y-90885000D01*
X162971041Y-88770000D01*
X165607238Y-88770000D01*
X165699618Y-89234425D01*
X165962693Y-89628145D01*
X166356413Y-89891220D01*
X166820838Y-89983600D01*
X167179162Y-89983600D01*
X167643587Y-89891220D01*
X168037307Y-89628145D01*
X168300382Y-89234425D01*
X168392762Y-88770000D01*
X168300382Y-88305575D01*
X168037307Y-87911855D01*
X167643587Y-87648780D01*
X167179162Y-87556400D01*
X166820838Y-87556400D01*
X166356413Y-87648780D01*
X165962693Y-87911855D01*
X165699618Y-88305575D01*
X165607238Y-88770000D01*
X162971041Y-88770000D01*
X162670520Y-88469480D01*
X162532641Y-88377351D01*
X162497182Y-88370298D01*
X162370000Y-88345000D01*
X158372856Y-88345000D01*
X158372856Y-87906400D01*
X158348451Y-87776698D01*
X158271797Y-87657575D01*
X158154837Y-87577659D01*
X158016000Y-87549544D01*
X155984000Y-87549544D01*
X155854298Y-87573949D01*
X155735175Y-87650603D01*
X155655259Y-87767563D01*
X155627144Y-87906400D01*
X155627144Y-88345000D01*
X154664274Y-88345000D01*
X154593676Y-88274278D01*
X154354860Y-88175113D01*
X154096274Y-88174888D01*
X153857286Y-88273636D01*
X153674278Y-88456324D01*
X153575113Y-88695140D01*
X153574888Y-88953726D01*
X149406856Y-88953726D01*
X149406856Y-88500000D01*
X149382451Y-88370298D01*
X149305797Y-88251175D01*
X149188837Y-88171259D01*
X149050000Y-88143144D01*
X148593800Y-88143144D01*
X148592649Y-88137360D01*
X148592649Y-88137359D01*
X148500520Y-87999480D01*
X148000867Y-87499827D01*
X148135657Y-87473016D01*
X148162641Y-87467649D01*
X148300520Y-87375520D01*
X148500521Y-87175520D01*
X148592649Y-87037641D01*
X148625000Y-86875000D01*
X148625000Y-86856856D01*
X149050000Y-86856856D01*
X149179702Y-86832451D01*
X149298825Y-86755797D01*
X149378741Y-86638837D01*
X149406856Y-86500000D01*
X149406856Y-86230000D01*
X155607238Y-86230000D01*
X155699618Y-86694425D01*
X155962693Y-87088145D01*
X156356413Y-87351220D01*
X156820838Y-87443600D01*
X157179162Y-87443600D01*
X157643587Y-87351220D01*
X158037307Y-87088145D01*
X158300382Y-86694425D01*
X158392762Y-86230000D01*
X165607238Y-86230000D01*
X165699618Y-86694425D01*
X165962693Y-87088145D01*
X166356413Y-87351220D01*
X166820838Y-87443600D01*
X167179162Y-87443600D01*
X167643587Y-87351220D01*
X168037307Y-87088145D01*
X168300382Y-86694425D01*
X168392762Y-86230000D01*
X168300382Y-85765575D01*
X168037307Y-85371855D01*
X167643587Y-85108780D01*
X167179162Y-85016400D01*
X166820838Y-85016400D01*
X166356413Y-85108780D01*
X165962693Y-85371855D01*
X165699618Y-85765575D01*
X165607238Y-86230000D01*
X158392762Y-86230000D01*
X158300382Y-85765575D01*
X158037307Y-85371855D01*
X157643587Y-85108780D01*
X157179162Y-85016400D01*
X156820838Y-85016400D01*
X156356413Y-85108780D01*
X155962693Y-85371855D01*
X155699618Y-85765575D01*
X155607238Y-86230000D01*
X149406856Y-86230000D01*
X149406856Y-85600000D01*
X149382451Y-85470298D01*
X149305797Y-85351175D01*
X149188837Y-85271259D01*
X149050000Y-85243144D01*
X147350000Y-85243144D01*
X147220298Y-85267549D01*
X147101175Y-85344203D01*
X147088619Y-85362579D01*
X146350520Y-84624480D01*
X146312918Y-84599355D01*
X146307451Y-84570298D01*
X146230797Y-84451175D01*
X146229078Y-84450000D01*
X150732000Y-84450000D01*
X150732000Y-84851891D01*
X150747224Y-84888646D01*
X150775355Y-84916776D01*
X150812109Y-84932000D01*
X151175500Y-84932000D01*
X151200500Y-84907000D01*
X151200500Y-84425000D01*
X151250500Y-84425000D01*
X151250500Y-84907000D01*
X151275500Y-84932000D01*
X151638891Y-84932000D01*
X151675645Y-84916776D01*
X151703776Y-84888646D01*
X151719000Y-84851891D01*
X151719000Y-84450000D01*
X151694000Y-84425000D01*
X151250500Y-84425000D01*
X151200500Y-84425000D01*
X150757000Y-84425000D01*
X150732000Y-84450000D01*
X146229078Y-84450000D01*
X146113837Y-84371259D01*
X146075000Y-84363394D01*
X146075000Y-84325000D01*
X146050000Y-84300000D01*
X145125000Y-84300000D01*
X145125000Y-84320000D01*
X145075000Y-84320000D01*
X145075000Y-84300000D01*
X144150000Y-84300000D01*
X144125000Y-84325000D01*
X144125000Y-84361960D01*
X144095298Y-84367549D01*
X143976175Y-84444203D01*
X143896259Y-84561163D01*
X143868144Y-84700000D01*
X143868144Y-85150000D01*
X143887651Y-85253671D01*
X143868144Y-85350000D01*
X143868144Y-85800000D01*
X143887651Y-85903671D01*
X143868144Y-86000000D01*
X143868144Y-86450000D01*
X143887651Y-86553671D01*
X143868144Y-86650000D01*
X143868144Y-86863676D01*
X143654860Y-86775113D01*
X143396274Y-86774888D01*
X143250000Y-86835327D01*
X143250000Y-86694178D01*
X143375722Y-86568676D01*
X143474887Y-86329860D01*
X143475112Y-86071274D01*
X143376364Y-85832286D01*
X143193676Y-85649278D01*
X142954860Y-85550113D01*
X142696274Y-85549888D01*
X142457286Y-85648636D01*
X142325000Y-85780691D01*
X142325000Y-85494178D01*
X142450722Y-85368676D01*
X142549887Y-85129860D01*
X142550112Y-84871274D01*
X142451364Y-84632286D01*
X142268676Y-84449278D01*
X142029860Y-84350113D01*
X141771274Y-84349888D01*
X141532286Y-84448636D01*
X141349278Y-84631324D01*
X141250113Y-84870140D01*
X141249888Y-85128726D01*
X141348636Y-85367714D01*
X141475000Y-85494299D01*
X141475000Y-86973960D01*
X141449914Y-86999046D01*
X141450112Y-86771274D01*
X141351364Y-86532286D01*
X141168676Y-86349278D01*
X140929860Y-86250113D01*
X140749957Y-86249956D01*
X140750112Y-86071274D01*
X140651364Y-85832286D01*
X140468676Y-85649278D01*
X140229860Y-85550113D01*
X139971274Y-85549888D01*
X139732286Y-85648636D01*
X139605701Y-85775000D01*
X139131856Y-85775000D01*
X139131856Y-85450943D01*
X139370140Y-85549887D01*
X139628726Y-85550112D01*
X139867714Y-85451364D01*
X140050722Y-85268676D01*
X140149887Y-85029860D01*
X140150112Y-84771274D01*
X140051364Y-84532286D01*
X139868676Y-84349278D01*
X139629860Y-84250113D01*
X139371274Y-84249888D01*
X139132286Y-84348636D01*
X139131856Y-84349065D01*
X139131856Y-84050000D01*
X139112349Y-83946329D01*
X139131856Y-83850000D01*
X139131856Y-83675000D01*
X144125000Y-83675000D01*
X144125000Y-83869891D01*
X144140224Y-83906646D01*
X144168355Y-83934776D01*
X144205109Y-83950000D01*
X144168355Y-83965224D01*
X144140224Y-83993354D01*
X144125000Y-84030109D01*
X144125000Y-84225000D01*
X144150000Y-84250000D01*
X145075000Y-84250000D01*
X145075000Y-83975000D01*
X145050000Y-83950000D01*
X145075000Y-83925000D01*
X145075000Y-83650000D01*
X145125000Y-83650000D01*
X145125000Y-83925000D01*
X145150000Y-83950000D01*
X145125000Y-83975000D01*
X145125000Y-84250000D01*
X146050000Y-84250000D01*
X146075000Y-84225000D01*
X146075000Y-84030109D01*
X146059776Y-83993354D01*
X146031645Y-83965224D01*
X145994891Y-83950000D01*
X145999456Y-83948109D01*
X150732000Y-83948109D01*
X150732000Y-84350000D01*
X150757000Y-84375000D01*
X151200500Y-84375000D01*
X151200500Y-83893000D01*
X151250500Y-83893000D01*
X151250500Y-84375000D01*
X151694000Y-84375000D01*
X151719000Y-84350000D01*
X151719000Y-83948109D01*
X151703776Y-83911354D01*
X151675645Y-83883224D01*
X151638891Y-83868000D01*
X151275500Y-83868000D01*
X151250500Y-83893000D01*
X151200500Y-83893000D01*
X151175500Y-83868000D01*
X150812109Y-83868000D01*
X150775355Y-83883224D01*
X150747224Y-83911354D01*
X150732000Y-83948109D01*
X145999456Y-83948109D01*
X146031645Y-83934776D01*
X146059776Y-83906646D01*
X146075000Y-83869891D01*
X146075000Y-83675000D01*
X146050000Y-83650000D01*
X145125000Y-83650000D01*
X145075000Y-83650000D01*
X144150000Y-83650000D01*
X144125000Y-83675000D01*
X139131856Y-83675000D01*
X139131856Y-83400000D01*
X139112349Y-83296329D01*
X139131856Y-83200000D01*
X139131856Y-82750000D01*
X139107451Y-82620298D01*
X139030797Y-82501175D01*
X138913837Y-82421259D01*
X138775000Y-82393144D01*
X137025000Y-82393144D01*
X136895298Y-82417549D01*
X136776175Y-82494203D01*
X136696259Y-82611163D01*
X136668144Y-82750000D01*
X136668144Y-82913676D01*
X136454860Y-82825113D01*
X136196274Y-82824888D01*
X135957286Y-82923636D01*
X135774278Y-83106324D01*
X135675113Y-83345140D01*
X135674888Y-83603726D01*
X135773636Y-83842714D01*
X135880761Y-83950027D01*
X135774278Y-84056324D01*
X135675113Y-84295140D01*
X135674888Y-84553726D01*
X135773636Y-84792714D01*
X135956324Y-84975722D01*
X136195140Y-85074887D01*
X136453726Y-85075112D01*
X136668144Y-84986516D01*
X136668144Y-85150000D01*
X135694178Y-85150000D01*
X135568676Y-85024278D01*
X135329860Y-84925113D01*
X135071274Y-84924888D01*
X134832286Y-85023636D01*
X134649278Y-85206324D01*
X134550113Y-85445140D01*
X134549888Y-85703726D01*
X134648636Y-85942714D01*
X134831324Y-86125722D01*
X135070140Y-86224887D01*
X135328726Y-86225112D01*
X135567714Y-86126364D01*
X135694299Y-86000000D01*
X136668144Y-86000000D01*
X136668144Y-86450000D01*
X136687651Y-86553671D01*
X136668144Y-86650000D01*
X136668144Y-86998789D01*
X136643676Y-86974278D01*
X136404860Y-86875113D01*
X136146274Y-86874888D01*
X135907286Y-86973636D01*
X135724278Y-87156324D01*
X135625113Y-87395140D01*
X135624888Y-87653726D01*
X135674259Y-87773213D01*
X135000526Y-87099480D01*
X134918528Y-87044690D01*
X132825004Y-84951166D01*
X132825004Y-83399996D01*
X132797496Y-83261702D01*
X132792653Y-83237355D01*
X132700524Y-83099476D01*
X132125528Y-82524480D01*
X131987649Y-82432351D01*
X131950692Y-82425000D01*
X131825008Y-82400000D01*
X131350065Y-82400000D01*
X131350112Y-82346274D01*
X131251364Y-82107286D01*
X131068676Y-81924278D01*
X130829860Y-81825113D01*
X130676020Y-81824979D01*
X130150000Y-81298960D01*
X130150000Y-80775000D01*
X130145050Y-80750113D01*
X130117649Y-80612359D01*
X130025521Y-80474480D01*
X129750520Y-80199480D01*
X129612641Y-80107351D01*
X129575684Y-80100000D01*
X129450000Y-80075000D01*
X129224856Y-80075000D01*
X129224856Y-80068000D01*
X129200451Y-79938298D01*
X129123797Y-79819175D01*
X129006837Y-79739259D01*
X128868000Y-79711144D01*
X128081000Y-79711144D01*
X127951298Y-79735549D01*
X127832175Y-79812203D01*
X127752259Y-79929163D01*
X127724144Y-80068000D01*
X127724144Y-80932000D01*
X127748549Y-81061702D01*
X127825203Y-81180825D01*
X127942163Y-81260741D01*
X128081000Y-81288856D01*
X128868000Y-81288856D01*
X128997702Y-81264451D01*
X129116825Y-81187797D01*
X129196741Y-81070837D01*
X129224856Y-80932000D01*
X129224856Y-80925000D01*
X129273960Y-80925000D01*
X129300000Y-80951041D01*
X129300000Y-81475000D01*
X129317434Y-81562645D01*
X129332351Y-81637641D01*
X129424480Y-81775520D01*
X130050064Y-82401105D01*
X130049936Y-82548896D01*
X129400520Y-81899480D01*
X129262641Y-81807351D01*
X129235657Y-81801984D01*
X129224856Y-81799835D01*
X129224856Y-81768000D01*
X129200451Y-81638298D01*
X129123797Y-81519175D01*
X129006837Y-81439259D01*
X128868000Y-81411144D01*
X128081000Y-81411144D01*
X127951298Y-81435549D01*
X127832175Y-81512203D01*
X127752259Y-81629163D01*
X127724144Y-81768000D01*
X127724144Y-82632000D01*
X127748549Y-82761702D01*
X127825203Y-82880825D01*
X127942163Y-82960741D01*
X128081000Y-82988856D01*
X128868000Y-82988856D01*
X128997702Y-82964451D01*
X129116825Y-82887797D01*
X129145212Y-82846252D01*
X129773960Y-83475000D01*
X129224856Y-83475000D01*
X129224856Y-83468000D01*
X129200451Y-83338298D01*
X129123797Y-83219175D01*
X129006837Y-83139259D01*
X128868000Y-83111144D01*
X128081000Y-83111144D01*
X127951298Y-83135549D01*
X127832175Y-83212203D01*
X127752259Y-83329163D01*
X127724144Y-83468000D01*
X127724144Y-84332000D01*
X127748549Y-84461702D01*
X127825203Y-84580825D01*
X127942163Y-84660741D01*
X128081000Y-84688856D01*
X128868000Y-84688856D01*
X128997702Y-84664451D01*
X129116825Y-84587797D01*
X129196741Y-84470837D01*
X129224856Y-84332000D01*
X129224856Y-84325000D01*
X130148226Y-84325000D01*
X130175042Y-84351816D01*
X130174888Y-84528726D01*
X130273636Y-84767714D01*
X130456324Y-84950722D01*
X130632179Y-85023743D01*
X130480657Y-85175000D01*
X129224856Y-85175000D01*
X129224856Y-85168000D01*
X129200451Y-85038298D01*
X129123797Y-84919175D01*
X129006837Y-84839259D01*
X128868000Y-84811144D01*
X128081000Y-84811144D01*
X127951298Y-84835549D01*
X127832175Y-84912203D01*
X127752259Y-85029163D01*
X127724144Y-85168000D01*
X127724144Y-86032000D01*
X127748549Y-86161702D01*
X127825203Y-86280825D01*
X127942163Y-86360741D01*
X128081000Y-86388856D01*
X128868000Y-86388856D01*
X128997702Y-86364451D01*
X129116825Y-86287797D01*
X129196741Y-86170837D01*
X129224856Y-86032000D01*
X129224856Y-86025000D01*
X130530778Y-86025000D01*
X130631324Y-86125722D01*
X130870140Y-86224887D01*
X131128726Y-86225112D01*
X131367714Y-86126364D01*
X131446588Y-86047628D01*
X132048894Y-86649934D01*
X131996274Y-86649888D01*
X131757286Y-86748636D01*
X131630701Y-86875000D01*
X129224856Y-86875000D01*
X129224856Y-86868000D01*
X129200451Y-86738298D01*
X129123797Y-86619175D01*
X129006837Y-86539259D01*
X128868000Y-86511144D01*
X128081000Y-86511144D01*
X127951298Y-86535549D01*
X127832175Y-86612203D01*
X127752259Y-86729163D01*
X127724144Y-86868000D01*
X127724144Y-87732000D01*
X127748549Y-87861702D01*
X127825203Y-87980825D01*
X127942163Y-88060741D01*
X128081000Y-88088856D01*
X128868000Y-88088856D01*
X128997702Y-88064451D01*
X129116825Y-87987797D01*
X129196741Y-87870837D01*
X129224856Y-87732000D01*
X129224856Y-87725000D01*
X131630822Y-87725000D01*
X131756324Y-87850722D01*
X131995140Y-87949887D01*
X132253726Y-87950112D01*
X132492714Y-87851364D01*
X132675722Y-87668676D01*
X132774887Y-87429860D01*
X132774934Y-87375974D01*
X133411980Y-88013020D01*
X136873959Y-91475000D01*
X134326040Y-91475000D01*
X133724856Y-90873816D01*
X133724856Y-90268000D01*
X133700451Y-90138298D01*
X133623797Y-90019175D01*
X133506837Y-89939259D01*
X133368000Y-89911144D01*
X132581000Y-89911144D01*
X132451298Y-89935549D01*
X132332175Y-90012203D01*
X132252259Y-90129163D01*
X132224144Y-90268000D01*
X132224144Y-91132000D01*
X132248549Y-91261702D01*
X132325203Y-91380825D01*
X132442163Y-91460741D01*
X132581000Y-91488856D01*
X133137816Y-91488856D01*
X133260104Y-91611144D01*
X132581000Y-91611144D01*
X132451298Y-91635549D01*
X132332175Y-91712203D01*
X132252259Y-91829163D01*
X132224144Y-91968000D01*
X132224144Y-92832000D01*
X132248549Y-92961702D01*
X132321455Y-93075000D01*
X132076569Y-93075000D01*
X132147741Y-92970837D01*
X132175856Y-92832000D01*
X132175856Y-91968000D01*
X132151451Y-91838298D01*
X132074797Y-91719175D01*
X131957837Y-91639259D01*
X131819000Y-91611144D01*
X131032000Y-91611144D01*
X130902298Y-91635549D01*
X130783175Y-91712203D01*
X130703259Y-91829163D01*
X130675144Y-91968000D01*
X130675144Y-91975000D01*
X130475000Y-91975000D01*
X130312360Y-92007351D01*
X130312358Y-92007352D01*
X130312359Y-92007352D01*
X130211037Y-92075053D01*
X130088804Y-92074947D01*
X129987641Y-92007351D01*
X129960657Y-92001984D01*
X129825000Y-91975000D01*
X129224856Y-91975000D01*
X129224856Y-91968000D01*
X129200451Y-91838298D01*
X129123797Y-91719175D01*
X129006837Y-91639259D01*
X128868000Y-91611144D01*
X128081000Y-91611144D01*
X127951298Y-91635549D01*
X127832175Y-91712203D01*
X127752259Y-91829163D01*
X127724144Y-91968000D01*
X127724144Y-92832000D01*
X127748549Y-92961702D01*
X127821455Y-93075000D01*
X127041860Y-93075000D01*
X126400460Y-92947418D01*
X125892194Y-92607806D01*
X125786752Y-92450000D01*
X126432000Y-92450000D01*
X126432000Y-92851891D01*
X126447224Y-92888646D01*
X126475355Y-92916776D01*
X126512109Y-92932000D01*
X126875500Y-92932000D01*
X126900500Y-92907000D01*
X126900500Y-92425000D01*
X126950500Y-92425000D01*
X126950500Y-92907000D01*
X126975500Y-92932000D01*
X127338891Y-92932000D01*
X127375645Y-92916776D01*
X127403776Y-92888646D01*
X127419000Y-92851891D01*
X127419000Y-92450000D01*
X127394000Y-92425000D01*
X126950500Y-92425000D01*
X126900500Y-92425000D01*
X126457000Y-92425000D01*
X126432000Y-92450000D01*
X125786752Y-92450000D01*
X125552583Y-92099541D01*
X125522462Y-91948109D01*
X126432000Y-91948109D01*
X126432000Y-92350000D01*
X126457000Y-92375000D01*
X126900500Y-92375000D01*
X126900500Y-91893000D01*
X126950500Y-91893000D01*
X126950500Y-92375000D01*
X127394000Y-92375000D01*
X127419000Y-92350000D01*
X127419000Y-91948109D01*
X127403776Y-91911354D01*
X127375645Y-91883224D01*
X127338891Y-91868000D01*
X126975500Y-91868000D01*
X126950500Y-91893000D01*
X126900500Y-91893000D01*
X126875500Y-91868000D01*
X126512109Y-91868000D01*
X126475355Y-91883224D01*
X126447224Y-91911354D01*
X126432000Y-91948109D01*
X125522462Y-91948109D01*
X125425000Y-91458140D01*
X125425000Y-90750000D01*
X126432000Y-90750000D01*
X126432000Y-91151891D01*
X126447224Y-91188646D01*
X126475355Y-91216776D01*
X126512109Y-91232000D01*
X126875500Y-91232000D01*
X126900500Y-91207000D01*
X126900500Y-90725000D01*
X126950500Y-90725000D01*
X126950500Y-91207000D01*
X126975500Y-91232000D01*
X127338891Y-91232000D01*
X127375645Y-91216776D01*
X127403776Y-91188646D01*
X127419000Y-91151891D01*
X127419000Y-90750000D01*
X127394000Y-90725000D01*
X126950500Y-90725000D01*
X126900500Y-90725000D01*
X126457000Y-90725000D01*
X126432000Y-90750000D01*
X125425000Y-90750000D01*
X125425000Y-90248109D01*
X126432000Y-90248109D01*
X126432000Y-90650000D01*
X126457000Y-90675000D01*
X126900500Y-90675000D01*
X126900500Y-90193000D01*
X126950500Y-90193000D01*
X126950500Y-90675000D01*
X127394000Y-90675000D01*
X127419000Y-90650000D01*
X127419000Y-90248109D01*
X127403776Y-90211354D01*
X127375645Y-90183224D01*
X127338891Y-90168000D01*
X126975500Y-90168000D01*
X126950500Y-90193000D01*
X126900500Y-90193000D01*
X126875500Y-90168000D01*
X126512109Y-90168000D01*
X126475355Y-90183224D01*
X126447224Y-90211354D01*
X126432000Y-90248109D01*
X125425000Y-90248109D01*
X125425000Y-89050000D01*
X126432000Y-89050000D01*
X126432000Y-89451891D01*
X126447224Y-89488646D01*
X126475355Y-89516776D01*
X126512109Y-89532000D01*
X126875500Y-89532000D01*
X126900500Y-89507000D01*
X126900500Y-89025000D01*
X126950500Y-89025000D01*
X126950500Y-89507000D01*
X126975500Y-89532000D01*
X127338891Y-89532000D01*
X127375645Y-89516776D01*
X127403776Y-89488646D01*
X127419000Y-89451891D01*
X127419000Y-89050000D01*
X127394000Y-89025000D01*
X126950500Y-89025000D01*
X126900500Y-89025000D01*
X126457000Y-89025000D01*
X126432000Y-89050000D01*
X125425000Y-89050000D01*
X125425000Y-88548109D01*
X126432000Y-88548109D01*
X126432000Y-88950000D01*
X126457000Y-88975000D01*
X126900500Y-88975000D01*
X126900500Y-88493000D01*
X126950500Y-88493000D01*
X126950500Y-88975000D01*
X127394000Y-88975000D01*
X127419000Y-88950000D01*
X127419000Y-88568000D01*
X127724144Y-88568000D01*
X127724144Y-89432000D01*
X127748549Y-89561702D01*
X127825203Y-89680825D01*
X127942163Y-89760741D01*
X128081000Y-89788856D01*
X128868000Y-89788856D01*
X128899971Y-89782840D01*
X128899888Y-89878726D01*
X128917418Y-89921151D01*
X128868000Y-89911144D01*
X128081000Y-89911144D01*
X127951298Y-89935549D01*
X127832175Y-90012203D01*
X127752259Y-90129163D01*
X127724144Y-90268000D01*
X127724144Y-91132000D01*
X127748549Y-91261702D01*
X127825203Y-91380825D01*
X127942163Y-91460741D01*
X128081000Y-91488856D01*
X128868000Y-91488856D01*
X128997702Y-91464451D01*
X129116825Y-91387797D01*
X129196741Y-91270837D01*
X129224856Y-91132000D01*
X129224856Y-91125000D01*
X130675144Y-91125000D01*
X130675144Y-91132000D01*
X130699549Y-91261702D01*
X130776203Y-91380825D01*
X130893163Y-91460741D01*
X131032000Y-91488856D01*
X131819000Y-91488856D01*
X131948702Y-91464451D01*
X132067825Y-91387797D01*
X132147741Y-91270837D01*
X132175856Y-91132000D01*
X132175856Y-90268000D01*
X132151451Y-90138298D01*
X132074797Y-90019175D01*
X131957837Y-89939259D01*
X131819000Y-89911144D01*
X131032000Y-89911144D01*
X130902298Y-89935549D01*
X130783175Y-90012203D01*
X130703259Y-90129163D01*
X130675144Y-90268000D01*
X130675144Y-90275000D01*
X129970027Y-90275000D01*
X129975000Y-90250000D01*
X129975000Y-90244178D01*
X130100722Y-90118676D01*
X130199887Y-89879860D01*
X130200112Y-89621274D01*
X130119013Y-89425000D01*
X131030822Y-89425000D01*
X131156324Y-89550722D01*
X131395140Y-89649887D01*
X131653726Y-89650112D01*
X131892714Y-89551364D01*
X132075722Y-89368676D01*
X132174887Y-89129860D01*
X132175112Y-88871274D01*
X132076364Y-88632286D01*
X131893676Y-88449278D01*
X131654860Y-88350113D01*
X131396274Y-88349888D01*
X131157286Y-88448636D01*
X131030701Y-88575000D01*
X129224856Y-88575000D01*
X129224856Y-88568000D01*
X129200451Y-88438298D01*
X129123797Y-88319175D01*
X129006837Y-88239259D01*
X128868000Y-88211144D01*
X128081000Y-88211144D01*
X127951298Y-88235549D01*
X127832175Y-88312203D01*
X127752259Y-88429163D01*
X127724144Y-88568000D01*
X127419000Y-88568000D01*
X127419000Y-88548109D01*
X127403776Y-88511354D01*
X127375645Y-88483224D01*
X127338891Y-88468000D01*
X126975500Y-88468000D01*
X126950500Y-88493000D01*
X126900500Y-88493000D01*
X126875500Y-88468000D01*
X126512109Y-88468000D01*
X126475355Y-88483224D01*
X126447224Y-88511354D01*
X126432000Y-88548109D01*
X125425000Y-88548109D01*
X125425000Y-87350000D01*
X126432000Y-87350000D01*
X126432000Y-87751891D01*
X126447224Y-87788646D01*
X126475355Y-87816776D01*
X126512109Y-87832000D01*
X126875500Y-87832000D01*
X126900500Y-87807000D01*
X126900500Y-87325000D01*
X126950500Y-87325000D01*
X126950500Y-87807000D01*
X126975500Y-87832000D01*
X127338891Y-87832000D01*
X127375645Y-87816776D01*
X127403776Y-87788646D01*
X127419000Y-87751891D01*
X127419000Y-87350000D01*
X127394000Y-87325000D01*
X126950500Y-87325000D01*
X126900500Y-87325000D01*
X126457000Y-87325000D01*
X126432000Y-87350000D01*
X125425000Y-87350000D01*
X125425000Y-86848109D01*
X126432000Y-86848109D01*
X126432000Y-87250000D01*
X126457000Y-87275000D01*
X126900500Y-87275000D01*
X126900500Y-86793000D01*
X126950500Y-86793000D01*
X126950500Y-87275000D01*
X127394000Y-87275000D01*
X127419000Y-87250000D01*
X127419000Y-86848109D01*
X127403776Y-86811354D01*
X127375645Y-86783224D01*
X127338891Y-86768000D01*
X126975500Y-86768000D01*
X126950500Y-86793000D01*
X126900500Y-86793000D01*
X126875500Y-86768000D01*
X126512109Y-86768000D01*
X126475355Y-86783224D01*
X126447224Y-86811354D01*
X126432000Y-86848109D01*
X125425000Y-86848109D01*
X125425000Y-85650000D01*
X126432000Y-85650000D01*
X126432000Y-86051891D01*
X126447224Y-86088646D01*
X126475355Y-86116776D01*
X126512109Y-86132000D01*
X126875500Y-86132000D01*
X126900500Y-86107000D01*
X126900500Y-85625000D01*
X126950500Y-85625000D01*
X126950500Y-86107000D01*
X126975500Y-86132000D01*
X127338891Y-86132000D01*
X127375645Y-86116776D01*
X127403776Y-86088646D01*
X127419000Y-86051891D01*
X127419000Y-85650000D01*
X127394000Y-85625000D01*
X126950500Y-85625000D01*
X126900500Y-85625000D01*
X126457000Y-85625000D01*
X126432000Y-85650000D01*
X125425000Y-85650000D01*
X125425000Y-85148109D01*
X126432000Y-85148109D01*
X126432000Y-85550000D01*
X126457000Y-85575000D01*
X126900500Y-85575000D01*
X126900500Y-85093000D01*
X126950500Y-85093000D01*
X126950500Y-85575000D01*
X127394000Y-85575000D01*
X127419000Y-85550000D01*
X127419000Y-85148109D01*
X127403776Y-85111354D01*
X127375645Y-85083224D01*
X127338891Y-85068000D01*
X126975500Y-85068000D01*
X126950500Y-85093000D01*
X126900500Y-85093000D01*
X126875500Y-85068000D01*
X126512109Y-85068000D01*
X126475355Y-85083224D01*
X126447224Y-85111354D01*
X126432000Y-85148109D01*
X125425000Y-85148109D01*
X125425000Y-83950000D01*
X126432000Y-83950000D01*
X126432000Y-84351891D01*
X126447224Y-84388646D01*
X126475355Y-84416776D01*
X126512109Y-84432000D01*
X126875500Y-84432000D01*
X126900500Y-84407000D01*
X126900500Y-83925000D01*
X126950500Y-83925000D01*
X126950500Y-84407000D01*
X126975500Y-84432000D01*
X127338891Y-84432000D01*
X127375645Y-84416776D01*
X127403776Y-84388646D01*
X127419000Y-84351891D01*
X127419000Y-83950000D01*
X127394000Y-83925000D01*
X126950500Y-83925000D01*
X126900500Y-83925000D01*
X126457000Y-83925000D01*
X126432000Y-83950000D01*
X125425000Y-83950000D01*
X125425000Y-83448109D01*
X126432000Y-83448109D01*
X126432000Y-83850000D01*
X126457000Y-83875000D01*
X126900500Y-83875000D01*
X126900500Y-83393000D01*
X126950500Y-83393000D01*
X126950500Y-83875000D01*
X127394000Y-83875000D01*
X127419000Y-83850000D01*
X127419000Y-83448109D01*
X127403776Y-83411354D01*
X127375645Y-83383224D01*
X127338891Y-83368000D01*
X126975500Y-83368000D01*
X126950500Y-83393000D01*
X126900500Y-83393000D01*
X126875500Y-83368000D01*
X126512109Y-83368000D01*
X126475355Y-83383224D01*
X126447224Y-83411354D01*
X126432000Y-83448109D01*
X125425000Y-83448109D01*
X125425000Y-82250000D01*
X126432000Y-82250000D01*
X126432000Y-82651891D01*
X126447224Y-82688646D01*
X126475355Y-82716776D01*
X126512109Y-82732000D01*
X126875500Y-82732000D01*
X126900500Y-82707000D01*
X126900500Y-82225000D01*
X126950500Y-82225000D01*
X126950500Y-82707000D01*
X126975500Y-82732000D01*
X127338891Y-82732000D01*
X127375645Y-82716776D01*
X127403776Y-82688646D01*
X127419000Y-82651891D01*
X127419000Y-82250000D01*
X127394000Y-82225000D01*
X126950500Y-82225000D01*
X126900500Y-82225000D01*
X126457000Y-82225000D01*
X126432000Y-82250000D01*
X125425000Y-82250000D01*
X125425000Y-81748109D01*
X126432000Y-81748109D01*
X126432000Y-82150000D01*
X126457000Y-82175000D01*
X126900500Y-82175000D01*
X126900500Y-81693000D01*
X126950500Y-81693000D01*
X126950500Y-82175000D01*
X127394000Y-82175000D01*
X127419000Y-82150000D01*
X127419000Y-81748109D01*
X127403776Y-81711354D01*
X127375645Y-81683224D01*
X127338891Y-81668000D01*
X126975500Y-81668000D01*
X126950500Y-81693000D01*
X126900500Y-81693000D01*
X126875500Y-81668000D01*
X126512109Y-81668000D01*
X126475355Y-81683224D01*
X126447224Y-81711354D01*
X126432000Y-81748109D01*
X125425000Y-81748109D01*
X125425000Y-80550000D01*
X126432000Y-80550000D01*
X126432000Y-80951891D01*
X126447224Y-80988646D01*
X126475355Y-81016776D01*
X126512109Y-81032000D01*
X126875500Y-81032000D01*
X126900500Y-81007000D01*
X126900500Y-80525000D01*
X126950500Y-80525000D01*
X126950500Y-81007000D01*
X126975500Y-81032000D01*
X127338891Y-81032000D01*
X127375645Y-81016776D01*
X127403776Y-80988646D01*
X127419000Y-80951891D01*
X127419000Y-80550000D01*
X127394000Y-80525000D01*
X126950500Y-80525000D01*
X126900500Y-80525000D01*
X126457000Y-80525000D01*
X126432000Y-80550000D01*
X125425000Y-80550000D01*
X125425000Y-80048109D01*
X126432000Y-80048109D01*
X126432000Y-80450000D01*
X126457000Y-80475000D01*
X126900500Y-80475000D01*
X126900500Y-79993000D01*
X126950500Y-79993000D01*
X126950500Y-80475000D01*
X127394000Y-80475000D01*
X127419000Y-80450000D01*
X127419000Y-80048109D01*
X127403776Y-80011354D01*
X127375645Y-79983224D01*
X127338891Y-79968000D01*
X126975500Y-79968000D01*
X126950500Y-79993000D01*
X126900500Y-79993000D01*
X126875500Y-79968000D01*
X126512109Y-79968000D01*
X126475355Y-79983224D01*
X126447224Y-80011354D01*
X126432000Y-80048109D01*
X125425000Y-80048109D01*
X125425000Y-77578726D01*
X126624888Y-77578726D01*
X126723636Y-77817714D01*
X126906324Y-78000722D01*
X127145140Y-78099887D01*
X127403726Y-78100112D01*
X127642714Y-78001364D01*
X127825722Y-77818676D01*
X127924887Y-77579860D01*
X127925112Y-77321274D01*
X127922450Y-77314832D01*
X127925500Y-77299500D01*
X127925500Y-77068817D01*
X127948702Y-77064451D01*
X128067825Y-76987797D01*
X128147741Y-76870837D01*
X128175856Y-76732000D01*
X128175856Y-76350000D01*
X128481000Y-76350000D01*
X128481000Y-76751891D01*
X128496224Y-76788646D01*
X128524355Y-76816776D01*
X128561109Y-76832000D01*
X128924500Y-76832000D01*
X128949500Y-76807000D01*
X128949500Y-76325000D01*
X128999500Y-76325000D01*
X128999500Y-76807000D01*
X129024500Y-76832000D01*
X129387891Y-76832000D01*
X129424645Y-76816776D01*
X129452776Y-76788646D01*
X129468000Y-76751891D01*
X129468000Y-76350000D01*
X129443000Y-76325000D01*
X128999500Y-76325000D01*
X128949500Y-76325000D01*
X128506000Y-76325000D01*
X128481000Y-76350000D01*
X128175856Y-76350000D01*
X128175856Y-75868000D01*
X128172114Y-75848109D01*
X128481000Y-75848109D01*
X128481000Y-76250000D01*
X128506000Y-76275000D01*
X128949500Y-76275000D01*
X128949500Y-75793000D01*
X128999500Y-75793000D01*
X128999500Y-76275000D01*
X129443000Y-76275000D01*
X129468000Y-76250000D01*
X129468000Y-75848109D01*
X129452776Y-75811354D01*
X129424645Y-75783224D01*
X129387891Y-75768000D01*
X129024500Y-75768000D01*
X128999500Y-75793000D01*
X128949500Y-75793000D01*
X128924500Y-75768000D01*
X128561109Y-75768000D01*
X128524355Y-75783224D01*
X128496224Y-75811354D01*
X128481000Y-75848109D01*
X128172114Y-75848109D01*
X128151451Y-75738298D01*
X128074797Y-75619175D01*
X127957837Y-75539259D01*
X127819000Y-75511144D01*
X127032000Y-75511144D01*
X126902298Y-75535549D01*
X126783175Y-75612203D01*
X126703259Y-75729163D01*
X126675144Y-75868000D01*
X126675144Y-76732000D01*
X126699549Y-76861702D01*
X126776203Y-76980825D01*
X126805144Y-77000600D01*
X126724278Y-77081324D01*
X126625113Y-77320140D01*
X126624888Y-77578726D01*
X125425000Y-77578726D01*
X125425000Y-72041860D01*
X125552583Y-71400459D01*
X125892194Y-70892194D01*
X126400460Y-70552582D01*
X127041860Y-70425000D01*
X134905613Y-70425000D01*
X134899278Y-70431324D01*
X134800113Y-70670140D01*
X134799888Y-70928726D01*
X134898636Y-71167714D01*
X135081324Y-71350722D01*
X135320140Y-71449887D01*
X135578726Y-71450112D01*
X135817714Y-71351364D01*
X135944299Y-71225000D01*
X136673207Y-71225000D01*
X136668144Y-71250000D01*
X136668144Y-71676391D01*
X136604860Y-71650113D01*
X136346274Y-71649888D01*
X136107286Y-71748636D01*
X135924278Y-71931324D01*
X135825113Y-72170140D01*
X135824888Y-72428726D01*
X135923636Y-72667714D01*
X136106324Y-72850722D01*
X136205297Y-72891819D01*
X136007286Y-72973636D01*
X135824278Y-73156324D01*
X135725113Y-73395140D01*
X135724888Y-73653726D01*
X135823636Y-73892714D01*
X136002284Y-74071675D01*
X135874480Y-74199480D01*
X135782351Y-74337359D01*
X135779693Y-74350722D01*
X135750000Y-74500000D01*
X135750000Y-75420761D01*
X135579860Y-75350113D01*
X135321274Y-75349888D01*
X135082286Y-75448636D01*
X135036900Y-75493943D01*
X135032451Y-75470298D01*
X134955797Y-75351175D01*
X134838837Y-75271259D01*
X134700000Y-75243144D01*
X134481856Y-75243144D01*
X134481856Y-75075000D01*
X134457451Y-74945298D01*
X134380797Y-74826175D01*
X134263837Y-74746259D01*
X134125000Y-74718144D01*
X133956856Y-74718144D01*
X133956856Y-74526510D01*
X134017714Y-74501364D01*
X134200722Y-74318676D01*
X134299887Y-74079860D01*
X134300112Y-73821274D01*
X134201364Y-73582286D01*
X134018676Y-73399278D01*
X133779860Y-73300113D01*
X133521274Y-73299888D01*
X133282286Y-73398636D01*
X133262495Y-73418393D01*
X133093676Y-73249278D01*
X132854860Y-73150113D01*
X132596274Y-73149888D01*
X132357286Y-73248636D01*
X132174908Y-73430696D01*
X132068676Y-73324278D01*
X131829860Y-73225113D01*
X131571274Y-73224888D01*
X131332286Y-73323636D01*
X131149278Y-73506324D01*
X131050113Y-73745140D01*
X131050065Y-73800000D01*
X130921274Y-73799888D01*
X130682286Y-73898636D01*
X130499278Y-74081324D01*
X130472001Y-74147015D01*
X130412641Y-74107351D01*
X130375684Y-74100000D01*
X130250000Y-74075000D01*
X130044178Y-74075000D01*
X129918676Y-73949278D01*
X129679860Y-73850113D01*
X129421274Y-73849888D01*
X129182286Y-73948636D01*
X128999278Y-74131324D01*
X128900113Y-74370140D01*
X128899888Y-74628726D01*
X128998636Y-74867714D01*
X129181324Y-75050722D01*
X129420140Y-75149887D01*
X129450044Y-75149913D01*
X129449888Y-75328726D01*
X129548636Y-75567714D01*
X129731324Y-75750722D01*
X129970140Y-75849887D01*
X130149002Y-75850043D01*
X130349479Y-76050520D01*
X130404679Y-76087403D01*
X130444203Y-76148825D01*
X130561163Y-76228741D01*
X130664901Y-76249748D01*
X130570298Y-76267549D01*
X130451175Y-76344203D01*
X130371259Y-76461163D01*
X130343144Y-76600000D01*
X130343144Y-76900000D01*
X130362651Y-77003671D01*
X130343144Y-77100000D01*
X130343144Y-77400000D01*
X130367549Y-77529702D01*
X130444203Y-77648825D01*
X130550000Y-77721114D01*
X130550000Y-79175000D01*
X130569995Y-79275520D01*
X130582351Y-79337641D01*
X130674480Y-79475520D01*
X130924996Y-79726037D01*
X130924996Y-80498528D01*
X130935338Y-80550520D01*
X130957347Y-80661169D01*
X131049476Y-80799048D01*
X131950952Y-81700525D01*
X132088831Y-81792653D01*
X132251472Y-81825004D01*
X138348964Y-81825004D01*
X138924480Y-82400520D01*
X139062359Y-82492649D01*
X139225000Y-82525000D01*
X139605822Y-82525000D01*
X139731324Y-82650722D01*
X139970140Y-82749887D01*
X140228726Y-82750112D01*
X140467714Y-82651364D01*
X140650722Y-82468676D01*
X140749887Y-82229860D01*
X140750112Y-81971274D01*
X140651364Y-81732286D01*
X140468676Y-81549278D01*
X140229860Y-81450113D01*
X140149956Y-81450043D01*
X140150112Y-81271274D01*
X140130992Y-81225000D01*
X140305822Y-81225000D01*
X140431324Y-81350722D01*
X140670140Y-81449887D01*
X140928726Y-81450112D01*
X141167714Y-81351364D01*
X141350722Y-81168676D01*
X141449887Y-80929860D01*
X141450112Y-80671274D01*
X141441322Y-80650000D01*
X141448960Y-80650000D01*
X142425000Y-81626041D01*
X142425000Y-82425000D01*
X142441641Y-82508658D01*
X142457351Y-82587641D01*
X142549480Y-82725520D01*
X143099479Y-83275520D01*
X143179762Y-83329163D01*
X143237360Y-83367649D01*
X143400000Y-83400000D01*
X143937785Y-83400000D01*
X143969203Y-83448825D01*
X144086163Y-83528741D01*
X144125000Y-83536606D01*
X144125000Y-83575000D01*
X144150000Y-83600000D01*
X145075000Y-83600000D01*
X145075000Y-83580000D01*
X145125000Y-83580000D01*
X145125000Y-83600000D01*
X146050000Y-83600000D01*
X146075000Y-83575000D01*
X146075000Y-83538040D01*
X146104702Y-83532451D01*
X146223825Y-83455797D01*
X146283490Y-83368475D01*
X146287641Y-83367649D01*
X146425520Y-83275520D01*
X146700521Y-83000520D01*
X146792649Y-82862641D01*
X146801626Y-82817512D01*
X146869255Y-82750000D01*
X150732000Y-82750000D01*
X150732000Y-83151891D01*
X150747224Y-83188646D01*
X150775355Y-83216776D01*
X150812109Y-83232000D01*
X151175500Y-83232000D01*
X151200500Y-83207000D01*
X151200500Y-82725000D01*
X151250500Y-82725000D01*
X151250500Y-83207000D01*
X151275500Y-83232000D01*
X151638891Y-83232000D01*
X151675645Y-83216776D01*
X151703776Y-83188646D01*
X151719000Y-83151891D01*
X151719000Y-82750000D01*
X151694000Y-82725000D01*
X151250500Y-82725000D01*
X151200500Y-82725000D01*
X150757000Y-82725000D01*
X150732000Y-82750000D01*
X146869255Y-82750000D01*
X146950722Y-82668676D01*
X147049887Y-82429860D01*
X147050045Y-82248109D01*
X150732000Y-82248109D01*
X150732000Y-82650000D01*
X150757000Y-82675000D01*
X151200500Y-82675000D01*
X151200500Y-82193000D01*
X151250500Y-82193000D01*
X151250500Y-82675000D01*
X151694000Y-82675000D01*
X151719000Y-82650000D01*
X151719000Y-82268000D01*
X152024144Y-82268000D01*
X152024144Y-83132000D01*
X152048549Y-83261702D01*
X152125203Y-83380825D01*
X152242163Y-83460741D01*
X152274500Y-83467289D01*
X152274500Y-83631183D01*
X152251298Y-83635549D01*
X152132175Y-83712203D01*
X152052259Y-83829163D01*
X152024144Y-83968000D01*
X152024144Y-84832000D01*
X152048549Y-84961702D01*
X152125203Y-85080825D01*
X152242163Y-85160741D01*
X152381000Y-85188856D01*
X153168000Y-85188856D01*
X153297702Y-85164451D01*
X153416825Y-85087797D01*
X153496741Y-84970837D01*
X153524856Y-84832000D01*
X153524856Y-84119666D01*
X153533007Y-84125112D01*
X153573158Y-84151940D01*
X153764500Y-84190000D01*
X155723388Y-84190000D01*
X155962693Y-84548145D01*
X156356413Y-84811220D01*
X156820838Y-84903600D01*
X157179162Y-84903600D01*
X157643587Y-84811220D01*
X158037307Y-84548145D01*
X158300382Y-84154425D01*
X158392762Y-83690000D01*
X158300382Y-83225575D01*
X158037307Y-82831855D01*
X158029144Y-82826400D01*
X165627144Y-82826400D01*
X165627144Y-84553600D01*
X165651549Y-84683302D01*
X165728203Y-84802425D01*
X165845163Y-84882341D01*
X165984000Y-84910456D01*
X168016000Y-84910456D01*
X168145702Y-84886051D01*
X168264825Y-84809397D01*
X168344741Y-84692437D01*
X168372856Y-84553600D01*
X168372856Y-82826400D01*
X168348451Y-82696698D01*
X168271797Y-82577575D01*
X168154837Y-82497659D01*
X168016000Y-82469544D01*
X165984000Y-82469544D01*
X165854298Y-82493949D01*
X165735175Y-82570603D01*
X165655259Y-82687563D01*
X165627144Y-82826400D01*
X158029144Y-82826400D01*
X157643587Y-82568780D01*
X157179162Y-82476400D01*
X156820838Y-82476400D01*
X156356413Y-82568780D01*
X155962693Y-82831855D01*
X155723388Y-83190000D01*
X153971607Y-83190000D01*
X153524856Y-82743250D01*
X153524856Y-82268000D01*
X153500451Y-82138298D01*
X153423797Y-82019175D01*
X153306837Y-81939259D01*
X153168000Y-81911144D01*
X152381000Y-81911144D01*
X152251298Y-81935549D01*
X152132175Y-82012203D01*
X152052259Y-82129163D01*
X152024144Y-82268000D01*
X151719000Y-82268000D01*
X151719000Y-82248109D01*
X151703776Y-82211354D01*
X151675645Y-82183224D01*
X151638891Y-82168000D01*
X151275500Y-82168000D01*
X151250500Y-82193000D01*
X151200500Y-82193000D01*
X151175500Y-82168000D01*
X150812109Y-82168000D01*
X150775355Y-82183224D01*
X150747224Y-82211354D01*
X150732000Y-82248109D01*
X147050045Y-82248109D01*
X147050112Y-82171274D01*
X146951364Y-81932286D01*
X146768676Y-81749278D01*
X146529860Y-81650113D01*
X146271274Y-81649888D01*
X146032286Y-81748636D01*
X145849278Y-81931324D01*
X145750113Y-82170140D01*
X145749919Y-82393144D01*
X144225000Y-82393144D01*
X144095298Y-82417549D01*
X143976175Y-82494203D01*
X143938050Y-82550000D01*
X143576041Y-82550000D01*
X143275000Y-82248960D01*
X143275000Y-81450000D01*
X143274978Y-81449887D01*
X143242649Y-81287359D01*
X143150521Y-81149480D01*
X141925520Y-79924480D01*
X141787641Y-79832351D01*
X141750679Y-79824999D01*
X141625000Y-79800000D01*
X136601041Y-79800000D01*
X136225000Y-79423960D01*
X136225000Y-77750000D01*
X136205380Y-77651364D01*
X136192649Y-77587359D01*
X136151360Y-77525565D01*
X136270140Y-77574887D01*
X136528726Y-77575112D01*
X136668144Y-77517506D01*
X136668144Y-77550000D01*
X136692549Y-77679702D01*
X136769203Y-77798825D01*
X136886163Y-77878741D01*
X137025000Y-77906856D01*
X138775000Y-77906856D01*
X138904702Y-77882451D01*
X139023825Y-77805797D01*
X139061950Y-77750000D01*
X142948960Y-77750000D01*
X143573960Y-78375000D01*
X143569178Y-78375000D01*
X143443676Y-78249278D01*
X143204860Y-78150113D01*
X142946274Y-78149888D01*
X142707286Y-78248636D01*
X142524278Y-78431324D01*
X142425113Y-78670140D01*
X142424888Y-78928726D01*
X142523636Y-79167714D01*
X142706324Y-79350722D01*
X142945140Y-79449887D01*
X143203726Y-79450112D01*
X143442714Y-79351364D01*
X143475144Y-79318991D01*
X143475144Y-79832000D01*
X143499549Y-79961702D01*
X143576203Y-80080825D01*
X143693163Y-80160741D01*
X143832000Y-80188856D01*
X144619000Y-80188856D01*
X144748702Y-80164451D01*
X144867825Y-80087797D01*
X144947741Y-79970837D01*
X144975856Y-79832000D01*
X144975856Y-78968000D01*
X144960535Y-78886575D01*
X145027144Y-78953184D01*
X145024144Y-78968000D01*
X145024144Y-79832000D01*
X145048549Y-79961702D01*
X145125203Y-80080825D01*
X145242163Y-80160741D01*
X145381000Y-80188856D01*
X146168000Y-80188856D01*
X146297702Y-80164451D01*
X146416825Y-80087797D01*
X146496741Y-79970837D01*
X146524856Y-79832000D01*
X146524856Y-79825000D01*
X147480734Y-79825000D01*
X147556324Y-79900722D01*
X147795140Y-79999887D01*
X148053726Y-80000112D01*
X148292714Y-79901364D01*
X148475722Y-79718676D01*
X148574887Y-79479860D01*
X148575112Y-79221274D01*
X148476364Y-78982286D01*
X148293676Y-78799278D01*
X148054860Y-78700113D01*
X147796274Y-78699888D01*
X147557286Y-78798636D01*
X147380613Y-78975000D01*
X146524856Y-78975000D01*
X146524856Y-78968000D01*
X146500451Y-78838298D01*
X146423797Y-78719175D01*
X146306837Y-78639259D01*
X146168000Y-78611144D01*
X145887184Y-78611144D01*
X145525000Y-78248960D01*
X145525000Y-77906856D01*
X145975000Y-77906856D01*
X146104702Y-77882451D01*
X146223825Y-77805797D01*
X146303741Y-77688837D01*
X146331856Y-77550000D01*
X146331856Y-77100000D01*
X146312349Y-76996329D01*
X146331856Y-76900000D01*
X146331856Y-76450000D01*
X146312349Y-76346329D01*
X146322106Y-76298146D01*
X146450000Y-76426040D01*
X146450000Y-77175000D01*
X146466641Y-77258658D01*
X146482351Y-77337641D01*
X146574480Y-77475520D01*
X146849480Y-77750521D01*
X146987359Y-77842649D01*
X146993144Y-77843800D01*
X146993144Y-77900000D01*
X147017549Y-78029702D01*
X147094203Y-78148825D01*
X147211163Y-78228741D01*
X147350000Y-78256856D01*
X149050000Y-78256856D01*
X149179702Y-78232451D01*
X149298825Y-78155797D01*
X149378741Y-78038837D01*
X149406856Y-77900000D01*
X149406856Y-77000000D01*
X149382451Y-76870298D01*
X149305797Y-76751175D01*
X149188837Y-76671259D01*
X149050000Y-76643144D01*
X148344185Y-76643144D01*
X148107441Y-76406400D01*
X155627144Y-76406400D01*
X155627144Y-78133600D01*
X155651549Y-78263302D01*
X155728203Y-78382425D01*
X155845163Y-78462341D01*
X155984000Y-78490456D01*
X158016000Y-78490456D01*
X158145702Y-78466051D01*
X158203085Y-78429126D01*
X159574479Y-79800520D01*
X159622118Y-79832351D01*
X159712360Y-79892649D01*
X159875000Y-79925000D01*
X164310000Y-79925000D01*
X164445657Y-79898016D01*
X164472641Y-79892649D01*
X164610520Y-79800520D01*
X166459346Y-77951695D01*
X166820838Y-78023600D01*
X167179162Y-78023600D01*
X167643587Y-77931220D01*
X168037307Y-77668145D01*
X168300382Y-77274425D01*
X168392762Y-76810000D01*
X168300382Y-76345575D01*
X168037307Y-75951855D01*
X167643587Y-75688780D01*
X167179162Y-75596400D01*
X166820838Y-75596400D01*
X166356413Y-75688780D01*
X165962693Y-75951855D01*
X165699618Y-76345575D01*
X165607238Y-76810000D01*
X165699618Y-77274425D01*
X165793712Y-77415247D01*
X164133960Y-79075000D01*
X160051041Y-79075000D01*
X158372856Y-77396816D01*
X158372856Y-76406400D01*
X158348451Y-76276698D01*
X158271797Y-76157575D01*
X158154837Y-76077659D01*
X158016000Y-76049544D01*
X155984000Y-76049544D01*
X155854298Y-76073949D01*
X155735175Y-76150603D01*
X155655259Y-76267563D01*
X155627144Y-76406400D01*
X148107441Y-76406400D01*
X147984277Y-76283236D01*
X148035657Y-76273016D01*
X148062641Y-76267649D01*
X148200520Y-76175520D01*
X148500520Y-75875520D01*
X148592649Y-75737641D01*
X148605212Y-75674480D01*
X148625000Y-75575000D01*
X148625000Y-75356856D01*
X149050000Y-75356856D01*
X149179702Y-75332451D01*
X149298825Y-75255797D01*
X149378741Y-75138837D01*
X149406856Y-75000000D01*
X149406856Y-74730000D01*
X155607238Y-74730000D01*
X155699618Y-75194425D01*
X155962693Y-75588145D01*
X156356413Y-75851220D01*
X156820838Y-75943600D01*
X157179162Y-75943600D01*
X157643587Y-75851220D01*
X158037307Y-75588145D01*
X158300382Y-75194425D01*
X158392762Y-74730000D01*
X158300382Y-74265575D01*
X158037307Y-73871855D01*
X157643587Y-73608780D01*
X157179162Y-73516400D01*
X156820838Y-73516400D01*
X156356413Y-73608780D01*
X155962693Y-73871855D01*
X155699618Y-74265575D01*
X155607238Y-74730000D01*
X149406856Y-74730000D01*
X149406856Y-74100000D01*
X149382451Y-73970298D01*
X149305797Y-73851175D01*
X149188837Y-73771259D01*
X149050000Y-73743144D01*
X147350000Y-73743144D01*
X147220298Y-73767549D01*
X147101175Y-73844203D01*
X147048027Y-73921987D01*
X146331856Y-73205816D01*
X146331856Y-73200000D01*
X146307451Y-73070298D01*
X146230797Y-72951175D01*
X146229078Y-72950000D01*
X150732000Y-72950000D01*
X150732000Y-73351891D01*
X150747224Y-73388646D01*
X150775355Y-73416776D01*
X150812109Y-73432000D01*
X151175500Y-73432000D01*
X151200500Y-73407000D01*
X151200500Y-72925000D01*
X151250500Y-72925000D01*
X151250500Y-73407000D01*
X151275500Y-73432000D01*
X151638891Y-73432000D01*
X151675645Y-73416776D01*
X151703776Y-73388646D01*
X151719000Y-73351891D01*
X151719000Y-72950000D01*
X151694000Y-72925000D01*
X151250500Y-72925000D01*
X151200500Y-72925000D01*
X150757000Y-72925000D01*
X150732000Y-72950000D01*
X146229078Y-72950000D01*
X146113837Y-72871259D01*
X146075000Y-72863394D01*
X146075000Y-72825000D01*
X146050000Y-72800000D01*
X145125000Y-72800000D01*
X145125000Y-72820000D01*
X145075000Y-72820000D01*
X145075000Y-72800000D01*
X144150000Y-72800000D01*
X144125000Y-72825000D01*
X144125000Y-72861960D01*
X144095298Y-72867549D01*
X143976175Y-72944203D01*
X143896259Y-73061163D01*
X143868144Y-73200000D01*
X143868144Y-73650000D01*
X143887651Y-73753671D01*
X143868144Y-73850000D01*
X143868144Y-74300000D01*
X143887651Y-74403671D01*
X143868144Y-74500000D01*
X143868144Y-74950000D01*
X143887651Y-75053671D01*
X143868144Y-75150000D01*
X143868144Y-75413676D01*
X143654860Y-75325113D01*
X143500000Y-75324978D01*
X143500112Y-75196274D01*
X143401364Y-74957286D01*
X143218676Y-74774278D01*
X142979860Y-74675113D01*
X142721274Y-74674888D01*
X142482286Y-74773636D01*
X142299278Y-74956324D01*
X142200113Y-75195140D01*
X142199888Y-75453726D01*
X142298636Y-75692714D01*
X142425000Y-75819299D01*
X142425000Y-76375000D01*
X142442139Y-76461163D01*
X142457351Y-76537641D01*
X142549480Y-76675520D01*
X142773960Y-76900000D01*
X141476040Y-76900000D01*
X141975521Y-76400520D01*
X142067649Y-76262641D01*
X142100000Y-76100000D01*
X142100000Y-72819178D01*
X142225722Y-72693676D01*
X142324887Y-72454860D01*
X142325112Y-72196274D01*
X142316322Y-72175000D01*
X144125000Y-72175000D01*
X144125000Y-72369891D01*
X144140224Y-72406646D01*
X144168355Y-72434776D01*
X144205109Y-72450000D01*
X144168355Y-72465224D01*
X144140224Y-72493354D01*
X144125000Y-72530109D01*
X144125000Y-72725000D01*
X144150000Y-72750000D01*
X145075000Y-72750000D01*
X145075000Y-72475000D01*
X145050000Y-72450000D01*
X145075000Y-72425000D01*
X145075000Y-72150000D01*
X145125000Y-72150000D01*
X145125000Y-72425000D01*
X145150000Y-72450000D01*
X145125000Y-72475000D01*
X145125000Y-72750000D01*
X146050000Y-72750000D01*
X146075000Y-72725000D01*
X146075000Y-72530109D01*
X146059776Y-72493354D01*
X146031645Y-72465224D01*
X145994891Y-72450000D01*
X145999456Y-72448109D01*
X150732000Y-72448109D01*
X150732000Y-72850000D01*
X150757000Y-72875000D01*
X151200500Y-72875000D01*
X151200500Y-72393000D01*
X151250500Y-72393000D01*
X151250500Y-72875000D01*
X151694000Y-72875000D01*
X151719000Y-72850000D01*
X151719000Y-72448109D01*
X151703776Y-72411354D01*
X151675645Y-72383224D01*
X151638891Y-72368000D01*
X151275500Y-72368000D01*
X151250500Y-72393000D01*
X151200500Y-72393000D01*
X151175500Y-72368000D01*
X150812109Y-72368000D01*
X150775355Y-72383224D01*
X150747224Y-72411354D01*
X150732000Y-72448109D01*
X145999456Y-72448109D01*
X146031645Y-72434776D01*
X146059776Y-72406646D01*
X146075000Y-72369891D01*
X146075000Y-72175000D01*
X146050000Y-72150000D01*
X145125000Y-72150000D01*
X145075000Y-72150000D01*
X144150000Y-72150000D01*
X144125000Y-72175000D01*
X142316322Y-72175000D01*
X142226364Y-71957286D01*
X142043676Y-71774278D01*
X141804860Y-71675113D01*
X141546274Y-71674888D01*
X141307286Y-71773636D01*
X141124278Y-71956324D01*
X141025113Y-72195140D01*
X141024888Y-72453726D01*
X141123636Y-72692714D01*
X141250000Y-72819299D01*
X141250000Y-74930744D01*
X141168676Y-74849278D01*
X140929860Y-74750113D01*
X140749957Y-74749956D01*
X140750112Y-74571274D01*
X140651364Y-74332286D01*
X140468676Y-74149278D01*
X140229860Y-74050113D01*
X139971274Y-74049888D01*
X139732286Y-74148636D01*
X139580657Y-74300000D01*
X139131856Y-74300000D01*
X139131856Y-73950943D01*
X139370140Y-74049887D01*
X139628726Y-74050112D01*
X139867714Y-73951364D01*
X140050722Y-73768676D01*
X140149887Y-73529860D01*
X140150112Y-73271274D01*
X140051364Y-73032286D01*
X139994239Y-72975061D01*
X140050722Y-72918676D01*
X140149887Y-72679860D01*
X140150112Y-72421274D01*
X140051364Y-72182286D01*
X139868676Y-71999278D01*
X139629860Y-71900113D01*
X139371274Y-71899888D01*
X139132286Y-71998636D01*
X139131856Y-71999065D01*
X139131856Y-71900000D01*
X139112349Y-71796329D01*
X139131856Y-71700000D01*
X139131856Y-71250000D01*
X139127152Y-71225000D01*
X142873960Y-71225000D01*
X143424480Y-71775520D01*
X143562359Y-71867649D01*
X143589343Y-71873016D01*
X143725000Y-71900000D01*
X143937785Y-71900000D01*
X143969203Y-71948825D01*
X144086163Y-72028741D01*
X144125000Y-72036606D01*
X144125000Y-72075000D01*
X144150000Y-72100000D01*
X145075000Y-72100000D01*
X145075000Y-72080000D01*
X145125000Y-72080000D01*
X145125000Y-72100000D01*
X146050000Y-72100000D01*
X146075000Y-72075000D01*
X146075000Y-72038040D01*
X146104702Y-72032451D01*
X146223825Y-71955797D01*
X146303741Y-71838837D01*
X146331856Y-71700000D01*
X146331856Y-71250000D01*
X150732000Y-71250000D01*
X150732000Y-71651891D01*
X150747224Y-71688646D01*
X150775355Y-71716776D01*
X150812109Y-71732000D01*
X151175500Y-71732000D01*
X151200500Y-71707000D01*
X151200500Y-71225000D01*
X151250500Y-71225000D01*
X151250500Y-71707000D01*
X151275500Y-71732000D01*
X151638891Y-71732000D01*
X151675645Y-71716776D01*
X151703776Y-71688646D01*
X151719000Y-71651891D01*
X151719000Y-71250000D01*
X151694000Y-71225000D01*
X151250500Y-71225000D01*
X151200500Y-71225000D01*
X150757000Y-71225000D01*
X150732000Y-71250000D01*
X146331856Y-71250000D01*
X146307451Y-71120298D01*
X146230797Y-71001175D01*
X146113837Y-70921259D01*
X145975000Y-70893144D01*
X144225000Y-70893144D01*
X144095298Y-70917549D01*
X143976175Y-70994203D01*
X143938050Y-71050000D01*
X143901040Y-71050000D01*
X143599149Y-70748109D01*
X150732000Y-70748109D01*
X150732000Y-71150000D01*
X150757000Y-71175000D01*
X151200500Y-71175000D01*
X151200500Y-70693000D01*
X151250500Y-70693000D01*
X151250500Y-71175000D01*
X151694000Y-71175000D01*
X151719000Y-71150000D01*
X151719000Y-70748109D01*
X151703776Y-70711354D01*
X151675645Y-70683224D01*
X151638891Y-70668000D01*
X151275500Y-70668000D01*
X151250500Y-70693000D01*
X151200500Y-70693000D01*
X151175500Y-70668000D01*
X150812109Y-70668000D01*
X150775355Y-70683224D01*
X150747224Y-70711354D01*
X150732000Y-70748109D01*
X143599149Y-70748109D01*
X143350520Y-70499480D01*
X143239054Y-70425000D01*
X152307361Y-70425000D01*
X152251298Y-70435549D01*
X152132175Y-70512203D01*
X152052259Y-70629163D01*
X152024144Y-70768000D01*
X152024144Y-71632000D01*
X152048549Y-71761702D01*
X152125203Y-71880825D01*
X152242163Y-71960741D01*
X152274500Y-71967289D01*
X152274500Y-72131183D01*
X152251298Y-72135549D01*
X152132175Y-72212203D01*
X152052259Y-72329163D01*
X152024144Y-72468000D01*
X152024144Y-73332000D01*
X152048549Y-73461702D01*
X152125203Y-73580825D01*
X152242163Y-73660741D01*
X152381000Y-73688856D01*
X153168000Y-73688856D01*
X153297702Y-73664451D01*
X153416825Y-73587797D01*
X153496741Y-73470837D01*
X153524856Y-73332000D01*
X153524856Y-72690000D01*
X155723388Y-72690000D01*
X155962693Y-73048145D01*
X156356413Y-73311220D01*
X156820838Y-73403600D01*
X157179162Y-73403600D01*
X157643587Y-73311220D01*
X158037307Y-73048145D01*
X158300382Y-72654425D01*
X158392762Y-72190000D01*
X158300382Y-71725575D01*
X158037307Y-71331855D01*
X157643587Y-71068780D01*
X157179162Y-70976400D01*
X156820838Y-70976400D01*
X156356413Y-71068780D01*
X155962693Y-71331855D01*
X155723388Y-71690000D01*
X153691607Y-71690000D01*
X153524856Y-71523249D01*
X153524856Y-70768000D01*
X153500451Y-70638298D01*
X153423797Y-70519175D01*
X153306837Y-70439259D01*
X153236423Y-70425000D01*
X163500000Y-70425000D01*
X163541053Y-70416834D01*
X163582913Y-70416834D01*
X163774255Y-70378774D01*
X163774257Y-70378773D01*
X163774258Y-70378773D01*
X163927461Y-70315314D01*
X164089672Y-70206927D01*
X164148299Y-70148299D01*
X164206927Y-70089672D01*
X164315313Y-69927461D01*
X164315314Y-69927459D01*
X164315315Y-69927458D01*
X164378774Y-69774255D01*
X164416834Y-69582912D01*
X164416834Y-69541053D01*
X164425000Y-69500000D01*
X164425000Y-68500000D01*
X165627144Y-68500000D01*
X165627144Y-69096816D01*
D27*
G36*
X159440000Y-102590000D02*
X153127000Y-102590000D01*
X153127000Y-95727000D01*
X159440000Y-95727000D01*
X159440000Y-102590000D01*
X159440000Y-102590000D01*
G37*
X159440000Y-102590000D02*
X153127000Y-102590000D01*
X153127000Y-95727000D01*
X159440000Y-95727000D01*
X159440000Y-102590000D01*
M02*
